G04*
G04 #@! TF.GenerationSoftware,Altium Limited,Altium Designer,19.1.8 (144)*
G04*
G04 Layer_Color=16711935*
%FSAX43Y43*%
%MOMM*%
G71*
G01*
G75*
G04:AMPARAMS|DCode=23|XSize=0.7mm|YSize=0.7mm|CornerRadius=0.17mm|HoleSize=0mm|Usage=FLASHONLY|Rotation=0.000|XOffset=0mm|YOffset=0mm|HoleType=Round|Shape=RoundedRectangle|*
%AMROUNDEDRECTD23*
21,1,0.700,0.360,0,0,0.0*
21,1,0.360,0.700,0,0,0.0*
1,1,0.340,0.180,-0.180*
1,1,0.340,-0.180,-0.180*
1,1,0.340,-0.180,0.180*
1,1,0.340,0.180,0.180*
%
%ADD23ROUNDEDRECTD23*%
%ADD27C,3.850*%
%ADD28C,3.703*%
%ADD29C,3.600*%
G04:AMPARAMS|DCode=45|XSize=1.35mm|YSize=1.45mm|CornerRadius=0.175mm|HoleSize=0mm|Usage=FLASHONLY|Rotation=90.000|XOffset=0mm|YOffset=0mm|HoleType=Round|Shape=RoundedRectangle|*
%AMROUNDEDRECTD45*
21,1,1.350,1.100,0,0,90.0*
21,1,1.000,1.450,0,0,90.0*
1,1,0.350,0.550,0.500*
1,1,0.350,0.550,-0.500*
1,1,0.350,-0.550,-0.500*
1,1,0.350,-0.550,0.500*
%
%ADD45ROUNDEDRECTD45*%
G04:AMPARAMS|DCode=46|XSize=1.1mm|YSize=0.45mm|CornerRadius=0.138mm|HoleSize=0mm|Usage=FLASHONLY|Rotation=0.000|XOffset=0mm|YOffset=0mm|HoleType=Round|Shape=RoundedRectangle|*
%AMROUNDEDRECTD46*
21,1,1.100,0.175,0,0,0.0*
21,1,0.825,0.450,0,0,0.0*
1,1,0.275,0.413,-0.088*
1,1,0.275,-0.413,-0.088*
1,1,0.275,-0.413,0.088*
1,1,0.275,0.413,0.088*
%
%ADD46ROUNDEDRECTD46*%
G04:AMPARAMS|DCode=47|XSize=1mm|YSize=0.45mm|CornerRadius=0.138mm|HoleSize=0mm|Usage=FLASHONLY|Rotation=0.000|XOffset=0mm|YOffset=0mm|HoleType=Round|Shape=RoundedRectangle|*
%AMROUNDEDRECTD47*
21,1,1.000,0.175,0,0,0.0*
21,1,0.725,0.450,0,0,0.0*
1,1,0.275,0.363,-0.088*
1,1,0.275,-0.363,-0.088*
1,1,0.275,-0.363,0.088*
1,1,0.275,0.363,0.088*
%
%ADD47ROUNDEDRECTD47*%
D23*
X0102500Y0066500D02*
D03*
X0103500D02*
D03*
X0102500Y0061500D02*
D03*
X0103500D02*
D03*
X0114500Y0066500D02*
D03*
X0115500D02*
D03*
X0114500Y0061500D02*
D03*
X0115500D02*
D03*
X0114500Y0078500D02*
D03*
X0115500D02*
D03*
X0114500Y0073500D02*
D03*
X0115500Y0073500D02*
D03*
X0127500Y0061500D02*
D03*
X0126500D02*
D03*
X0127500Y0066500D02*
D03*
X0126500D02*
D03*
D27*
X0120715Y0080400D02*
D03*
X0109285D02*
D03*
D28*
X0102500Y0057500D02*
D03*
X0127500Y0057500D02*
D03*
D29*
X0102500Y0082500D02*
D03*
X0127500D02*
D03*
D45*
X0104175Y0063100D02*
D03*
X0101825D02*
D03*
X0116175D02*
D03*
X0113825D02*
D03*
X0116175Y0075100D02*
D03*
X0113825D02*
D03*
X0128175Y0063100D02*
D03*
X0125825D02*
D03*
D46*
X0102100Y0064650D02*
D03*
X0114100Y0064650D02*
D03*
Y0076650D02*
D03*
X0126100Y0064650D02*
D03*
D47*
X0102050Y0065350D02*
D03*
X0103950D02*
D03*
Y0064650D02*
D03*
X0114050Y0065350D02*
D03*
X0115950D02*
D03*
Y0064650D02*
D03*
X0114050Y0077350D02*
D03*
X0115950D02*
D03*
Y0076650D02*
D03*
X0126050Y0065350D02*
D03*
X0127950D02*
D03*
Y0064650D02*
D03*
M02*
