G04*
G04 #@! TF.GenerationSoftware,Altium Limited,Altium Designer,19.1.8 (144)*
G04*
G04 Layer_Physical_Order=1*
G04 Layer_Color=255*
%FSAX43Y43*%
%MOMM*%
G71*
G01*
G75*
G04:AMPARAMS|DCode=32|XSize=0.76mm|YSize=6.35mm|CornerRadius=0.19mm|HoleSize=0mm|Usage=FLASHONLY|Rotation=180.000|XOffset=0mm|YOffset=0mm|HoleType=Round|Shape=RoundedRectangle|*
%AMROUNDEDRECTD32*
21,1,0.760,5.970,0,0,180.0*
21,1,0.380,6.350,0,0,180.0*
1,1,0.380,-0.190,2.985*
1,1,0.380,0.190,2.985*
1,1,0.380,0.190,-2.985*
1,1,0.380,-0.190,-2.985*
%
%ADD32ROUNDEDRECTD32*%
%ADD33C,1.000*%
G04:AMPARAMS|DCode=34|XSize=1.6mm|YSize=0.45mm|CornerRadius=0.11mm|HoleSize=0mm|Usage=FLASHONLY|Rotation=90.000|XOffset=0mm|YOffset=0mm|HoleType=Round|Shape=RoundedRectangle|*
%AMROUNDEDRECTD34*
21,1,1.600,0.230,0,0,90.0*
21,1,1.380,0.450,0,0,90.0*
1,1,0.221,0.115,0.690*
1,1,0.221,0.115,-0.690*
1,1,0.221,-0.115,-0.690*
1,1,0.221,-0.115,0.690*
%
%ADD34ROUNDEDRECTD34*%
G04:AMPARAMS|DCode=35|XSize=0.6mm|YSize=0.6mm|CornerRadius=0.12mm|HoleSize=0mm|Usage=FLASHONLY|Rotation=270.000|XOffset=0mm|YOffset=0mm|HoleType=Round|Shape=RoundedRectangle|*
%AMROUNDEDRECTD35*
21,1,0.600,0.360,0,0,270.0*
21,1,0.360,0.600,0,0,270.0*
1,1,0.240,-0.180,-0.180*
1,1,0.240,-0.180,0.180*
1,1,0.240,0.180,0.180*
1,1,0.240,0.180,-0.180*
%
%ADD35ROUNDEDRECTD35*%
G04:AMPARAMS|DCode=36|XSize=0.6mm|YSize=0.6mm|CornerRadius=0.12mm|HoleSize=0mm|Usage=FLASHONLY|Rotation=0.000|XOffset=0mm|YOffset=0mm|HoleType=Round|Shape=RoundedRectangle|*
%AMROUNDEDRECTD36*
21,1,0.600,0.360,0,0,0.0*
21,1,0.360,0.600,0,0,0.0*
1,1,0.240,0.180,-0.180*
1,1,0.240,-0.180,-0.180*
1,1,0.240,-0.180,0.180*
1,1,0.240,0.180,0.180*
%
%ADD36ROUNDEDRECTD36*%
G04:AMPARAMS|DCode=37|XSize=1.65mm|YSize=2.25mm|CornerRadius=0.041mm|HoleSize=0mm|Usage=FLASHONLY|Rotation=90.000|XOffset=0mm|YOffset=0mm|HoleType=Round|Shape=RoundedRectangle|*
%AMROUNDEDRECTD37*
21,1,1.650,2.168,0,0,90.0*
21,1,1.568,2.250,0,0,90.0*
1,1,0.083,1.084,0.784*
1,1,0.083,1.084,-0.784*
1,1,0.083,-1.084,-0.784*
1,1,0.083,-1.084,0.784*
%
%ADD37ROUNDEDRECTD37*%
G04:AMPARAMS|DCode=38|XSize=0.3mm|YSize=0.85mm|CornerRadius=0.075mm|HoleSize=0mm|Usage=FLASHONLY|Rotation=180.000|XOffset=0mm|YOffset=0mm|HoleType=Round|Shape=RoundedRectangle|*
%AMROUNDEDRECTD38*
21,1,0.300,0.700,0,0,180.0*
21,1,0.150,0.850,0,0,180.0*
1,1,0.150,-0.075,0.350*
1,1,0.150,0.075,0.350*
1,1,0.150,0.075,-0.350*
1,1,0.150,-0.075,-0.350*
%
%ADD38ROUNDEDRECTD38*%
%ADD39C,1.200*%
%ADD40C,0.300*%
%ADD41C,0.200*%
%ADD42C,2.800*%
%ADD43C,0.600*%
G36*
X0123626Y0084394D02*
X0123529Y0084297D01*
X0123392Y0084092D01*
X0123298Y0083865D01*
X0123250Y0083623D01*
Y0083377D01*
X0123298Y0083135D01*
X0123392Y0082908D01*
X0123529Y0082703D01*
X0123703Y0082529D01*
X0123908Y0082392D01*
X0124135Y0082298D01*
X0124377Y0082250D01*
X0124623D01*
X0124865Y0082298D01*
X0125002Y0082355D01*
X0125242Y0082256D01*
X0125320Y0082184D01*
X0125332Y0082069D01*
X0125458Y0081654D01*
X0125662Y0081272D01*
X0125937Y0080937D01*
X0126272Y0080662D01*
X0126654Y0080458D01*
X0127069Y0080332D01*
X0127500Y0080289D01*
X0127931Y0080332D01*
X0128346Y0080458D01*
X0128728Y0080662D01*
X0129063Y0080937D01*
X0129338Y0081272D01*
X0129394Y0081377D01*
X0129694Y0081302D01*
Y0058698D01*
X0129394Y0058623D01*
X0129338Y0058728D01*
X0129063Y0059063D01*
X0128728Y0059338D01*
X0128346Y0059542D01*
X0127931Y0059668D01*
X0127500Y0059711D01*
X0127069Y0059668D01*
X0126654Y0059542D01*
X0126272Y0059338D01*
X0125937Y0059063D01*
X0125662Y0058728D01*
X0125458Y0058346D01*
X0125332Y0057931D01*
X0125320Y0057816D01*
X0125242Y0057744D01*
X0125002Y0057645D01*
X0124865Y0057702D01*
X0124623Y0057750D01*
X0124377D01*
X0124135Y0057702D01*
X0123908Y0057608D01*
X0123703Y0057471D01*
X0123529Y0057297D01*
X0123392Y0057092D01*
X0123298Y0056865D01*
X0123250Y0056623D01*
Y0056377D01*
X0123298Y0056135D01*
X0123392Y0055908D01*
X0123529Y0055703D01*
X0123626Y0055606D01*
X0123518Y0055306D01*
X0106482D01*
X0106374Y0055606D01*
X0106471Y0055703D01*
X0106608Y0055908D01*
X0106702Y0056135D01*
X0106750Y0056377D01*
Y0056623D01*
X0106702Y0056865D01*
X0106608Y0057092D01*
X0106471Y0057297D01*
X0106297Y0057471D01*
X0106092Y0057608D01*
X0105865Y0057702D01*
X0105623Y0057750D01*
X0105377D01*
X0105135Y0057702D01*
X0104998Y0057645D01*
X0104758Y0057744D01*
X0104680Y0057816D01*
X0104668Y0057931D01*
X0104542Y0058346D01*
X0104338Y0058728D01*
X0104063Y0059063D01*
X0103728Y0059338D01*
X0103346Y0059542D01*
X0102931Y0059668D01*
X0102500Y0059711D01*
X0102069Y0059668D01*
X0101654Y0059542D01*
X0101272Y0059338D01*
X0100937Y0059063D01*
X0100662Y0058728D01*
X0100606Y0058623D01*
X0100306Y0058698D01*
Y0081302D01*
X0100606Y0081377D01*
X0100662Y0081272D01*
X0100937Y0080937D01*
X0101272Y0080662D01*
X0101654Y0080458D01*
X0102069Y0080332D01*
X0102500Y0080289D01*
X0102931Y0080332D01*
X0103346Y0080458D01*
X0103728Y0080662D01*
X0104063Y0080937D01*
X0104338Y0081272D01*
X0104542Y0081654D01*
X0104668Y0082069D01*
X0104680Y0082184D01*
X0104758Y0082256D01*
X0104998Y0082355D01*
X0105135Y0082298D01*
X0105377Y0082250D01*
X0105623D01*
X0105865Y0082298D01*
X0106092Y0082392D01*
X0106297Y0082529D01*
X0106471Y0082703D01*
X0106608Y0082908D01*
X0106702Y0083135D01*
X0106750Y0083377D01*
Y0083623D01*
X0106702Y0083865D01*
X0106608Y0084092D01*
X0106471Y0084297D01*
X0106374Y0084394D01*
X0106482Y0084694D01*
X0123518D01*
X0123626Y0084394D01*
D02*
G37*
%LPC*%
G36*
X0120715Y0082837D02*
X0120240Y0082790D01*
X0119783Y0082651D01*
X0119361Y0082426D01*
X0118992Y0082123D01*
X0118689Y0081754D01*
X0118464Y0081332D01*
X0118325Y0080875D01*
X0118278Y0080400D01*
X0118325Y0079925D01*
X0118464Y0079467D01*
X0118689Y0079046D01*
X0118992Y0078677D01*
X0119361Y0078374D01*
X0119783Y0078149D01*
X0120240Y0078010D01*
X0120715Y0077963D01*
X0121190Y0078010D01*
X0121647Y0078149D01*
X0122069Y0078374D01*
X0122438Y0078677D01*
X0122741Y0079046D01*
X0122966Y0079467D01*
X0123105Y0079925D01*
X0123152Y0080400D01*
X0123105Y0080875D01*
X0122966Y0081332D01*
X0122741Y0081754D01*
X0122438Y0082123D01*
X0122069Y0082426D01*
X0121647Y0082651D01*
X0121190Y0082790D01*
X0120715Y0082837D01*
D02*
G37*
G36*
X0109285D02*
X0108810Y0082790D01*
X0108353Y0082651D01*
X0107931Y0082426D01*
X0107562Y0082123D01*
X0107259Y0081754D01*
X0107034Y0081332D01*
X0106895Y0080875D01*
X0106848Y0080400D01*
X0106895Y0079925D01*
X0107034Y0079467D01*
X0107259Y0079046D01*
X0107562Y0078677D01*
X0107931Y0078374D01*
X0108353Y0078149D01*
X0108810Y0078010D01*
X0109285Y0077963D01*
X0109760Y0078010D01*
X0110217Y0078149D01*
X0110639Y0078374D01*
X0111008Y0078677D01*
X0111311Y0079046D01*
X0111536Y0079467D01*
X0111675Y0079925D01*
X0111722Y0080400D01*
X0111675Y0080875D01*
X0111536Y0081332D01*
X0111311Y0081754D01*
X0111008Y0082123D01*
X0110639Y0082426D01*
X0110217Y0082651D01*
X0109760Y0082790D01*
X0109285Y0082837D01*
D02*
G37*
G36*
X0103800Y0079807D02*
X0103591Y0079779D01*
X0103397Y0079699D01*
X0103229Y0079571D01*
X0103101Y0079403D01*
X0103021Y0079209D01*
X0102993Y0079000D01*
X0103021Y0078791D01*
X0103101Y0078597D01*
X0103229Y0078429D01*
X0103397Y0078301D01*
X0103591Y0078221D01*
X0103800Y0078193D01*
X0104009Y0078221D01*
X0104203Y0078301D01*
X0104371Y0078429D01*
X0104499Y0078597D01*
X0104518Y0078643D01*
X0105252D01*
X0106261Y0077634D01*
X0106146Y0077357D01*
X0104518D01*
X0104499Y0077403D01*
X0104371Y0077571D01*
X0104203Y0077699D01*
X0104009Y0077779D01*
X0103800Y0077807D01*
X0103591Y0077779D01*
X0103397Y0077699D01*
X0103229Y0077571D01*
X0103101Y0077403D01*
X0103021Y0077209D01*
X0102993Y0077000D01*
X0103021Y0076791D01*
X0103101Y0076597D01*
X0103229Y0076429D01*
X0103397Y0076301D01*
X0103591Y0076221D01*
X0103800Y0076193D01*
X0104009Y0076221D01*
X0104203Y0076301D01*
X0104371Y0076429D01*
X0104499Y0076597D01*
X0104518Y0076643D01*
X0106545D01*
X0109041Y0074148D01*
X0109156Y0074070D01*
X0109293Y0074043D01*
X0110704D01*
X0110905Y0073813D01*
X0110745Y0073609D01*
X0110705D01*
Y0070175D01*
X0110555D01*
Y0070025D01*
X0109916D01*
Y0067190D01*
X0109709Y0066895D01*
X0109694Y0066887D01*
X0109419Y0066866D01*
X0108853Y0066730D01*
X0108315Y0066507D01*
X0108181Y0066425D01*
X0107910Y0066600D01*
X0107871Y0066795D01*
X0107760Y0066960D01*
X0107595Y0067071D01*
X0107400Y0067110D01*
X0107205Y0067071D01*
X0107039Y0066960D01*
X0107037Y0066957D01*
X0105752D01*
X0105616Y0066930D01*
X0105500Y0066852D01*
X0104648Y0066000D01*
X0104570Y0065884D01*
X0104430Y0065839D01*
X0104325Y0065860D01*
Y0064810D01*
X0104025D01*
Y0065921D01*
X0103882Y0066137D01*
Y0066196D01*
X0105179Y0067493D01*
X0108359D01*
X0108496Y0067520D01*
X0108612Y0067598D01*
X0109152Y0068138D01*
X0109229Y0068254D01*
X0109257Y0068390D01*
Y0068432D01*
X0109260Y0068435D01*
X0109371Y0068600D01*
X0109410Y0068795D01*
X0109371Y0068990D01*
X0109260Y0069156D01*
X0109095Y0069266D01*
X0108900Y0069305D01*
X0108705Y0069266D01*
X0108539Y0069156D01*
X0108318Y0068995D01*
X0108125Y0069003D01*
X0108090Y0069010D01*
X0107895Y0068971D01*
X0107730Y0068860D01*
X0107727Y0068857D01*
X0104974D01*
X0104837Y0068830D01*
X0104721Y0068752D01*
X0102882Y0066913D01*
X0102582Y0067037D01*
Y0067375D01*
X0102555Y0067512D01*
X0102477Y0067627D01*
X0102291Y0067814D01*
X0102314Y0067933D01*
X0102276Y0068128D01*
X0102165Y0068294D01*
X0102000Y0068404D01*
X0101805Y0068443D01*
X0101610Y0068404D01*
X0101444Y0068294D01*
X0101334Y0068128D01*
X0101331Y0068116D01*
X0101164Y0067868D01*
X0100969Y0067829D01*
X0100804Y0067719D01*
X0100693Y0067554D01*
X0100654Y0067358D01*
X0100693Y0067163D01*
X0100804Y0066998D01*
X0100969Y0066887D01*
X0101164Y0066849D01*
X0101218Y0066555D01*
Y0065696D01*
X0101168Y0065621D01*
X0101144Y0065500D01*
Y0064120D01*
X0101168Y0063999D01*
X0101218Y0063924D01*
Y0063406D01*
X0101095Y0063381D01*
X0100989Y0063311D01*
X0100919Y0063205D01*
X0100894Y0063080D01*
Y0062720D01*
X0100919Y0062595D01*
X0100989Y0062489D01*
Y0062311D01*
X0100919Y0062205D01*
X0100894Y0062080D01*
Y0061720D01*
X0100919Y0061595D01*
X0100989Y0061489D01*
X0101093Y0061420D01*
Y0060891D01*
X0101029Y0060795D01*
X0100990Y0060600D01*
X0101029Y0060405D01*
X0101140Y0060240D01*
X0101305Y0060129D01*
X0101500Y0060090D01*
X0101695Y0060129D01*
X0101860Y0060240D01*
X0101971Y0060405D01*
X0102010Y0060600D01*
X0101971Y0060795D01*
X0101861Y0060959D01*
X0101861Y0060969D01*
X0101885Y0061211D01*
X0102120Y0061394D01*
X0102480D01*
X0102605Y0061419D01*
X0102711Y0061489D01*
X0102789D01*
X0102895Y0061419D01*
X0103020Y0061394D01*
X0103380D01*
X0103505Y0061419D01*
X0103611Y0061489D01*
X0103689D01*
X0103795Y0061419D01*
X0103920Y0061394D01*
X0104084D01*
X0104098Y0061373D01*
X0104723Y0060748D01*
X0104839Y0060670D01*
X0104975Y0060643D01*
X0105852D01*
X0107523Y0058973D01*
X0107638Y0058895D01*
X0107775Y0058868D01*
X0114025D01*
X0114162Y0058895D01*
X0114277Y0058973D01*
X0115000Y0059695D01*
X0116548Y0058148D01*
X0116663Y0058070D01*
X0116800Y0058043D01*
X0122200D01*
X0122337Y0058070D01*
X0122452Y0058148D01*
X0126896Y0062591D01*
X0126900Y0062590D01*
X0127095Y0062629D01*
X0127260Y0062740D01*
X0127371Y0062905D01*
X0127410Y0063100D01*
X0127371Y0063295D01*
X0127260Y0063460D01*
X0127095Y0063571D01*
X0126900Y0063610D01*
X0126705Y0063571D01*
X0126540Y0063460D01*
X0126429Y0063295D01*
X0126390Y0063100D01*
X0126391Y0063096D01*
X0122052Y0058757D01*
X0116948D01*
X0115357Y0060348D01*
Y0062448D01*
X0115657Y0062584D01*
X0115676Y0062571D01*
X0115820Y0062543D01*
X0115850D01*
Y0063100D01*
X0116150D01*
Y0062543D01*
X0116180D01*
X0116324Y0062571D01*
X0116348Y0062562D01*
X0116470Y0062053D01*
X0116693Y0061515D01*
X0116997Y0061018D01*
X0117376Y0060576D01*
X0117818Y0060197D01*
X0118315Y0059893D01*
X0118853Y0059670D01*
X0119419Y0059534D01*
X0120000Y0059489D01*
X0120581Y0059534D01*
X0121147Y0059670D01*
X0121685Y0059893D01*
X0122182Y0060197D01*
X0122624Y0060576D01*
X0123003Y0061018D01*
X0123307Y0061515D01*
X0123530Y0062053D01*
X0123666Y0062619D01*
X0123711Y0063200D01*
X0123666Y0063781D01*
X0123530Y0064347D01*
X0123307Y0064885D01*
X0123003Y0065382D01*
X0122624Y0065824D01*
X0122182Y0066203D01*
X0121685Y0066507D01*
X0121147Y0066730D01*
X0120581Y0066866D01*
X0120256Y0066891D01*
X0120229Y0066907D01*
X0120033Y0067190D01*
Y0073160D01*
X0120002Y0073312D01*
X0119916Y0073441D01*
X0119913Y0073443D01*
X0120004Y0073743D01*
X0122252D01*
X0123040Y0072955D01*
X0123021Y0072909D01*
X0122993Y0072700D01*
X0123021Y0072491D01*
X0123101Y0072297D01*
X0123229Y0072129D01*
X0123397Y0072001D01*
X0123591Y0071921D01*
X0123800Y0071893D01*
X0124009Y0071921D01*
X0124203Y0072001D01*
X0124371Y0072129D01*
X0124499Y0072297D01*
X0124579Y0072491D01*
X0124607Y0072700D01*
X0124579Y0072909D01*
X0124499Y0073103D01*
X0124371Y0073271D01*
X0124203Y0073399D01*
X0124009Y0073479D01*
X0123800Y0073507D01*
X0123591Y0073479D01*
X0123545Y0073460D01*
X0122652Y0074352D01*
X0122537Y0074430D01*
X0122400Y0074457D01*
X0119700D01*
X0119563Y0074430D01*
X0119448Y0074352D01*
X0119193Y0074097D01*
X0119115Y0073982D01*
X0119088Y0073845D01*
X0118797Y0073866D01*
X0118771Y0073995D01*
X0118660Y0074160D01*
X0118629Y0074181D01*
X0118564Y0074540D01*
X0119817Y0075793D01*
X0124123D01*
X0124173Y0075760D01*
X0124345Y0075493D01*
X0124343Y0075480D01*
Y0075450D01*
X0124900D01*
Y0075150D01*
X0124343D01*
Y0075120D01*
X0124371Y0074976D01*
X0124453Y0074853D01*
X0124453Y0074672D01*
X0124371Y0074549D01*
X0124343Y0074405D01*
Y0074375D01*
X0124900D01*
Y0074225D01*
X0125050D01*
Y0073668D01*
X0125080D01*
X0125224Y0073696D01*
X0125243Y0073709D01*
X0125543Y0073575D01*
X0125570Y0073438D01*
X0125648Y0073323D01*
X0125843Y0073127D01*
Y0073000D01*
X0125845Y0072993D01*
Y0072650D01*
X0125826Y0072623D01*
X0125753Y0072608D01*
X0125656Y0072544D01*
X0125592Y0072447D01*
X0125569Y0072334D01*
Y0071700D01*
X0126950D01*
X0128331D01*
Y0072334D01*
X0128308Y0072447D01*
X0128244Y0072544D01*
X0128147Y0072608D01*
X0128132Y0072611D01*
X0128106Y0072650D01*
Y0072850D01*
X0127700D01*
Y0073150D01*
X0128106D01*
Y0073350D01*
X0128081Y0073477D01*
X0128009Y0073584D01*
X0127902Y0073656D01*
X0127775Y0073681D01*
X0127625D01*
X0127557Y0073737D01*
Y0076160D01*
X0127580Y0076194D01*
X0127607Y0076331D01*
Y0077171D01*
X0127646Y0077230D01*
X0127685Y0077425D01*
X0127646Y0077620D01*
X0127535Y0077785D01*
X0127370Y0077896D01*
X0127175Y0077935D01*
X0126980Y0077896D01*
X0126815Y0077785D01*
X0126704Y0077620D01*
X0126665Y0077425D01*
X0126670Y0077402D01*
X0126616Y0077178D01*
X0126451Y0077080D01*
X0126405Y0077071D01*
X0126240Y0076960D01*
X0126129Y0076795D01*
X0126090Y0076600D01*
X0126129Y0076405D01*
X0126240Y0076240D01*
X0126219Y0075999D01*
X0125934Y0075870D01*
X0125402Y0076402D01*
X0125287Y0076480D01*
X0125150Y0076507D01*
X0119817D01*
X0118236Y0078088D01*
X0118239Y0078105D01*
X0118200Y0078300D01*
X0118089Y0078465D01*
X0117924Y0078576D01*
X0117729Y0078615D01*
X0117534Y0078576D01*
X0117369Y0078465D01*
X0117258Y0078300D01*
X0117219Y0078105D01*
X0117258Y0077910D01*
X0117369Y0077744D01*
X0117534Y0077634D01*
X0117662Y0077608D01*
X0117816Y0077384D01*
X0117754Y0077070D01*
X0117739Y0077060D01*
X0117629Y0076895D01*
X0117618Y0076842D01*
X0114334Y0073558D01*
X0114175D01*
X0114023Y0073527D01*
X0113898Y0073444D01*
X0113893Y0073441D01*
X0113720D01*
X0113452Y0073605D01*
X0113425Y0073742D01*
X0113347Y0073857D01*
X0112052Y0075152D01*
X0111937Y0075230D01*
X0111800Y0075257D01*
X0109648D01*
X0105652Y0079252D01*
X0105537Y0079330D01*
X0105400Y0079357D01*
X0104518D01*
X0104499Y0079403D01*
X0104371Y0079571D01*
X0104203Y0079699D01*
X0104009Y0079779D01*
X0103800Y0079807D01*
D02*
G37*
G36*
X0111900Y0077410D02*
X0111705Y0077371D01*
X0111540Y0077260D01*
X0111429Y0077095D01*
X0111390Y0076900D01*
X0111419Y0076757D01*
X0111316Y0076562D01*
X0111234Y0076457D01*
X0110463D01*
X0110460Y0076460D01*
X0110295Y0076571D01*
X0110100Y0076610D01*
X0109905Y0076571D01*
X0109740Y0076460D01*
X0109629Y0076295D01*
X0109590Y0076100D01*
X0109629Y0075905D01*
X0109740Y0075740D01*
X0109905Y0075629D01*
X0110100Y0075590D01*
X0110295Y0075629D01*
X0110460Y0075740D01*
X0110463Y0075743D01*
X0114637D01*
X0114640Y0075740D01*
X0114805Y0075629D01*
X0115000Y0075590D01*
X0115195Y0075629D01*
X0115360Y0075740D01*
X0115471Y0075905D01*
X0115510Y0076100D01*
X0115471Y0076295D01*
X0115361Y0076460D01*
X0115480Y0076540D01*
X0115590Y0076705D01*
X0115629Y0076900D01*
X0115590Y0077095D01*
X0115480Y0077260D01*
X0115314Y0077371D01*
X0115119Y0077410D01*
X0114924Y0077371D01*
X0114759Y0077260D01*
X0114756Y0077257D01*
X0112263D01*
X0112260Y0077260D01*
X0112095Y0077371D01*
X0111900Y0077410D01*
D02*
G37*
G36*
X0106330Y0074831D02*
X0105970D01*
X0105845Y0074806D01*
X0105739Y0074736D01*
X0105511D01*
X0105405Y0074806D01*
X0105280Y0074831D01*
X0104920D01*
X0104795Y0074806D01*
X0104689Y0074736D01*
X0104461Y0074736D01*
X0104355Y0074806D01*
X0104230Y0074831D01*
X0103870D01*
X0103745Y0074806D01*
X0103639Y0074736D01*
X0103603Y0074682D01*
X0102872D01*
X0102836Y0074736D01*
X0102730Y0074806D01*
X0102605Y0074831D01*
X0102245D01*
X0102120Y0074806D01*
X0102014Y0074736D01*
X0101786D01*
X0101680Y0074806D01*
X0101555Y0074831D01*
X0101195D01*
X0101070Y0074806D01*
X0100964Y0074736D01*
X0100894Y0074630D01*
X0100869Y0074505D01*
Y0074145D01*
X0100894Y0074020D01*
X0100964Y0073914D01*
Y0073736D01*
X0100894Y0073630D01*
X0100869Y0073505D01*
Y0073145D01*
X0100894Y0073020D01*
X0100964Y0072914D01*
X0101018Y0072878D01*
Y0072525D01*
X0101045Y0072388D01*
X0101123Y0072273D01*
X0101405Y0071991D01*
X0101320Y0071671D01*
X0101309Y0071662D01*
X0101201Y0071589D01*
X0101121Y0071470D01*
X0101093Y0071330D01*
Y0070790D01*
X0101575D01*
Y0070640D01*
X0101725D01*
Y0069563D01*
X0101855Y0069487D01*
X0101883Y0069351D01*
X0101960Y0069235D01*
X0102091Y0069104D01*
X0102090Y0069100D01*
X0102129Y0068905D01*
X0102239Y0068739D01*
X0102359Y0068659D01*
X0102405Y0068629D01*
X0102405Y0068629D01*
X0102600Y0068590D01*
X0102590Y0068400D01*
X0102629Y0068205D01*
X0102739Y0068039D01*
X0102905Y0067929D01*
X0103100Y0067890D01*
X0103295Y0067929D01*
X0103460Y0068039D01*
X0103571Y0068205D01*
X0103610Y0068400D01*
X0103583Y0068532D01*
X0103607Y0068650D01*
Y0069369D01*
X0103670Y0069488D01*
X0103939Y0069658D01*
X0104060Y0069634D01*
X0104290D01*
X0104411Y0069658D01*
X0104500Y0069718D01*
X0104589Y0069658D01*
X0104710Y0069634D01*
X0104940D01*
X0105061Y0069658D01*
X0105105Y0069688D01*
X0105220Y0069611D01*
X0105325Y0069590D01*
Y0070640D01*
X0105625D01*
Y0069590D01*
X0105730Y0069611D01*
X0105800Y0069657D01*
X0105870Y0069611D01*
X0105975Y0069590D01*
Y0070640D01*
Y0071690D01*
X0105870Y0071669D01*
X0105652Y0071754D01*
X0105579Y0072061D01*
X0105595Y0072078D01*
X0105815Y0072265D01*
X0105980Y0072154D01*
X0106175Y0072115D01*
X0106370Y0072154D01*
X0106535Y0072265D01*
X0106646Y0072430D01*
X0106685Y0072625D01*
X0106646Y0072820D01*
X0106572Y0072931D01*
X0106631Y0073020D01*
X0106656Y0073145D01*
Y0073505D01*
X0106631Y0073630D01*
X0106612Y0073659D01*
X0106838Y0073845D01*
X0106854Y0073841D01*
X0107148Y0073548D01*
X0107263Y0073470D01*
X0107327Y0073458D01*
X0107340Y0073440D01*
X0107505Y0073329D01*
X0107700Y0073290D01*
X0107895Y0073329D01*
X0108060Y0073440D01*
X0108171Y0073605D01*
X0108210Y0073800D01*
X0108171Y0073995D01*
X0108060Y0074160D01*
X0107895Y0074271D01*
X0107700Y0074310D01*
X0107505Y0074271D01*
X0107462Y0074242D01*
X0107127Y0074577D01*
X0107012Y0074655D01*
X0106875Y0074682D01*
X0106597D01*
X0106561Y0074736D01*
X0106455Y0074806D01*
X0106330Y0074831D01*
D02*
G37*
G36*
X0124750Y0074075D02*
X0124343D01*
Y0074045D01*
X0124371Y0073901D01*
X0124453Y0073778D01*
X0124576Y0073696D01*
X0124720Y0073668D01*
X0124750D01*
Y0074075D01*
D02*
G37*
G36*
X0106275Y0071690D02*
Y0070790D01*
X0106607D01*
Y0071330D01*
X0106579Y0071470D01*
X0106499Y0071589D01*
X0106380Y0071669D01*
X0106275Y0071690D01*
D02*
G37*
G36*
X0110405Y0073609D02*
X0110365D01*
X0110193Y0073574D01*
X0110048Y0073477D01*
X0109951Y0073332D01*
X0109916Y0073160D01*
Y0070325D01*
X0110405D01*
Y0073609D01*
D02*
G37*
G36*
X0101425Y0070490D02*
X0101093D01*
Y0069950D01*
X0101121Y0069810D01*
X0101201Y0069691D01*
X0101320Y0069611D01*
X0101425Y0069590D01*
Y0070490D01*
D02*
G37*
G36*
X0106607Y0070490D02*
X0106275D01*
Y0069590D01*
X0106380Y0069611D01*
X0106499Y0069691D01*
X0106579Y0069810D01*
X0106607Y0069950D01*
Y0070490D01*
D02*
G37*
G36*
X0121500Y0072410D02*
X0121305Y0072371D01*
X0121140Y0072260D01*
X0121029Y0072095D01*
X0120990Y0071900D01*
X0121029Y0071705D01*
X0121140Y0071540D01*
X0121305Y0071429D01*
X0121500Y0071390D01*
X0121504Y0071391D01*
X0123623Y0069273D01*
X0123738Y0069195D01*
X0123875Y0069168D01*
X0125202D01*
X0125347Y0068868D01*
X0125300Y0068810D01*
X0125105Y0068771D01*
X0124940Y0068660D01*
X0124829Y0068495D01*
X0124790Y0068300D01*
X0124561Y0068007D01*
X0123813D01*
X0123760Y0068085D01*
X0123595Y0068196D01*
X0123400Y0068235D01*
X0123205Y0068196D01*
X0123040Y0068085D01*
X0122929Y0067920D01*
X0122890Y0067725D01*
X0122700Y0067710D01*
X0122505Y0067671D01*
X0122340Y0067560D01*
X0122229Y0067395D01*
X0122190Y0067200D01*
X0122229Y0067005D01*
X0122340Y0066840D01*
X0122505Y0066729D01*
X0122700Y0066690D01*
X0122823Y0066715D01*
X0122931Y0066693D01*
X0125676D01*
X0125813Y0066720D01*
X0125929Y0066798D01*
X0127952Y0068821D01*
X0128030Y0068937D01*
X0128057Y0069074D01*
Y0070100D01*
X0128055Y0070107D01*
Y0070450D01*
X0128074Y0070477D01*
X0128147Y0070492D01*
X0128244Y0070556D01*
X0128308Y0070653D01*
X0128331Y0070766D01*
Y0071400D01*
X0126950D01*
X0125569D01*
Y0070766D01*
X0125592Y0070653D01*
X0125656Y0070556D01*
X0125753Y0070492D01*
X0125826Y0070477D01*
X0125845Y0070450D01*
Y0070107D01*
X0125843Y0070100D01*
Y0069882D01*
X0124023D01*
X0122009Y0071896D01*
X0122010Y0071900D01*
X0121971Y0072095D01*
X0121860Y0072260D01*
X0121695Y0072371D01*
X0121500Y0072410D01*
D02*
G37*
G36*
X0128200Y0068310D02*
X0128005Y0068271D01*
X0127840Y0068160D01*
X0127729Y0067995D01*
X0127690Y0067800D01*
X0127729Y0067605D01*
X0127840Y0067440D01*
X0127843Y0067437D01*
Y0066348D01*
X0127004Y0065509D01*
X0127000Y0065510D01*
X0126805Y0065471D01*
X0126640Y0065360D01*
X0126529Y0065195D01*
X0126490Y0065000D01*
X0126529Y0064805D01*
X0126640Y0064640D01*
X0126805Y0064529D01*
X0127000Y0064490D01*
X0127195Y0064529D01*
X0127360Y0064640D01*
X0127471Y0064805D01*
X0127510Y0065000D01*
X0127509Y0065004D01*
X0128452Y0065948D01*
X0128530Y0066063D01*
X0128557Y0066200D01*
Y0067437D01*
X0128560Y0067440D01*
X0128671Y0067605D01*
X0128710Y0067800D01*
X0128671Y0067995D01*
X0128560Y0068160D01*
X0128395Y0068271D01*
X0128200Y0068310D01*
D02*
G37*
%LPD*%
D32*
X0115635Y0070175D02*
D03*
X0114365D02*
D03*
X0116905D02*
D03*
X0119445D02*
D03*
X0110555D02*
D03*
X0113095D02*
D03*
X0111825D02*
D03*
X0118175D02*
D03*
D33*
X0105500Y0056500D02*
D03*
X0124500D02*
D03*
X0105500Y0083500D02*
D03*
X0124500D02*
D03*
X0108300Y0071900D02*
D03*
X0109100Y0077100D02*
D03*
X0117400Y0059300D02*
D03*
X0112500Y0078500D02*
D03*
X0105600Y0080800D02*
D03*
X0107200Y0069400D02*
D03*
X0122600Y0075100D02*
D03*
X0123200Y0077600D02*
D03*
X0105400Y0059000D02*
D03*
X0110800Y0057100D02*
D03*
X0128800Y0060900D02*
D03*
X0122200Y0057000D02*
D03*
X0122100Y0068500D02*
D03*
X0101800Y0077900D02*
D03*
X0118800Y0083800D02*
D03*
X0111700D02*
D03*
D34*
X0106125Y0064810D02*
D03*
X0105475D02*
D03*
X0101575D02*
D03*
X0102225D02*
D03*
Y0070640D02*
D03*
X0101575Y0070640D02*
D03*
X0105475D02*
D03*
X0106125Y0070640D02*
D03*
X0104825D02*
D03*
X0104175Y0070640D02*
D03*
X0103525Y0070640D02*
D03*
X0102875Y0070640D02*
D03*
X0102875Y0064810D02*
D03*
X0103525D02*
D03*
X0104175D02*
D03*
X0104825D02*
D03*
D35*
X0102300Y0061900D02*
D03*
Y0062900D02*
D03*
X0102425Y0074325D02*
D03*
Y0073325D02*
D03*
X0106150Y0074325D02*
D03*
Y0073325D02*
D03*
X0101400Y0061900D02*
D03*
Y0062900D02*
D03*
X0104100Y0061900D02*
D03*
Y0062900D02*
D03*
X0103200Y0061900D02*
D03*
Y0062900D02*
D03*
X0101375Y0073325D02*
D03*
Y0074325D02*
D03*
X0104050Y0074325D02*
D03*
Y0073325D02*
D03*
X0105100Y0074325D02*
D03*
Y0073325D02*
D03*
X0116000Y0064100D02*
D03*
Y0063100D02*
D03*
X0115100Y0064100D02*
D03*
Y0065100D02*
D03*
X0114000D02*
D03*
Y0064100D02*
D03*
D36*
X0105000Y0062900D02*
D03*
X0106000D02*
D03*
X0106000Y0062000D02*
D03*
X0105000Y0062000D02*
D03*
X0125900Y0074225D02*
D03*
X0124900D02*
D03*
X0125900Y0075300D02*
D03*
X0124900D02*
D03*
D37*
X0126950Y0071550D02*
D03*
D38*
X0127700Y0073000D02*
D03*
X0127200D02*
D03*
X0126700D02*
D03*
X0126200D02*
D03*
X0127700Y0070100D02*
D03*
X0127200D02*
D03*
X0126700D02*
D03*
X0126200D02*
D03*
D39*
X0123800Y0072700D02*
D03*
X0103800Y0079000D02*
D03*
Y0077000D02*
D03*
D40*
X0102425Y0074325D02*
X0105100D01*
X0106062Y0062062D02*
Y0064747D01*
X0114025Y0059225D02*
X0115000Y0060200D01*
X0107775Y0059225D02*
X0114025D01*
X0106000Y0061000D02*
X0107775Y0059225D01*
X0125676Y0067050D02*
X0127700Y0069074D01*
X0122931Y0067050D02*
X0125676D01*
X0122781Y0067200D02*
X0122931Y0067050D01*
X0123475Y0067650D02*
X0125569D01*
X0123400Y0067725D02*
X0123475Y0067650D01*
X0101805Y0067795D02*
Y0067933D01*
Y0067795D02*
X0102225Y0067375D01*
X0101575Y0064810D02*
Y0066948D01*
X0101164Y0067358D02*
X0101575Y0066948D01*
X0102225Y0064810D02*
Y0067375D01*
X0122400Y0074100D02*
X0123800Y0072700D01*
X0119700Y0074100D02*
X0122400D01*
X0109293Y0074400D02*
X0110995D01*
X0106693Y0077000D02*
X0109293Y0074400D01*
X0103800Y0077000D02*
X0106693D01*
X0108359Y0067850D02*
X0108900Y0068390D01*
Y0068795D01*
X0117729Y0078090D02*
X0119669Y0076150D01*
X0117729Y0078090D02*
Y0078105D01*
X0119669Y0076150D02*
X0125150D01*
X0125900Y0075400D01*
X0115635Y0073035D02*
X0118600Y0076000D01*
X0115635Y0070175D02*
Y0073035D01*
X0116905Y0070175D02*
Y0073386D01*
X0119669Y0076150D01*
X0114365Y0073084D02*
X0117981Y0076700D01*
X0118100D01*
X0105637Y0072625D02*
X0106175D01*
X0104825Y0071813D02*
X0105637Y0072625D01*
X0104825Y0070640D02*
Y0071813D01*
X0106150Y0072650D02*
Y0073325D01*
Y0072650D02*
X0106175Y0072625D01*
X0111825Y0070175D02*
Y0073570D01*
X0110995Y0074400D02*
X0111825Y0073570D01*
X0103100Y0068519D02*
X0103110Y0068510D01*
X0103100Y0068500D02*
Y0068519D01*
Y0068500D02*
X0103110Y0068510D01*
X0103250Y0068650D02*
Y0069369D01*
X0103110Y0068510D02*
X0103250Y0068650D01*
X0102950Y0069669D02*
X0103250Y0069369D01*
X0103100Y0068519D02*
X0103100Y0068519D01*
X0103100Y0068400D02*
Y0068500D01*
X0102213Y0069487D02*
X0102600Y0069100D01*
X0102950Y0069669D02*
Y0070050D01*
X0102213Y0069487D02*
Y0070628D01*
X0102943Y0070050D02*
X0102950D01*
X0102943D02*
Y0070572D01*
X0113095Y0070175D02*
Y0073605D01*
X0111800Y0074900D02*
X0113095Y0073605D01*
X0109500Y0074900D02*
X0111800D01*
X0105400Y0079000D02*
X0109500Y0074900D01*
X0111900Y0076900D02*
X0115119D01*
X0110100Y0076100D02*
X0115000D01*
X0114365Y0070175D02*
Y0073084D01*
X0105000Y0062000D02*
Y0062900D01*
X0104850Y0063050D02*
X0105000Y0062900D01*
X0104850Y0063050D02*
Y0063330D01*
X0104250Y0063930D02*
X0104850Y0063330D01*
X0104250Y0063930D02*
Y0064735D01*
X0104175Y0064810D02*
X0104250Y0064735D01*
X0127000Y0065000D02*
X0128200Y0066200D01*
Y0067800D01*
X0105031Y0067850D02*
X0108359D01*
X0104974Y0068500D02*
X0108090D01*
X0106875Y0074325D02*
X0107400Y0073800D01*
X0107700D01*
X0125569Y0067650D02*
X0127200Y0069281D01*
X0122700Y0067200D02*
X0122781D01*
X0127700Y0069074D02*
Y0070100D01*
X0116850Y0066300D02*
Y0070120D01*
X0116388Y0065862D02*
X0116850Y0066300D01*
X0116000Y0065475D02*
X0116388Y0065862D01*
X0116000Y0064100D02*
Y0065475D01*
X0115100Y0064100D02*
X0116000D01*
X0116000Y0064100D01*
X0105752Y0066600D02*
X0107400D01*
X0104900Y0065747D02*
X0105752Y0066600D01*
X0123875Y0069525D02*
X0126018D01*
X0121500Y0071900D02*
X0123875Y0069525D01*
X0103525Y0066344D02*
X0105031Y0067850D01*
X0103525Y0064810D02*
Y0066344D01*
X0102875Y0070640D02*
X0102943Y0070572D01*
X0102875Y0066401D02*
X0104974Y0068500D01*
X0104400Y0066219D02*
Y0066300D01*
X0104900Y0064885D02*
Y0065747D01*
X0105475Y0065615D02*
X0105820Y0065960D01*
X0105475Y0064810D02*
Y0065615D01*
X0103800Y0079000D02*
X0105400D01*
X0106150Y0074325D02*
X0106875D01*
X0119445Y0073845D02*
X0119700Y0074100D01*
X0119445Y0070175D02*
Y0073845D01*
X0101450Y0060650D02*
X0101500Y0060600D01*
X0101450Y0060650D02*
Y0061850D01*
X0101400Y0061900D02*
X0101450Y0061850D01*
X0104975Y0061000D02*
X0106000D01*
X0104350Y0061625D02*
X0104975Y0061000D01*
X0104350Y0061625D02*
Y0061650D01*
X0104100Y0061900D02*
X0104350Y0061650D01*
X0106000Y0061000D02*
Y0062000D01*
X0115000Y0060200D02*
X0116800Y0058400D01*
X0115000Y0060200D02*
Y0063100D01*
X0115050Y0063150D01*
X0116800Y0058400D02*
X0122200D01*
X0126900Y0063100D01*
X0115050Y0063150D02*
Y0064050D01*
X0115100Y0064100D01*
X0104175Y0065994D02*
X0104400Y0066219D01*
X0104175Y0064810D02*
Y0065994D01*
X0106000Y0062000D02*
X0106062Y0062062D01*
Y0064747D02*
X0106125Y0064810D01*
X0126700Y0073000D02*
Y0076500D01*
X0126600Y0076600D02*
X0126700Y0076500D01*
X0127175Y0077425D02*
X0127250Y0077350D01*
Y0076331D02*
Y0077350D01*
X0127200Y0076281D02*
X0127250Y0076331D01*
X0127200Y0073000D02*
Y0076281D01*
X0125900Y0075300D02*
Y0075400D01*
X0112800Y0066500D02*
X0112857Y0066443D01*
Y0066023D02*
Y0066443D01*
Y0066023D02*
X0113431Y0065450D01*
X0113650D01*
X0114000Y0065100D01*
X0114600Y0066100D02*
X0115000Y0065700D01*
Y0065200D02*
Y0065700D01*
Y0065200D02*
X0115100Y0065100D01*
X0115635Y0066335D02*
Y0070175D01*
X0115000Y0065700D02*
X0115635Y0066335D01*
X0114000Y0064100D02*
X0115100D01*
X0113700Y0066100D02*
X0114600D01*
X0106430Y0065960D02*
X0106433Y0065957D01*
X0105820Y0065960D02*
X0106430D01*
X0106433Y0065957D02*
X0106843D01*
X0106900Y0065900D01*
X0104825Y0064810D02*
X0104900Y0064885D01*
X0126018Y0069525D02*
X0126200Y0069707D01*
Y0070100D01*
X0118175Y0073675D02*
X0118300Y0073800D01*
X0118175Y0070175D02*
Y0073675D01*
X0104300Y0072400D02*
X0104357Y0072457D01*
X0104242Y0072342D02*
X0104300Y0072400D01*
X0103400Y0072500D02*
X0103457Y0072443D01*
Y0070708D02*
Y0072443D01*
Y0070708D02*
X0103525Y0070640D01*
X0104357Y0072457D02*
Y0072582D01*
X0105100Y0073325D01*
X0104242Y0070707D02*
Y0072342D01*
X0104175Y0070640D02*
X0104242Y0070707D01*
X0103400Y0072500D02*
Y0072675D01*
X0104050Y0073325D01*
X0103200Y0061900D02*
X0104100D01*
X0102300D02*
X0103200D01*
X0101400D02*
X0102300D01*
X0102875Y0064810D02*
Y0066401D01*
X0102213Y0070628D02*
X0102225Y0070640D01*
X0127200Y0069281D02*
Y0070100D01*
X0125500Y0068300D02*
X0126700Y0069500D01*
X0125300Y0068300D02*
X0125500D01*
X0126700Y0069500D02*
Y0070100D01*
X0125900Y0074225D02*
Y0075300D01*
Y0073575D02*
Y0074225D01*
Y0073575D02*
X0126200Y0073275D01*
Y0073000D02*
Y0073275D01*
X0116850Y0070120D02*
X0116905Y0070175D01*
X0102425Y0072275D02*
X0102875Y0071825D01*
Y0070640D02*
Y0071825D01*
X0102225Y0070640D02*
Y0071675D01*
X0101375Y0072525D02*
X0102225Y0071675D01*
X0101375Y0072525D02*
Y0073325D01*
X0101575Y0063075D02*
Y0064810D01*
X0101400Y0062900D02*
X0101575Y0063075D01*
X0103525Y0063875D02*
Y0064810D01*
Y0063875D02*
X0103950Y0063450D01*
Y0063050D02*
Y0063450D01*
Y0063050D02*
X0104100Y0062900D01*
X0102950Y0063150D02*
X0103200Y0062900D01*
X0102950Y0063150D02*
Y0064735D01*
X0102875Y0064810D02*
X0102950Y0064735D01*
X0102262Y0062938D02*
X0102300Y0062900D01*
X0102262Y0062938D02*
Y0064772D01*
X0102225Y0064810D02*
X0102262Y0064772D01*
X0105100Y0074325D02*
X0106150D01*
X0101375D02*
X0102425D01*
Y0072275D02*
Y0073325D01*
D41*
X0113000Y0066700D02*
X0113685D01*
X0112800Y0066500D02*
X0113000Y0066700D01*
X0114365Y0067380D02*
Y0070175D01*
X0113685Y0066700D02*
X0114365Y0067380D01*
D42*
X0102500Y0057500D02*
D03*
Y0082500D02*
D03*
X0127500D02*
D03*
Y0057500D02*
D03*
D43*
X0123400Y0067725D02*
D03*
X0101805Y0067933D02*
D03*
X0101164Y0067358D02*
D03*
X0108900Y0068795D02*
D03*
X0117729Y0078105D02*
D03*
X0118100Y0076700D02*
D03*
X0118600Y0076000D02*
D03*
X0106175Y0072625D02*
D03*
X0103100Y0068400D02*
D03*
X0102600Y0069100D02*
D03*
X0127700Y0071100D02*
D03*
X0126200D02*
D03*
X0126950Y0071550D02*
D03*
X0127700Y0072000D02*
D03*
X0126200D02*
D03*
X0115119Y0076900D02*
D03*
X0115000Y0076100D02*
D03*
X0127000Y0065000D02*
D03*
X0108090Y0068500D02*
D03*
X0107700Y0073800D02*
D03*
X0122700Y0067200D02*
D03*
X0107400Y0066600D02*
D03*
X0121500Y0071900D02*
D03*
X0104400Y0066300D02*
D03*
X0128200Y0067800D02*
D03*
X0110100Y0076100D02*
D03*
X0111900Y0076900D02*
D03*
X0101500Y0060600D02*
D03*
X0126900Y0063100D02*
D03*
X0115000D02*
D03*
X0126600Y0076600D02*
D03*
X0127175Y0077425D02*
D03*
X0112800Y0066500D02*
D03*
X0113700Y0066100D02*
D03*
X0106900Y0065900D02*
D03*
X0118300Y0073800D02*
D03*
X0104300Y0072400D02*
D03*
X0103400Y0072500D02*
D03*
X0125300Y0068300D02*
D03*
M02*
