G04*
G04 #@! TF.GenerationSoftware,Altium Limited,Altium Designer,19.1.8 (144)*
G04*
G04 Layer_Color=65535*
%FSAX43Y43*%
%MOMM*%
G71*
G01*
G75*
%ADD10C,0.013*%
%ADD11C,0.500*%
%ADD12C,0.250*%
%ADD13C,0.100*%
G36*
X0125718Y0069685D02*
X0125789Y0069615D01*
X0125827Y0069523D01*
Y0069473D01*
Y0069423D01*
X0125789Y0069332D01*
X0125718Y0069261D01*
X0125627Y0069223D01*
X0125527D01*
X0125435Y0069261D01*
X0125365Y0069332D01*
X0125327Y0069423D01*
Y0069473D01*
Y0069523D01*
X0125365Y0069615D01*
X0125435Y0069685D01*
X0125527Y0069723D01*
X0125627D01*
X0125718Y0069685D01*
D02*
G37*
G36*
X0120521Y0065311D02*
X0120784Y0065240D01*
X0121032Y0065130D01*
X0121146Y0065057D01*
X0120860Y0064819D01*
X0120860Y0064819D01*
X0120784Y0064867D01*
X0120622Y0064948D01*
X0120451Y0065008D01*
X0120274Y0065046D01*
X0120184Y0065057D01*
X0120116Y0065337D01*
X0120252Y0065342D01*
X0120521Y0065311D01*
D02*
G37*
G36*
X0121650Y0064672D02*
D01*
X0121650Y0064672D01*
X0121650Y0064672D01*
D02*
G37*
G36*
X0119511Y0065027D02*
X0119511D01*
X0119511Y0065027D01*
X0119371Y0065013D01*
X0119097Y0064954D01*
X0118835Y0064856D01*
X0118589Y0064721D01*
X0118474Y0064641D01*
X0118474D01*
X0118575Y0064756D01*
X0118811Y0064950D01*
X0119076Y0065104D01*
X0119361Y0065214D01*
X0119511Y0065245D01*
Y0065027D01*
D02*
G37*
G36*
X0121747Y0064580D02*
X0121911Y0064368D01*
X0122040Y0064134D01*
X0122132Y0063882D01*
X0122157Y0063751D01*
X0121668Y0063801D01*
Y0063801D01*
X0121668D01*
X0121649Y0063871D01*
X0121600Y0064008D01*
X0121533Y0064138D01*
X0121450Y0064257D01*
X0121403Y0064313D01*
X0121650Y0064672D01*
X0121747Y0064580D01*
D02*
G37*
G36*
X0110940Y0063812D02*
X0110820Y0063692D01*
X0110796D01*
X0110175Y0064767D01*
X0108410Y0061710D01*
X0108412Y0061711D01*
X0108411D01*
X0111002Y0063677D01*
X0111428Y0062940D01*
X0108412Y0061711D01*
X0111940D01*
X0111337Y0062755D01*
X0111514Y0062818D01*
X0112260Y0061525D01*
X0108090D01*
X0110175Y0065137D01*
X0110940Y0063812D01*
D02*
G37*
G36*
X0122237Y0063007D02*
X0122205Y0062744D01*
X0122136Y0062489D01*
X0122031Y0062246D01*
X0121961Y0062133D01*
X0121612Y0062523D01*
X0121640Y0062582D01*
X0121687Y0062703D01*
X0121720Y0062828D01*
X0121738Y0062957D01*
X0121741Y0063021D01*
Y0063021D01*
X0122234Y0063139D01*
X0122237Y0063007D01*
D02*
G37*
G36*
X0121961Y0062133D02*
X0121961Y0062133D01*
X0121961Y0062133D01*
D01*
D02*
G37*
G36*
X0120665Y0064015D02*
X0120846Y0063862D01*
X0120964Y0063656D01*
X0121004Y0063421D01*
X0120962Y0063188D01*
X0120841Y0062983D01*
X0120658Y0062832D01*
X0120546Y0062792D01*
X0121722Y0061787D01*
X0120938D01*
X0119267Y0063139D01*
X0120169D01*
X0120217Y0063144D01*
X0120307Y0063181D01*
X0120375Y0063250D01*
X0120412Y0063339D01*
Y0063436D01*
X0120375Y0063525D01*
X0120307Y0063593D01*
X0120217Y0063630D01*
X0120169Y0063635D01*
X0118010D01*
X0118151Y0064096D01*
X0120323D01*
Y0064096D01*
X0120441D01*
X0120665Y0064015D01*
D02*
G37*
G36*
X0118474Y0062980D02*
X0118520Y0062666D01*
X0118616Y0062363D01*
X0118760Y0062079D01*
X0118947Y0061822D01*
X0119173Y0061599D01*
X0119433Y0061415D01*
X0119718Y0061275D01*
X0120023Y0061183D01*
X0120338Y0061141D01*
X0120655Y0061150D01*
X0120968Y0061211D01*
X0121119Y0061260D01*
X0120955Y0061180D01*
X0120605Y0061076D01*
X0120243Y0061030D01*
X0119879Y0061045D01*
X0119522Y0061119D01*
X0119182Y0061251D01*
X0118868Y0061437D01*
X0118588Y0061672D01*
X0118351Y0061949D01*
X0118163Y0062262D01*
X0118028Y0062601D01*
X0117951Y0062957D01*
X0117942Y0063139D01*
X0118470D01*
X0118474Y0062980D01*
D02*
G37*
G36*
X0128041Y0074488D02*
X0128046Y0074487D01*
X0128054Y0074484D01*
X0128061Y0074480D01*
X0128067Y0074472D01*
X0128071Y0074462D01*
X0128073Y0074456D01*
Y0074449D01*
Y0073936D01*
Y0073935D01*
Y0073932D01*
Y0073927D01*
X0128072Y0073919D01*
X0128071Y0073911D01*
X0128070Y0073902D01*
X0128068Y0073890D01*
X0128065Y0073878D01*
X0128061Y0073866D01*
X0128056Y0073852D01*
X0128051Y0073838D01*
X0128044Y0073824D01*
X0128036Y0073810D01*
X0128026Y0073796D01*
X0128016Y0073782D01*
X0128004Y0073768D01*
X0128003Y0073767D01*
X0128001Y0073766D01*
X0127997Y0073762D01*
X0127992Y0073758D01*
X0127985Y0073752D01*
X0127977Y0073747D01*
X0127967Y0073740D01*
X0127957Y0073735D01*
X0127945Y0073728D01*
X0127933Y0073722D01*
X0127919Y0073716D01*
X0127904Y0073710D01*
X0127889Y0073707D01*
X0127872Y0073703D01*
X0127854Y0073701D01*
X0127836Y0073700D01*
X0127831D01*
X0127827Y0073701D01*
X0127819D01*
X0127811Y0073702D01*
X0127802Y0073704D01*
X0127790Y0073706D01*
X0127778Y0073708D01*
X0127766Y0073712D01*
X0127752Y0073717D01*
X0127738Y0073722D01*
X0127724Y0073729D01*
X0127710Y0073737D01*
X0127696Y0073746D01*
X0127682Y0073756D01*
X0127668Y0073768D01*
X0127667Y0073769D01*
X0127666Y0073771D01*
X0127662Y0073776D01*
X0127658Y0073781D01*
X0127652Y0073787D01*
X0127647Y0073796D01*
X0127640Y0073805D01*
X0127635Y0073815D01*
X0127628Y0073827D01*
X0127622Y0073840D01*
X0127616Y0073854D01*
X0127610Y0073869D01*
X0127607Y0073885D01*
X0127603Y0073901D01*
X0127601Y0073918D01*
X0127600Y0073936D01*
Y0074449D01*
Y0074450D01*
Y0074451D01*
X0127601Y0074455D01*
X0127602Y0074462D01*
X0127605Y0074469D01*
X0127609Y0074476D01*
X0127617Y0074483D01*
X0127626Y0074487D01*
X0127633Y0074489D01*
X0127641D01*
X0127646Y0074488D01*
X0127652Y0074487D01*
X0127659Y0074484D01*
X0127667Y0074480D01*
X0127672Y0074472D01*
X0127677Y0074462D01*
X0127679Y0074456D01*
Y0074449D01*
Y0073936D01*
Y0073935D01*
Y0073933D01*
Y0073930D01*
X0127680Y0073925D01*
Y0073919D01*
X0127682Y0073913D01*
X0127684Y0073897D01*
X0127690Y0073880D01*
X0127697Y0073860D01*
X0127709Y0073842D01*
X0127716Y0073832D01*
X0127724Y0073824D01*
X0127725Y0073823D01*
X0127726Y0073822D01*
X0127728Y0073820D01*
X0127732Y0073817D01*
X0127742Y0073810D01*
X0127755Y0073801D01*
X0127772Y0073793D01*
X0127790Y0073786D01*
X0127812Y0073781D01*
X0127824Y0073780D01*
X0127836Y0073779D01*
X0127843D01*
X0127847Y0073780D01*
X0127853D01*
X0127860Y0073782D01*
X0127876Y0073784D01*
X0127893Y0073790D01*
X0127912Y0073797D01*
X0127931Y0073809D01*
X0127940Y0073816D01*
X0127949Y0073824D01*
X0127950Y0073825D01*
X0127951Y0073826D01*
X0127953Y0073828D01*
X0127956Y0073832D01*
X0127964Y0073842D01*
X0127972Y0073855D01*
X0127981Y0073872D01*
X0127987Y0073890D01*
X0127993Y0073912D01*
X0127994Y0073924D01*
X0127995Y0073936D01*
Y0074449D01*
Y0074450D01*
Y0074451D01*
X0127996Y0074455D01*
X0127996Y0074462D01*
X0127999Y0074469D01*
X0128004Y0074476D01*
X0128011Y0074483D01*
X0128021Y0074487D01*
X0128027Y0074489D01*
X0128036D01*
X0128041Y0074488D01*
D02*
G37*
G36*
X0128553D02*
X0128559Y0074487D01*
X0128566Y0074484D01*
X0128574Y0074480D01*
X0128579Y0074472D01*
X0128584Y0074463D01*
X0128586Y0074450D01*
Y0074448D01*
X0128585Y0074443D01*
X0128584Y0074438D01*
X0128581Y0074430D01*
X0128577Y0074423D01*
X0128569Y0074417D01*
X0128560Y0074412D01*
X0128547Y0074410D01*
X0128309D01*
Y0074173D01*
X0128435D01*
X0128442Y0074172D01*
X0128448Y0074171D01*
X0128457Y0074171D01*
X0128466Y0074169D01*
X0128475Y0074166D01*
X0128498Y0074159D01*
X0128509Y0074155D01*
X0128521Y0074149D01*
X0128533Y0074142D01*
X0128545Y0074134D01*
X0128556Y0074126D01*
X0128567Y0074115D01*
X0128568Y0074114D01*
X0128570Y0074112D01*
X0128573Y0074110D01*
X0128577Y0074105D01*
X0128580Y0074099D01*
X0128586Y0074093D01*
X0128591Y0074085D01*
X0128596Y0074076D01*
X0128602Y0074066D01*
X0128607Y0074055D01*
X0128616Y0074032D01*
X0128620Y0074019D01*
X0128623Y0074005D01*
X0128624Y0073991D01*
X0128625Y0073976D01*
Y0073897D01*
Y0073896D01*
Y0073893D01*
Y0073889D01*
X0128624Y0073883D01*
X0128623Y0073876D01*
X0128623Y0073868D01*
X0128621Y0073858D01*
X0128618Y0073849D01*
X0128611Y0073827D01*
X0128607Y0073815D01*
X0128601Y0073803D01*
X0128594Y0073792D01*
X0128586Y0073780D01*
X0128578Y0073768D01*
X0128567Y0073757D01*
X0128566Y0073756D01*
X0128564Y0073754D01*
X0128562Y0073752D01*
X0128557Y0073749D01*
X0128551Y0073744D01*
X0128545Y0073739D01*
X0128537Y0073734D01*
X0128528Y0073729D01*
X0128519Y0073723D01*
X0128507Y0073718D01*
X0128484Y0073709D01*
X0128471Y0073706D01*
X0128457Y0073703D01*
X0128443Y0073701D01*
X0128428Y0073700D01*
X0128268D01*
X0128264Y0073701D01*
X0128258Y0073702D01*
X0128250Y0073705D01*
X0128243Y0073709D01*
X0128237Y0073717D01*
X0128233Y0073726D01*
X0128231Y0073739D01*
Y0073741D01*
X0128232Y0073746D01*
X0128233Y0073752D01*
X0128235Y0073759D01*
X0128240Y0073767D01*
X0128248Y0073772D01*
X0128257Y0073777D01*
X0128270Y0073779D01*
X0128432D01*
X0128436Y0073780D01*
X0128445Y0073781D01*
X0128457Y0073783D01*
X0128470Y0073787D01*
X0128484Y0073793D01*
X0128499Y0073801D01*
X0128512Y0073812D01*
X0128514Y0073814D01*
X0128518Y0073819D01*
X0128523Y0073827D01*
X0128530Y0073836D01*
X0128535Y0073848D01*
X0128541Y0073863D01*
X0128545Y0073879D01*
X0128547Y0073897D01*
Y0073976D01*
Y0073976D01*
Y0073977D01*
Y0073980D01*
X0128546Y0073984D01*
X0128545Y0073992D01*
X0128542Y0074005D01*
X0128538Y0074018D01*
X0128532Y0074032D01*
X0128523Y0074046D01*
X0128511Y0074059D01*
X0128509Y0074061D01*
X0128504Y0074065D01*
X0128498Y0074070D01*
X0128488Y0074077D01*
X0128475Y0074083D01*
X0128461Y0074089D01*
X0128445Y0074093D01*
X0128428Y0074095D01*
X0128268D01*
X0128264Y0074096D01*
X0128258Y0074096D01*
X0128250Y0074099D01*
X0128243Y0074104D01*
X0128237Y0074111D01*
X0128233Y0074121D01*
X0128231Y0074134D01*
Y0074449D01*
Y0074450D01*
Y0074451D01*
X0128232Y0074455D01*
X0128233Y0074462D01*
X0128235Y0074469D01*
X0128240Y0074476D01*
X0128248Y0074483D01*
X0128257Y0074487D01*
X0128264Y0074489D01*
X0128549D01*
X0128553Y0074488D01*
D02*
G37*
G36*
X0107241Y0068188D02*
X0107246Y0068187D01*
X0107254Y0068184D01*
X0107261Y0068180D01*
X0107267Y0068172D01*
X0107271Y0068162D01*
X0107273Y0068156D01*
Y0068149D01*
Y0067636D01*
Y0067635D01*
Y0067632D01*
Y0067627D01*
X0107272Y0067619D01*
X0107271Y0067611D01*
X0107270Y0067602D01*
X0107268Y0067590D01*
X0107265Y0067578D01*
X0107261Y0067566D01*
X0107256Y0067552D01*
X0107251Y0067538D01*
X0107244Y0067524D01*
X0107236Y0067510D01*
X0107226Y0067496D01*
X0107216Y0067482D01*
X0107204Y0067468D01*
X0107203Y0067467D01*
X0107201Y0067466D01*
X0107197Y0067462D01*
X0107192Y0067458D01*
X0107185Y0067452D01*
X0107177Y0067447D01*
X0107167Y0067440D01*
X0107157Y0067435D01*
X0107145Y0067428D01*
X0107133Y0067422D01*
X0107119Y0067416D01*
X0107104Y0067410D01*
X0107089Y0067407D01*
X0107072Y0067403D01*
X0107054Y0067401D01*
X0107036Y0067400D01*
X0107032D01*
X0107027Y0067401D01*
X0107019D01*
X0107011Y0067402D01*
X0107002Y0067404D01*
X0106990Y0067406D01*
X0106978Y0067408D01*
X0106966Y0067412D01*
X0106952Y0067417D01*
X0106938Y0067422D01*
X0106924Y0067429D01*
X0106910Y0067437D01*
X0106896Y0067446D01*
X0106882Y0067456D01*
X0106868Y0067468D01*
X0106867Y0067469D01*
X0106866Y0067471D01*
X0106862Y0067476D01*
X0106858Y0067481D01*
X0106852Y0067487D01*
X0106847Y0067496D01*
X0106840Y0067505D01*
X0106835Y0067515D01*
X0106828Y0067527D01*
X0106822Y0067540D01*
X0106816Y0067554D01*
X0106810Y0067569D01*
X0106807Y0067585D01*
X0106803Y0067601D01*
X0106801Y0067618D01*
X0106800Y0067636D01*
Y0068149D01*
Y0068150D01*
Y0068151D01*
X0106801Y0068155D01*
X0106802Y0068162D01*
X0106805Y0068169D01*
X0106809Y0068176D01*
X0106817Y0068183D01*
X0106826Y0068187D01*
X0106833Y0068189D01*
X0106841D01*
X0106846Y0068188D01*
X0106852Y0068187D01*
X0106859Y0068184D01*
X0106867Y0068180D01*
X0106872Y0068172D01*
X0106877Y0068162D01*
X0106879Y0068156D01*
Y0068149D01*
Y0067636D01*
Y0067635D01*
Y0067633D01*
Y0067630D01*
X0106880Y0067625D01*
Y0067619D01*
X0106882Y0067613D01*
X0106884Y0067597D01*
X0106890Y0067580D01*
X0106897Y0067560D01*
X0106909Y0067542D01*
X0106916Y0067532D01*
X0106924Y0067524D01*
X0106925Y0067523D01*
X0106926Y0067522D01*
X0106928Y0067520D01*
X0106932Y0067517D01*
X0106942Y0067510D01*
X0106955Y0067501D01*
X0106972Y0067493D01*
X0106990Y0067486D01*
X0107012Y0067481D01*
X0107024Y0067480D01*
X0107036Y0067479D01*
X0107043D01*
X0107047Y0067480D01*
X0107053D01*
X0107060Y0067482D01*
X0107076Y0067484D01*
X0107093Y0067490D01*
X0107112Y0067497D01*
X0107131Y0067509D01*
X0107140Y0067516D01*
X0107149Y0067524D01*
X0107150Y0067525D01*
X0107151Y0067526D01*
X0107153Y0067528D01*
X0107156Y0067532D01*
X0107164Y0067542D01*
X0107172Y0067555D01*
X0107181Y0067572D01*
X0107187Y0067590D01*
X0107193Y0067612D01*
X0107194Y0067624D01*
X0107195Y0067636D01*
Y0068149D01*
Y0068150D01*
Y0068151D01*
X0107196Y0068155D01*
X0107196Y0068162D01*
X0107199Y0068169D01*
X0107204Y0068176D01*
X0107211Y0068183D01*
X0107221Y0068187D01*
X0107227Y0068189D01*
X0107236D01*
X0107241Y0068188D01*
D02*
G37*
G36*
X0107635D02*
X0107641Y0068187D01*
X0107648Y0068184D01*
X0107656Y0068180D01*
X0107661Y0068172D01*
X0107666Y0068162D01*
X0107668Y0068156D01*
Y0068149D01*
Y0067439D01*
Y0067437D01*
X0107667Y0067433D01*
X0107666Y0067427D01*
X0107663Y0067420D01*
X0107659Y0067412D01*
X0107651Y0067407D01*
X0107642Y0067402D01*
X0107629Y0067400D01*
X0107627D01*
X0107622Y0067401D01*
X0107616Y0067402D01*
X0107609Y0067405D01*
X0107601Y0067409D01*
X0107596Y0067417D01*
X0107591Y0067426D01*
X0107589Y0067439D01*
Y0068054D01*
X0107498Y0067963D01*
X0107497D01*
X0107496Y0067961D01*
X0107494Y0067960D01*
X0107490Y0067958D01*
X0107481Y0067954D01*
X0107476Y0067953D01*
X0107470Y0067952D01*
X0107468D01*
X0107464Y0067953D01*
X0107458Y0067954D01*
X0107450Y0067957D01*
X0107443Y0067961D01*
X0107437Y0067969D01*
X0107433Y0067978D01*
X0107431Y0067991D01*
Y0067992D01*
Y0067994D01*
X0107432Y0067997D01*
X0107433Y0068001D01*
X0107435Y0068009D01*
X0107438Y0068014D01*
X0107442Y0068019D01*
X0107597Y0068173D01*
X0107598Y0068174D01*
X0107599Y0068176D01*
X0107602Y0068178D01*
X0107606Y0068182D01*
X0107616Y0068186D01*
X0107622Y0068188D01*
X0107629Y0068189D01*
X0107630D01*
X0107635Y0068188D01*
D02*
G37*
G36*
X0106371Y0077288D02*
X0106378Y0077287D01*
X0106386Y0077286D01*
X0106396Y0077284D01*
X0106406Y0077282D01*
X0106428Y0077275D01*
X0106439Y0077270D01*
X0106451Y0077265D01*
X0106463Y0077258D01*
X0106475Y0077250D01*
X0106486Y0077241D01*
X0106497Y0077231D01*
X0106498Y0077230D01*
X0106500Y0077228D01*
X0106503Y0077225D01*
X0106506Y0077221D01*
X0106510Y0077215D01*
X0106516Y0077209D01*
X0106521Y0077201D01*
X0106526Y0077192D01*
X0106532Y0077182D01*
X0106536Y0077171D01*
X0106546Y0077148D01*
X0106550Y0077135D01*
X0106552Y0077120D01*
X0106554Y0077106D01*
X0106555Y0077091D01*
Y0077090D01*
Y0077087D01*
X0106554Y0077082D01*
Y0077075D01*
X0106552Y0077067D01*
X0106551Y0077057D01*
X0106549Y0077046D01*
X0106545Y0077035D01*
X0106541Y0077023D01*
X0106536Y0077010D01*
X0106529Y0076997D01*
X0106521Y0076984D01*
X0106512Y0076971D01*
X0106502Y0076957D01*
X0106490Y0076945D01*
X0106476Y0076934D01*
X0106476Y0076933D01*
X0106479Y0076931D01*
X0106483Y0076927D01*
X0106488Y0076923D01*
X0106494Y0076917D01*
X0106501Y0076910D01*
X0106508Y0076901D01*
X0106516Y0076892D01*
X0106522Y0076881D01*
X0106530Y0076869D01*
X0106536Y0076856D01*
X0106543Y0076842D01*
X0106548Y0076827D01*
X0106551Y0076810D01*
X0106554Y0076793D01*
X0106555Y0076776D01*
Y0076697D01*
Y0076696D01*
Y0076693D01*
Y0076689D01*
X0106554Y0076683D01*
X0106553Y0076676D01*
X0106552Y0076668D01*
X0106551Y0076658D01*
X0106548Y0076649D01*
X0106541Y0076627D01*
X0106536Y0076615D01*
X0106531Y0076603D01*
X0106524Y0076592D01*
X0106516Y0076580D01*
X0106507Y0076568D01*
X0106497Y0076557D01*
X0106496Y0076556D01*
X0106494Y0076554D01*
X0106491Y0076552D01*
X0106487Y0076549D01*
X0106481Y0076544D01*
X0106475Y0076539D01*
X0106467Y0076534D01*
X0106458Y0076529D01*
X0106448Y0076523D01*
X0106437Y0076518D01*
X0106414Y0076509D01*
X0106401Y0076506D01*
X0106386Y0076503D01*
X0106372Y0076501D01*
X0106357Y0076500D01*
X0106198D01*
X0106193Y0076501D01*
X0106188Y0076502D01*
X0106180Y0076505D01*
X0106173Y0076509D01*
X0106167Y0076517D01*
X0106162Y0076526D01*
X0106161Y0076539D01*
Y0076541D01*
X0106162Y0076546D01*
X0106162Y0076552D01*
X0106165Y0076559D01*
X0106170Y0076567D01*
X0106177Y0076572D01*
X0106187Y0076577D01*
X0106200Y0076579D01*
X0106362D01*
X0106366Y0076580D01*
X0106375Y0076581D01*
X0106386Y0076583D01*
X0106400Y0076587D01*
X0106414Y0076593D01*
X0106429Y0076601D01*
X0106442Y0076612D01*
X0106444Y0076614D01*
X0106447Y0076619D01*
X0106453Y0076627D01*
X0106460Y0076636D01*
X0106465Y0076648D01*
X0106471Y0076663D01*
X0106475Y0076679D01*
X0106476Y0076697D01*
Y0076776D01*
Y0076776D01*
Y0076777D01*
Y0076780D01*
X0106476Y0076784D01*
X0106475Y0076792D01*
X0106472Y0076805D01*
X0106468Y0076818D01*
X0106461Y0076832D01*
X0106453Y0076846D01*
X0106442Y0076859D01*
X0106440Y0076861D01*
X0106435Y0076865D01*
X0106429Y0076870D01*
X0106418Y0076877D01*
X0106406Y0076883D01*
X0106391Y0076889D01*
X0106375Y0076893D01*
X0106357Y0076895D01*
X0106277D01*
X0106272Y0076896D01*
X0106267Y0076896D01*
X0106259Y0076899D01*
X0106252Y0076904D01*
X0106246Y0076911D01*
X0106241Y0076921D01*
X0106239Y0076934D01*
Y0076936D01*
X0106240Y0076941D01*
X0106241Y0076946D01*
X0106244Y0076954D01*
X0106249Y0076961D01*
X0106256Y0076967D01*
X0106266Y0076971D01*
X0106279Y0076973D01*
X0106362D01*
X0106366Y0076974D01*
X0106375Y0076975D01*
X0106386Y0076978D01*
X0106400Y0076982D01*
X0106414Y0076987D01*
X0106429Y0076996D01*
X0106442Y0077007D01*
X0106444Y0077009D01*
X0106447Y0077014D01*
X0106453Y0077021D01*
X0106460Y0077030D01*
X0106465Y0077043D01*
X0106471Y0077058D01*
X0106475Y0077074D01*
X0106476Y0077091D01*
Y0077092D01*
Y0077093D01*
Y0077096D01*
X0106476Y0077100D01*
X0106475Y0077108D01*
X0106472Y0077120D01*
X0106468Y0077134D01*
X0106461Y0077148D01*
X0106453Y0077162D01*
X0106442Y0077175D01*
X0106440Y0077177D01*
X0106435Y0077180D01*
X0106429Y0077186D01*
X0106418Y0077193D01*
X0106406Y0077199D01*
X0106391Y0077205D01*
X0106375Y0077209D01*
X0106357Y0077210D01*
X0106198D01*
X0106193Y0077211D01*
X0106188Y0077212D01*
X0106180Y0077215D01*
X0106173Y0077220D01*
X0106167Y0077227D01*
X0106162Y0077237D01*
X0106161Y0077250D01*
Y0077252D01*
X0106162Y0077256D01*
X0106162Y0077262D01*
X0106165Y0077269D01*
X0106170Y0077277D01*
X0106177Y0077283D01*
X0106187Y0077287D01*
X0106200Y0077289D01*
X0106366D01*
X0106371Y0077288D01*
D02*
G37*
G36*
X0105783D02*
X0105791Y0077287D01*
X0105801Y0077285D01*
X0105812Y0077284D01*
X0105824Y0077281D01*
X0105836Y0077277D01*
X0105850Y0077272D01*
X0105864Y0077267D01*
X0105879Y0077260D01*
X0105893Y0077252D01*
X0105907Y0077242D01*
X0105921Y0077232D01*
X0105934Y0077220D01*
X0105935Y0077219D01*
X0105937Y0077217D01*
X0105940Y0077213D01*
X0105945Y0077208D01*
X0105950Y0077201D01*
X0105955Y0077193D01*
X0105962Y0077183D01*
X0105968Y0077173D01*
X0105975Y0077161D01*
X0105982Y0077149D01*
X0105987Y0077135D01*
X0105992Y0077120D01*
X0105997Y0077105D01*
X0106000Y0077088D01*
X0106002Y0077070D01*
X0106003Y0077052D01*
Y0077051D01*
Y0077047D01*
Y0077042D01*
X0106002Y0077034D01*
X0106001Y0077026D01*
X0105999Y0077015D01*
X0105998Y0077004D01*
X0105995Y0076991D01*
X0105991Y0076978D01*
X0105987Y0076964D01*
X0105982Y0076950D01*
X0105975Y0076936D01*
X0105968Y0076922D01*
X0105958Y0076908D01*
X0105949Y0076895D01*
X0105937Y0076881D01*
X0105936Y0076881D01*
X0105934Y0076879D01*
X0105930Y0076876D01*
X0105924Y0076871D01*
X0105918Y0076866D01*
X0105910Y0076861D01*
X0105901Y0076855D01*
X0105891Y0076849D01*
X0105879Y0076843D01*
X0105866Y0076836D01*
X0105852Y0076831D01*
X0105837Y0076826D01*
X0105820Y0076821D01*
X0105804Y0076819D01*
X0105786Y0076817D01*
X0105766Y0076816D01*
X0105609D01*
Y0076539D01*
Y0076537D01*
X0105608Y0076533D01*
X0105607Y0076527D01*
X0105604Y0076520D01*
X0105599Y0076512D01*
X0105592Y0076507D01*
X0105582Y0076502D01*
X0105569Y0076500D01*
X0105567D01*
X0105563Y0076501D01*
X0105557Y0076502D01*
X0105550Y0076505D01*
X0105542Y0076509D01*
X0105536Y0076517D01*
X0105532Y0076526D01*
X0105530Y0076539D01*
Y0077249D01*
Y0077250D01*
Y0077251D01*
X0105531Y0077255D01*
X0105532Y0077262D01*
X0105535Y0077269D01*
X0105539Y0077276D01*
X0105547Y0077283D01*
X0105556Y0077287D01*
X0105563Y0077289D01*
X0105775D01*
X0105783Y0077288D01*
D02*
G37*
G36*
X0105340D02*
X0105345Y0077287D01*
X0105353Y0077284D01*
X0105360Y0077280D01*
X0105366Y0077272D01*
X0105371Y0077263D01*
X0105372Y0077250D01*
Y0077248D01*
X0105371Y0077243D01*
X0105371Y0077238D01*
X0105368Y0077230D01*
X0105363Y0077223D01*
X0105356Y0077217D01*
X0105346Y0077212D01*
X0105333Y0077210D01*
X0105176D01*
Y0076539D01*
Y0076537D01*
X0105175Y0076533D01*
X0105174Y0076527D01*
X0105171Y0076520D01*
X0105166Y0076512D01*
X0105159Y0076507D01*
X0105149Y0076502D01*
X0105136Y0076500D01*
X0105134D01*
X0105130Y0076501D01*
X0105124Y0076502D01*
X0105117Y0076505D01*
X0105109Y0076509D01*
X0105103Y0076517D01*
X0105099Y0076526D01*
X0105097Y0076539D01*
Y0077210D01*
X0104937D01*
X0104932Y0077211D01*
X0104926Y0077212D01*
X0104919Y0077215D01*
X0104911Y0077220D01*
X0104906Y0077227D01*
X0104901Y0077237D01*
X0104899Y0077250D01*
Y0077252D01*
X0104900Y0077256D01*
X0104901Y0077262D01*
X0104904Y0077269D01*
X0104908Y0077277D01*
X0104916Y0077283D01*
X0104925Y0077287D01*
X0104938Y0077289D01*
X0105335D01*
X0105340Y0077288D01*
D02*
G37*
G36*
X0106371Y0079288D02*
X0106378Y0079287D01*
X0106386Y0079286D01*
X0106396Y0079284D01*
X0106405Y0079282D01*
X0106428Y0079275D01*
X0106439Y0079270D01*
X0106451Y0079265D01*
X0106462Y0079258D01*
X0106475Y0079250D01*
X0106486Y0079241D01*
X0106497Y0079231D01*
X0106498Y0079230D01*
X0106500Y0079228D01*
X0106503Y0079225D01*
X0106506Y0079221D01*
X0106510Y0079215D01*
X0106516Y0079209D01*
X0106521Y0079201D01*
X0106526Y0079192D01*
X0106532Y0079182D01*
X0106536Y0079171D01*
X0106546Y0079148D01*
X0106550Y0079135D01*
X0106552Y0079120D01*
X0106554Y0079106D01*
X0106555Y0079091D01*
Y0079090D01*
Y0079089D01*
Y0079086D01*
X0106554Y0079082D01*
Y0079076D01*
X0106553Y0079071D01*
X0106551Y0079056D01*
X0106547Y0079039D01*
X0106540Y0079020D01*
X0106531Y0079000D01*
X0106519Y0078978D01*
X0106270Y0078579D01*
X0106517D01*
X0106521Y0078578D01*
X0106528Y0078577D01*
X0106536Y0078574D01*
X0106542Y0078569D01*
X0106549Y0078562D01*
X0106553Y0078552D01*
X0106555Y0078546D01*
Y0078539D01*
Y0078537D01*
X0106554Y0078533D01*
X0106553Y0078527D01*
X0106551Y0078520D01*
X0106546Y0078512D01*
X0106538Y0078507D01*
X0106528Y0078502D01*
X0106522Y0078501D01*
X0106515Y0078500D01*
X0106198D01*
X0106193Y0078501D01*
X0106188Y0078502D01*
X0106180Y0078505D01*
X0106173Y0078509D01*
X0106167Y0078517D01*
X0106162Y0078526D01*
X0106161Y0078539D01*
Y0078540D01*
Y0078541D01*
X0106162Y0078547D01*
X0106163Y0078553D01*
X0106167Y0078562D01*
X0106456Y0079027D01*
X0106457Y0079029D01*
X0106459Y0079032D01*
X0106462Y0079038D01*
X0106466Y0079046D01*
X0106469Y0079056D01*
X0106473Y0079067D01*
X0106475Y0079079D01*
X0106476Y0079091D01*
Y0079092D01*
Y0079093D01*
Y0079096D01*
X0106475Y0079100D01*
X0106474Y0079108D01*
X0106471Y0079120D01*
X0106467Y0079134D01*
X0106461Y0079148D01*
X0106452Y0079162D01*
X0106441Y0079175D01*
X0106439Y0079177D01*
X0106434Y0079180D01*
X0106428Y0079186D01*
X0106417Y0079193D01*
X0106405Y0079199D01*
X0106391Y0079205D01*
X0106375Y0079209D01*
X0106357Y0079210D01*
X0106355D01*
X0106351Y0079210D01*
X0106346Y0079209D01*
X0106341Y0079208D01*
X0106333Y0079205D01*
X0106326Y0079202D01*
X0106317Y0079198D01*
X0106308Y0079193D01*
X0106298Y0079186D01*
X0106288Y0079179D01*
X0106277Y0079168D01*
X0106267Y0079157D01*
X0106255Y0079144D01*
X0106245Y0079129D01*
X0106234Y0079111D01*
Y0079110D01*
X0106232Y0079108D01*
X0106229Y0079105D01*
X0106225Y0079102D01*
X0106221Y0079098D01*
X0106215Y0079094D01*
X0106208Y0079092D01*
X0106200Y0079091D01*
X0106198D01*
X0106193Y0079092D01*
X0106188Y0079093D01*
X0106180Y0079096D01*
X0106173Y0079101D01*
X0106167Y0079108D01*
X0106162Y0079118D01*
X0106161Y0079131D01*
Y0079133D01*
X0106162Y0079136D01*
X0106162Y0079142D01*
X0106164Y0079148D01*
X0106165Y0079150D01*
X0106168Y0079154D01*
X0106172Y0079161D01*
X0106177Y0079170D01*
X0106185Y0079180D01*
X0106193Y0079193D01*
X0106204Y0079205D01*
X0106216Y0079219D01*
X0106229Y0079232D01*
X0106244Y0079244D01*
X0106260Y0079256D01*
X0106277Y0079267D01*
X0106295Y0079276D01*
X0106314Y0079284D01*
X0106336Y0079287D01*
X0106357Y0079289D01*
X0106365D01*
X0106371Y0079288D01*
D02*
G37*
G36*
X0105783D02*
X0105791Y0079287D01*
X0105801Y0079285D01*
X0105812Y0079284D01*
X0105824Y0079281D01*
X0105836Y0079277D01*
X0105850Y0079272D01*
X0105864Y0079267D01*
X0105879Y0079260D01*
X0105893Y0079252D01*
X0105907Y0079242D01*
X0105921Y0079232D01*
X0105934Y0079220D01*
X0105935Y0079219D01*
X0105937Y0079217D01*
X0105940Y0079213D01*
X0105945Y0079208D01*
X0105950Y0079201D01*
X0105955Y0079193D01*
X0105962Y0079183D01*
X0105968Y0079173D01*
X0105975Y0079161D01*
X0105982Y0079149D01*
X0105987Y0079135D01*
X0105992Y0079120D01*
X0105997Y0079105D01*
X0106000Y0079088D01*
X0106002Y0079070D01*
X0106003Y0079052D01*
Y0079051D01*
Y0079047D01*
Y0079042D01*
X0106002Y0079034D01*
X0106001Y0079026D01*
X0105999Y0079015D01*
X0105998Y0079004D01*
X0105995Y0078991D01*
X0105991Y0078978D01*
X0105987Y0078964D01*
X0105982Y0078950D01*
X0105975Y0078936D01*
X0105968Y0078922D01*
X0105958Y0078908D01*
X0105949Y0078895D01*
X0105937Y0078881D01*
X0105936Y0078881D01*
X0105934Y0078879D01*
X0105930Y0078876D01*
X0105924Y0078871D01*
X0105918Y0078866D01*
X0105910Y0078861D01*
X0105901Y0078855D01*
X0105891Y0078849D01*
X0105879Y0078843D01*
X0105866Y0078836D01*
X0105852Y0078831D01*
X0105837Y0078826D01*
X0105820Y0078821D01*
X0105804Y0078819D01*
X0105786Y0078817D01*
X0105766Y0078816D01*
X0105609D01*
Y0078539D01*
Y0078537D01*
X0105608Y0078533D01*
X0105607Y0078527D01*
X0105604Y0078520D01*
X0105599Y0078512D01*
X0105592Y0078507D01*
X0105582Y0078502D01*
X0105569Y0078500D01*
X0105567D01*
X0105563Y0078501D01*
X0105557Y0078502D01*
X0105550Y0078505D01*
X0105542Y0078509D01*
X0105536Y0078517D01*
X0105532Y0078526D01*
X0105530Y0078539D01*
Y0079249D01*
Y0079250D01*
Y0079251D01*
X0105531Y0079255D01*
X0105532Y0079262D01*
X0105535Y0079269D01*
X0105539Y0079276D01*
X0105547Y0079283D01*
X0105556Y0079287D01*
X0105563Y0079289D01*
X0105775D01*
X0105783Y0079288D01*
D02*
G37*
G36*
X0105340D02*
X0105345Y0079287D01*
X0105353Y0079284D01*
X0105360Y0079280D01*
X0105366Y0079272D01*
X0105371Y0079263D01*
X0105372Y0079250D01*
Y0079248D01*
X0105371Y0079243D01*
X0105371Y0079238D01*
X0105368Y0079230D01*
X0105363Y0079223D01*
X0105356Y0079217D01*
X0105346Y0079212D01*
X0105333Y0079210D01*
X0105176D01*
Y0078539D01*
Y0078537D01*
X0105175Y0078533D01*
X0105174Y0078527D01*
X0105171Y0078520D01*
X0105166Y0078512D01*
X0105159Y0078507D01*
X0105149Y0078502D01*
X0105136Y0078500D01*
X0105134D01*
X0105130Y0078501D01*
X0105124Y0078502D01*
X0105117Y0078505D01*
X0105109Y0078509D01*
X0105103Y0078517D01*
X0105099Y0078526D01*
X0105097Y0078539D01*
Y0079210D01*
X0104937D01*
X0104932Y0079211D01*
X0104926Y0079212D01*
X0104919Y0079215D01*
X0104911Y0079220D01*
X0104906Y0079227D01*
X0104901Y0079237D01*
X0104899Y0079250D01*
Y0079252D01*
X0104900Y0079256D01*
X0104901Y0079262D01*
X0104904Y0079269D01*
X0104908Y0079277D01*
X0104916Y0079283D01*
X0104925Y0079287D01*
X0104938Y0079289D01*
X0105335D01*
X0105340Y0079288D01*
D02*
G37*
G36*
X0124565Y0071588D02*
X0124571Y0071587D01*
X0124578Y0071584D01*
X0124586Y0071580D01*
X0124591Y0071572D01*
X0124596Y0071562D01*
X0124598Y0071556D01*
Y0071549D01*
Y0070839D01*
Y0070837D01*
X0124597Y0070833D01*
X0124596Y0070827D01*
X0124593Y0070820D01*
X0124588Y0070812D01*
X0124581Y0070807D01*
X0124572Y0070802D01*
X0124558Y0070800D01*
X0124557D01*
X0124552Y0070801D01*
X0124546Y0070802D01*
X0124539Y0070805D01*
X0124531Y0070809D01*
X0124526Y0070817D01*
X0124521Y0070826D01*
X0124519Y0070839D01*
Y0071454D01*
X0124428Y0071363D01*
X0124427D01*
X0124426Y0071361D01*
X0124423Y0071360D01*
X0124420Y0071358D01*
X0124411Y0071354D01*
X0124406Y0071353D01*
X0124400Y0071352D01*
X0124398D01*
X0124393Y0071353D01*
X0124388Y0071354D01*
X0124380Y0071357D01*
X0124373Y0071361D01*
X0124367Y0071369D01*
X0124362Y0071378D01*
X0124361Y0071391D01*
Y0071392D01*
Y0071394D01*
X0124362Y0071397D01*
X0124362Y0071401D01*
X0124365Y0071409D01*
X0124368Y0071414D01*
X0124372Y0071419D01*
X0124527Y0071573D01*
X0124527Y0071574D01*
X0124529Y0071576D01*
X0124532Y0071578D01*
X0124536Y0071582D01*
X0124546Y0071586D01*
X0124552Y0071588D01*
X0124558Y0071589D01*
X0124560D01*
X0124565Y0071588D01*
D02*
G37*
G36*
X0123983D02*
X0123991Y0071587D01*
X0124001Y0071585D01*
X0124012Y0071584D01*
X0124024Y0071581D01*
X0124036Y0071577D01*
X0124050Y0071572D01*
X0124064Y0071567D01*
X0124078Y0071560D01*
X0124093Y0071552D01*
X0124107Y0071542D01*
X0124121Y0071532D01*
X0124134Y0071520D01*
X0124135Y0071519D01*
X0124137Y0071517D01*
X0124140Y0071513D01*
X0124145Y0071508D01*
X0124150Y0071501D01*
X0124155Y0071493D01*
X0124162Y0071483D01*
X0124168Y0071473D01*
X0124175Y0071461D01*
X0124182Y0071449D01*
X0124187Y0071435D01*
X0124192Y0071420D01*
X0124197Y0071405D01*
X0124200Y0071388D01*
X0124202Y0071370D01*
X0124203Y0071352D01*
Y0071351D01*
Y0071347D01*
Y0071342D01*
X0124202Y0071334D01*
X0124201Y0071326D01*
X0124199Y0071315D01*
X0124198Y0071304D01*
X0124195Y0071291D01*
X0124191Y0071278D01*
X0124187Y0071264D01*
X0124182Y0071250D01*
X0124175Y0071236D01*
X0124168Y0071222D01*
X0124158Y0071208D01*
X0124149Y0071195D01*
X0124137Y0071181D01*
X0124136Y0071181D01*
X0124134Y0071179D01*
X0124130Y0071176D01*
X0124124Y0071171D01*
X0124118Y0071166D01*
X0124110Y0071161D01*
X0124101Y0071155D01*
X0124091Y0071149D01*
X0124079Y0071143D01*
X0124066Y0071136D01*
X0124052Y0071131D01*
X0124037Y0071126D01*
X0124020Y0071121D01*
X0124004Y0071119D01*
X0123986Y0071117D01*
X0123966Y0071116D01*
X0123809D01*
Y0070839D01*
Y0070837D01*
X0123808Y0070833D01*
X0123807Y0070827D01*
X0123804Y0070820D01*
X0123799Y0070812D01*
X0123792Y0070807D01*
X0123782Y0070802D01*
X0123769Y0070800D01*
X0123767D01*
X0123763Y0070801D01*
X0123757Y0070802D01*
X0123750Y0070805D01*
X0123742Y0070809D01*
X0123736Y0070817D01*
X0123732Y0070826D01*
X0123730Y0070839D01*
Y0071549D01*
Y0071550D01*
Y0071551D01*
X0123731Y0071555D01*
X0123732Y0071562D01*
X0123735Y0071569D01*
X0123739Y0071576D01*
X0123747Y0071583D01*
X0123756Y0071587D01*
X0123763Y0071589D01*
X0123975D01*
X0123983Y0071588D01*
D02*
G37*
G36*
X0123540D02*
X0123545Y0071587D01*
X0123553Y0071584D01*
X0123560Y0071580D01*
X0123566Y0071572D01*
X0123571Y0071563D01*
X0123572Y0071550D01*
Y0071548D01*
X0123571Y0071543D01*
X0123571Y0071538D01*
X0123568Y0071530D01*
X0123563Y0071523D01*
X0123556Y0071517D01*
X0123546Y0071512D01*
X0123533Y0071510D01*
X0123376D01*
Y0070839D01*
Y0070837D01*
X0123375Y0070833D01*
X0123374Y0070827D01*
X0123371Y0070820D01*
X0123366Y0070812D01*
X0123359Y0070807D01*
X0123349Y0070802D01*
X0123336Y0070800D01*
X0123334D01*
X0123330Y0070801D01*
X0123324Y0070802D01*
X0123317Y0070805D01*
X0123309Y0070809D01*
X0123303Y0070817D01*
X0123299Y0070826D01*
X0123297Y0070839D01*
Y0071510D01*
X0123137D01*
X0123132Y0071511D01*
X0123126Y0071512D01*
X0123119Y0071515D01*
X0123111Y0071520D01*
X0123106Y0071527D01*
X0123101Y0071537D01*
X0123099Y0071550D01*
Y0071552D01*
X0123100Y0071556D01*
X0123101Y0071562D01*
X0123104Y0071569D01*
X0123108Y0071577D01*
X0123116Y0071583D01*
X0123125Y0071587D01*
X0123138Y0071589D01*
X0123535D01*
X0123540Y0071588D01*
D02*
G37*
G36*
X0115317Y0062812D02*
X0115323Y0062811D01*
X0115330Y0062808D01*
X0115338Y0062803D01*
X0115343Y0062796D01*
X0115348Y0062786D01*
X0115350Y0062773D01*
Y0062771D01*
X0115349Y0062767D01*
X0115348Y0062761D01*
X0115345Y0062753D01*
X0115341Y0062746D01*
X0115333Y0062740D01*
X0115324Y0062736D01*
X0115311Y0062734D01*
X0114696D01*
X0114787Y0062643D01*
Y0062642D01*
X0114789Y0062641D01*
X0114790Y0062638D01*
X0114792Y0062634D01*
X0114796Y0062626D01*
X0114797Y0062620D01*
X0114798Y0062615D01*
Y0062613D01*
X0114797Y0062608D01*
X0114796Y0062603D01*
X0114793Y0062595D01*
X0114789Y0062588D01*
X0114781Y0062582D01*
X0114772Y0062577D01*
X0114759Y0062575D01*
X0114758D01*
X0114756D01*
X0114753Y0062576D01*
X0114749Y0062577D01*
X0114741Y0062580D01*
X0114736Y0062583D01*
X0114731Y0062587D01*
X0114577Y0062741D01*
X0114576Y0062742D01*
X0114574Y0062744D01*
X0114572Y0062747D01*
X0114568Y0062751D01*
X0114564Y0062761D01*
X0114562Y0062767D01*
X0114561Y0062773D01*
Y0062775D01*
X0114562Y0062780D01*
X0114563Y0062785D01*
X0114566Y0062793D01*
X0114570Y0062800D01*
X0114578Y0062806D01*
X0114588Y0062811D01*
X0114594Y0062812D01*
X0114601D01*
X0115311D01*
X0115313D01*
X0115317Y0062812D01*
D02*
G37*
G36*
Y0062417D02*
X0115323Y0062416D01*
X0115330Y0062413D01*
X0115338Y0062409D01*
X0115343Y0062401D01*
X0115348Y0062392D01*
X0115350Y0062379D01*
Y0062377D01*
X0115349Y0062372D01*
X0115348Y0062366D01*
X0115345Y0062359D01*
X0115341Y0062351D01*
X0115333Y0062346D01*
X0115324Y0062341D01*
X0115311Y0062339D01*
X0114696D01*
X0114787Y0062248D01*
Y0062247D01*
X0114789Y0062246D01*
X0114790Y0062244D01*
X0114792Y0062240D01*
X0114796Y0062231D01*
X0114797Y0062226D01*
X0114798Y0062220D01*
Y0062218D01*
X0114797Y0062214D01*
X0114796Y0062208D01*
X0114793Y0062200D01*
X0114789Y0062193D01*
X0114781Y0062187D01*
X0114772Y0062183D01*
X0114759Y0062181D01*
X0114758D01*
X0114756D01*
X0114753Y0062182D01*
X0114749Y0062183D01*
X0114741Y0062185D01*
X0114736Y0062188D01*
X0114731Y0062192D01*
X0114577Y0062347D01*
X0114576Y0062348D01*
X0114574Y0062349D01*
X0114572Y0062352D01*
X0114568Y0062356D01*
X0114564Y0062366D01*
X0114562Y0062372D01*
X0114561Y0062379D01*
Y0062380D01*
X0114562Y0062385D01*
X0114563Y0062391D01*
X0114566Y0062398D01*
X0114570Y0062406D01*
X0114578Y0062411D01*
X0114588Y0062416D01*
X0114594Y0062418D01*
X0114601D01*
X0115311D01*
X0115313D01*
X0115317Y0062417D01*
D02*
G37*
G36*
X0115316Y0062022D02*
X0115320Y0062021D01*
X0115329Y0062019D01*
X0115334Y0062015D01*
X0115339Y0062011D01*
Y0062010D01*
X0115341Y0062009D01*
X0115344Y0062004D01*
X0115348Y0061994D01*
X0115349Y0061990D01*
X0115350Y0061984D01*
Y0061980D01*
X0115349Y0061976D01*
X0115347Y0061970D01*
X0115344Y0061964D01*
X0115341Y0061959D01*
X0115336Y0061953D01*
X0115328Y0061948D01*
X0115034Y0061800D01*
Y0061629D01*
X0115311D01*
X0115313D01*
X0115317Y0061628D01*
X0115323Y0061627D01*
X0115330Y0061624D01*
X0115338Y0061619D01*
X0115343Y0061612D01*
X0115348Y0061602D01*
X0115350Y0061589D01*
Y0061587D01*
X0115349Y0061583D01*
X0115348Y0061577D01*
X0115345Y0061570D01*
X0115341Y0061562D01*
X0115333Y0061557D01*
X0115324Y0061552D01*
X0115311Y0061550D01*
X0114601D01*
X0114600D01*
X0114599D01*
X0114595Y0061551D01*
X0114588Y0061552D01*
X0114581Y0061555D01*
X0114574Y0061559D01*
X0114567Y0061567D01*
X0114563Y0061576D01*
X0114561Y0061583D01*
Y0061796D01*
X0114562Y0061803D01*
X0114563Y0061811D01*
X0114565Y0061821D01*
X0114566Y0061832D01*
X0114569Y0061844D01*
X0114573Y0061856D01*
X0114578Y0061871D01*
X0114583Y0061885D01*
X0114590Y0061899D01*
X0114598Y0061913D01*
X0114608Y0061927D01*
X0114618Y0061941D01*
X0114630Y0061954D01*
X0114631Y0061955D01*
X0114633Y0061957D01*
X0114637Y0061961D01*
X0114642Y0061965D01*
X0114649Y0061970D01*
X0114657Y0061976D01*
X0114667Y0061982D01*
X0114677Y0061989D01*
X0114689Y0061995D01*
X0114701Y0062002D01*
X0114715Y0062007D01*
X0114730Y0062012D01*
X0114745Y0062017D01*
X0114762Y0062021D01*
X0114780Y0062022D01*
X0114798Y0062023D01*
X0114800D01*
X0114805D01*
X0114813Y0062022D01*
X0114824Y0062021D01*
X0114837Y0062019D01*
X0114852Y0062016D01*
X0114869Y0062011D01*
X0114887Y0062006D01*
X0114905Y0061998D01*
X0114924Y0061989D01*
X0114941Y0061977D01*
X0114960Y0061963D01*
X0114977Y0061947D01*
X0114992Y0061928D01*
X0115006Y0061906D01*
X0115018Y0061881D01*
X0115293Y0062019D01*
X0115295Y0062020D01*
X0115298Y0062021D01*
X0115304Y0062022D01*
X0115311Y0062023D01*
X0115312D01*
X0115313D01*
X0115316Y0062022D01*
D02*
G37*
G36*
X0113779Y0062969D02*
X0113791D01*
X0113806Y0062968D01*
X0113822Y0062967D01*
X0113839Y0062965D01*
X0113858Y0062963D01*
X0113877Y0062962D01*
X0113919Y0062955D01*
X0113960Y0062947D01*
X0114000Y0062935D01*
X0114002Y0062934D01*
X0114007Y0062932D01*
X0114014Y0062930D01*
X0114023Y0062926D01*
X0114035Y0062920D01*
X0114048Y0062913D01*
X0114061Y0062905D01*
X0114075Y0062896D01*
X0114089Y0062885D01*
X0114102Y0062872D01*
X0114115Y0062859D01*
X0114127Y0062844D01*
X0114136Y0062828D01*
X0114143Y0062812D01*
X0114148Y0062793D01*
X0114150Y0062772D01*
Y0062768D01*
X0114149Y0062762D01*
X0114147Y0062754D01*
X0114145Y0062745D01*
X0114143Y0062735D01*
X0114138Y0062723D01*
X0114131Y0062710D01*
X0114123Y0062697D01*
X0114113Y0062684D01*
X0114101Y0062670D01*
X0114086Y0062657D01*
X0114069Y0062644D01*
X0114050Y0062632D01*
X0114026Y0062620D01*
X0114000Y0062610D01*
X0113999D01*
X0113995Y0062608D01*
X0113990Y0062607D01*
X0113982Y0062604D01*
X0113972Y0062602D01*
X0113960Y0062599D01*
X0113947Y0062596D01*
X0113931Y0062593D01*
X0113914Y0062589D01*
X0113895Y0062587D01*
X0113875Y0062584D01*
X0113854Y0062581D01*
X0113830Y0062578D01*
X0113807Y0062577D01*
X0113782Y0062575D01*
X0113755D01*
X0113754D01*
X0113749D01*
X0113741D01*
X0113732Y0062576D01*
X0113720D01*
X0113705Y0062577D01*
X0113689Y0062578D01*
X0113672Y0062580D01*
X0113653Y0062582D01*
X0113634Y0062584D01*
X0113593Y0062590D01*
X0113551Y0062599D01*
X0113512Y0062610D01*
X0113510Y0062611D01*
X0113505Y0062613D01*
X0113498Y0062616D01*
X0113488Y0062619D01*
X0113477Y0062625D01*
X0113464Y0062632D01*
X0113450Y0062640D01*
X0113436Y0062649D01*
X0113422Y0062660D01*
X0113409Y0062672D01*
X0113396Y0062685D01*
X0113384Y0062700D01*
X0113375Y0062716D01*
X0113367Y0062733D01*
X0113363Y0062752D01*
X0113361Y0062772D01*
Y0062777D01*
X0113362Y0062782D01*
X0113363Y0062790D01*
X0113366Y0062799D01*
X0113368Y0062811D01*
X0113373Y0062822D01*
X0113380Y0062834D01*
X0113388Y0062847D01*
X0113397Y0062861D01*
X0113410Y0062874D01*
X0113425Y0062888D01*
X0113441Y0062902D01*
X0113462Y0062914D01*
X0113485Y0062925D01*
X0113512Y0062935D01*
X0113513D01*
X0113516Y0062937D01*
X0113522Y0062938D01*
X0113530Y0062941D01*
X0113540Y0062944D01*
X0113552Y0062947D01*
X0113565Y0062949D01*
X0113581Y0062953D01*
X0113598Y0062956D01*
X0113617Y0062959D01*
X0113636Y0062962D01*
X0113658Y0062964D01*
X0113680Y0062967D01*
X0113705Y0062968D01*
X0113729Y0062970D01*
X0113755D01*
X0113757D01*
X0113762D01*
X0113769D01*
X0113779Y0062969D01*
D02*
G37*
G36*
X0114117Y0062417D02*
X0114123Y0062416D01*
X0114130Y0062413D01*
X0114138Y0062409D01*
X0114143Y0062401D01*
X0114148Y0062392D01*
X0114150Y0062379D01*
Y0062377D01*
X0114149Y0062372D01*
X0114148Y0062366D01*
X0114145Y0062359D01*
X0114141Y0062351D01*
X0114133Y0062346D01*
X0114124Y0062341D01*
X0114111Y0062339D01*
X0113496D01*
X0113587Y0062248D01*
Y0062247D01*
X0113589Y0062246D01*
X0113590Y0062244D01*
X0113592Y0062240D01*
X0113596Y0062231D01*
X0113597Y0062226D01*
X0113598Y0062220D01*
Y0062218D01*
X0113597Y0062214D01*
X0113596Y0062208D01*
X0113593Y0062200D01*
X0113589Y0062193D01*
X0113581Y0062187D01*
X0113572Y0062183D01*
X0113559Y0062181D01*
X0113558D01*
X0113556D01*
X0113553Y0062182D01*
X0113549Y0062183D01*
X0113541Y0062185D01*
X0113536Y0062188D01*
X0113531Y0062192D01*
X0113377Y0062347D01*
X0113376Y0062348D01*
X0113374Y0062349D01*
X0113372Y0062352D01*
X0113368Y0062356D01*
X0113364Y0062366D01*
X0113362Y0062372D01*
X0113361Y0062379D01*
Y0062380D01*
X0113362Y0062385D01*
X0113363Y0062391D01*
X0113366Y0062398D01*
X0113370Y0062406D01*
X0113378Y0062411D01*
X0113388Y0062416D01*
X0113394Y0062418D01*
X0113401D01*
X0114111D01*
X0114113D01*
X0114117Y0062417D01*
D02*
G37*
G36*
X0114116Y0062022D02*
X0114120Y0062021D01*
X0114129Y0062019D01*
X0114134Y0062015D01*
X0114139Y0062011D01*
Y0062010D01*
X0114141Y0062009D01*
X0114144Y0062004D01*
X0114148Y0061994D01*
X0114149Y0061990D01*
X0114150Y0061984D01*
Y0061980D01*
X0114149Y0061976D01*
X0114147Y0061970D01*
X0114144Y0061964D01*
X0114141Y0061959D01*
X0114136Y0061953D01*
X0114128Y0061948D01*
X0113834Y0061800D01*
Y0061629D01*
X0114111D01*
X0114113D01*
X0114117Y0061628D01*
X0114123Y0061627D01*
X0114130Y0061624D01*
X0114138Y0061619D01*
X0114143Y0061612D01*
X0114148Y0061602D01*
X0114150Y0061589D01*
Y0061587D01*
X0114149Y0061583D01*
X0114148Y0061577D01*
X0114145Y0061570D01*
X0114141Y0061562D01*
X0114133Y0061557D01*
X0114124Y0061552D01*
X0114111Y0061550D01*
X0113401D01*
X0113400D01*
X0113399D01*
X0113395Y0061551D01*
X0113388Y0061552D01*
X0113381Y0061555D01*
X0113374Y0061559D01*
X0113367Y0061567D01*
X0113363Y0061576D01*
X0113361Y0061583D01*
Y0061796D01*
X0113362Y0061803D01*
X0113363Y0061811D01*
X0113365Y0061821D01*
X0113366Y0061832D01*
X0113369Y0061844D01*
X0113373Y0061856D01*
X0113378Y0061871D01*
X0113383Y0061885D01*
X0113390Y0061899D01*
X0113398Y0061913D01*
X0113408Y0061927D01*
X0113418Y0061941D01*
X0113430Y0061954D01*
X0113431Y0061955D01*
X0113433Y0061957D01*
X0113437Y0061961D01*
X0113442Y0061965D01*
X0113449Y0061970D01*
X0113457Y0061976D01*
X0113467Y0061982D01*
X0113477Y0061989D01*
X0113489Y0061995D01*
X0113501Y0062002D01*
X0113515Y0062007D01*
X0113530Y0062012D01*
X0113545Y0062017D01*
X0113562Y0062021D01*
X0113580Y0062022D01*
X0113598Y0062023D01*
X0113600D01*
X0113605D01*
X0113613Y0062022D01*
X0113624Y0062021D01*
X0113637Y0062019D01*
X0113652Y0062016D01*
X0113669Y0062011D01*
X0113687Y0062006D01*
X0113705Y0061998D01*
X0113724Y0061989D01*
X0113741Y0061977D01*
X0113760Y0061963D01*
X0113777Y0061947D01*
X0113792Y0061928D01*
X0113806Y0061906D01*
X0113818Y0061881D01*
X0114093Y0062019D01*
X0114095Y0062020D01*
X0114098Y0062021D01*
X0114104Y0062022D01*
X0114111Y0062023D01*
X0114112D01*
X0114113D01*
X0114116Y0062022D01*
D02*
G37*
G36*
X0106259Y0075924D02*
X0106265D01*
X0106279Y0075923D01*
X0106295Y0075920D01*
X0106315Y0075915D01*
X0106337Y0075909D01*
X0106360Y0075902D01*
X0106385Y0075892D01*
X0106412Y0075879D01*
X0106438Y0075864D01*
X0106464Y0075847D01*
X0106490Y0075825D01*
X0106503Y0075813D01*
X0106516Y0075800D01*
X0106528Y0075786D01*
X0106540Y0075771D01*
X0106551Y0075755D01*
X0106563Y0075738D01*
Y0075737D01*
X0106564Y0075735D01*
X0106566Y0075732D01*
X0106568Y0075728D01*
X0106575Y0075717D01*
X0106581Y0075704D01*
X0106588Y0075689D01*
X0106594Y0075675D01*
X0106598Y0075661D01*
X0106600Y0075649D01*
Y0075646D01*
X0106599Y0075643D01*
X0106598Y0075640D01*
X0106595Y0075630D01*
X0106592Y0075625D01*
X0106589Y0075621D01*
X0106588D01*
X0106587Y0075619D01*
X0106584Y0075617D01*
X0106580Y0075615D01*
X0106572Y0075611D01*
X0106566Y0075610D01*
X0106561Y0075610D01*
X0106560D01*
X0106556D01*
X0106551Y0075610D01*
X0106547Y0075612D01*
X0106540Y0075614D01*
X0106535Y0075618D01*
X0106531Y0075623D01*
X0106527Y0075629D01*
Y0075630D01*
X0106526Y0075631D01*
X0106524Y0075637D01*
X0106521Y0075644D01*
X0106518Y0075654D01*
X0106513Y0075666D01*
X0106507Y0075678D01*
X0106501Y0075689D01*
X0106494Y0075700D01*
X0106493Y0075702D01*
X0106490Y0075706D01*
X0106486Y0075713D01*
X0106479Y0075721D01*
X0106471Y0075730D01*
X0106461Y0075742D01*
X0106450Y0075754D01*
X0106437Y0075767D01*
X0106423Y0075779D01*
X0106407Y0075792D01*
X0106389Y0075804D01*
X0106370Y0075815D01*
X0106351Y0075825D01*
X0106330Y0075834D01*
X0106308Y0075840D01*
X0106284Y0075844D01*
Y0075720D01*
X0106283Y0075714D01*
X0106282Y0075707D01*
X0106281Y0075699D01*
X0106279Y0075689D01*
X0106277Y0075680D01*
X0106270Y0075657D01*
X0106265Y0075646D01*
X0106260Y0075634D01*
X0106253Y0075623D01*
X0106246Y0075610D01*
X0106237Y0075599D01*
X0106227Y0075588D01*
X0106226Y0075587D01*
X0106224Y0075585D01*
X0106221Y0075582D01*
X0106217Y0075580D01*
X0106211Y0075575D01*
X0106204Y0075570D01*
X0106196Y0075565D01*
X0106188Y0075560D01*
X0106178Y0075554D01*
X0106167Y0075549D01*
X0106144Y0075540D01*
X0106130Y0075536D01*
X0106116Y0075534D01*
X0106102Y0075532D01*
X0106087Y0075531D01*
X0106009D01*
X0106008D01*
X0106005D01*
X0106001D01*
X0105995Y0075532D01*
X0105988Y0075533D01*
X0105980Y0075534D01*
X0105970Y0075535D01*
X0105961Y0075538D01*
X0105938Y0075545D01*
X0105927Y0075550D01*
X0105915Y0075555D01*
X0105904Y0075562D01*
X0105891Y0075569D01*
X0105880Y0075578D01*
X0105869Y0075588D01*
X0105868Y0075589D01*
X0105866Y0075591D01*
X0105863Y0075594D01*
X0105860Y0075598D01*
X0105856Y0075604D01*
X0105850Y0075610D01*
X0105846Y0075619D01*
X0105840Y0075627D01*
X0105834Y0075637D01*
X0105830Y0075648D01*
X0105820Y0075671D01*
X0105816Y0075684D01*
X0105814Y0075699D01*
X0105812Y0075713D01*
X0105811Y0075728D01*
Y0075736D01*
X0105812Y0075742D01*
X0105813Y0075748D01*
X0105814Y0075757D01*
X0105816Y0075766D01*
X0105818Y0075776D01*
X0105825Y0075798D01*
X0105830Y0075809D01*
X0105835Y0075821D01*
X0105842Y0075834D01*
X0105849Y0075845D01*
X0105858Y0075856D01*
X0105868Y0075867D01*
X0105869Y0075868D01*
X0105871Y0075870D01*
X0105874Y0075873D01*
X0105878Y0075877D01*
X0105884Y0075880D01*
X0105890Y0075886D01*
X0105898Y0075891D01*
X0105906Y0075896D01*
X0105917Y0075902D01*
X0105927Y0075907D01*
X0105951Y0075916D01*
X0105965Y0075920D01*
X0105978Y0075923D01*
X0105993Y0075924D01*
X0106008Y0075925D01*
X0106246D01*
X0106247D01*
X0106248D01*
X0106250D01*
X0106254D01*
X0106259Y0075924D01*
D02*
G37*
G36*
X0106566Y0075372D02*
X0106570Y0075371D01*
X0106579Y0075369D01*
X0106584Y0075365D01*
X0106589Y0075361D01*
Y0075360D01*
X0106591Y0075359D01*
X0106594Y0075354D01*
X0106598Y0075344D01*
X0106599Y0075340D01*
X0106600Y0075334D01*
Y0075330D01*
X0106599Y0075326D01*
X0106597Y0075320D01*
X0106594Y0075314D01*
X0106591Y0075309D01*
X0106586Y0075303D01*
X0106578Y0075298D01*
X0106284Y0075150D01*
Y0074979D01*
X0106561D01*
X0106563D01*
X0106567Y0074978D01*
X0106573Y0074977D01*
X0106580Y0074974D01*
X0106588Y0074969D01*
X0106593Y0074962D01*
X0106598Y0074952D01*
X0106600Y0074939D01*
Y0074937D01*
X0106599Y0074933D01*
X0106598Y0074927D01*
X0106595Y0074920D01*
X0106591Y0074912D01*
X0106583Y0074907D01*
X0106574Y0074902D01*
X0106561Y0074900D01*
X0105851D01*
X0105850D01*
X0105849D01*
X0105845Y0074901D01*
X0105838Y0074902D01*
X0105831Y0074905D01*
X0105824Y0074909D01*
X0105817Y0074917D01*
X0105813Y0074926D01*
X0105811Y0074933D01*
Y0075146D01*
X0105812Y0075153D01*
X0105813Y0075161D01*
X0105815Y0075171D01*
X0105816Y0075182D01*
X0105819Y0075194D01*
X0105823Y0075206D01*
X0105828Y0075221D01*
X0105833Y0075235D01*
X0105840Y0075249D01*
X0105848Y0075263D01*
X0105858Y0075277D01*
X0105868Y0075291D01*
X0105880Y0075304D01*
X0105881Y0075305D01*
X0105883Y0075307D01*
X0105887Y0075311D01*
X0105892Y0075315D01*
X0105899Y0075320D01*
X0105907Y0075326D01*
X0105917Y0075332D01*
X0105927Y0075339D01*
X0105939Y0075345D01*
X0105951Y0075352D01*
X0105965Y0075357D01*
X0105980Y0075362D01*
X0105995Y0075367D01*
X0106012Y0075370D01*
X0106030Y0075372D01*
X0106048Y0075373D01*
X0106050D01*
X0106055D01*
X0106063Y0075372D01*
X0106074Y0075371D01*
X0106087Y0075369D01*
X0106102Y0075366D01*
X0106119Y0075361D01*
X0106137Y0075356D01*
X0106155Y0075348D01*
X0106174Y0075339D01*
X0106191Y0075327D01*
X0106210Y0075313D01*
X0106227Y0075297D01*
X0106242Y0075278D01*
X0106256Y0075256D01*
X0106268Y0075231D01*
X0106543Y0075369D01*
X0106545Y0075370D01*
X0106548Y0075371D01*
X0106554Y0075372D01*
X0106561Y0075373D01*
X0106562D01*
X0106563D01*
X0106566Y0075372D01*
D02*
G37*
G36*
X0104217Y0075924D02*
X0104224Y0075923D01*
X0104232Y0075923D01*
X0104242Y0075921D01*
X0104251Y0075918D01*
X0104273Y0075911D01*
X0104285Y0075907D01*
X0104297Y0075901D01*
X0104308Y0075894D01*
X0104320Y0075886D01*
X0104332Y0075878D01*
X0104343Y0075867D01*
X0104344Y0075866D01*
X0104346Y0075864D01*
X0104348Y0075862D01*
X0104351Y0075857D01*
X0104356Y0075851D01*
X0104361Y0075845D01*
X0104366Y0075837D01*
X0104371Y0075828D01*
X0104377Y0075819D01*
X0104382Y0075807D01*
X0104391Y0075784D01*
X0104394Y0075771D01*
X0104397Y0075757D01*
X0104399Y0075743D01*
X0104400Y0075728D01*
Y0075720D01*
X0104399Y0075714D01*
X0104398Y0075707D01*
X0104397Y0075699D01*
X0104395Y0075689D01*
X0104393Y0075680D01*
X0104386Y0075657D01*
X0104381Y0075646D01*
X0104376Y0075634D01*
X0104369Y0075623D01*
X0104362Y0075610D01*
X0104353Y0075599D01*
X0104343Y0075588D01*
X0104342Y0075587D01*
X0104340Y0075585D01*
X0104337Y0075582D01*
X0104333Y0075580D01*
X0104327Y0075575D01*
X0104320Y0075570D01*
X0104312Y0075565D01*
X0104303Y0075560D01*
X0104294Y0075554D01*
X0104283Y0075549D01*
X0104259Y0075540D01*
X0104246Y0075536D01*
X0104232Y0075534D01*
X0104218Y0075532D01*
X0104203Y0075531D01*
X0104124D01*
X0104124D01*
X0104120D01*
X0104115Y0075532D01*
X0104109D01*
X0104100Y0075534D01*
X0104090Y0075535D01*
X0104079Y0075537D01*
X0104067Y0075541D01*
X0104055Y0075545D01*
X0104043Y0075550D01*
X0104030Y0075556D01*
X0104016Y0075564D01*
X0104003Y0075573D01*
X0103990Y0075583D01*
X0103977Y0075595D01*
X0103966Y0075610D01*
X0103965Y0075609D01*
X0103963Y0075606D01*
X0103959Y0075602D01*
X0103955Y0075597D01*
X0103949Y0075592D01*
X0103942Y0075584D01*
X0103934Y0075578D01*
X0103924Y0075570D01*
X0103914Y0075563D01*
X0103901Y0075556D01*
X0103888Y0075550D01*
X0103875Y0075543D01*
X0103859Y0075538D01*
X0103843Y0075535D01*
X0103826Y0075532D01*
X0103809Y0075531D01*
X0103808D01*
X0103805D01*
X0103801D01*
X0103795Y0075532D01*
X0103788Y0075533D01*
X0103780Y0075534D01*
X0103770Y0075535D01*
X0103761Y0075538D01*
X0103738Y0075545D01*
X0103727Y0075550D01*
X0103715Y0075555D01*
X0103704Y0075562D01*
X0103691Y0075569D01*
X0103680Y0075578D01*
X0103669Y0075588D01*
X0103668Y0075589D01*
X0103666Y0075591D01*
X0103663Y0075594D01*
X0103660Y0075598D01*
X0103656Y0075604D01*
X0103650Y0075610D01*
X0103646Y0075619D01*
X0103640Y0075627D01*
X0103634Y0075637D01*
X0103630Y0075648D01*
X0103620Y0075671D01*
X0103616Y0075684D01*
X0103614Y0075699D01*
X0103612Y0075713D01*
X0103611Y0075728D01*
Y0075735D01*
X0103612Y0075742D01*
X0103613Y0075748D01*
X0103614Y0075757D01*
X0103616Y0075766D01*
X0103618Y0075775D01*
X0103625Y0075798D01*
X0103630Y0075809D01*
X0103635Y0075821D01*
X0103642Y0075833D01*
X0103650Y0075845D01*
X0103659Y0075856D01*
X0103669Y0075867D01*
X0103670Y0075868D01*
X0103672Y0075870D01*
X0103675Y0075873D01*
X0103679Y0075877D01*
X0103685Y0075880D01*
X0103691Y0075886D01*
X0103699Y0075891D01*
X0103708Y0075896D01*
X0103718Y0075902D01*
X0103729Y0075907D01*
X0103752Y0075916D01*
X0103765Y0075920D01*
X0103780Y0075923D01*
X0103794Y0075924D01*
X0103809Y0075925D01*
X0103810D01*
X0103813D01*
X0103818Y0075924D01*
X0103825D01*
X0103833Y0075923D01*
X0103843Y0075922D01*
X0103854Y0075919D01*
X0103865Y0075916D01*
X0103877Y0075911D01*
X0103890Y0075907D01*
X0103903Y0075900D01*
X0103916Y0075893D01*
X0103929Y0075883D01*
X0103943Y0075873D01*
X0103955Y0075861D01*
X0103966Y0075847D01*
X0103967Y0075848D01*
X0103968Y0075849D01*
X0103971Y0075852D01*
X0103974Y0075856D01*
X0103983Y0075865D01*
X0103995Y0075877D01*
X0104011Y0075889D01*
X0104029Y0075900D01*
X0104049Y0075910D01*
X0104061Y0075915D01*
X0104072Y0075918D01*
X0104074D01*
X0104076Y0075919D01*
X0104079D01*
X0104082Y0075920D01*
X0104087Y0075921D01*
X0104094D01*
X0104100Y0075922D01*
X0104109Y0075923D01*
X0104118Y0075923D01*
X0104129D01*
X0104140Y0075924D01*
X0104154D01*
X0104169Y0075925D01*
X0104185D01*
X0104203D01*
X0104204D01*
X0104207D01*
X0104211D01*
X0104217Y0075924D01*
D02*
G37*
G36*
X0104366Y0075372D02*
X0104370Y0075371D01*
X0104379Y0075369D01*
X0104384Y0075365D01*
X0104389Y0075361D01*
Y0075360D01*
X0104391Y0075359D01*
X0104394Y0075354D01*
X0104398Y0075344D01*
X0104399Y0075340D01*
X0104400Y0075334D01*
Y0075330D01*
X0104399Y0075326D01*
X0104397Y0075320D01*
X0104394Y0075314D01*
X0104391Y0075309D01*
X0104386Y0075303D01*
X0104378Y0075298D01*
X0104084Y0075150D01*
Y0074979D01*
X0104361D01*
X0104363D01*
X0104367Y0074978D01*
X0104373Y0074977D01*
X0104380Y0074974D01*
X0104388Y0074969D01*
X0104393Y0074962D01*
X0104398Y0074952D01*
X0104400Y0074939D01*
Y0074937D01*
X0104399Y0074933D01*
X0104398Y0074927D01*
X0104395Y0074920D01*
X0104391Y0074912D01*
X0104383Y0074907D01*
X0104374Y0074902D01*
X0104361Y0074900D01*
X0103651D01*
X0103650D01*
X0103649D01*
X0103645Y0074901D01*
X0103638Y0074902D01*
X0103631Y0074905D01*
X0103624Y0074909D01*
X0103617Y0074917D01*
X0103613Y0074926D01*
X0103611Y0074933D01*
Y0075146D01*
X0103612Y0075153D01*
X0103613Y0075161D01*
X0103615Y0075171D01*
X0103616Y0075182D01*
X0103619Y0075194D01*
X0103623Y0075206D01*
X0103628Y0075221D01*
X0103633Y0075235D01*
X0103640Y0075249D01*
X0103648Y0075263D01*
X0103658Y0075277D01*
X0103668Y0075291D01*
X0103680Y0075304D01*
X0103681Y0075305D01*
X0103683Y0075307D01*
X0103687Y0075311D01*
X0103692Y0075315D01*
X0103699Y0075320D01*
X0103707Y0075326D01*
X0103717Y0075332D01*
X0103727Y0075339D01*
X0103739Y0075345D01*
X0103751Y0075352D01*
X0103765Y0075357D01*
X0103780Y0075362D01*
X0103795Y0075367D01*
X0103812Y0075370D01*
X0103830Y0075372D01*
X0103848Y0075373D01*
X0103850D01*
X0103855D01*
X0103863Y0075372D01*
X0103874Y0075371D01*
X0103887Y0075369D01*
X0103902Y0075366D01*
X0103919Y0075361D01*
X0103937Y0075356D01*
X0103955Y0075348D01*
X0103974Y0075339D01*
X0103991Y0075327D01*
X0104010Y0075313D01*
X0104027Y0075297D01*
X0104042Y0075278D01*
X0104056Y0075256D01*
X0104068Y0075231D01*
X0104343Y0075369D01*
X0104345Y0075370D01*
X0104348Y0075371D01*
X0104354Y0075372D01*
X0104361Y0075373D01*
X0104362D01*
X0104363D01*
X0104366Y0075372D01*
D02*
G37*
G36*
X0105112Y0075924D02*
X0105118Y0075923D01*
X0105125Y0075921D01*
X0105133Y0075916D01*
X0105138Y0075908D01*
X0105143Y0075898D01*
X0105144Y0075893D01*
X0105145Y0075885D01*
Y0075837D01*
X0105469Y0075766D01*
X0105470D01*
X0105474Y0075764D01*
X0105478Y0075762D01*
X0105484Y0075759D01*
X0105491Y0075754D01*
X0105495Y0075746D01*
X0105499Y0075738D01*
X0105500Y0075728D01*
Y0075726D01*
X0105499Y0075721D01*
X0105498Y0075715D01*
X0105495Y0075708D01*
X0105491Y0075700D01*
X0105483Y0075695D01*
X0105474Y0075690D01*
X0105461Y0075688D01*
X0105460D01*
X0105458D01*
X0105455D01*
X0105452Y0075689D01*
X0105145Y0075757D01*
Y0075726D01*
X0105144Y0075721D01*
X0105143Y0075715D01*
X0105140Y0075708D01*
X0105135Y0075700D01*
X0105128Y0075695D01*
X0105119Y0075690D01*
X0105105Y0075688D01*
X0105104D01*
X0105099Y0075689D01*
X0105093Y0075690D01*
X0105086Y0075693D01*
X0105078Y0075698D01*
X0105073Y0075705D01*
X0105068Y0075714D01*
X0105066Y0075728D01*
Y0075774D01*
X0104790Y0075835D01*
Y0075567D01*
X0104789Y0075563D01*
X0104788Y0075557D01*
X0104785Y0075550D01*
X0104780Y0075542D01*
X0104773Y0075536D01*
X0104763Y0075532D01*
X0104750Y0075530D01*
X0104748D01*
X0104744Y0075531D01*
X0104738Y0075532D01*
X0104731Y0075535D01*
X0104723Y0075539D01*
X0104717Y0075547D01*
X0104713Y0075556D01*
X0104711Y0075569D01*
Y0075887D01*
X0104712Y0075892D01*
X0104713Y0075897D01*
X0104716Y0075905D01*
X0104720Y0075912D01*
X0104727Y0075919D01*
X0104736Y0075923D01*
X0104749Y0075925D01*
X0104750D01*
X0104752D01*
X0104755Y0075924D01*
X0104760Y0075923D01*
X0105066Y0075856D01*
Y0075887D01*
X0105067Y0075892D01*
X0105068Y0075898D01*
X0105071Y0075906D01*
X0105075Y0075912D01*
X0105083Y0075919D01*
X0105092Y0075923D01*
X0105099Y0075925D01*
X0105105D01*
X0105107D01*
X0105112Y0075924D01*
D02*
G37*
G36*
X0105466Y0075372D02*
X0105470Y0075371D01*
X0105479Y0075369D01*
X0105484Y0075365D01*
X0105489Y0075361D01*
Y0075360D01*
X0105491Y0075359D01*
X0105494Y0075354D01*
X0105498Y0075344D01*
X0105499Y0075340D01*
X0105500Y0075334D01*
Y0075330D01*
X0105499Y0075326D01*
X0105497Y0075320D01*
X0105494Y0075314D01*
X0105491Y0075309D01*
X0105486Y0075303D01*
X0105478Y0075298D01*
X0105184Y0075150D01*
Y0074979D01*
X0105461D01*
X0105463D01*
X0105467Y0074978D01*
X0105473Y0074977D01*
X0105480Y0074974D01*
X0105488Y0074969D01*
X0105493Y0074962D01*
X0105498Y0074952D01*
X0105500Y0074939D01*
Y0074937D01*
X0105499Y0074933D01*
X0105498Y0074927D01*
X0105495Y0074920D01*
X0105491Y0074912D01*
X0105483Y0074907D01*
X0105474Y0074902D01*
X0105461Y0074900D01*
X0104751D01*
X0104750D01*
X0104749D01*
X0104745Y0074901D01*
X0104738Y0074902D01*
X0104731Y0074905D01*
X0104724Y0074909D01*
X0104717Y0074917D01*
X0104713Y0074926D01*
X0104711Y0074933D01*
Y0075146D01*
X0104712Y0075153D01*
X0104713Y0075161D01*
X0104715Y0075171D01*
X0104716Y0075182D01*
X0104719Y0075194D01*
X0104723Y0075206D01*
X0104728Y0075221D01*
X0104733Y0075235D01*
X0104740Y0075249D01*
X0104748Y0075263D01*
X0104758Y0075277D01*
X0104768Y0075291D01*
X0104780Y0075304D01*
X0104781Y0075305D01*
X0104783Y0075307D01*
X0104787Y0075311D01*
X0104792Y0075315D01*
X0104799Y0075320D01*
X0104807Y0075326D01*
X0104817Y0075332D01*
X0104827Y0075339D01*
X0104839Y0075345D01*
X0104851Y0075352D01*
X0104865Y0075357D01*
X0104880Y0075362D01*
X0104895Y0075367D01*
X0104912Y0075370D01*
X0104930Y0075372D01*
X0104948Y0075373D01*
X0104950D01*
X0104955D01*
X0104963Y0075372D01*
X0104974Y0075371D01*
X0104987Y0075369D01*
X0105002Y0075366D01*
X0105019Y0075361D01*
X0105037Y0075356D01*
X0105055Y0075348D01*
X0105074Y0075339D01*
X0105091Y0075327D01*
X0105110Y0075313D01*
X0105127Y0075297D01*
X0105142Y0075278D01*
X0105156Y0075256D01*
X0105168Y0075231D01*
X0105443Y0075369D01*
X0105445Y0075370D01*
X0105448Y0075371D01*
X0105454Y0075372D01*
X0105461Y0075373D01*
X0105462D01*
X0105463D01*
X0105466Y0075372D01*
D02*
G37*
G36*
X0101545Y0075931D02*
X0101551Y0075930D01*
X0101560Y0075930D01*
X0101569Y0075928D01*
X0101579Y0075925D01*
X0101601Y0075918D01*
X0101612Y0075914D01*
X0101624Y0075908D01*
X0101637Y0075901D01*
X0101648Y0075893D01*
X0101659Y0075885D01*
X0101670Y0075874D01*
X0101671Y0075873D01*
X0101673Y0075871D01*
X0101676Y0075869D01*
X0101679Y0075864D01*
X0101684Y0075858D01*
X0101688Y0075852D01*
X0101694Y0075844D01*
X0101699Y0075835D01*
X0101704Y0075825D01*
X0101710Y0075814D01*
X0101718Y0075791D01*
X0101722Y0075778D01*
X0101725Y0075764D01*
X0101727Y0075750D01*
X0101728Y0075735D01*
Y0075727D01*
X0101727Y0075720D01*
X0101726Y0075714D01*
X0101725Y0075705D01*
X0101723Y0075696D01*
X0101720Y0075686D01*
X0101714Y0075664D01*
X0101709Y0075653D01*
X0101704Y0075641D01*
X0101698Y0075629D01*
X0101690Y0075617D01*
X0101682Y0075606D01*
X0101671Y0075595D01*
X0101670Y0075594D01*
X0101669Y0075592D01*
X0101666Y0075589D01*
X0101661Y0075586D01*
X0101655Y0075582D01*
X0101649Y0075577D01*
X0101641Y0075571D01*
X0101632Y0075567D01*
X0101623Y0075561D01*
X0101612Y0075556D01*
X0101588Y0075547D01*
X0101575Y0075543D01*
X0101562Y0075541D01*
X0101547Y0075539D01*
X0101532Y0075538D01*
X0101294D01*
X0101292D01*
X0101288D01*
X0101280Y0075539D01*
X0101271Y0075540D01*
X0101260Y0075541D01*
X0101246Y0075542D01*
X0101231Y0075545D01*
X0101214Y0075549D01*
X0101197Y0075554D01*
X0101178Y0075559D01*
X0101159Y0075567D01*
X0101139Y0075575D01*
X0101118Y0075586D01*
X0101099Y0075598D01*
X0101079Y0075611D01*
X0101059Y0075627D01*
X0101058Y0075628D01*
X0101056Y0075630D01*
X0101052Y0075633D01*
X0101046Y0075639D01*
X0101040Y0075646D01*
X0101033Y0075653D01*
X0101025Y0075661D01*
X0101016Y0075672D01*
X0101007Y0075682D01*
X0100997Y0075694D01*
X0100979Y0075720D01*
X0100962Y0075748D01*
X0100954Y0075763D01*
X0100948Y0075778D01*
Y0075779D01*
X0100946Y0075781D01*
X0100945Y0075786D01*
X0100943Y0075791D01*
X0100940Y0075803D01*
X0100938Y0075809D01*
Y0075815D01*
X0100939Y0075820D01*
X0100940Y0075826D01*
X0100943Y0075834D01*
X0100948Y0075840D01*
X0100955Y0075847D01*
X0100966Y0075852D01*
X0100971Y0075854D01*
X0100979D01*
X0100980D01*
X0100983D01*
X0100988Y0075853D01*
X0100994Y0075851D01*
X0100999Y0075849D01*
X0101005Y0075845D01*
X0101010Y0075840D01*
X0101012Y0075833D01*
Y0075832D01*
X0101013Y0075829D01*
X0101015Y0075825D01*
X0101017Y0075818D01*
X0101020Y0075810D01*
X0101024Y0075802D01*
X0101028Y0075792D01*
X0101034Y0075780D01*
X0101041Y0075769D01*
X0101048Y0075757D01*
X0101056Y0075744D01*
X0101066Y0075731D01*
X0101077Y0075718D01*
X0101089Y0075705D01*
X0101102Y0075691D01*
X0101117Y0075679D01*
X0101118Y0075678D01*
X0101120Y0075677D01*
X0101124Y0075675D01*
X0101129Y0075671D01*
X0101135Y0075667D01*
X0101142Y0075662D01*
X0101150Y0075658D01*
X0101160Y0075652D01*
X0101180Y0075642D01*
X0101204Y0075631D01*
X0101228Y0075624D01*
X0101241Y0075621D01*
X0101254Y0075619D01*
Y0075743D01*
X0101255Y0075749D01*
X0101256Y0075756D01*
X0101257Y0075764D01*
X0101259Y0075773D01*
X0101262Y0075783D01*
X0101268Y0075806D01*
X0101273Y0075817D01*
X0101279Y0075829D01*
X0101285Y0075841D01*
X0101294Y0075853D01*
X0101302Y0075864D01*
X0101312Y0075875D01*
X0101313Y0075876D01*
X0101315Y0075878D01*
X0101318Y0075881D01*
X0101323Y0075885D01*
X0101328Y0075888D01*
X0101335Y0075893D01*
X0101342Y0075899D01*
X0101351Y0075904D01*
X0101361Y0075909D01*
X0101371Y0075915D01*
X0101396Y0075924D01*
X0101409Y0075927D01*
X0101422Y0075930D01*
X0101437Y0075931D01*
X0101452Y0075932D01*
X0101531D01*
X0101532D01*
X0101534D01*
X0101538D01*
X0101545Y0075931D01*
D02*
G37*
G36*
X0101694Y0075379D02*
X0101698Y0075378D01*
X0101707Y0075376D01*
X0101712Y0075372D01*
X0101716Y0075368D01*
Y0075367D01*
X0101718Y0075366D01*
X0101722Y0075361D01*
X0101726Y0075351D01*
X0101727Y0075347D01*
X0101728Y0075341D01*
Y0075337D01*
X0101727Y0075332D01*
X0101725Y0075327D01*
X0101722Y0075321D01*
X0101718Y0075316D01*
X0101714Y0075310D01*
X0101706Y0075305D01*
X0101412Y0075157D01*
Y0074986D01*
X0101688D01*
X0101690D01*
X0101695Y0074985D01*
X0101700Y0074984D01*
X0101708Y0074981D01*
X0101715Y0074976D01*
X0101721Y0074969D01*
X0101726Y0074959D01*
X0101728Y0074946D01*
Y0074944D01*
X0101727Y0074940D01*
X0101726Y0074934D01*
X0101723Y0074927D01*
X0101718Y0074919D01*
X0101711Y0074914D01*
X0101701Y0074909D01*
X0101688Y0074907D01*
X0100979D01*
X0100978D01*
X0100977D01*
X0100972Y0074908D01*
X0100966Y0074909D01*
X0100958Y0074912D01*
X0100952Y0074916D01*
X0100945Y0074924D01*
X0100940Y0074933D01*
X0100938Y0074940D01*
Y0075153D01*
X0100939Y0075160D01*
X0100940Y0075168D01*
X0100942Y0075178D01*
X0100944Y0075189D01*
X0100947Y0075201D01*
X0100951Y0075213D01*
X0100955Y0075228D01*
X0100961Y0075242D01*
X0100967Y0075256D01*
X0100976Y0075270D01*
X0100985Y0075284D01*
X0100996Y0075298D01*
X0101008Y0075311D01*
X0101009Y0075312D01*
X0101011Y0075314D01*
X0101014Y0075317D01*
X0101020Y0075322D01*
X0101026Y0075327D01*
X0101035Y0075332D01*
X0101044Y0075339D01*
X0101055Y0075346D01*
X0101067Y0075352D01*
X0101079Y0075359D01*
X0101093Y0075364D01*
X0101108Y0075369D01*
X0101123Y0075374D01*
X0101140Y0075377D01*
X0101158Y0075379D01*
X0101176Y0075380D01*
X0101177D01*
X0101183D01*
X0101191Y0075379D01*
X0101202Y0075378D01*
X0101215Y0075376D01*
X0101230Y0075373D01*
X0101247Y0075368D01*
X0101265Y0075362D01*
X0101282Y0075355D01*
X0101301Y0075346D01*
X0101319Y0075334D01*
X0101338Y0075320D01*
X0101355Y0075304D01*
X0101370Y0075285D01*
X0101384Y0075263D01*
X0101396Y0075238D01*
X0101670Y0075376D01*
X0101672Y0075377D01*
X0101676Y0075378D01*
X0101682Y0075379D01*
X0101688Y0075380D01*
X0101689D01*
X0101691D01*
X0101694Y0075379D01*
D02*
G37*
G36*
X0102720Y0075931D02*
X0102726Y0075930D01*
X0102735Y0075930D01*
X0102744Y0075928D01*
X0102754Y0075925D01*
X0102776Y0075918D01*
X0102787Y0075914D01*
X0102799Y0075908D01*
X0102811Y0075901D01*
X0102823Y0075893D01*
X0102834Y0075885D01*
X0102845Y0075874D01*
X0102846Y0075873D01*
X0102848Y0075871D01*
X0102851Y0075869D01*
X0102854Y0075864D01*
X0102859Y0075858D01*
X0102863Y0075852D01*
X0102869Y0075844D01*
X0102874Y0075835D01*
X0102879Y0075825D01*
X0102885Y0075814D01*
X0102893Y0075791D01*
X0102897Y0075778D01*
X0102900Y0075764D01*
X0102902Y0075750D01*
X0102903Y0075735D01*
Y0075575D01*
X0102902Y0075571D01*
X0102901Y0075565D01*
X0102898Y0075557D01*
X0102893Y0075550D01*
X0102886Y0075544D01*
X0102876Y0075540D01*
X0102863Y0075538D01*
X0102861D01*
X0102857Y0075539D01*
X0102851Y0075540D01*
X0102844Y0075542D01*
X0102836Y0075547D01*
X0102830Y0075555D01*
X0102826Y0075564D01*
X0102824Y0075577D01*
Y0075739D01*
X0102823Y0075743D01*
X0102822Y0075752D01*
X0102819Y0075764D01*
X0102815Y0075777D01*
X0102810Y0075791D01*
X0102801Y0075806D01*
X0102790Y0075819D01*
X0102788Y0075821D01*
X0102784Y0075825D01*
X0102776Y0075830D01*
X0102767Y0075837D01*
X0102754Y0075842D01*
X0102739Y0075848D01*
X0102724Y0075852D01*
X0102706Y0075854D01*
X0102627D01*
X0102626D01*
X0102625D01*
X0102622D01*
X0102619Y0075853D01*
X0102610Y0075852D01*
X0102598Y0075849D01*
X0102585Y0075845D01*
X0102571Y0075839D01*
X0102557Y0075830D01*
X0102544Y0075818D01*
X0102542Y0075816D01*
X0102538Y0075811D01*
X0102532Y0075805D01*
X0102526Y0075795D01*
X0102519Y0075782D01*
X0102514Y0075768D01*
X0102510Y0075752D01*
X0102508Y0075735D01*
Y0075575D01*
X0102507Y0075571D01*
X0102506Y0075565D01*
X0102503Y0075557D01*
X0102499Y0075550D01*
X0102491Y0075544D01*
X0102482Y0075540D01*
X0102469Y0075538D01*
X0102154D01*
X0102153D01*
X0102152D01*
X0102147Y0075539D01*
X0102141Y0075540D01*
X0102133Y0075542D01*
X0102127Y0075547D01*
X0102120Y0075555D01*
X0102115Y0075564D01*
X0102113Y0075571D01*
Y0075855D01*
X0102114Y0075860D01*
X0102115Y0075866D01*
X0102118Y0075873D01*
X0102123Y0075881D01*
X0102130Y0075886D01*
X0102140Y0075891D01*
X0102153Y0075893D01*
X0102155D01*
X0102159Y0075892D01*
X0102165Y0075891D01*
X0102172Y0075888D01*
X0102180Y0075884D01*
X0102186Y0075876D01*
X0102190Y0075867D01*
X0102192Y0075854D01*
Y0075616D01*
X0102429D01*
Y0075742D01*
X0102430Y0075749D01*
X0102431Y0075755D01*
X0102432Y0075764D01*
X0102434Y0075773D01*
X0102437Y0075782D01*
X0102443Y0075805D01*
X0102448Y0075816D01*
X0102454Y0075828D01*
X0102460Y0075840D01*
X0102469Y0075852D01*
X0102477Y0075863D01*
X0102487Y0075874D01*
X0102488Y0075875D01*
X0102490Y0075877D01*
X0102493Y0075880D01*
X0102498Y0075884D01*
X0102503Y0075887D01*
X0102510Y0075893D01*
X0102517Y0075898D01*
X0102527Y0075903D01*
X0102536Y0075909D01*
X0102547Y0075914D01*
X0102571Y0075923D01*
X0102584Y0075927D01*
X0102598Y0075930D01*
X0102612Y0075931D01*
X0102627Y0075932D01*
X0102706D01*
X0102707D01*
X0102709D01*
X0102713D01*
X0102720Y0075931D01*
D02*
G37*
G36*
X0102869Y0075379D02*
X0102873Y0075378D01*
X0102882Y0075376D01*
X0102887Y0075372D01*
X0102891Y0075368D01*
Y0075367D01*
X0102893Y0075366D01*
X0102897Y0075361D01*
X0102901Y0075351D01*
X0102902Y0075347D01*
X0102903Y0075341D01*
Y0075337D01*
X0102902Y0075332D01*
X0102900Y0075327D01*
X0102897Y0075321D01*
X0102893Y0075316D01*
X0102888Y0075310D01*
X0102881Y0075305D01*
X0102587Y0075157D01*
Y0074986D01*
X0102863D01*
X0102865D01*
X0102870Y0074985D01*
X0102875Y0074984D01*
X0102883Y0074981D01*
X0102890Y0074976D01*
X0102896Y0074969D01*
X0102901Y0074959D01*
X0102903Y0074946D01*
Y0074944D01*
X0102902Y0074940D01*
X0102901Y0074934D01*
X0102898Y0074927D01*
X0102893Y0074919D01*
X0102886Y0074914D01*
X0102876Y0074909D01*
X0102863Y0074907D01*
X0102154D01*
X0102153D01*
X0102152D01*
X0102147Y0074908D01*
X0102141Y0074909D01*
X0102133Y0074912D01*
X0102127Y0074916D01*
X0102120Y0074924D01*
X0102115Y0074933D01*
X0102113Y0074940D01*
Y0075153D01*
X0102114Y0075160D01*
X0102115Y0075168D01*
X0102117Y0075178D01*
X0102119Y0075189D01*
X0102122Y0075201D01*
X0102126Y0075213D01*
X0102130Y0075228D01*
X0102136Y0075242D01*
X0102142Y0075256D01*
X0102151Y0075270D01*
X0102160Y0075284D01*
X0102171Y0075298D01*
X0102183Y0075311D01*
X0102184Y0075312D01*
X0102186Y0075314D01*
X0102189Y0075317D01*
X0102195Y0075322D01*
X0102201Y0075327D01*
X0102210Y0075332D01*
X0102219Y0075339D01*
X0102230Y0075346D01*
X0102242Y0075352D01*
X0102254Y0075359D01*
X0102268Y0075364D01*
X0102283Y0075369D01*
X0102298Y0075374D01*
X0102315Y0075377D01*
X0102333Y0075379D01*
X0102351Y0075380D01*
X0102352D01*
X0102358D01*
X0102366Y0075379D01*
X0102377Y0075378D01*
X0102390Y0075376D01*
X0102405Y0075373D01*
X0102422Y0075368D01*
X0102440Y0075362D01*
X0102457Y0075355D01*
X0102476Y0075346D01*
X0102494Y0075334D01*
X0102513Y0075320D01*
X0102530Y0075304D01*
X0102545Y0075285D01*
X0102559Y0075263D01*
X0102571Y0075238D01*
X0102845Y0075376D01*
X0102847Y0075377D01*
X0102851Y0075378D01*
X0102857Y0075379D01*
X0102863Y0075380D01*
X0102864D01*
X0102866D01*
X0102869Y0075379D01*
D02*
G37*
G36*
X0101210Y0061203D02*
X0101215Y0061202D01*
X0101223Y0061199D01*
X0101230Y0061195D01*
X0101236Y0061187D01*
X0101241Y0061178D01*
X0101243Y0061165D01*
Y0061086D01*
X0101361D01*
X0101363D01*
X0101367Y0061085D01*
X0101373Y0061084D01*
X0101380Y0061081D01*
X0101388Y0061077D01*
X0101393Y0061069D01*
X0101398Y0061060D01*
X0101400Y0061047D01*
Y0061045D01*
X0101399Y0061040D01*
X0101398Y0061034D01*
X0101395Y0061027D01*
X0101391Y0061019D01*
X0101383Y0061014D01*
X0101374Y0061009D01*
X0101361Y0061007D01*
X0101243D01*
Y0060768D01*
X0101242Y0060764D01*
X0101241Y0060758D01*
X0101238Y0060750D01*
X0101233Y0060743D01*
X0101226Y0060737D01*
X0101216Y0060733D01*
X0101203Y0060731D01*
X0101202D01*
X0101199D01*
X0101196D01*
X0101193Y0060732D01*
X0100640Y0060890D01*
X0100639D01*
X0100635Y0060892D01*
X0100631Y0060894D01*
X0100625Y0060898D01*
X0100620Y0060902D01*
X0100616Y0060909D01*
X0100612Y0060917D01*
X0100611Y0060928D01*
Y0060929D01*
X0100612Y0060934D01*
X0100613Y0060940D01*
X0100616Y0060947D01*
X0100620Y0060955D01*
X0100628Y0060960D01*
X0100638Y0060965D01*
X0100644Y0060967D01*
X0100651D01*
X0100652D01*
X0100654D01*
X0100658D01*
X0100662Y0060966D01*
X0101164Y0060822D01*
Y0061007D01*
X0101046D01*
X0101044D01*
X0101039Y0061008D01*
X0101034Y0061009D01*
X0101026Y0061012D01*
X0101019Y0061017D01*
X0101013Y0061024D01*
X0101008Y0061034D01*
X0101006Y0061047D01*
Y0061049D01*
X0101007Y0061053D01*
X0101008Y0061059D01*
X0101011Y0061066D01*
X0101016Y0061074D01*
X0101023Y0061079D01*
X0101033Y0061084D01*
X0101046Y0061086D01*
X0101164D01*
Y0061167D01*
X0101165Y0061171D01*
X0101166Y0061177D01*
X0101169Y0061184D01*
X0101173Y0061192D01*
X0101181Y0061198D01*
X0101190Y0061202D01*
X0101203Y0061204D01*
X0101205D01*
X0101210Y0061203D01*
D02*
G37*
G36*
X0101366Y0060572D02*
X0101370Y0060571D01*
X0101379Y0060569D01*
X0101384Y0060565D01*
X0101389Y0060561D01*
Y0060560D01*
X0101391Y0060559D01*
X0101394Y0060554D01*
X0101398Y0060544D01*
X0101399Y0060540D01*
X0101400Y0060534D01*
Y0060530D01*
X0101399Y0060526D01*
X0101397Y0060520D01*
X0101394Y0060514D01*
X0101391Y0060509D01*
X0101386Y0060503D01*
X0101378Y0060498D01*
X0101084Y0060350D01*
Y0060179D01*
X0101361D01*
X0101363D01*
X0101367Y0060178D01*
X0101373Y0060177D01*
X0101380Y0060174D01*
X0101388Y0060169D01*
X0101393Y0060162D01*
X0101398Y0060152D01*
X0101400Y0060139D01*
Y0060137D01*
X0101399Y0060133D01*
X0101398Y0060127D01*
X0101395Y0060120D01*
X0101391Y0060112D01*
X0101383Y0060107D01*
X0101374Y0060102D01*
X0101361Y0060100D01*
X0100651D01*
X0100650D01*
X0100649D01*
X0100645Y0060101D01*
X0100638Y0060102D01*
X0100631Y0060105D01*
X0100624Y0060109D01*
X0100617Y0060117D01*
X0100613Y0060126D01*
X0100611Y0060133D01*
Y0060346D01*
X0100612Y0060353D01*
X0100613Y0060361D01*
X0100615Y0060371D01*
X0100616Y0060382D01*
X0100619Y0060394D01*
X0100623Y0060406D01*
X0100628Y0060421D01*
X0100633Y0060435D01*
X0100640Y0060449D01*
X0100648Y0060463D01*
X0100658Y0060477D01*
X0100668Y0060491D01*
X0100680Y0060504D01*
X0100681Y0060505D01*
X0100683Y0060507D01*
X0100687Y0060511D01*
X0100692Y0060515D01*
X0100699Y0060520D01*
X0100707Y0060526D01*
X0100717Y0060532D01*
X0100727Y0060539D01*
X0100739Y0060545D01*
X0100751Y0060552D01*
X0100765Y0060557D01*
X0100780Y0060562D01*
X0100795Y0060567D01*
X0100812Y0060571D01*
X0100830Y0060572D01*
X0100848Y0060573D01*
X0100850D01*
X0100855D01*
X0100863Y0060572D01*
X0100874Y0060571D01*
X0100887Y0060569D01*
X0100902Y0060566D01*
X0100919Y0060561D01*
X0100937Y0060556D01*
X0100955Y0060548D01*
X0100974Y0060539D01*
X0100991Y0060527D01*
X0101010Y0060513D01*
X0101027Y0060497D01*
X0101042Y0060478D01*
X0101056Y0060456D01*
X0101068Y0060431D01*
X0101343Y0060569D01*
X0101345Y0060570D01*
X0101348Y0060571D01*
X0101354Y0060572D01*
X0101361Y0060573D01*
X0101362D01*
X0101363D01*
X0101366Y0060572D01*
D02*
G37*
G36*
X0102217Y0061124D02*
X0102224Y0061123D01*
X0102232Y0061123D01*
X0102242Y0061121D01*
X0102251Y0061118D01*
X0102273Y0061111D01*
X0102285Y0061107D01*
X0102297Y0061101D01*
X0102308Y0061094D01*
X0102320Y0061086D01*
X0102332Y0061078D01*
X0102343Y0061067D01*
X0102344Y0061066D01*
X0102346Y0061064D01*
X0102348Y0061062D01*
X0102351Y0061057D01*
X0102356Y0061051D01*
X0102361Y0061045D01*
X0102366Y0061037D01*
X0102371Y0061028D01*
X0102377Y0061019D01*
X0102382Y0061007D01*
X0102391Y0060984D01*
X0102394Y0060971D01*
X0102397Y0060957D01*
X0102399Y0060943D01*
X0102400Y0060928D01*
Y0060768D01*
X0102399Y0060764D01*
X0102398Y0060758D01*
X0102395Y0060750D01*
X0102391Y0060743D01*
X0102383Y0060737D01*
X0102374Y0060733D01*
X0102361Y0060731D01*
X0102359D01*
X0102354Y0060732D01*
X0102348Y0060733D01*
X0102341Y0060735D01*
X0102333Y0060740D01*
X0102328Y0060748D01*
X0102323Y0060757D01*
X0102321Y0060770D01*
Y0060932D01*
X0102320Y0060936D01*
X0102319Y0060945D01*
X0102317Y0060957D01*
X0102313Y0060970D01*
X0102307Y0060984D01*
X0102299Y0060999D01*
X0102288Y0061012D01*
X0102286Y0061014D01*
X0102281Y0061018D01*
X0102273Y0061023D01*
X0102264Y0061030D01*
X0102252Y0061035D01*
X0102237Y0061041D01*
X0102221Y0061045D01*
X0102203Y0061047D01*
X0102124D01*
X0102124D01*
X0102123D01*
X0102120D01*
X0102116Y0061046D01*
X0102108Y0061045D01*
X0102095Y0061042D01*
X0102082Y0061038D01*
X0102068Y0061032D01*
X0102054Y0061023D01*
X0102041Y0061012D01*
X0102039Y0061010D01*
X0102035Y0061005D01*
X0102030Y0060999D01*
X0102023Y0060989D01*
X0102017Y0060976D01*
X0102011Y0060961D01*
X0102007Y0060945D01*
X0102005Y0060928D01*
Y0060847D01*
X0102004Y0060842D01*
X0102004Y0060837D01*
X0102001Y0060829D01*
X0101996Y0060822D01*
X0101989Y0060816D01*
X0101979Y0060811D01*
X0101966Y0060810D01*
X0101964D01*
X0101959Y0060810D01*
X0101954Y0060811D01*
X0101946Y0060814D01*
X0101939Y0060819D01*
X0101933Y0060826D01*
X0101929Y0060836D01*
X0101927Y0060849D01*
Y0060932D01*
X0101926Y0060936D01*
X0101925Y0060945D01*
X0101922Y0060957D01*
X0101918Y0060970D01*
X0101913Y0060984D01*
X0101904Y0060999D01*
X0101893Y0061012D01*
X0101891Y0061014D01*
X0101886Y0061018D01*
X0101879Y0061023D01*
X0101870Y0061030D01*
X0101857Y0061035D01*
X0101842Y0061041D01*
X0101826Y0061045D01*
X0101809Y0061047D01*
X0101808D01*
X0101807D01*
X0101804D01*
X0101800Y0061046D01*
X0101792Y0061045D01*
X0101780Y0061042D01*
X0101766Y0061038D01*
X0101752Y0061032D01*
X0101738Y0061023D01*
X0101725Y0061012D01*
X0101723Y0061010D01*
X0101720Y0061005D01*
X0101714Y0060999D01*
X0101707Y0060989D01*
X0101701Y0060976D01*
X0101695Y0060961D01*
X0101691Y0060945D01*
X0101690Y0060928D01*
Y0060768D01*
X0101689Y0060764D01*
X0101688Y0060758D01*
X0101685Y0060750D01*
X0101680Y0060743D01*
X0101673Y0060737D01*
X0101663Y0060733D01*
X0101650Y0060731D01*
X0101648D01*
X0101644Y0060732D01*
X0101638Y0060733D01*
X0101631Y0060735D01*
X0101623Y0060740D01*
X0101617Y0060748D01*
X0101613Y0060757D01*
X0101611Y0060770D01*
Y0060936D01*
X0101612Y0060942D01*
X0101613Y0060948D01*
X0101614Y0060957D01*
X0101616Y0060966D01*
X0101618Y0060976D01*
X0101625Y0060998D01*
X0101630Y0061009D01*
X0101635Y0061021D01*
X0101642Y0061034D01*
X0101650Y0061045D01*
X0101659Y0061056D01*
X0101669Y0061067D01*
X0101670Y0061068D01*
X0101672Y0061070D01*
X0101675Y0061073D01*
X0101679Y0061077D01*
X0101685Y0061080D01*
X0101691Y0061086D01*
X0101699Y0061091D01*
X0101708Y0061096D01*
X0101718Y0061102D01*
X0101729Y0061107D01*
X0101752Y0061116D01*
X0101765Y0061120D01*
X0101780Y0061123D01*
X0101794Y0061124D01*
X0101809Y0061125D01*
X0101810D01*
X0101813D01*
X0101818Y0061124D01*
X0101825D01*
X0101833Y0061123D01*
X0101843Y0061122D01*
X0101854Y0061119D01*
X0101865Y0061115D01*
X0101877Y0061111D01*
X0101890Y0061106D01*
X0101903Y0061099D01*
X0101916Y0061092D01*
X0101929Y0061082D01*
X0101943Y0061072D01*
X0101955Y0061060D01*
X0101966Y0061046D01*
X0101967Y0061047D01*
X0101969Y0061049D01*
X0101973Y0061053D01*
X0101977Y0061058D01*
X0101983Y0061064D01*
X0101990Y0061071D01*
X0101999Y0061078D01*
X0102008Y0061086D01*
X0102019Y0061093D01*
X0102031Y0061100D01*
X0102044Y0061107D01*
X0102058Y0061113D01*
X0102073Y0061118D01*
X0102090Y0061122D01*
X0102107Y0061124D01*
X0102124Y0061125D01*
X0102203D01*
X0102204D01*
X0102207D01*
X0102211D01*
X0102217Y0061124D01*
D02*
G37*
G36*
X0102366Y0060572D02*
X0102370Y0060571D01*
X0102379Y0060569D01*
X0102384Y0060565D01*
X0102389Y0060561D01*
Y0060560D01*
X0102391Y0060559D01*
X0102394Y0060554D01*
X0102398Y0060544D01*
X0102399Y0060540D01*
X0102400Y0060534D01*
Y0060530D01*
X0102399Y0060526D01*
X0102397Y0060520D01*
X0102394Y0060514D01*
X0102391Y0060509D01*
X0102386Y0060503D01*
X0102378Y0060498D01*
X0102084Y0060350D01*
Y0060179D01*
X0102361D01*
X0102363D01*
X0102367Y0060178D01*
X0102373Y0060177D01*
X0102380Y0060174D01*
X0102388Y0060169D01*
X0102393Y0060162D01*
X0102398Y0060152D01*
X0102400Y0060139D01*
Y0060137D01*
X0102399Y0060133D01*
X0102398Y0060127D01*
X0102395Y0060120D01*
X0102391Y0060112D01*
X0102383Y0060107D01*
X0102374Y0060102D01*
X0102361Y0060100D01*
X0101651D01*
X0101650D01*
X0101649D01*
X0101645Y0060101D01*
X0101638Y0060102D01*
X0101631Y0060105D01*
X0101624Y0060109D01*
X0101617Y0060117D01*
X0101613Y0060126D01*
X0101611Y0060133D01*
Y0060346D01*
X0101612Y0060353D01*
X0101613Y0060361D01*
X0101615Y0060371D01*
X0101616Y0060382D01*
X0101619Y0060394D01*
X0101623Y0060406D01*
X0101628Y0060421D01*
X0101633Y0060435D01*
X0101640Y0060449D01*
X0101648Y0060463D01*
X0101658Y0060477D01*
X0101668Y0060491D01*
X0101680Y0060504D01*
X0101681Y0060505D01*
X0101683Y0060507D01*
X0101687Y0060511D01*
X0101692Y0060515D01*
X0101699Y0060520D01*
X0101707Y0060526D01*
X0101717Y0060532D01*
X0101727Y0060539D01*
X0101739Y0060545D01*
X0101751Y0060552D01*
X0101765Y0060557D01*
X0101780Y0060562D01*
X0101795Y0060567D01*
X0101812Y0060571D01*
X0101830Y0060572D01*
X0101848Y0060573D01*
X0101850D01*
X0101855D01*
X0101863Y0060572D01*
X0101874Y0060571D01*
X0101887Y0060569D01*
X0101902Y0060566D01*
X0101919Y0060561D01*
X0101937Y0060556D01*
X0101955Y0060548D01*
X0101974Y0060539D01*
X0101991Y0060527D01*
X0102010Y0060513D01*
X0102027Y0060497D01*
X0102042Y0060478D01*
X0102056Y0060456D01*
X0102068Y0060431D01*
X0102343Y0060569D01*
X0102345Y0060570D01*
X0102348Y0060571D01*
X0102354Y0060572D01*
X0102361Y0060573D01*
X0102362D01*
X0102363D01*
X0102366Y0060572D01*
D02*
G37*
G36*
X0104367Y0061124D02*
X0104373Y0061123D01*
X0104380Y0061121D01*
X0104388Y0061116D01*
X0104393Y0061108D01*
X0104398Y0061098D01*
X0104399Y0061093D01*
X0104400Y0061085D01*
Y0060768D01*
X0104399Y0060764D01*
X0104398Y0060758D01*
X0104395Y0060750D01*
X0104391Y0060743D01*
X0104383Y0060737D01*
X0104374Y0060733D01*
X0104361Y0060731D01*
X0104360D01*
X0104359D01*
X0104353Y0060732D01*
X0104347Y0060734D01*
X0104338Y0060737D01*
X0103873Y0061026D01*
X0103871Y0061027D01*
X0103868Y0061029D01*
X0103862Y0061033D01*
X0103854Y0061036D01*
X0103844Y0061039D01*
X0103833Y0061043D01*
X0103821Y0061045D01*
X0103809Y0061046D01*
X0103808D01*
X0103807D01*
X0103804D01*
X0103800Y0061045D01*
X0103792Y0061044D01*
X0103780Y0061041D01*
X0103766Y0061037D01*
X0103752Y0061031D01*
X0103738Y0061022D01*
X0103725Y0061011D01*
X0103723Y0061009D01*
X0103720Y0061004D01*
X0103714Y0060998D01*
X0103707Y0060988D01*
X0103701Y0060975D01*
X0103695Y0060961D01*
X0103691Y0060945D01*
X0103690Y0060928D01*
Y0060925D01*
X0103690Y0060921D01*
X0103691Y0060916D01*
X0103692Y0060911D01*
X0103695Y0060903D01*
X0103698Y0060896D01*
X0103702Y0060887D01*
X0103707Y0060878D01*
X0103714Y0060869D01*
X0103721Y0060858D01*
X0103732Y0060847D01*
X0103743Y0060837D01*
X0103756Y0060825D01*
X0103771Y0060815D01*
X0103789Y0060804D01*
X0103790D01*
X0103792Y0060802D01*
X0103795Y0060799D01*
X0103798Y0060795D01*
X0103802Y0060791D01*
X0103806Y0060785D01*
X0103808Y0060779D01*
X0103809Y0060770D01*
Y0060768D01*
X0103808Y0060764D01*
X0103807Y0060758D01*
X0103804Y0060750D01*
X0103799Y0060743D01*
X0103792Y0060737D01*
X0103782Y0060733D01*
X0103769Y0060731D01*
X0103767D01*
X0103764Y0060732D01*
X0103758Y0060733D01*
X0103752Y0060735D01*
X0103750Y0060735D01*
X0103746Y0060738D01*
X0103739Y0060742D01*
X0103730Y0060748D01*
X0103720Y0060755D01*
X0103707Y0060764D01*
X0103695Y0060774D01*
X0103681Y0060786D01*
X0103668Y0060799D01*
X0103656Y0060814D01*
X0103644Y0060830D01*
X0103633Y0060847D01*
X0103624Y0060865D01*
X0103616Y0060884D01*
X0103613Y0060906D01*
X0103611Y0060928D01*
Y0060935D01*
X0103612Y0060942D01*
X0103613Y0060948D01*
X0103614Y0060957D01*
X0103616Y0060966D01*
X0103618Y0060975D01*
X0103625Y0060998D01*
X0103630Y0061009D01*
X0103635Y0061021D01*
X0103642Y0061033D01*
X0103650Y0061045D01*
X0103659Y0061056D01*
X0103669Y0061067D01*
X0103670Y0061068D01*
X0103672Y0061070D01*
X0103675Y0061073D01*
X0103679Y0061077D01*
X0103685Y0061080D01*
X0103691Y0061086D01*
X0103699Y0061091D01*
X0103708Y0061096D01*
X0103718Y0061102D01*
X0103729Y0061107D01*
X0103752Y0061116D01*
X0103765Y0061120D01*
X0103780Y0061123D01*
X0103794Y0061124D01*
X0103809Y0061125D01*
X0103810D01*
X0103811D01*
X0103814D01*
X0103818Y0061124D01*
X0103824D01*
X0103829Y0061123D01*
X0103844Y0061121D01*
X0103861Y0061117D01*
X0103880Y0061110D01*
X0103900Y0061101D01*
X0103922Y0061089D01*
X0104321Y0060840D01*
Y0061087D01*
X0104322Y0061092D01*
X0104323Y0061098D01*
X0104326Y0061106D01*
X0104331Y0061112D01*
X0104338Y0061119D01*
X0104348Y0061123D01*
X0104354Y0061125D01*
X0104361D01*
X0104363D01*
X0104367Y0061124D01*
D02*
G37*
G36*
X0104366Y0060572D02*
X0104370Y0060571D01*
X0104379Y0060569D01*
X0104384Y0060565D01*
X0104389Y0060561D01*
Y0060560D01*
X0104391Y0060559D01*
X0104394Y0060554D01*
X0104398Y0060544D01*
X0104399Y0060540D01*
X0104400Y0060534D01*
Y0060530D01*
X0104399Y0060526D01*
X0104397Y0060520D01*
X0104394Y0060514D01*
X0104391Y0060509D01*
X0104386Y0060503D01*
X0104378Y0060498D01*
X0104084Y0060350D01*
Y0060179D01*
X0104361D01*
X0104363D01*
X0104367Y0060178D01*
X0104373Y0060177D01*
X0104380Y0060174D01*
X0104388Y0060169D01*
X0104393Y0060162D01*
X0104398Y0060152D01*
X0104400Y0060139D01*
Y0060137D01*
X0104399Y0060133D01*
X0104398Y0060127D01*
X0104395Y0060120D01*
X0104391Y0060112D01*
X0104383Y0060107D01*
X0104374Y0060102D01*
X0104361Y0060100D01*
X0103651D01*
X0103650D01*
X0103649D01*
X0103645Y0060101D01*
X0103638Y0060102D01*
X0103631Y0060105D01*
X0103624Y0060109D01*
X0103617Y0060117D01*
X0103613Y0060126D01*
X0103611Y0060133D01*
Y0060346D01*
X0103612Y0060353D01*
X0103613Y0060361D01*
X0103615Y0060371D01*
X0103616Y0060382D01*
X0103619Y0060394D01*
X0103623Y0060406D01*
X0103628Y0060421D01*
X0103633Y0060435D01*
X0103640Y0060449D01*
X0103648Y0060463D01*
X0103658Y0060477D01*
X0103668Y0060491D01*
X0103680Y0060504D01*
X0103681Y0060505D01*
X0103683Y0060507D01*
X0103687Y0060511D01*
X0103692Y0060515D01*
X0103699Y0060520D01*
X0103707Y0060526D01*
X0103717Y0060532D01*
X0103727Y0060539D01*
X0103739Y0060545D01*
X0103751Y0060552D01*
X0103765Y0060557D01*
X0103780Y0060562D01*
X0103795Y0060567D01*
X0103812Y0060571D01*
X0103830Y0060572D01*
X0103848Y0060573D01*
X0103850D01*
X0103855D01*
X0103863Y0060572D01*
X0103874Y0060571D01*
X0103887Y0060569D01*
X0103902Y0060566D01*
X0103919Y0060561D01*
X0103937Y0060556D01*
X0103955Y0060548D01*
X0103974Y0060539D01*
X0103991Y0060527D01*
X0104010Y0060513D01*
X0104027Y0060497D01*
X0104042Y0060478D01*
X0104056Y0060456D01*
X0104068Y0060431D01*
X0104343Y0060569D01*
X0104345Y0060570D01*
X0104348Y0060571D01*
X0104354Y0060572D01*
X0104361Y0060573D01*
X0104362D01*
X0104363D01*
X0104366Y0060572D01*
D02*
G37*
G36*
X0103367Y0060967D02*
X0103373Y0060966D01*
X0103380Y0060963D01*
X0103388Y0060959D01*
X0103393Y0060951D01*
X0103398Y0060942D01*
X0103400Y0060929D01*
Y0060927D01*
X0103399Y0060922D01*
X0103398Y0060916D01*
X0103395Y0060909D01*
X0103391Y0060901D01*
X0103383Y0060896D01*
X0103374Y0060891D01*
X0103361Y0060889D01*
X0102746D01*
X0102837Y0060798D01*
Y0060797D01*
X0102839Y0060796D01*
X0102840Y0060794D01*
X0102842Y0060790D01*
X0102846Y0060781D01*
X0102847Y0060776D01*
X0102848Y0060770D01*
Y0060768D01*
X0102847Y0060764D01*
X0102846Y0060758D01*
X0102843Y0060750D01*
X0102839Y0060743D01*
X0102831Y0060737D01*
X0102822Y0060733D01*
X0102809Y0060731D01*
X0102808D01*
X0102806D01*
X0102803Y0060732D01*
X0102799Y0060733D01*
X0102791Y0060735D01*
X0102786Y0060738D01*
X0102781Y0060742D01*
X0102627Y0060897D01*
X0102626Y0060898D01*
X0102624Y0060899D01*
X0102622Y0060902D01*
X0102618Y0060906D01*
X0102614Y0060916D01*
X0102612Y0060922D01*
X0102611Y0060929D01*
Y0060930D01*
X0102612Y0060935D01*
X0102613Y0060941D01*
X0102616Y0060948D01*
X0102620Y0060956D01*
X0102628Y0060961D01*
X0102638Y0060966D01*
X0102644Y0060968D01*
X0102651D01*
X0103361D01*
X0103363D01*
X0103367Y0060967D01*
D02*
G37*
G36*
X0103366Y0060572D02*
X0103370Y0060571D01*
X0103379Y0060569D01*
X0103384Y0060565D01*
X0103389Y0060561D01*
Y0060560D01*
X0103391Y0060559D01*
X0103394Y0060554D01*
X0103398Y0060544D01*
X0103399Y0060540D01*
X0103400Y0060534D01*
Y0060530D01*
X0103399Y0060526D01*
X0103397Y0060520D01*
X0103394Y0060514D01*
X0103391Y0060509D01*
X0103386Y0060503D01*
X0103378Y0060498D01*
X0103084Y0060350D01*
Y0060179D01*
X0103361D01*
X0103363D01*
X0103367Y0060178D01*
X0103373Y0060177D01*
X0103380Y0060174D01*
X0103388Y0060169D01*
X0103393Y0060162D01*
X0103398Y0060152D01*
X0103400Y0060139D01*
Y0060137D01*
X0103399Y0060133D01*
X0103398Y0060127D01*
X0103395Y0060120D01*
X0103391Y0060112D01*
X0103383Y0060107D01*
X0103374Y0060102D01*
X0103361Y0060100D01*
X0102651D01*
X0102650D01*
X0102649D01*
X0102645Y0060101D01*
X0102638Y0060102D01*
X0102631Y0060105D01*
X0102624Y0060109D01*
X0102617Y0060117D01*
X0102613Y0060126D01*
X0102611Y0060133D01*
Y0060346D01*
X0102612Y0060353D01*
X0102613Y0060361D01*
X0102615Y0060371D01*
X0102616Y0060382D01*
X0102619Y0060394D01*
X0102623Y0060406D01*
X0102628Y0060421D01*
X0102633Y0060435D01*
X0102640Y0060449D01*
X0102648Y0060463D01*
X0102658Y0060477D01*
X0102668Y0060491D01*
X0102680Y0060504D01*
X0102681Y0060505D01*
X0102683Y0060507D01*
X0102687Y0060511D01*
X0102692Y0060515D01*
X0102699Y0060520D01*
X0102707Y0060526D01*
X0102717Y0060532D01*
X0102727Y0060539D01*
X0102739Y0060545D01*
X0102751Y0060552D01*
X0102765Y0060557D01*
X0102780Y0060562D01*
X0102795Y0060567D01*
X0102812Y0060571D01*
X0102830Y0060572D01*
X0102848Y0060573D01*
X0102850D01*
X0102855D01*
X0102863Y0060572D01*
X0102874Y0060571D01*
X0102887Y0060569D01*
X0102902Y0060566D01*
X0102919Y0060561D01*
X0102937Y0060556D01*
X0102955Y0060548D01*
X0102974Y0060539D01*
X0102991Y0060527D01*
X0103010Y0060513D01*
X0103027Y0060497D01*
X0103042Y0060478D01*
X0103056Y0060456D01*
X0103068Y0060431D01*
X0103343Y0060569D01*
X0103345Y0060570D01*
X0103348Y0060571D01*
X0103354Y0060572D01*
X0103361Y0060573D01*
X0103362D01*
X0103363D01*
X0103366Y0060572D01*
D02*
G37*
G36*
X0124063Y0075688D02*
X0124069Y0075687D01*
X0124078Y0075686D01*
X0124087Y0075684D01*
X0124098Y0075682D01*
X0124119Y0075675D01*
X0124130Y0075670D01*
X0124143Y0075665D01*
X0124155Y0075658D01*
X0124166Y0075651D01*
X0124177Y0075642D01*
X0124189Y0075632D01*
X0124189Y0075631D01*
X0124191Y0075629D01*
X0124194Y0075626D01*
X0124198Y0075622D01*
X0124202Y0075616D01*
X0124207Y0075610D01*
X0124212Y0075602D01*
X0124218Y0075594D01*
X0124223Y0075583D01*
X0124228Y0075573D01*
X0124237Y0075549D01*
X0124241Y0075535D01*
X0124244Y0075522D01*
X0124246Y0075507D01*
X0124247Y0075492D01*
Y0075254D01*
Y0075253D01*
Y0075252D01*
Y0075250D01*
Y0075246D01*
X0124246Y0075241D01*
Y0075235D01*
X0124244Y0075221D01*
X0124241Y0075205D01*
X0124236Y0075185D01*
X0124231Y0075163D01*
X0124223Y0075140D01*
X0124213Y0075115D01*
X0124201Y0075088D01*
X0124186Y0075062D01*
X0124168Y0075036D01*
X0124146Y0075010D01*
X0124134Y0074997D01*
X0124121Y0074984D01*
X0124107Y0074972D01*
X0124092Y0074960D01*
X0124076Y0074949D01*
X0124059Y0074937D01*
X0124058D01*
X0124056Y0074936D01*
X0124054Y0074934D01*
X0124049Y0074932D01*
X0124039Y0074925D01*
X0124025Y0074919D01*
X0124010Y0074912D01*
X0123996Y0074906D01*
X0123982Y0074902D01*
X0123970Y0074900D01*
X0123967D01*
X0123965Y0074901D01*
X0123961Y0074902D01*
X0123951Y0074905D01*
X0123947Y0074908D01*
X0123942Y0074911D01*
Y0074912D01*
X0123940Y0074913D01*
X0123938Y0074916D01*
X0123936Y0074920D01*
X0123933Y0074928D01*
X0123932Y0074934D01*
X0123931Y0074939D01*
Y0074940D01*
Y0074944D01*
X0123932Y0074949D01*
X0123934Y0074953D01*
X0123935Y0074960D01*
X0123939Y0074965D01*
X0123944Y0074969D01*
X0123950Y0074973D01*
X0123951D01*
X0123952Y0074974D01*
X0123958Y0074976D01*
X0123965Y0074979D01*
X0123976Y0074982D01*
X0123987Y0074987D01*
X0123999Y0074993D01*
X0124010Y0074999D01*
X0124022Y0075006D01*
X0124024Y0075007D01*
X0124027Y0075010D01*
X0124034Y0075014D01*
X0124042Y0075021D01*
X0124052Y0075029D01*
X0124063Y0075039D01*
X0124075Y0075050D01*
X0124088Y0075063D01*
X0124100Y0075077D01*
X0124114Y0075093D01*
X0124125Y0075111D01*
X0124136Y0075130D01*
X0124146Y0075149D01*
X0124155Y0075170D01*
X0124161Y0075192D01*
X0124165Y0075216D01*
X0124041D01*
X0124035Y0075217D01*
X0124028Y0075218D01*
X0124020Y0075219D01*
X0124010Y0075221D01*
X0124001Y0075223D01*
X0123979Y0075230D01*
X0123967Y0075235D01*
X0123955Y0075240D01*
X0123944Y0075247D01*
X0123932Y0075254D01*
X0123920Y0075263D01*
X0123909Y0075273D01*
X0123908Y0075274D01*
X0123906Y0075276D01*
X0123904Y0075279D01*
X0123901Y0075283D01*
X0123896Y0075289D01*
X0123891Y0075296D01*
X0123886Y0075304D01*
X0123881Y0075312D01*
X0123875Y0075322D01*
X0123870Y0075333D01*
X0123861Y0075356D01*
X0123858Y0075370D01*
X0123855Y0075384D01*
X0123853Y0075398D01*
X0123852Y0075413D01*
Y0075491D01*
Y0075492D01*
Y0075495D01*
Y0075499D01*
X0123853Y0075505D01*
X0123854Y0075512D01*
X0123855Y0075520D01*
X0123857Y0075530D01*
X0123860Y0075539D01*
X0123866Y0075562D01*
X0123871Y0075573D01*
X0123876Y0075585D01*
X0123883Y0075596D01*
X0123890Y0075609D01*
X0123899Y0075620D01*
X0123909Y0075631D01*
X0123910Y0075632D01*
X0123912Y0075634D01*
X0123915Y0075637D01*
X0123920Y0075640D01*
X0123925Y0075644D01*
X0123932Y0075650D01*
X0123940Y0075654D01*
X0123949Y0075660D01*
X0123958Y0075666D01*
X0123969Y0075670D01*
X0123993Y0075680D01*
X0124006Y0075684D01*
X0124020Y0075686D01*
X0124034Y0075688D01*
X0124049Y0075689D01*
X0124057D01*
X0124063Y0075688D01*
D02*
G37*
G36*
X0123661D02*
X0123666Y0075687D01*
X0123674Y0075684D01*
X0123681Y0075680D01*
X0123687Y0075672D01*
X0123692Y0075663D01*
X0123694Y0075650D01*
Y0075648D01*
X0123693Y0075643D01*
X0123692Y0075638D01*
X0123689Y0075630D01*
X0123684Y0075623D01*
X0123677Y0075617D01*
X0123667Y0075612D01*
X0123654Y0075610D01*
X0123492D01*
X0123488Y0075610D01*
X0123479Y0075609D01*
X0123468Y0075606D01*
X0123455Y0075602D01*
X0123441Y0075595D01*
X0123427Y0075587D01*
X0123412Y0075575D01*
X0123411Y0075573D01*
X0123407Y0075568D01*
X0123402Y0075562D01*
X0123396Y0075551D01*
X0123389Y0075539D01*
X0123384Y0075525D01*
X0123381Y0075509D01*
X0123379Y0075491D01*
Y0075097D01*
Y0075096D01*
Y0075095D01*
Y0075092D01*
X0123380Y0075088D01*
X0123381Y0075080D01*
X0123383Y0075068D01*
X0123387Y0075055D01*
X0123393Y0075042D01*
X0123401Y0075027D01*
X0123412Y0075013D01*
X0123414Y0075012D01*
X0123419Y0075008D01*
X0123427Y0075002D01*
X0123436Y0074997D01*
X0123448Y0074990D01*
X0123463Y0074984D01*
X0123479Y0074981D01*
X0123497Y0074979D01*
X0123656D01*
X0123661Y0074978D01*
X0123666Y0074977D01*
X0123674Y0074974D01*
X0123681Y0074969D01*
X0123687Y0074962D01*
X0123692Y0074952D01*
X0123694Y0074939D01*
Y0074937D01*
X0123693Y0074933D01*
X0123692Y0074927D01*
X0123689Y0074920D01*
X0123684Y0074912D01*
X0123677Y0074907D01*
X0123667Y0074902D01*
X0123654Y0074900D01*
X0123489D01*
X0123483Y0074901D01*
X0123476Y0074902D01*
X0123468Y0074903D01*
X0123458Y0074905D01*
X0123448Y0074908D01*
X0123427Y0074914D01*
X0123415Y0074919D01*
X0123403Y0074924D01*
X0123391Y0074931D01*
X0123380Y0074938D01*
X0123368Y0074947D01*
X0123357Y0074957D01*
X0123356Y0074958D01*
X0123354Y0074960D01*
X0123352Y0074963D01*
X0123349Y0074967D01*
X0123344Y0074973D01*
X0123339Y0074980D01*
X0123334Y0074988D01*
X0123329Y0074997D01*
X0123323Y0075006D01*
X0123318Y0075017D01*
X0123309Y0075041D01*
X0123306Y0075054D01*
X0123303Y0075068D01*
X0123301Y0075082D01*
X0123300Y0075097D01*
Y0075491D01*
Y0075492D01*
Y0075495D01*
Y0075499D01*
X0123301Y0075505D01*
X0123302Y0075512D01*
X0123303Y0075520D01*
X0123305Y0075530D01*
X0123308Y0075539D01*
X0123314Y0075562D01*
X0123319Y0075573D01*
X0123324Y0075585D01*
X0123331Y0075596D01*
X0123338Y0075609D01*
X0123347Y0075620D01*
X0123357Y0075631D01*
X0123358Y0075632D01*
X0123360Y0075634D01*
X0123363Y0075637D01*
X0123367Y0075640D01*
X0123373Y0075644D01*
X0123380Y0075650D01*
X0123387Y0075654D01*
X0123397Y0075660D01*
X0123406Y0075666D01*
X0123416Y0075670D01*
X0123441Y0075680D01*
X0123454Y0075684D01*
X0123467Y0075686D01*
X0123482Y0075688D01*
X0123497Y0075689D01*
X0123656D01*
X0123661Y0075688D01*
D02*
G37*
G36*
X0124063Y0074588D02*
X0124069Y0074587D01*
X0124078Y0074586D01*
X0124087Y0074584D01*
X0124097Y0074582D01*
X0124119Y0074575D01*
X0124130Y0074570D01*
X0124143Y0074565D01*
X0124154Y0074558D01*
X0124166Y0074550D01*
X0124177Y0074541D01*
X0124189Y0074531D01*
X0124189Y0074530D01*
X0124191Y0074528D01*
X0124194Y0074525D01*
X0124198Y0074521D01*
X0124202Y0074515D01*
X0124207Y0074509D01*
X0124212Y0074501D01*
X0124218Y0074492D01*
X0124223Y0074482D01*
X0124228Y0074471D01*
X0124237Y0074448D01*
X0124241Y0074435D01*
X0124244Y0074420D01*
X0124246Y0074406D01*
X0124247Y0074391D01*
Y0074390D01*
Y0074387D01*
X0124246Y0074382D01*
Y0074375D01*
X0124244Y0074367D01*
X0124243Y0074357D01*
X0124240Y0074346D01*
X0124237Y0074335D01*
X0124233Y0074323D01*
X0124228Y0074310D01*
X0124221Y0074297D01*
X0124214Y0074284D01*
X0124204Y0074271D01*
X0124194Y0074257D01*
X0124182Y0074245D01*
X0124168Y0074234D01*
X0124169Y0074233D01*
X0124171Y0074232D01*
X0124174Y0074229D01*
X0124177Y0074226D01*
X0124187Y0074217D01*
X0124198Y0074205D01*
X0124210Y0074189D01*
X0124221Y0074171D01*
X0124232Y0074151D01*
X0124236Y0074139D01*
X0124239Y0074128D01*
Y0074126D01*
X0124240Y0074124D01*
Y0074121D01*
X0124241Y0074118D01*
X0124242Y0074113D01*
Y0074106D01*
X0124243Y0074100D01*
X0124244Y0074091D01*
X0124245Y0074082D01*
Y0074071D01*
X0124246Y0074060D01*
Y0074046D01*
X0124247Y0074031D01*
Y0074015D01*
Y0073997D01*
Y0073996D01*
Y0073993D01*
Y0073989D01*
X0124246Y0073983D01*
X0124245Y0073976D01*
X0124244Y0073968D01*
X0124242Y0073958D01*
X0124239Y0073949D01*
X0124233Y0073927D01*
X0124228Y0073915D01*
X0124222Y0073903D01*
X0124216Y0073892D01*
X0124207Y0073880D01*
X0124199Y0073868D01*
X0124189Y0073857D01*
X0124188Y0073856D01*
X0124186Y0073854D01*
X0124183Y0073852D01*
X0124178Y0073849D01*
X0124173Y0073844D01*
X0124166Y0073839D01*
X0124159Y0073834D01*
X0124149Y0073829D01*
X0124140Y0073823D01*
X0124129Y0073818D01*
X0124105Y0073809D01*
X0124092Y0073806D01*
X0124078Y0073803D01*
X0124064Y0073801D01*
X0124049Y0073800D01*
X0124041D01*
X0124035Y0073801D01*
X0124028Y0073802D01*
X0124020Y0073803D01*
X0124010Y0073805D01*
X0124001Y0073808D01*
X0123979Y0073814D01*
X0123967Y0073819D01*
X0123955Y0073824D01*
X0123944Y0073831D01*
X0123932Y0073838D01*
X0123920Y0073847D01*
X0123909Y0073857D01*
X0123908Y0073858D01*
X0123906Y0073860D01*
X0123904Y0073863D01*
X0123901Y0073867D01*
X0123896Y0073873D01*
X0123891Y0073880D01*
X0123886Y0073888D01*
X0123881Y0073897D01*
X0123875Y0073906D01*
X0123870Y0073917D01*
X0123861Y0073941D01*
X0123858Y0073954D01*
X0123855Y0073968D01*
X0123853Y0073982D01*
X0123852Y0073997D01*
Y0074076D01*
Y0074076D01*
Y0074080D01*
X0123853Y0074085D01*
Y0074091D01*
X0123855Y0074100D01*
X0123856Y0074110D01*
X0123859Y0074121D01*
X0123862Y0074133D01*
X0123866Y0074145D01*
X0123872Y0074157D01*
X0123877Y0074170D01*
X0123885Y0074184D01*
X0123894Y0074197D01*
X0123905Y0074210D01*
X0123917Y0074223D01*
X0123931Y0074234D01*
X0123930Y0074235D01*
X0123927Y0074237D01*
X0123923Y0074241D01*
X0123919Y0074245D01*
X0123913Y0074251D01*
X0123905Y0074258D01*
X0123899Y0074266D01*
X0123891Y0074276D01*
X0123884Y0074286D01*
X0123877Y0074299D01*
X0123871Y0074312D01*
X0123864Y0074325D01*
X0123860Y0074341D01*
X0123856Y0074357D01*
X0123853Y0074374D01*
X0123852Y0074391D01*
Y0074392D01*
Y0074395D01*
Y0074399D01*
X0123853Y0074405D01*
X0123854Y0074412D01*
X0123855Y0074420D01*
X0123857Y0074430D01*
X0123860Y0074439D01*
X0123866Y0074462D01*
X0123871Y0074473D01*
X0123876Y0074485D01*
X0123883Y0074496D01*
X0123890Y0074509D01*
X0123899Y0074520D01*
X0123909Y0074531D01*
X0123910Y0074532D01*
X0123912Y0074534D01*
X0123915Y0074537D01*
X0123920Y0074540D01*
X0123925Y0074544D01*
X0123932Y0074550D01*
X0123940Y0074554D01*
X0123949Y0074560D01*
X0123958Y0074566D01*
X0123969Y0074570D01*
X0123993Y0074580D01*
X0124006Y0074584D01*
X0124020Y0074586D01*
X0124034Y0074588D01*
X0124049Y0074589D01*
X0124056D01*
X0124063Y0074588D01*
D02*
G37*
G36*
X0123661D02*
X0123666Y0074587D01*
X0123674Y0074584D01*
X0123681Y0074580D01*
X0123687Y0074572D01*
X0123692Y0074563D01*
X0123694Y0074550D01*
Y0074548D01*
X0123693Y0074543D01*
X0123692Y0074538D01*
X0123689Y0074530D01*
X0123684Y0074523D01*
X0123677Y0074517D01*
X0123667Y0074512D01*
X0123654Y0074510D01*
X0123492D01*
X0123488Y0074510D01*
X0123479Y0074509D01*
X0123468Y0074506D01*
X0123455Y0074502D01*
X0123441Y0074495D01*
X0123427Y0074487D01*
X0123412Y0074475D01*
X0123411Y0074473D01*
X0123407Y0074468D01*
X0123402Y0074462D01*
X0123396Y0074451D01*
X0123389Y0074439D01*
X0123384Y0074425D01*
X0123381Y0074409D01*
X0123379Y0074391D01*
Y0073997D01*
Y0073996D01*
Y0073995D01*
Y0073992D01*
X0123380Y0073988D01*
X0123381Y0073980D01*
X0123383Y0073968D01*
X0123387Y0073955D01*
X0123393Y0073942D01*
X0123401Y0073927D01*
X0123412Y0073913D01*
X0123414Y0073912D01*
X0123419Y0073908D01*
X0123427Y0073902D01*
X0123436Y0073897D01*
X0123448Y0073890D01*
X0123463Y0073884D01*
X0123479Y0073881D01*
X0123497Y0073879D01*
X0123656D01*
X0123661Y0073878D01*
X0123666Y0073877D01*
X0123674Y0073874D01*
X0123681Y0073869D01*
X0123687Y0073862D01*
X0123692Y0073852D01*
X0123694Y0073839D01*
Y0073837D01*
X0123693Y0073833D01*
X0123692Y0073827D01*
X0123689Y0073820D01*
X0123684Y0073812D01*
X0123677Y0073807D01*
X0123667Y0073802D01*
X0123654Y0073800D01*
X0123489D01*
X0123483Y0073801D01*
X0123476Y0073802D01*
X0123468Y0073803D01*
X0123458Y0073805D01*
X0123448Y0073808D01*
X0123427Y0073814D01*
X0123415Y0073819D01*
X0123403Y0073824D01*
X0123391Y0073831D01*
X0123380Y0073838D01*
X0123368Y0073847D01*
X0123357Y0073857D01*
X0123356Y0073858D01*
X0123354Y0073860D01*
X0123352Y0073863D01*
X0123349Y0073867D01*
X0123344Y0073873D01*
X0123339Y0073880D01*
X0123334Y0073888D01*
X0123329Y0073897D01*
X0123323Y0073906D01*
X0123318Y0073917D01*
X0123309Y0073941D01*
X0123306Y0073954D01*
X0123303Y0073968D01*
X0123301Y0073982D01*
X0123300Y0073997D01*
Y0074391D01*
Y0074392D01*
Y0074395D01*
Y0074399D01*
X0123301Y0074405D01*
X0123302Y0074412D01*
X0123303Y0074420D01*
X0123305Y0074430D01*
X0123308Y0074439D01*
X0123314Y0074462D01*
X0123319Y0074473D01*
X0123324Y0074485D01*
X0123331Y0074496D01*
X0123338Y0074509D01*
X0123347Y0074520D01*
X0123357Y0074531D01*
X0123358Y0074532D01*
X0123360Y0074534D01*
X0123363Y0074537D01*
X0123367Y0074540D01*
X0123373Y0074544D01*
X0123380Y0074550D01*
X0123387Y0074554D01*
X0123397Y0074560D01*
X0123406Y0074566D01*
X0123416Y0074570D01*
X0123441Y0074580D01*
X0123454Y0074584D01*
X0123467Y0074586D01*
X0123482Y0074588D01*
X0123497Y0074589D01*
X0123656D01*
X0123661Y0074588D01*
D02*
G37*
G36*
X0116217Y0062446D02*
X0116224Y0062445D01*
X0116232Y0062444D01*
X0116242Y0062442D01*
X0116251Y0062439D01*
X0116273Y0062433D01*
X0116285Y0062428D01*
X0116297Y0062422D01*
X0116308Y0062416D01*
X0116320Y0062407D01*
X0116332Y0062399D01*
X0116343Y0062389D01*
X0116344Y0062388D01*
X0116346Y0062386D01*
X0116348Y0062383D01*
X0116351Y0062378D01*
X0116356Y0062373D01*
X0116361Y0062366D01*
X0116366Y0062359D01*
X0116371Y0062349D01*
X0116377Y0062340D01*
X0116382Y0062329D01*
X0116391Y0062305D01*
X0116394Y0062292D01*
X0116397Y0062278D01*
X0116399Y0062264D01*
X0116400Y0062249D01*
Y0062090D01*
X0116399Y0062085D01*
X0116398Y0062079D01*
X0116395Y0062072D01*
X0116391Y0062064D01*
X0116383Y0062059D01*
X0116374Y0062054D01*
X0116361Y0062052D01*
X0116359D01*
X0116354Y0062053D01*
X0116348Y0062054D01*
X0116341Y0062057D01*
X0116333Y0062061D01*
X0116328Y0062069D01*
X0116323Y0062078D01*
X0116321Y0062091D01*
Y0062254D01*
X0116320Y0062257D01*
X0116319Y0062267D01*
X0116317Y0062278D01*
X0116313Y0062291D01*
X0116307Y0062305D01*
X0116299Y0062320D01*
X0116288Y0062333D01*
X0116286Y0062335D01*
X0116281Y0062339D01*
X0116273Y0062344D01*
X0116264Y0062351D01*
X0116252Y0062357D01*
X0116237Y0062362D01*
X0116221Y0062366D01*
X0116203Y0062368D01*
X0116124D01*
X0116124D01*
X0116123D01*
X0116120D01*
X0116116Y0062367D01*
X0116108Y0062366D01*
X0116095Y0062363D01*
X0116082Y0062359D01*
X0116068Y0062353D01*
X0116054Y0062344D01*
X0116041Y0062332D01*
X0116039Y0062330D01*
X0116035Y0062326D01*
X0116030Y0062319D01*
X0116023Y0062309D01*
X0116017Y0062297D01*
X0116011Y0062283D01*
X0116007Y0062267D01*
X0116005Y0062249D01*
Y0062090D01*
X0116004Y0062085D01*
X0116004Y0062079D01*
X0116001Y0062072D01*
X0115996Y0062064D01*
X0115989Y0062059D01*
X0115979Y0062054D01*
X0115966Y0062052D01*
X0115651D01*
X0115650D01*
X0115649D01*
X0115645Y0062053D01*
X0115638Y0062054D01*
X0115631Y0062057D01*
X0115624Y0062061D01*
X0115617Y0062069D01*
X0115613Y0062078D01*
X0115611Y0062085D01*
Y0062370D01*
X0115612Y0062374D01*
X0115613Y0062380D01*
X0115616Y0062388D01*
X0115620Y0062395D01*
X0115628Y0062401D01*
X0115637Y0062405D01*
X0115650Y0062407D01*
X0115652D01*
X0115657Y0062406D01*
X0115662Y0062405D01*
X0115670Y0062403D01*
X0115677Y0062398D01*
X0115683Y0062390D01*
X0115688Y0062381D01*
X0115690Y0062368D01*
Y0062131D01*
X0115927D01*
Y0062256D01*
X0115928Y0062263D01*
X0115929Y0062269D01*
X0115929Y0062278D01*
X0115931Y0062287D01*
X0115934Y0062297D01*
X0115941Y0062319D01*
X0115945Y0062330D01*
X0115951Y0062343D01*
X0115958Y0062354D01*
X0115966Y0062366D01*
X0115974Y0062377D01*
X0115985Y0062389D01*
X0115986Y0062389D01*
X0115988Y0062391D01*
X0115990Y0062394D01*
X0115995Y0062398D01*
X0116001Y0062402D01*
X0116007Y0062407D01*
X0116015Y0062412D01*
X0116024Y0062418D01*
X0116034Y0062423D01*
X0116045Y0062428D01*
X0116068Y0062437D01*
X0116081Y0062441D01*
X0116095Y0062444D01*
X0116109Y0062446D01*
X0116124Y0062447D01*
X0116203D01*
X0116204D01*
X0116207D01*
X0116211D01*
X0116217Y0062446D01*
D02*
G37*
G36*
X0116367Y0061893D02*
X0116373Y0061892D01*
X0116380Y0061889D01*
X0116388Y0061884D01*
X0116393Y0061877D01*
X0116398Y0061867D01*
X0116400Y0061854D01*
Y0061689D01*
X0116399Y0061683D01*
X0116398Y0061676D01*
X0116397Y0061668D01*
X0116395Y0061658D01*
X0116393Y0061648D01*
X0116386Y0061627D01*
X0116381Y0061615D01*
X0116376Y0061603D01*
X0116369Y0061591D01*
X0116362Y0061580D01*
X0116353Y0061568D01*
X0116343Y0061557D01*
X0116342Y0061556D01*
X0116340Y0061554D01*
X0116337Y0061552D01*
X0116333Y0061549D01*
X0116327Y0061544D01*
X0116320Y0061539D01*
X0116312Y0061534D01*
X0116303Y0061529D01*
X0116294Y0061523D01*
X0116283Y0061518D01*
X0116259Y0061509D01*
X0116246Y0061506D01*
X0116232Y0061503D01*
X0116218Y0061501D01*
X0116203Y0061500D01*
X0115809D01*
X0115808D01*
X0115805D01*
X0115801D01*
X0115795Y0061501D01*
X0115788Y0061502D01*
X0115780Y0061503D01*
X0115770Y0061505D01*
X0115761Y0061507D01*
X0115738Y0061514D01*
X0115727Y0061519D01*
X0115715Y0061524D01*
X0115704Y0061531D01*
X0115691Y0061538D01*
X0115680Y0061547D01*
X0115669Y0061557D01*
X0115668Y0061558D01*
X0115666Y0061560D01*
X0115663Y0061563D01*
X0115660Y0061567D01*
X0115656Y0061573D01*
X0115650Y0061580D01*
X0115646Y0061587D01*
X0115640Y0061597D01*
X0115634Y0061606D01*
X0115630Y0061616D01*
X0115620Y0061641D01*
X0115616Y0061654D01*
X0115614Y0061667D01*
X0115612Y0061682D01*
X0115611Y0061697D01*
Y0061856D01*
X0115612Y0061861D01*
X0115613Y0061866D01*
X0115616Y0061874D01*
X0115620Y0061881D01*
X0115628Y0061887D01*
X0115637Y0061892D01*
X0115650Y0061894D01*
X0115652D01*
X0115657Y0061893D01*
X0115662Y0061892D01*
X0115670Y0061889D01*
X0115677Y0061884D01*
X0115683Y0061877D01*
X0115688Y0061867D01*
X0115690Y0061854D01*
Y0061692D01*
X0115690Y0061688D01*
X0115691Y0061679D01*
X0115694Y0061668D01*
X0115698Y0061655D01*
X0115705Y0061641D01*
X0115713Y0061627D01*
X0115725Y0061612D01*
X0115727Y0061611D01*
X0115732Y0061607D01*
X0115738Y0061602D01*
X0115749Y0061596D01*
X0115761Y0061589D01*
X0115775Y0061584D01*
X0115791Y0061581D01*
X0115809Y0061579D01*
X0116203D01*
X0116204D01*
X0116205D01*
X0116208D01*
X0116212Y0061580D01*
X0116220Y0061581D01*
X0116232Y0061583D01*
X0116245Y0061587D01*
X0116258Y0061593D01*
X0116273Y0061601D01*
X0116287Y0061612D01*
X0116288Y0061614D01*
X0116292Y0061619D01*
X0116298Y0061627D01*
X0116303Y0061636D01*
X0116310Y0061648D01*
X0116316Y0061663D01*
X0116319Y0061679D01*
X0116321Y0061697D01*
Y0061856D01*
X0116322Y0061861D01*
X0116323Y0061866D01*
X0116326Y0061874D01*
X0116331Y0061881D01*
X0116338Y0061887D01*
X0116348Y0061892D01*
X0116361Y0061894D01*
X0116363D01*
X0116367Y0061893D01*
D02*
G37*
G36*
X0107363Y0063288D02*
X0107369Y0063287D01*
X0107378Y0063286D01*
X0107387Y0063284D01*
X0107398Y0063282D01*
X0107419Y0063275D01*
X0107430Y0063270D01*
X0107443Y0063265D01*
X0107455Y0063258D01*
X0107466Y0063250D01*
X0107477Y0063241D01*
X0107489Y0063231D01*
X0107489Y0063230D01*
X0107491Y0063228D01*
X0107494Y0063225D01*
X0107498Y0063221D01*
X0107502Y0063215D01*
X0107507Y0063209D01*
X0107512Y0063201D01*
X0107518Y0063192D01*
X0107523Y0063182D01*
X0107528Y0063171D01*
X0107537Y0063148D01*
X0107541Y0063135D01*
X0107544Y0063120D01*
X0107546Y0063106D01*
X0107547Y0063091D01*
Y0063090D01*
Y0063087D01*
X0107546Y0063082D01*
Y0063075D01*
X0107544Y0063067D01*
X0107543Y0063057D01*
X0107540Y0063046D01*
X0107536Y0063035D01*
X0107533Y0063023D01*
X0107527Y0063010D01*
X0107520Y0062997D01*
X0107513Y0062984D01*
X0107504Y0062971D01*
X0107493Y0062957D01*
X0107481Y0062945D01*
X0107467Y0062934D01*
X0107468Y0062933D01*
X0107471Y0062931D01*
X0107474Y0062927D01*
X0107479Y0062923D01*
X0107486Y0062917D01*
X0107492Y0062910D01*
X0107500Y0062901D01*
X0107507Y0062892D01*
X0107514Y0062881D01*
X0107521Y0062869D01*
X0107528Y0062856D01*
X0107534Y0062842D01*
X0107539Y0062827D01*
X0107543Y0062810D01*
X0107546Y0062793D01*
X0107547Y0062776D01*
Y0062697D01*
Y0062696D01*
Y0062693D01*
Y0062689D01*
X0107546Y0062683D01*
X0107545Y0062676D01*
X0107544Y0062668D01*
X0107542Y0062658D01*
X0107539Y0062649D01*
X0107533Y0062627D01*
X0107528Y0062615D01*
X0107522Y0062603D01*
X0107516Y0062592D01*
X0107507Y0062580D01*
X0107499Y0062568D01*
X0107489Y0062557D01*
X0107488Y0062556D01*
X0107486Y0062554D01*
X0107483Y0062552D01*
X0107478Y0062549D01*
X0107473Y0062544D01*
X0107466Y0062539D01*
X0107459Y0062534D01*
X0107449Y0062529D01*
X0107440Y0062523D01*
X0107429Y0062518D01*
X0107405Y0062509D01*
X0107392Y0062506D01*
X0107378Y0062503D01*
X0107364Y0062501D01*
X0107349Y0062500D01*
X0107190D01*
X0107185Y0062501D01*
X0107179Y0062502D01*
X0107172Y0062505D01*
X0107164Y0062509D01*
X0107159Y0062517D01*
X0107154Y0062526D01*
X0107152Y0062539D01*
Y0062541D01*
X0107153Y0062546D01*
X0107154Y0062552D01*
X0107157Y0062559D01*
X0107161Y0062567D01*
X0107169Y0062572D01*
X0107178Y0062577D01*
X0107191Y0062579D01*
X0107354D01*
X0107357Y0062580D01*
X0107367Y0062581D01*
X0107378Y0062583D01*
X0107391Y0062587D01*
X0107405Y0062593D01*
X0107420Y0062601D01*
X0107433Y0062612D01*
X0107435Y0062614D01*
X0107439Y0062619D01*
X0107444Y0062627D01*
X0107451Y0062636D01*
X0107457Y0062648D01*
X0107462Y0062663D01*
X0107466Y0062679D01*
X0107468Y0062697D01*
Y0062776D01*
Y0062776D01*
Y0062777D01*
Y0062780D01*
X0107467Y0062784D01*
X0107466Y0062792D01*
X0107463Y0062805D01*
X0107459Y0062818D01*
X0107453Y0062832D01*
X0107444Y0062846D01*
X0107433Y0062859D01*
X0107431Y0062861D01*
X0107427Y0062865D01*
X0107420Y0062870D01*
X0107410Y0062877D01*
X0107398Y0062883D01*
X0107383Y0062889D01*
X0107367Y0062893D01*
X0107349Y0062895D01*
X0107268D01*
X0107264Y0062896D01*
X0107258Y0062896D01*
X0107250Y0062899D01*
X0107243Y0062904D01*
X0107237Y0062911D01*
X0107233Y0062921D01*
X0107231Y0062934D01*
Y0062936D01*
X0107232Y0062941D01*
X0107233Y0062946D01*
X0107235Y0062954D01*
X0107240Y0062961D01*
X0107248Y0062967D01*
X0107257Y0062971D01*
X0107270Y0062973D01*
X0107354D01*
X0107357Y0062974D01*
X0107367Y0062975D01*
X0107378Y0062978D01*
X0107391Y0062982D01*
X0107405Y0062987D01*
X0107420Y0062996D01*
X0107433Y0063007D01*
X0107435Y0063009D01*
X0107439Y0063014D01*
X0107444Y0063021D01*
X0107451Y0063030D01*
X0107457Y0063043D01*
X0107462Y0063058D01*
X0107466Y0063074D01*
X0107468Y0063091D01*
Y0063092D01*
Y0063093D01*
Y0063096D01*
X0107467Y0063100D01*
X0107466Y0063108D01*
X0107463Y0063120D01*
X0107459Y0063134D01*
X0107453Y0063148D01*
X0107444Y0063162D01*
X0107433Y0063175D01*
X0107431Y0063177D01*
X0107427Y0063180D01*
X0107420Y0063186D01*
X0107410Y0063193D01*
X0107398Y0063199D01*
X0107383Y0063205D01*
X0107367Y0063209D01*
X0107349Y0063210D01*
X0107190D01*
X0107185Y0063211D01*
X0107179Y0063212D01*
X0107172Y0063215D01*
X0107164Y0063220D01*
X0107159Y0063227D01*
X0107154Y0063237D01*
X0107152Y0063250D01*
Y0063252D01*
X0107153Y0063256D01*
X0107154Y0063262D01*
X0107157Y0063269D01*
X0107161Y0063277D01*
X0107169Y0063283D01*
X0107178Y0063287D01*
X0107191Y0063289D01*
X0107357D01*
X0107363Y0063288D01*
D02*
G37*
G36*
X0106961D02*
X0106966Y0063287D01*
X0106974Y0063284D01*
X0106981Y0063280D01*
X0106987Y0063272D01*
X0106992Y0063263D01*
X0106994Y0063250D01*
Y0063248D01*
X0106993Y0063243D01*
X0106992Y0063238D01*
X0106989Y0063230D01*
X0106984Y0063223D01*
X0106977Y0063217D01*
X0106967Y0063212D01*
X0106954Y0063210D01*
X0106792D01*
X0106788Y0063210D01*
X0106779Y0063209D01*
X0106768Y0063206D01*
X0106755Y0063202D01*
X0106741Y0063195D01*
X0106727Y0063187D01*
X0106712Y0063175D01*
X0106711Y0063173D01*
X0106707Y0063168D01*
X0106702Y0063162D01*
X0106696Y0063151D01*
X0106689Y0063139D01*
X0106684Y0063125D01*
X0106681Y0063109D01*
X0106679Y0063091D01*
Y0062697D01*
Y0062696D01*
Y0062695D01*
Y0062692D01*
X0106680Y0062688D01*
X0106681Y0062680D01*
X0106683Y0062668D01*
X0106687Y0062655D01*
X0106693Y0062642D01*
X0106701Y0062627D01*
X0106712Y0062613D01*
X0106714Y0062612D01*
X0106719Y0062608D01*
X0106727Y0062602D01*
X0106736Y0062597D01*
X0106748Y0062590D01*
X0106763Y0062584D01*
X0106779Y0062581D01*
X0106797Y0062579D01*
X0106956D01*
X0106961Y0062578D01*
X0106966Y0062577D01*
X0106974Y0062574D01*
X0106981Y0062569D01*
X0106987Y0062562D01*
X0106992Y0062552D01*
X0106994Y0062539D01*
Y0062537D01*
X0106993Y0062533D01*
X0106992Y0062527D01*
X0106989Y0062520D01*
X0106984Y0062512D01*
X0106977Y0062507D01*
X0106967Y0062502D01*
X0106954Y0062500D01*
X0106789D01*
X0106783Y0062501D01*
X0106776Y0062502D01*
X0106768Y0062503D01*
X0106758Y0062505D01*
X0106748Y0062507D01*
X0106727Y0062514D01*
X0106715Y0062519D01*
X0106703Y0062524D01*
X0106691Y0062531D01*
X0106680Y0062538D01*
X0106668Y0062547D01*
X0106657Y0062557D01*
X0106656Y0062558D01*
X0106654Y0062560D01*
X0106652Y0062563D01*
X0106649Y0062567D01*
X0106644Y0062573D01*
X0106639Y0062580D01*
X0106634Y0062588D01*
X0106629Y0062597D01*
X0106623Y0062606D01*
X0106618Y0062617D01*
X0106609Y0062641D01*
X0106606Y0062654D01*
X0106603Y0062668D01*
X0106601Y0062682D01*
X0106600Y0062697D01*
Y0063091D01*
Y0063092D01*
Y0063095D01*
Y0063099D01*
X0106601Y0063105D01*
X0106602Y0063112D01*
X0106603Y0063120D01*
X0106605Y0063130D01*
X0106607Y0063139D01*
X0106614Y0063162D01*
X0106619Y0063173D01*
X0106624Y0063185D01*
X0106631Y0063196D01*
X0106638Y0063209D01*
X0106647Y0063220D01*
X0106657Y0063231D01*
X0106658Y0063232D01*
X0106660Y0063234D01*
X0106663Y0063237D01*
X0106667Y0063240D01*
X0106673Y0063244D01*
X0106680Y0063250D01*
X0106687Y0063254D01*
X0106697Y0063260D01*
X0106706Y0063266D01*
X0106716Y0063270D01*
X0106741Y0063280D01*
X0106754Y0063284D01*
X0106767Y0063286D01*
X0106782Y0063288D01*
X0106797Y0063289D01*
X0106956D01*
X0106961Y0063288D01*
D02*
G37*
G36*
X0107363Y0062388D02*
X0107369Y0062387D01*
X0107378Y0062386D01*
X0107387Y0062384D01*
X0107397Y0062382D01*
X0107419Y0062375D01*
X0107430Y0062370D01*
X0107443Y0062365D01*
X0107454Y0062358D01*
X0107466Y0062350D01*
X0107477Y0062341D01*
X0107489Y0062331D01*
X0107489Y0062330D01*
X0107491Y0062328D01*
X0107494Y0062325D01*
X0107498Y0062321D01*
X0107502Y0062315D01*
X0107507Y0062309D01*
X0107512Y0062301D01*
X0107518Y0062292D01*
X0107523Y0062282D01*
X0107528Y0062271D01*
X0107537Y0062248D01*
X0107541Y0062235D01*
X0107544Y0062220D01*
X0107546Y0062206D01*
X0107547Y0062191D01*
Y0062190D01*
Y0062189D01*
Y0062186D01*
X0107546Y0062182D01*
Y0062176D01*
X0107545Y0062171D01*
X0107542Y0062156D01*
X0107538Y0062139D01*
X0107532Y0062120D01*
X0107522Y0062100D01*
X0107510Y0062078D01*
X0107262Y0061679D01*
X0107508D01*
X0107513Y0061678D01*
X0107519Y0061677D01*
X0107527Y0061674D01*
X0107534Y0061669D01*
X0107540Y0061662D01*
X0107545Y0061652D01*
X0107547Y0061646D01*
Y0061639D01*
Y0061637D01*
X0107546Y0061633D01*
X0107545Y0061627D01*
X0107542Y0061620D01*
X0107537Y0061612D01*
X0107530Y0061607D01*
X0107519Y0061602D01*
X0107514Y0061601D01*
X0107506Y0061600D01*
X0107190D01*
X0107185Y0061601D01*
X0107179Y0061602D01*
X0107172Y0061605D01*
X0107164Y0061609D01*
X0107159Y0061617D01*
X0107154Y0061626D01*
X0107152Y0061639D01*
Y0061640D01*
Y0061641D01*
X0107153Y0061647D01*
X0107155Y0061653D01*
X0107159Y0061662D01*
X0107447Y0062127D01*
X0107448Y0062129D01*
X0107450Y0062132D01*
X0107454Y0062138D01*
X0107458Y0062146D01*
X0107460Y0062156D01*
X0107464Y0062167D01*
X0107466Y0062179D01*
X0107467Y0062191D01*
Y0062192D01*
Y0062193D01*
Y0062196D01*
X0107466Y0062200D01*
X0107465Y0062208D01*
X0107462Y0062220D01*
X0107459Y0062234D01*
X0107452Y0062248D01*
X0107444Y0062262D01*
X0107432Y0062275D01*
X0107430Y0062277D01*
X0107426Y0062280D01*
X0107419Y0062286D01*
X0107409Y0062293D01*
X0107397Y0062299D01*
X0107383Y0062305D01*
X0107367Y0062309D01*
X0107349Y0062310D01*
X0107346D01*
X0107342Y0062310D01*
X0107338Y0062309D01*
X0107332Y0062308D01*
X0107325Y0062305D01*
X0107317Y0062302D01*
X0107309Y0062298D01*
X0107299Y0062293D01*
X0107290Y0062286D01*
X0107280Y0062279D01*
X0107268Y0062268D01*
X0107258Y0062257D01*
X0107247Y0062244D01*
X0107236Y0062229D01*
X0107225Y0062211D01*
Y0062210D01*
X0107223Y0062208D01*
X0107220Y0062205D01*
X0107217Y0062202D01*
X0107212Y0062198D01*
X0107206Y0062194D01*
X0107200Y0062192D01*
X0107191Y0062191D01*
X0107190D01*
X0107185Y0062192D01*
X0107179Y0062193D01*
X0107172Y0062196D01*
X0107164Y0062201D01*
X0107159Y0062208D01*
X0107154Y0062218D01*
X0107152Y0062231D01*
Y0062233D01*
X0107153Y0062236D01*
X0107154Y0062242D01*
X0107156Y0062248D01*
X0107157Y0062250D01*
X0107160Y0062254D01*
X0107163Y0062261D01*
X0107169Y0062270D01*
X0107176Y0062280D01*
X0107185Y0062293D01*
X0107195Y0062305D01*
X0107207Y0062319D01*
X0107220Y0062332D01*
X0107235Y0062344D01*
X0107251Y0062356D01*
X0107268Y0062367D01*
X0107286Y0062376D01*
X0107306Y0062384D01*
X0107327Y0062387D01*
X0107349Y0062389D01*
X0107356D01*
X0107363Y0062388D01*
D02*
G37*
G36*
X0106961D02*
X0106966Y0062387D01*
X0106974Y0062384D01*
X0106981Y0062380D01*
X0106987Y0062372D01*
X0106992Y0062363D01*
X0106994Y0062350D01*
Y0062348D01*
X0106993Y0062343D01*
X0106992Y0062338D01*
X0106989Y0062330D01*
X0106984Y0062323D01*
X0106977Y0062317D01*
X0106967Y0062312D01*
X0106954Y0062310D01*
X0106792D01*
X0106788Y0062310D01*
X0106779Y0062309D01*
X0106768Y0062306D01*
X0106755Y0062302D01*
X0106741Y0062295D01*
X0106727Y0062287D01*
X0106712Y0062275D01*
X0106711Y0062273D01*
X0106707Y0062268D01*
X0106702Y0062262D01*
X0106696Y0062251D01*
X0106689Y0062239D01*
X0106684Y0062225D01*
X0106681Y0062209D01*
X0106679Y0062191D01*
Y0061797D01*
Y0061796D01*
Y0061795D01*
Y0061792D01*
X0106680Y0061788D01*
X0106681Y0061780D01*
X0106683Y0061768D01*
X0106687Y0061755D01*
X0106693Y0061742D01*
X0106701Y0061727D01*
X0106712Y0061713D01*
X0106714Y0061712D01*
X0106719Y0061708D01*
X0106727Y0061702D01*
X0106736Y0061697D01*
X0106748Y0061690D01*
X0106763Y0061684D01*
X0106779Y0061681D01*
X0106797Y0061679D01*
X0106956D01*
X0106961Y0061678D01*
X0106966Y0061677D01*
X0106974Y0061674D01*
X0106981Y0061669D01*
X0106987Y0061662D01*
X0106992Y0061652D01*
X0106994Y0061639D01*
Y0061637D01*
X0106993Y0061633D01*
X0106992Y0061627D01*
X0106989Y0061620D01*
X0106984Y0061612D01*
X0106977Y0061607D01*
X0106967Y0061602D01*
X0106954Y0061600D01*
X0106789D01*
X0106783Y0061601D01*
X0106776Y0061602D01*
X0106768Y0061603D01*
X0106758Y0061605D01*
X0106748Y0061607D01*
X0106727Y0061614D01*
X0106715Y0061619D01*
X0106703Y0061624D01*
X0106691Y0061631D01*
X0106680Y0061638D01*
X0106668Y0061647D01*
X0106657Y0061657D01*
X0106656Y0061658D01*
X0106654Y0061660D01*
X0106652Y0061663D01*
X0106649Y0061667D01*
X0106644Y0061673D01*
X0106639Y0061680D01*
X0106634Y0061688D01*
X0106629Y0061697D01*
X0106623Y0061706D01*
X0106618Y0061717D01*
X0106609Y0061741D01*
X0106606Y0061754D01*
X0106603Y0061768D01*
X0106601Y0061782D01*
X0106600Y0061797D01*
Y0062191D01*
Y0062192D01*
Y0062195D01*
Y0062199D01*
X0106601Y0062205D01*
X0106602Y0062212D01*
X0106603Y0062220D01*
X0106605Y0062230D01*
X0106607Y0062239D01*
X0106614Y0062262D01*
X0106619Y0062273D01*
X0106624Y0062285D01*
X0106631Y0062296D01*
X0106638Y0062309D01*
X0106647Y0062320D01*
X0106657Y0062331D01*
X0106658Y0062332D01*
X0106660Y0062334D01*
X0106663Y0062337D01*
X0106667Y0062340D01*
X0106673Y0062344D01*
X0106680Y0062350D01*
X0106687Y0062354D01*
X0106697Y0062360D01*
X0106706Y0062366D01*
X0106716Y0062370D01*
X0106741Y0062380D01*
X0106754Y0062384D01*
X0106767Y0062386D01*
X0106782Y0062388D01*
X0106797Y0062389D01*
X0106956D01*
X0106961Y0062388D01*
D02*
G37*
%LPC*%
G36*
X0105766Y0077210D02*
X0105609D01*
Y0076895D01*
X0105773D01*
X0105777Y0076896D01*
X0105783D01*
X0105789Y0076897D01*
X0105805Y0076900D01*
X0105823Y0076906D01*
X0105842Y0076913D01*
X0105861Y0076925D01*
X0105870Y0076932D01*
X0105879Y0076940D01*
X0105879Y0076941D01*
X0105880Y0076941D01*
X0105883Y0076944D01*
X0105886Y0076948D01*
X0105894Y0076957D01*
X0105902Y0076971D01*
X0105910Y0076987D01*
X0105917Y0077006D01*
X0105923Y0077028D01*
X0105923Y0077040D01*
X0105924Y0077052D01*
Y0077053D01*
Y0077055D01*
Y0077059D01*
X0105923Y0077063D01*
Y0077069D01*
X0105922Y0077075D01*
X0105919Y0077091D01*
X0105913Y0077109D01*
X0105905Y0077128D01*
X0105900Y0077137D01*
X0105894Y0077147D01*
X0105887Y0077156D01*
X0105879Y0077165D01*
X0105878Y0077165D01*
X0105877Y0077166D01*
X0105874Y0077169D01*
X0105870Y0077172D01*
X0105861Y0077180D01*
X0105848Y0077188D01*
X0105831Y0077196D01*
X0105812Y0077203D01*
X0105790Y0077209D01*
X0105778Y0077210D01*
X0105766Y0077210D01*
D02*
G37*
G36*
Y0079210D02*
X0105609D01*
Y0078895D01*
X0105773D01*
X0105777Y0078896D01*
X0105783D01*
X0105789Y0078897D01*
X0105805Y0078900D01*
X0105823Y0078906D01*
X0105842Y0078913D01*
X0105861Y0078925D01*
X0105870Y0078932D01*
X0105879Y0078940D01*
X0105879Y0078941D01*
X0105880Y0078941D01*
X0105883Y0078944D01*
X0105886Y0078948D01*
X0105894Y0078957D01*
X0105902Y0078970D01*
X0105910Y0078987D01*
X0105917Y0079006D01*
X0105923Y0079028D01*
X0105923Y0079040D01*
X0105924Y0079052D01*
Y0079053D01*
Y0079055D01*
Y0079059D01*
X0105923Y0079063D01*
Y0079069D01*
X0105922Y0079075D01*
X0105919Y0079091D01*
X0105913Y0079109D01*
X0105905Y0079128D01*
X0105900Y0079137D01*
X0105894Y0079147D01*
X0105887Y0079156D01*
X0105879Y0079165D01*
X0105878Y0079165D01*
X0105877Y0079166D01*
X0105874Y0079169D01*
X0105870Y0079172D01*
X0105861Y0079180D01*
X0105848Y0079188D01*
X0105831Y0079196D01*
X0105812Y0079203D01*
X0105790Y0079209D01*
X0105778Y0079210D01*
X0105766Y0079210D01*
D02*
G37*
G36*
X0123966Y0071510D02*
X0123809D01*
Y0071195D01*
X0123973D01*
X0123977Y0071196D01*
X0123983D01*
X0123989Y0071197D01*
X0124005Y0071200D01*
X0124023Y0071206D01*
X0124042Y0071213D01*
X0124061Y0071225D01*
X0124070Y0071232D01*
X0124078Y0071240D01*
X0124079Y0071241D01*
X0124080Y0071241D01*
X0124083Y0071244D01*
X0124086Y0071248D01*
X0124093Y0071257D01*
X0124102Y0071271D01*
X0124110Y0071287D01*
X0124117Y0071306D01*
X0124123Y0071328D01*
X0124123Y0071340D01*
X0124124Y0071352D01*
Y0071353D01*
Y0071355D01*
Y0071359D01*
X0124123Y0071363D01*
Y0071369D01*
X0124122Y0071375D01*
X0124119Y0071391D01*
X0124113Y0071409D01*
X0124105Y0071428D01*
X0124100Y0071437D01*
X0124093Y0071447D01*
X0124087Y0071456D01*
X0124078Y0071465D01*
X0124078Y0071465D01*
X0124077Y0071466D01*
X0124074Y0071469D01*
X0124070Y0071472D01*
X0124061Y0071480D01*
X0124048Y0071488D01*
X0124031Y0071496D01*
X0124012Y0071503D01*
X0123990Y0071509D01*
X0123978Y0071510D01*
X0123966Y0071510D01*
D02*
G37*
G36*
X0114798Y0061945D02*
X0114797D01*
X0114795D01*
X0114791D01*
X0114787Y0061944D01*
X0114781D01*
X0114775Y0061942D01*
X0114759Y0061939D01*
X0114741Y0061933D01*
X0114722Y0061925D01*
X0114713Y0061920D01*
X0114703Y0061914D01*
X0114694Y0061907D01*
X0114685Y0061899D01*
X0114685Y0061898D01*
X0114684Y0061897D01*
X0114681Y0061894D01*
X0114678Y0061890D01*
X0114670Y0061881D01*
X0114662Y0061868D01*
X0114654Y0061851D01*
X0114647Y0061832D01*
X0114641Y0061811D01*
X0114640Y0061798D01*
X0114640Y0061786D01*
Y0061629D01*
X0114955D01*
Y0061793D01*
X0114954Y0061797D01*
Y0061803D01*
X0114953Y0061810D01*
X0114950Y0061826D01*
X0114944Y0061843D01*
X0114937Y0061862D01*
X0114925Y0061881D01*
X0114918Y0061890D01*
X0114910Y0061899D01*
X0114909Y0061900D01*
X0114909Y0061901D01*
X0114906Y0061903D01*
X0114902Y0061906D01*
X0114893Y0061914D01*
X0114880Y0061922D01*
X0114863Y0061931D01*
X0114844Y0061937D01*
X0114822Y0061943D01*
X0114810Y0061944D01*
X0114798Y0061945D01*
D02*
G37*
G36*
X0113755Y0062891D02*
X0113754D01*
X0113751D01*
X0113746D01*
X0113739D01*
X0113730Y0062890D01*
X0113720D01*
X0113709Y0062889D01*
X0113695Y0062888D01*
X0113682Y0062887D01*
X0113667Y0062886D01*
X0113636Y0062882D01*
X0113604Y0062877D01*
X0113571Y0062870D01*
X0113569D01*
X0113565Y0062868D01*
X0113559Y0062866D01*
X0113550Y0062864D01*
X0113540Y0062860D01*
X0113530Y0062857D01*
X0113505Y0062845D01*
X0113481Y0062832D01*
X0113470Y0062824D01*
X0113460Y0062815D01*
X0113452Y0062806D01*
X0113445Y0062796D01*
X0113441Y0062784D01*
X0113440Y0062772D01*
Y0062769D01*
X0113440Y0062766D01*
X0113441Y0062762D01*
X0113443Y0062756D01*
X0113446Y0062750D01*
X0113451Y0062743D01*
X0113456Y0062736D01*
X0113463Y0062728D01*
X0113471Y0062720D01*
X0113483Y0062712D01*
X0113495Y0062704D01*
X0113511Y0062696D01*
X0113528Y0062689D01*
X0113548Y0062682D01*
X0113572Y0062676D01*
X0113573D01*
X0113575Y0062675D01*
X0113580Y0062674D01*
X0113587Y0062672D01*
X0113595Y0062671D01*
X0113605Y0062669D01*
X0113616Y0062667D01*
X0113628Y0062665D01*
X0113641Y0062663D01*
X0113655Y0062661D01*
X0113686Y0062658D01*
X0113720Y0062655D01*
X0113755Y0062654D01*
X0113756D01*
X0113760D01*
X0113765D01*
X0113772D01*
X0113781Y0062655D01*
X0113791D01*
X0113802Y0062656D01*
X0113815Y0062657D01*
X0113829Y0062658D01*
X0113844Y0062659D01*
X0113875Y0062663D01*
X0113908Y0062668D01*
X0113941Y0062675D01*
X0113943D01*
X0113947Y0062677D01*
X0113953Y0062678D01*
X0113962Y0062680D01*
X0113971Y0062684D01*
X0113982Y0062688D01*
X0114006Y0062699D01*
X0114030Y0062712D01*
X0114041Y0062721D01*
X0114051Y0062729D01*
X0114059Y0062738D01*
X0114066Y0062749D01*
X0114069Y0062760D01*
X0114071Y0062772D01*
Y0062775D01*
X0114070Y0062779D01*
X0114069Y0062783D01*
X0114068Y0062788D01*
X0114065Y0062795D01*
X0114060Y0062801D01*
X0114055Y0062809D01*
X0114048Y0062817D01*
X0114039Y0062825D01*
X0114029Y0062833D01*
X0114016Y0062841D01*
X0114001Y0062849D01*
X0113984Y0062857D01*
X0113963Y0062863D01*
X0113941Y0062870D01*
X0113940D01*
X0113937Y0062871D01*
X0113933Y0062872D01*
X0113926Y0062873D01*
X0113918Y0062874D01*
X0113908Y0062876D01*
X0113897Y0062878D01*
X0113885Y0062881D01*
X0113872Y0062883D01*
X0113858Y0062885D01*
X0113826Y0062887D01*
X0113792Y0062890D01*
X0113755Y0062891D01*
D02*
G37*
G36*
X0113598Y0061945D02*
X0113597D01*
X0113595D01*
X0113591D01*
X0113587Y0061944D01*
X0113581D01*
X0113575Y0061942D01*
X0113559Y0061939D01*
X0113541Y0061933D01*
X0113522Y0061925D01*
X0113513Y0061920D01*
X0113503Y0061914D01*
X0113494Y0061907D01*
X0113485Y0061899D01*
X0113485Y0061898D01*
X0113484Y0061897D01*
X0113481Y0061894D01*
X0113478Y0061890D01*
X0113470Y0061881D01*
X0113462Y0061868D01*
X0113454Y0061851D01*
X0113447Y0061832D01*
X0113441Y0061811D01*
X0113440Y0061798D01*
X0113440Y0061786D01*
Y0061629D01*
X0113755D01*
Y0061793D01*
X0113754Y0061797D01*
Y0061803D01*
X0113753Y0061810D01*
X0113750Y0061826D01*
X0113744Y0061843D01*
X0113737Y0061862D01*
X0113725Y0061881D01*
X0113718Y0061890D01*
X0113710Y0061899D01*
X0113709Y0061900D01*
X0113709Y0061901D01*
X0113706Y0061903D01*
X0113702Y0061906D01*
X0113693Y0061914D01*
X0113679Y0061922D01*
X0113663Y0061931D01*
X0113644Y0061937D01*
X0113622Y0061943D01*
X0113610Y0061944D01*
X0113598Y0061945D01*
D02*
G37*
G36*
X0106205Y0075847D02*
X0106009D01*
X0106008D01*
X0106007D01*
X0106004D01*
X0106000Y0075846D01*
X0105992Y0075845D01*
X0105980Y0075842D01*
X0105966Y0075838D01*
X0105952Y0075832D01*
X0105938Y0075823D01*
X0105925Y0075811D01*
X0105923Y0075809D01*
X0105920Y0075804D01*
X0105914Y0075798D01*
X0105907Y0075788D01*
X0105902Y0075775D01*
X0105896Y0075761D01*
X0105892Y0075745D01*
X0105890Y0075728D01*
Y0075723D01*
X0105891Y0075719D01*
X0105892Y0075711D01*
X0105895Y0075699D01*
X0105899Y0075685D01*
X0105905Y0075672D01*
X0105914Y0075657D01*
X0105925Y0075644D01*
X0105927Y0075642D01*
X0105932Y0075639D01*
X0105938Y0075633D01*
X0105949Y0075627D01*
X0105961Y0075621D01*
X0105975Y0075615D01*
X0105991Y0075611D01*
X0106009Y0075610D01*
X0106087D01*
X0106088D01*
X0106089D01*
X0106092D01*
X0106096Y0075610D01*
X0106105Y0075611D01*
X0106116Y0075614D01*
X0106130Y0075618D01*
X0106144Y0075624D01*
X0106158Y0075632D01*
X0106172Y0075643D01*
X0106174Y0075645D01*
X0106177Y0075650D01*
X0106182Y0075657D01*
X0106189Y0075667D01*
X0106195Y0075679D01*
X0106200Y0075694D01*
X0106204Y0075710D01*
X0106205Y0075728D01*
Y0075847D01*
D02*
G37*
G36*
X0106048Y0075295D02*
X0106047D01*
X0106045D01*
X0106041D01*
X0106037Y0075294D01*
X0106031D01*
X0106025Y0075292D01*
X0106009Y0075289D01*
X0105991Y0075283D01*
X0105972Y0075275D01*
X0105963Y0075270D01*
X0105953Y0075264D01*
X0105944Y0075257D01*
X0105935Y0075249D01*
X0105935Y0075248D01*
X0105934Y0075247D01*
X0105931Y0075244D01*
X0105928Y0075240D01*
X0105920Y0075231D01*
X0105912Y0075218D01*
X0105904Y0075201D01*
X0105897Y0075182D01*
X0105891Y0075161D01*
X0105890Y0075148D01*
X0105890Y0075136D01*
Y0074979D01*
X0106205D01*
Y0075143D01*
X0106204Y0075147D01*
Y0075153D01*
X0106203Y0075160D01*
X0106200Y0075176D01*
X0106194Y0075193D01*
X0106187Y0075212D01*
X0106175Y0075231D01*
X0106168Y0075240D01*
X0106160Y0075249D01*
X0106159Y0075250D01*
X0106159Y0075251D01*
X0106156Y0075253D01*
X0106152Y0075256D01*
X0106143Y0075264D01*
X0106130Y0075272D01*
X0106113Y0075281D01*
X0106094Y0075287D01*
X0106072Y0075293D01*
X0106060Y0075294D01*
X0106048Y0075295D01*
D02*
G37*
G36*
X0104203Y0075847D02*
X0104124D01*
X0104124D01*
X0104123D01*
X0104120D01*
X0104116Y0075846D01*
X0104108Y0075845D01*
X0104095Y0075842D01*
X0104082Y0075838D01*
X0104068Y0075832D01*
X0104054Y0075823D01*
X0104041Y0075811D01*
X0104039Y0075809D01*
X0104035Y0075804D01*
X0104030Y0075798D01*
X0104023Y0075788D01*
X0104018Y0075775D01*
X0104012Y0075761D01*
X0104008Y0075745D01*
X0104006Y0075728D01*
Y0075723D01*
X0104007Y0075719D01*
X0104008Y0075710D01*
X0104011Y0075699D01*
X0104015Y0075685D01*
X0104021Y0075671D01*
X0104030Y0075657D01*
X0104041Y0075643D01*
X0104043Y0075641D01*
X0104047Y0075638D01*
X0104054Y0075633D01*
X0104064Y0075626D01*
X0104077Y0075620D01*
X0104091Y0075615D01*
X0104107Y0075611D01*
X0104124Y0075610D01*
X0104203D01*
X0104204D01*
X0104205D01*
X0104208D01*
X0104212Y0075610D01*
X0104221Y0075611D01*
X0104232Y0075614D01*
X0104245Y0075618D01*
X0104259Y0075624D01*
X0104273Y0075632D01*
X0104288Y0075643D01*
X0104289Y0075645D01*
X0104293Y0075650D01*
X0104298Y0075657D01*
X0104304Y0075667D01*
X0104311Y0075679D01*
X0104316Y0075694D01*
X0104319Y0075710D01*
X0104321Y0075728D01*
Y0075732D01*
X0104320Y0075736D01*
X0104319Y0075745D01*
X0104317Y0075757D01*
X0104313Y0075770D01*
X0104307Y0075784D01*
X0104299Y0075799D01*
X0104288Y0075812D01*
X0104286Y0075814D01*
X0104281Y0075818D01*
X0104273Y0075823D01*
X0104264Y0075830D01*
X0104252Y0075835D01*
X0104237Y0075841D01*
X0104221Y0075845D01*
X0104203Y0075847D01*
D02*
G37*
G36*
X0103809D02*
X0103808D01*
X0103807D01*
X0103804D01*
X0103800Y0075846D01*
X0103792Y0075845D01*
X0103780Y0075842D01*
X0103766Y0075838D01*
X0103752Y0075832D01*
X0103738Y0075823D01*
X0103725Y0075811D01*
X0103723Y0075809D01*
X0103720Y0075804D01*
X0103714Y0075798D01*
X0103707Y0075788D01*
X0103702Y0075775D01*
X0103696Y0075761D01*
X0103692Y0075745D01*
X0103690Y0075728D01*
Y0075723D01*
X0103691Y0075719D01*
X0103692Y0075710D01*
X0103695Y0075699D01*
X0103699Y0075685D01*
X0103705Y0075671D01*
X0103714Y0075657D01*
X0103725Y0075643D01*
X0103727Y0075641D01*
X0103731Y0075638D01*
X0103738Y0075633D01*
X0103749Y0075626D01*
X0103761Y0075620D01*
X0103775Y0075615D01*
X0103791Y0075611D01*
X0103809Y0075610D01*
X0103810D01*
X0103810D01*
X0103813D01*
X0103817Y0075610D01*
X0103826Y0075611D01*
X0103838Y0075614D01*
X0103851Y0075618D01*
X0103865Y0075624D01*
X0103879Y0075632D01*
X0103893Y0075643D01*
X0103895Y0075645D01*
X0103899Y0075650D01*
X0103903Y0075657D01*
X0103910Y0075667D01*
X0103916Y0075679D01*
X0103921Y0075694D01*
X0103925Y0075710D01*
X0103927Y0075728D01*
Y0075732D01*
X0103926Y0075736D01*
X0103925Y0075745D01*
X0103922Y0075757D01*
X0103918Y0075770D01*
X0103913Y0075784D01*
X0103904Y0075799D01*
X0103893Y0075812D01*
X0103891Y0075814D01*
X0103886Y0075818D01*
X0103879Y0075823D01*
X0103870Y0075830D01*
X0103857Y0075835D01*
X0103842Y0075841D01*
X0103826Y0075845D01*
X0103809Y0075847D01*
D02*
G37*
G36*
X0103848Y0075295D02*
X0103847D01*
X0103845D01*
X0103841D01*
X0103837Y0075294D01*
X0103831D01*
X0103825Y0075292D01*
X0103809Y0075289D01*
X0103791Y0075283D01*
X0103772Y0075275D01*
X0103763Y0075270D01*
X0103753Y0075264D01*
X0103744Y0075257D01*
X0103735Y0075249D01*
X0103735Y0075248D01*
X0103734Y0075247D01*
X0103731Y0075244D01*
X0103728Y0075240D01*
X0103720Y0075231D01*
X0103712Y0075218D01*
X0103704Y0075201D01*
X0103697Y0075182D01*
X0103691Y0075161D01*
X0103690Y0075148D01*
X0103690Y0075136D01*
Y0074979D01*
X0104005D01*
Y0075143D01*
X0104004Y0075147D01*
Y0075153D01*
X0104003Y0075160D01*
X0104000Y0075176D01*
X0103994Y0075193D01*
X0103987Y0075212D01*
X0103975Y0075231D01*
X0103968Y0075240D01*
X0103960Y0075249D01*
X0103959Y0075250D01*
X0103959Y0075251D01*
X0103956Y0075253D01*
X0103952Y0075256D01*
X0103943Y0075264D01*
X0103929Y0075272D01*
X0103913Y0075281D01*
X0103894Y0075287D01*
X0103872Y0075293D01*
X0103860Y0075294D01*
X0103848Y0075295D01*
D02*
G37*
G36*
X0104948D02*
X0104947D01*
X0104945D01*
X0104941D01*
X0104937Y0075294D01*
X0104931D01*
X0104925Y0075292D01*
X0104909Y0075289D01*
X0104891Y0075283D01*
X0104872Y0075275D01*
X0104863Y0075270D01*
X0104853Y0075264D01*
X0104844Y0075257D01*
X0104835Y0075249D01*
X0104835Y0075248D01*
X0104834Y0075247D01*
X0104831Y0075244D01*
X0104828Y0075240D01*
X0104820Y0075231D01*
X0104812Y0075218D01*
X0104804Y0075201D01*
X0104797Y0075182D01*
X0104791Y0075161D01*
X0104790Y0075148D01*
X0104790Y0075136D01*
Y0074979D01*
X0105105D01*
Y0075143D01*
X0105104Y0075147D01*
Y0075153D01*
X0105103Y0075160D01*
X0105100Y0075176D01*
X0105094Y0075193D01*
X0105087Y0075212D01*
X0105075Y0075231D01*
X0105068Y0075240D01*
X0105060Y0075249D01*
X0105059Y0075250D01*
X0105059Y0075251D01*
X0105056Y0075253D01*
X0105052Y0075256D01*
X0105043Y0075264D01*
X0105030Y0075272D01*
X0105013Y0075281D01*
X0104994Y0075287D01*
X0104972Y0075293D01*
X0104960Y0075294D01*
X0104948Y0075295D01*
D02*
G37*
G36*
X0101531Y0075854D02*
X0101452D01*
X0101451D01*
X0101450D01*
X0101447D01*
X0101444Y0075853D01*
X0101434Y0075852D01*
X0101423Y0075849D01*
X0101410Y0075845D01*
X0101396Y0075839D01*
X0101381Y0075830D01*
X0101368Y0075818D01*
X0101366Y0075816D01*
X0101362Y0075811D01*
X0101356Y0075805D01*
X0101350Y0075795D01*
X0101344Y0075782D01*
X0101339Y0075768D01*
X0101335Y0075752D01*
X0101333Y0075735D01*
Y0075616D01*
X0101531D01*
X0101532D01*
X0101533D01*
X0101535D01*
X0101539Y0075617D01*
X0101549Y0075618D01*
X0101560Y0075621D01*
X0101573Y0075625D01*
X0101587Y0075631D01*
X0101601Y0075639D01*
X0101615Y0075650D01*
X0101617Y0075652D01*
X0101621Y0075657D01*
X0101625Y0075664D01*
X0101632Y0075674D01*
X0101639Y0075686D01*
X0101643Y0075701D01*
X0101647Y0075717D01*
X0101649Y0075735D01*
Y0075739D01*
X0101648Y0075743D01*
X0101647Y0075752D01*
X0101644Y0075764D01*
X0101640Y0075777D01*
X0101634Y0075791D01*
X0101625Y0075806D01*
X0101614Y0075819D01*
X0101612Y0075821D01*
X0101608Y0075825D01*
X0101601Y0075830D01*
X0101591Y0075837D01*
X0101579Y0075842D01*
X0101564Y0075848D01*
X0101549Y0075852D01*
X0101531Y0075854D01*
D02*
G37*
G36*
X0101176Y0075302D02*
X0101175D01*
X0101173D01*
X0101169D01*
X0101164Y0075301D01*
X0101159D01*
X0101152Y0075299D01*
X0101136Y0075296D01*
X0101118Y0075290D01*
X0101100Y0075282D01*
X0101090Y0075277D01*
X0101081Y0075271D01*
X0101071Y0075264D01*
X0101063Y0075256D01*
X0101062Y0075255D01*
X0101061Y0075254D01*
X0101058Y0075251D01*
X0101056Y0075247D01*
X0101048Y0075238D01*
X0101040Y0075225D01*
X0101031Y0075208D01*
X0101025Y0075189D01*
X0101019Y0075168D01*
X0101018Y0075155D01*
X0101017Y0075143D01*
Y0074986D01*
X0101333D01*
Y0075150D01*
X0101332Y0075154D01*
Y0075160D01*
X0101330Y0075167D01*
X0101327Y0075183D01*
X0101322Y0075200D01*
X0101314Y0075219D01*
X0101303Y0075238D01*
X0101295Y0075247D01*
X0101288Y0075256D01*
X0101287Y0075257D01*
X0101286Y0075257D01*
X0101283Y0075260D01*
X0101280Y0075263D01*
X0101270Y0075271D01*
X0101257Y0075279D01*
X0101240Y0075287D01*
X0101221Y0075294D01*
X0101200Y0075300D01*
X0101188Y0075301D01*
X0101176Y0075302D01*
D02*
G37*
G36*
X0102351D02*
X0102350D01*
X0102348D01*
X0102344D01*
X0102339Y0075301D01*
X0102334D01*
X0102327Y0075299D01*
X0102311Y0075296D01*
X0102293Y0075290D01*
X0102275Y0075282D01*
X0102265Y0075277D01*
X0102256Y0075271D01*
X0102246Y0075264D01*
X0102238Y0075256D01*
X0102237Y0075255D01*
X0102236Y0075254D01*
X0102233Y0075251D01*
X0102231Y0075247D01*
X0102223Y0075238D01*
X0102215Y0075225D01*
X0102206Y0075208D01*
X0102200Y0075189D01*
X0102194Y0075168D01*
X0102193Y0075155D01*
X0102192Y0075143D01*
Y0074986D01*
X0102508D01*
Y0075150D01*
X0102507Y0075154D01*
Y0075160D01*
X0102505Y0075167D01*
X0102502Y0075183D01*
X0102497Y0075200D01*
X0102489Y0075219D01*
X0102478Y0075238D01*
X0102470Y0075247D01*
X0102463Y0075256D01*
X0102462Y0075257D01*
X0102461Y0075257D01*
X0102458Y0075260D01*
X0102455Y0075263D01*
X0102445Y0075271D01*
X0102432Y0075279D01*
X0102415Y0075287D01*
X0102396Y0075294D01*
X0102375Y0075300D01*
X0102363Y0075301D01*
X0102351Y0075302D01*
D02*
G37*
G36*
X0100848Y0060495D02*
X0100847D01*
X0100845D01*
X0100841D01*
X0100837Y0060494D01*
X0100831D01*
X0100825Y0060492D01*
X0100809Y0060489D01*
X0100791Y0060483D01*
X0100772Y0060475D01*
X0100763Y0060470D01*
X0100753Y0060464D01*
X0100744Y0060457D01*
X0100735Y0060449D01*
X0100735Y0060448D01*
X0100734Y0060447D01*
X0100731Y0060444D01*
X0100728Y0060440D01*
X0100720Y0060431D01*
X0100712Y0060418D01*
X0100704Y0060401D01*
X0100697Y0060382D01*
X0100691Y0060361D01*
X0100690Y0060348D01*
X0100690Y0060336D01*
Y0060179D01*
X0101005D01*
Y0060343D01*
X0101004Y0060347D01*
Y0060353D01*
X0101003Y0060360D01*
X0101000Y0060376D01*
X0100994Y0060393D01*
X0100987Y0060412D01*
X0100975Y0060431D01*
X0100968Y0060440D01*
X0100960Y0060449D01*
X0100959Y0060450D01*
X0100959Y0060451D01*
X0100956Y0060453D01*
X0100952Y0060456D01*
X0100943Y0060464D01*
X0100929Y0060472D01*
X0100913Y0060481D01*
X0100894Y0060487D01*
X0100872Y0060493D01*
X0100860Y0060494D01*
X0100848Y0060495D01*
D02*
G37*
G36*
X0101848D02*
X0101847D01*
X0101845D01*
X0101841D01*
X0101837Y0060494D01*
X0101831D01*
X0101825Y0060492D01*
X0101809Y0060489D01*
X0101791Y0060483D01*
X0101772Y0060475D01*
X0101763Y0060470D01*
X0101753Y0060464D01*
X0101744Y0060457D01*
X0101735Y0060449D01*
X0101735Y0060448D01*
X0101734Y0060447D01*
X0101731Y0060444D01*
X0101728Y0060440D01*
X0101720Y0060431D01*
X0101712Y0060418D01*
X0101704Y0060401D01*
X0101697Y0060382D01*
X0101691Y0060361D01*
X0101690Y0060348D01*
X0101690Y0060336D01*
Y0060179D01*
X0102005D01*
Y0060343D01*
X0102004Y0060347D01*
Y0060353D01*
X0102003Y0060360D01*
X0102000Y0060376D01*
X0101994Y0060393D01*
X0101987Y0060412D01*
X0101975Y0060431D01*
X0101968Y0060440D01*
X0101960Y0060449D01*
X0101959Y0060450D01*
X0101959Y0060451D01*
X0101956Y0060453D01*
X0101952Y0060456D01*
X0101943Y0060464D01*
X0101929Y0060472D01*
X0101913Y0060481D01*
X0101894Y0060487D01*
X0101872Y0060493D01*
X0101860Y0060494D01*
X0101848Y0060495D01*
D02*
G37*
G36*
X0103848D02*
X0103847D01*
X0103845D01*
X0103841D01*
X0103837Y0060494D01*
X0103831D01*
X0103825Y0060492D01*
X0103809Y0060489D01*
X0103791Y0060483D01*
X0103772Y0060475D01*
X0103763Y0060470D01*
X0103753Y0060464D01*
X0103744Y0060457D01*
X0103735Y0060449D01*
X0103735Y0060448D01*
X0103734Y0060447D01*
X0103731Y0060444D01*
X0103728Y0060440D01*
X0103720Y0060431D01*
X0103712Y0060418D01*
X0103704Y0060401D01*
X0103697Y0060382D01*
X0103691Y0060361D01*
X0103690Y0060348D01*
X0103690Y0060336D01*
Y0060179D01*
X0104005D01*
Y0060343D01*
X0104004Y0060347D01*
Y0060353D01*
X0104003Y0060360D01*
X0104000Y0060376D01*
X0103994Y0060393D01*
X0103987Y0060412D01*
X0103975Y0060431D01*
X0103968Y0060440D01*
X0103960Y0060449D01*
X0103959Y0060450D01*
X0103959Y0060451D01*
X0103956Y0060453D01*
X0103952Y0060456D01*
X0103943Y0060464D01*
X0103929Y0060472D01*
X0103913Y0060481D01*
X0103894Y0060487D01*
X0103872Y0060493D01*
X0103860Y0060494D01*
X0103848Y0060495D01*
D02*
G37*
G36*
X0102848D02*
X0102847D01*
X0102845D01*
X0102841D01*
X0102837Y0060494D01*
X0102831D01*
X0102825Y0060492D01*
X0102809Y0060489D01*
X0102791Y0060483D01*
X0102772Y0060475D01*
X0102763Y0060470D01*
X0102753Y0060464D01*
X0102744Y0060457D01*
X0102735Y0060449D01*
X0102735Y0060448D01*
X0102734Y0060447D01*
X0102731Y0060444D01*
X0102728Y0060440D01*
X0102720Y0060431D01*
X0102712Y0060418D01*
X0102704Y0060401D01*
X0102697Y0060382D01*
X0102691Y0060361D01*
X0102690Y0060348D01*
X0102690Y0060336D01*
Y0060179D01*
X0103005D01*
Y0060343D01*
X0103004Y0060347D01*
Y0060353D01*
X0103003Y0060360D01*
X0103000Y0060376D01*
X0102994Y0060393D01*
X0102987Y0060412D01*
X0102975Y0060431D01*
X0102968Y0060440D01*
X0102960Y0060449D01*
X0102959Y0060450D01*
X0102959Y0060451D01*
X0102956Y0060453D01*
X0102952Y0060456D01*
X0102943Y0060464D01*
X0102929Y0060472D01*
X0102913Y0060481D01*
X0102894Y0060487D01*
X0102872Y0060493D01*
X0102860Y0060494D01*
X0102848Y0060495D01*
D02*
G37*
G36*
X0124049Y0075610D02*
X0124044D01*
X0124040Y0075609D01*
X0124032Y0075608D01*
X0124020Y0075605D01*
X0124007Y0075601D01*
X0123994Y0075595D01*
X0123979Y0075586D01*
X0123965Y0075575D01*
X0123964Y0075573D01*
X0123960Y0075568D01*
X0123954Y0075562D01*
X0123949Y0075551D01*
X0123942Y0075539D01*
X0123936Y0075525D01*
X0123933Y0075509D01*
X0123931Y0075491D01*
Y0075413D01*
Y0075412D01*
Y0075411D01*
Y0075408D01*
X0123932Y0075404D01*
X0123933Y0075395D01*
X0123935Y0075384D01*
X0123939Y0075370D01*
X0123945Y0075356D01*
X0123953Y0075342D01*
X0123965Y0075328D01*
X0123966Y0075326D01*
X0123971Y0075323D01*
X0123979Y0075318D01*
X0123988Y0075311D01*
X0124000Y0075305D01*
X0124015Y0075300D01*
X0124031Y0075296D01*
X0124049Y0075295D01*
X0124168D01*
Y0075491D01*
Y0075492D01*
Y0075493D01*
Y0075496D01*
X0124167Y0075500D01*
X0124166Y0075508D01*
X0124163Y0075520D01*
X0124159Y0075534D01*
X0124153Y0075548D01*
X0124144Y0075562D01*
X0124132Y0075575D01*
X0124130Y0075577D01*
X0124126Y0075580D01*
X0124119Y0075586D01*
X0124109Y0075593D01*
X0124097Y0075598D01*
X0124083Y0075604D01*
X0124067Y0075608D01*
X0124049Y0075610D01*
D02*
G37*
G36*
Y0074510D02*
X0124044D01*
X0124040Y0074509D01*
X0124031Y0074508D01*
X0124020Y0074505D01*
X0124007Y0074501D01*
X0123993Y0074495D01*
X0123979Y0074486D01*
X0123965Y0074475D01*
X0123963Y0074473D01*
X0123959Y0074469D01*
X0123954Y0074462D01*
X0123948Y0074451D01*
X0123941Y0074439D01*
X0123936Y0074425D01*
X0123933Y0074409D01*
X0123931Y0074391D01*
Y0074390D01*
Y0074390D01*
Y0074387D01*
X0123932Y0074383D01*
X0123933Y0074374D01*
X0123935Y0074362D01*
X0123939Y0074349D01*
X0123945Y0074335D01*
X0123953Y0074321D01*
X0123965Y0074307D01*
X0123966Y0074305D01*
X0123971Y0074301D01*
X0123979Y0074297D01*
X0123988Y0074290D01*
X0124000Y0074284D01*
X0124015Y0074279D01*
X0124031Y0074275D01*
X0124049Y0074273D01*
X0124054D01*
X0124057Y0074274D01*
X0124067Y0074275D01*
X0124078Y0074278D01*
X0124091Y0074282D01*
X0124105Y0074287D01*
X0124120Y0074296D01*
X0124133Y0074307D01*
X0124135Y0074309D01*
X0124139Y0074314D01*
X0124144Y0074321D01*
X0124151Y0074330D01*
X0124157Y0074343D01*
X0124162Y0074358D01*
X0124166Y0074374D01*
X0124168Y0074391D01*
Y0074392D01*
Y0074393D01*
Y0074396D01*
X0124167Y0074400D01*
X0124166Y0074408D01*
X0124163Y0074420D01*
X0124159Y0074434D01*
X0124153Y0074448D01*
X0124144Y0074462D01*
X0124132Y0074475D01*
X0124130Y0074477D01*
X0124126Y0074480D01*
X0124119Y0074486D01*
X0124109Y0074493D01*
X0124097Y0074498D01*
X0124083Y0074504D01*
X0124067Y0074508D01*
X0124049Y0074510D01*
D02*
G37*
G36*
Y0074194D02*
X0124044D01*
X0124040Y0074193D01*
X0124031Y0074192D01*
X0124020Y0074189D01*
X0124007Y0074185D01*
X0123993Y0074179D01*
X0123979Y0074170D01*
X0123965Y0074159D01*
X0123963Y0074157D01*
X0123959Y0074153D01*
X0123954Y0074146D01*
X0123948Y0074136D01*
X0123941Y0074123D01*
X0123936Y0074109D01*
X0123933Y0074093D01*
X0123931Y0074076D01*
Y0073997D01*
Y0073996D01*
Y0073995D01*
Y0073992D01*
X0123932Y0073988D01*
X0123933Y0073979D01*
X0123935Y0073968D01*
X0123939Y0073955D01*
X0123945Y0073941D01*
X0123953Y0073927D01*
X0123965Y0073912D01*
X0123966Y0073911D01*
X0123971Y0073907D01*
X0123979Y0073902D01*
X0123988Y0073896D01*
X0124000Y0073889D01*
X0124015Y0073884D01*
X0124031Y0073881D01*
X0124049Y0073879D01*
X0124054D01*
X0124057Y0073880D01*
X0124067Y0073881D01*
X0124078Y0073883D01*
X0124091Y0073887D01*
X0124105Y0073893D01*
X0124120Y0073901D01*
X0124133Y0073912D01*
X0124135Y0073914D01*
X0124139Y0073919D01*
X0124144Y0073927D01*
X0124151Y0073936D01*
X0124157Y0073948D01*
X0124162Y0073963D01*
X0124166Y0073979D01*
X0124168Y0073997D01*
Y0074076D01*
Y0074076D01*
Y0074077D01*
Y0074080D01*
X0124167Y0074084D01*
X0124166Y0074092D01*
X0124163Y0074105D01*
X0124159Y0074118D01*
X0124153Y0074132D01*
X0124144Y0074146D01*
X0124132Y0074159D01*
X0124130Y0074161D01*
X0124126Y0074165D01*
X0124119Y0074170D01*
X0124109Y0074177D01*
X0124097Y0074182D01*
X0124083Y0074188D01*
X0124067Y0074192D01*
X0124049Y0074194D01*
D02*
G37*
%LPD*%
D10*
X0120546Y0062792D02*
G03*
X0120323Y0064096I-0000223J0000633D01*
G01*
X0117942Y0063139D02*
G03*
X0121119Y0061260I0002208J0000107D01*
G01*
X0118470Y0063139D02*
G03*
X0121119Y0061260I0001969J-0000032D01*
G01*
X0122157Y0063751D02*
G03*
X0121650Y0064672I-0001686J-0000329D01*
G01*
X0121668Y0063801D02*
G03*
X0121403Y0064313I-0001098J-0000244D01*
G01*
X0120169Y0063139D02*
G03*
X0120169Y0063635I0000000J0000248D01*
G01*
X0121146Y0065057D02*
G03*
X0120116Y0065337I-0000962J-0001506D01*
G01*
X0120860Y0064819D02*
G03*
X0120184Y0065057I-0000805J-0001206D01*
G01*
X0121612Y0062523D02*
G03*
X0121741Y0063021I-0000997J0000525D01*
G01*
X0121961Y0062133D02*
G03*
X0122234Y0063139I-0001556J0000962D01*
G01*
X0119511Y0065027D02*
G03*
X0118474Y0064641I0000133J-0001943D01*
G01*
X0119511Y0065245D02*
G03*
X0118474Y0064641I0000388J-0001858D01*
G01*
X0119267Y0063139D02*
X0120938Y0061787D01*
X0120546Y0062792D02*
X0121722Y0061787D01*
X0118010Y0063635D02*
X0118151Y0064096D01*
X0118010Y0063635D02*
X0120169D01*
X0117942Y0063139D02*
X0118470D01*
X0118151Y0064096D02*
X0120323D01*
X0120938Y0061787D02*
X0121722D01*
X0121741Y0063021D02*
X0122234Y0063139D01*
X0121612Y0062523D02*
X0121961Y0062133D01*
X0121668Y0063801D02*
X0122157Y0063751D01*
X0119267Y0063139D02*
X0120169D01*
X0121403Y0064313D02*
X0121650Y0064672D01*
X0120860Y0064819D02*
X0121146Y0065057D01*
X0120116Y0065337D02*
X0120184Y0065057D01*
X0119511Y0065027D02*
Y0065245D01*
D11*
X0121025Y0068550D02*
G03*
X0121025Y0068550I-0000250J0000000D01*
G01*
D12*
X0106275Y0071975D02*
G03*
X0106275Y0071975I-0000125J0000000D01*
G01*
D13*
X0124600Y0072700D02*
G03*
X0124600Y0072700I-0000800J0000000D01*
G01*
X0104600Y0079000D02*
G03*
X0104600Y0079000I-0000800J0000000D01*
G01*
Y0077000D02*
G03*
X0104600Y0077000I-0000800J0000000D01*
G01*
X0107275Y0069950D02*
X0109925D01*
X0120075D02*
X0122725D01*
Y0079175D01*
X0107275Y0069950D02*
Y0079175D01*
X0101250Y0065825D02*
X0101250Y0069625D01*
X0106450Y0065825D02*
X0106450Y0069625D01*
X0128550Y0069950D02*
Y0073150D01*
X0125350Y0069950D02*
Y0073150D01*
X0128200D02*
X0128550D01*
X0125350D02*
X0125700D01*
X0128200Y0069950D02*
X0128550D01*
X0125350D02*
X0125700D01*
M02*
