G04*
G04 #@! TF.GenerationSoftware,Altium Limited,Altium Designer,19.1.8 (144)*
G04*
G04 Layer_Physical_Order=2*
G04 Layer_Color=16711680*
%FSAX43Y43*%
%MOMM*%
G71*
G01*
G75*
%ADD33C,1.000*%
G04:AMPARAMS|DCode=36|XSize=0.6mm|YSize=0.6mm|CornerRadius=0.12mm|HoleSize=0mm|Usage=FLASHONLY|Rotation=0.000|XOffset=0mm|YOffset=0mm|HoleType=Round|Shape=RoundedRectangle|*
%AMROUNDEDRECTD36*
21,1,0.600,0.360,0,0,0.0*
21,1,0.360,0.600,0,0,0.0*
1,1,0.240,0.180,-0.180*
1,1,0.240,-0.180,-0.180*
1,1,0.240,-0.180,0.180*
1,1,0.240,0.180,0.180*
%
%ADD36ROUNDEDRECTD36*%
%ADD40C,0.300*%
%ADD42C,2.800*%
%ADD43C,0.600*%
G04:AMPARAMS|DCode=44|XSize=1.25mm|YSize=1.35mm|CornerRadius=0.125mm|HoleSize=0mm|Usage=FLASHONLY|Rotation=90.000|XOffset=0mm|YOffset=0mm|HoleType=Round|Shape=RoundedRectangle|*
%AMROUNDEDRECTD44*
21,1,1.250,1.100,0,0,90.0*
21,1,1.000,1.350,0,0,90.0*
1,1,0.250,0.550,0.500*
1,1,0.250,0.550,-0.500*
1,1,0.250,-0.550,-0.500*
1,1,0.250,-0.550,0.500*
%
%ADD44ROUNDEDRECTD44*%
G04:AMPARAMS|DCode=45|XSize=1mm|YSize=0.35mm|CornerRadius=0.088mm|HoleSize=0mm|Usage=FLASHONLY|Rotation=0.000|XOffset=0mm|YOffset=0mm|HoleType=Round|Shape=RoundedRectangle|*
%AMROUNDEDRECTD45*
21,1,1.000,0.175,0,0,0.0*
21,1,0.825,0.350,0,0,0.0*
1,1,0.175,0.413,-0.088*
1,1,0.175,-0.413,-0.088*
1,1,0.175,-0.413,0.088*
1,1,0.175,0.413,0.088*
%
%ADD45ROUNDEDRECTD45*%
G04:AMPARAMS|DCode=46|XSize=0.9mm|YSize=0.35mm|CornerRadius=0.088mm|HoleSize=0mm|Usage=FLASHONLY|Rotation=0.000|XOffset=0mm|YOffset=0mm|HoleType=Round|Shape=RoundedRectangle|*
%AMROUNDEDRECTD46*
21,1,0.900,0.175,0,0,0.0*
21,1,0.725,0.350,0,0,0.0*
1,1,0.175,0.363,-0.088*
1,1,0.175,-0.363,-0.088*
1,1,0.175,-0.363,0.088*
1,1,0.175,0.363,0.088*
%
%ADD46ROUNDEDRECTD46*%
G36*
X0123626Y0084394D02*
X0123529Y0084297D01*
X0123392Y0084092D01*
X0123298Y0083865D01*
X0123250Y0083623D01*
Y0083377D01*
X0123298Y0083135D01*
X0123392Y0082908D01*
X0123529Y0082703D01*
X0123703Y0082529D01*
X0123908Y0082392D01*
X0124135Y0082298D01*
X0124377Y0082250D01*
X0124623D01*
X0124865Y0082298D01*
X0125002Y0082355D01*
X0125242Y0082256D01*
X0125320Y0082184D01*
X0125332Y0082069D01*
X0125458Y0081654D01*
X0125662Y0081272D01*
X0125937Y0080937D01*
X0126272Y0080662D01*
X0126654Y0080458D01*
X0127069Y0080332D01*
X0127500Y0080289D01*
X0127931Y0080332D01*
X0128346Y0080458D01*
X0128728Y0080662D01*
X0129063Y0080937D01*
X0129338Y0081272D01*
X0129394Y0081377D01*
X0129694Y0081302D01*
Y0058698D01*
X0129394Y0058623D01*
X0129338Y0058728D01*
X0129063Y0059063D01*
X0128728Y0059338D01*
X0128346Y0059542D01*
X0127931Y0059668D01*
X0127500Y0059711D01*
X0127069Y0059668D01*
X0126654Y0059542D01*
X0126272Y0059338D01*
X0125937Y0059063D01*
X0125662Y0058728D01*
X0125458Y0058346D01*
X0125332Y0057931D01*
X0125320Y0057816D01*
X0125242Y0057744D01*
X0125002Y0057645D01*
X0124865Y0057702D01*
X0124623Y0057750D01*
X0124377D01*
X0124135Y0057702D01*
X0123908Y0057608D01*
X0123703Y0057471D01*
X0123529Y0057297D01*
X0123392Y0057092D01*
X0123298Y0056865D01*
X0123250Y0056623D01*
Y0056377D01*
X0123298Y0056135D01*
X0123392Y0055908D01*
X0123529Y0055703D01*
X0123626Y0055606D01*
X0123518Y0055306D01*
X0106482D01*
X0106374Y0055606D01*
X0106471Y0055703D01*
X0106608Y0055908D01*
X0106702Y0056135D01*
X0106750Y0056377D01*
Y0056623D01*
X0106702Y0056865D01*
X0106608Y0057092D01*
X0106471Y0057297D01*
X0106297Y0057471D01*
X0106092Y0057608D01*
X0105865Y0057702D01*
X0105623Y0057750D01*
X0105377D01*
X0105135Y0057702D01*
X0104998Y0057645D01*
X0104758Y0057744D01*
X0104680Y0057816D01*
X0104668Y0057931D01*
X0104542Y0058346D01*
X0104338Y0058728D01*
X0104063Y0059063D01*
X0103728Y0059338D01*
X0103346Y0059542D01*
X0102931Y0059668D01*
X0102500Y0059711D01*
X0102069Y0059668D01*
X0101654Y0059542D01*
X0101272Y0059338D01*
X0100937Y0059063D01*
X0100662Y0058728D01*
X0100606Y0058623D01*
X0100306Y0058698D01*
Y0081302D01*
X0100606Y0081377D01*
X0100662Y0081272D01*
X0100937Y0080937D01*
X0101272Y0080662D01*
X0101654Y0080458D01*
X0102069Y0080332D01*
X0102500Y0080289D01*
X0102931Y0080332D01*
X0103346Y0080458D01*
X0103728Y0080662D01*
X0104063Y0080937D01*
X0104338Y0081272D01*
X0104542Y0081654D01*
X0104668Y0082069D01*
X0104680Y0082184D01*
X0104758Y0082256D01*
X0104998Y0082355D01*
X0105135Y0082298D01*
X0105377Y0082250D01*
X0105623D01*
X0105865Y0082298D01*
X0106092Y0082392D01*
X0106297Y0082529D01*
X0106471Y0082703D01*
X0106608Y0082908D01*
X0106702Y0083135D01*
X0106750Y0083377D01*
Y0083623D01*
X0106702Y0083865D01*
X0106608Y0084092D01*
X0106471Y0084297D01*
X0106374Y0084394D01*
X0106482Y0084694D01*
X0123518D01*
X0123626Y0084394D01*
D02*
G37*
%LPC*%
G36*
X0120715Y0082837D02*
X0120240Y0082790D01*
X0119783Y0082651D01*
X0119361Y0082426D01*
X0118992Y0082123D01*
X0118689Y0081754D01*
X0118464Y0081332D01*
X0118325Y0080875D01*
X0118278Y0080400D01*
X0118325Y0079925D01*
X0118464Y0079467D01*
X0118689Y0079046D01*
X0118992Y0078677D01*
X0119361Y0078374D01*
X0119783Y0078149D01*
X0120240Y0078010D01*
X0120715Y0077963D01*
X0121190Y0078010D01*
X0121647Y0078149D01*
X0122069Y0078374D01*
X0122438Y0078677D01*
X0122741Y0079046D01*
X0122966Y0079467D01*
X0123105Y0079925D01*
X0123152Y0080400D01*
X0123105Y0080875D01*
X0122966Y0081332D01*
X0122741Y0081754D01*
X0122438Y0082123D01*
X0122069Y0082426D01*
X0121647Y0082651D01*
X0121190Y0082790D01*
X0120715Y0082837D01*
D02*
G37*
G36*
X0109285D02*
X0108810Y0082790D01*
X0108353Y0082651D01*
X0107931Y0082426D01*
X0107562Y0082123D01*
X0107259Y0081754D01*
X0107034Y0081332D01*
X0106895Y0080875D01*
X0106848Y0080400D01*
X0106895Y0079925D01*
X0107034Y0079467D01*
X0107259Y0079046D01*
X0107562Y0078677D01*
X0107931Y0078374D01*
X0108353Y0078149D01*
X0108810Y0078010D01*
X0109285Y0077963D01*
X0109760Y0078010D01*
X0110217Y0078149D01*
X0110639Y0078374D01*
X0111008Y0078677D01*
X0111311Y0079046D01*
X0111536Y0079467D01*
X0111675Y0079925D01*
X0111722Y0080400D01*
X0111675Y0080875D01*
X0111536Y0081332D01*
X0111311Y0081754D01*
X0111008Y0082123D01*
X0110639Y0082426D01*
X0110217Y0082651D01*
X0109760Y0082790D01*
X0109285Y0082837D01*
D02*
G37*
G36*
X0116684Y0079507D02*
X0114950D01*
X0114813Y0079480D01*
X0114698Y0079402D01*
X0114297Y0079002D01*
X0114195Y0078981D01*
X0114089Y0078911D01*
X0114019Y0078805D01*
X0113994Y0078680D01*
Y0078353D01*
X0113993Y0078350D01*
Y0077731D01*
X0113688D01*
X0113575Y0077708D01*
X0113480Y0077645D01*
X0113460Y0077615D01*
X0113404Y0077577D01*
X0112998Y0077171D01*
X0112920Y0077055D01*
X0112893Y0076919D01*
Y0075672D01*
X0112920Y0075535D01*
X0112944Y0075500D01*
Y0074773D01*
X0112327Y0074157D01*
X0108063D01*
X0108060Y0074160D01*
X0107895Y0074271D01*
X0107700Y0074310D01*
X0107505Y0074271D01*
X0107340Y0074160D01*
X0107229Y0073995D01*
X0107190Y0073800D01*
X0107229Y0073605D01*
X0107328Y0073457D01*
X0107308Y0073363D01*
X0107223Y0073157D01*
X0106350D01*
X0106213Y0073130D01*
X0106211Y0073128D01*
X0106175Y0073135D01*
X0105980Y0073096D01*
X0105815Y0072985D01*
X0105704Y0072820D01*
X0105665Y0072625D01*
X0105704Y0072430D01*
X0105815Y0072265D01*
X0105980Y0072154D01*
X0106175Y0072115D01*
X0106370Y0072154D01*
X0106535Y0072265D01*
X0106646Y0072430D01*
X0106649Y0072443D01*
X0113816D01*
X0114161Y0072098D01*
X0114277Y0072020D01*
X0114414Y0071993D01*
X0116850D01*
X0116987Y0072020D01*
X0117102Y0072098D01*
X0118296Y0073291D01*
X0118300Y0073290D01*
X0118495Y0073329D01*
X0118660Y0073440D01*
X0118771Y0073605D01*
X0118787Y0073684D01*
X0119088Y0073802D01*
X0119093Y0073802D01*
X0120991Y0071904D01*
X0120990Y0071900D01*
X0121029Y0071705D01*
X0121140Y0071540D01*
X0121305Y0071429D01*
X0121500Y0071390D01*
X0121695Y0071429D01*
X0121860Y0071540D01*
X0121971Y0071705D01*
X0122010Y0071900D01*
X0121971Y0072095D01*
X0121860Y0072260D01*
X0121695Y0072371D01*
X0121500Y0072410D01*
X0121496Y0072409D01*
X0119202Y0074702D01*
X0119087Y0074780D01*
X0118950Y0074807D01*
X0118031D01*
X0117894Y0074780D01*
X0117778Y0074702D01*
X0116362Y0073286D01*
X0116214Y0073291D01*
X0116099Y0073595D01*
X0116327Y0073822D01*
X0116404Y0073938D01*
X0116431Y0074074D01*
Y0074269D01*
X0116725D01*
X0116852Y0074294D01*
X0116959Y0074366D01*
X0117031Y0074473D01*
X0117056Y0074600D01*
Y0075600D01*
X0117031Y0075727D01*
X0116959Y0075834D01*
X0116852Y0075906D01*
X0116725Y0075931D01*
X0115807D01*
X0115782Y0075958D01*
X0115782Y0075979D01*
X0116071Y0076269D01*
X0116312D01*
X0116425Y0076292D01*
X0116520Y0076355D01*
X0116583Y0076450D01*
X0116606Y0076562D01*
Y0076738D01*
X0116583Y0076850D01*
X0116520Y0076945D01*
X0116630Y0077131D01*
X0116644Y0077200D01*
X0115950D01*
Y0077500D01*
X0116644D01*
X0116630Y0077569D01*
X0116556Y0077681D01*
X0116444Y0077755D01*
X0116312Y0077782D01*
X0116080D01*
X0115998Y0077948D01*
X0115966Y0078082D01*
X0116029Y0078176D01*
X0116057Y0078320D01*
Y0078350D01*
X0115500D01*
Y0078650D01*
X0116057D01*
Y0078680D01*
X0116150Y0078793D01*
X0116536D01*
X0117220Y0078109D01*
X0117219Y0078105D01*
X0117258Y0077910D01*
X0117369Y0077744D01*
X0117534Y0077634D01*
X0117729Y0077595D01*
X0117924Y0077634D01*
X0118089Y0077744D01*
X0118200Y0077910D01*
X0118239Y0078105D01*
X0118200Y0078300D01*
X0118089Y0078465D01*
X0117924Y0078576D01*
X0117729Y0078615D01*
X0117725Y0078614D01*
X0116936Y0079402D01*
X0116820Y0079480D01*
X0116684Y0079507D01*
D02*
G37*
G36*
X0127175Y0077935D02*
X0126980Y0077896D01*
X0126847Y0077807D01*
X0126450D01*
X0126313Y0077780D01*
X0126198Y0077702D01*
X0125552Y0077057D01*
X0118463D01*
X0118460Y0077060D01*
X0118295Y0077171D01*
X0118100Y0077210D01*
X0117905Y0077171D01*
X0117739Y0077060D01*
X0117629Y0076895D01*
X0117590Y0076700D01*
X0117629Y0076505D01*
X0117739Y0076339D01*
X0117905Y0076229D01*
X0118100Y0076190D01*
X0118090Y0076000D01*
X0118129Y0075805D01*
X0118240Y0075640D01*
X0118405Y0075529D01*
X0118600Y0075490D01*
X0118795Y0075529D01*
X0118960Y0075640D01*
X0118963Y0075643D01*
X0126000D01*
X0126137Y0075670D01*
X0126252Y0075748D01*
X0126596Y0076091D01*
X0126600Y0076090D01*
X0126795Y0076129D01*
X0126960Y0076240D01*
X0127071Y0076405D01*
X0127110Y0076600D01*
X0127105Y0076623D01*
X0127159Y0076847D01*
X0127324Y0076945D01*
X0127370Y0076954D01*
X0127535Y0077065D01*
X0127646Y0077230D01*
X0127685Y0077425D01*
X0127646Y0077620D01*
X0127535Y0077785D01*
X0127370Y0077896D01*
X0127175Y0077935D01*
D02*
G37*
G36*
X0111900Y0077410D02*
X0111705Y0077371D01*
X0111540Y0077260D01*
X0111429Y0077095D01*
X0111390Y0076900D01*
X0111391Y0076896D01*
X0110843Y0076348D01*
X0110489Y0076418D01*
X0110460Y0076460D01*
X0110295Y0076571D01*
X0110100Y0076610D01*
X0109905Y0076571D01*
X0109740Y0076460D01*
X0109737Y0076457D01*
X0105700D01*
X0105563Y0076430D01*
X0105448Y0076352D01*
X0103148Y0074052D01*
X0103070Y0073937D01*
X0103043Y0073800D01*
Y0072863D01*
X0103040Y0072860D01*
X0102929Y0072695D01*
X0102890Y0072500D01*
X0102929Y0072305D01*
X0103040Y0072140D01*
X0103205Y0072029D01*
X0103400Y0071990D01*
X0103595Y0072029D01*
X0103760Y0072140D01*
X0103939Y0072039D01*
X0104105Y0071929D01*
X0104300Y0071890D01*
X0104495Y0071929D01*
X0104660Y0072039D01*
X0104771Y0072205D01*
X0104810Y0072400D01*
X0104771Y0072595D01*
X0104660Y0072760D01*
X0104657Y0072763D01*
Y0073845D01*
X0105855Y0075043D01*
X0110400D01*
X0110537Y0075070D01*
X0110652Y0075148D01*
X0111896Y0076391D01*
X0111900Y0076390D01*
X0112095Y0076429D01*
X0112260Y0076540D01*
X0112371Y0076705D01*
X0112410Y0076900D01*
X0112371Y0077095D01*
X0112260Y0077260D01*
X0112095Y0077371D01*
X0111900Y0077410D01*
D02*
G37*
G36*
X0115680Y0067057D02*
X0115650D01*
Y0066650D01*
X0116057D01*
Y0066680D01*
X0116029Y0066824D01*
X0115947Y0066947D01*
X0115824Y0067029D01*
X0115680Y0067057D01*
D02*
G37*
G36*
X0127680D02*
X0127650D01*
Y0066650D01*
X0128057D01*
Y0066680D01*
X0128029Y0066824D01*
X0127947Y0066947D01*
X0127824Y0067029D01*
X0127680Y0067057D01*
D02*
G37*
G36*
X0120300Y0071257D02*
X0102400D01*
X0102263Y0071230D01*
X0102148Y0071152D01*
X0100902Y0069907D01*
X0100825Y0069791D01*
X0100798Y0069655D01*
Y0067710D01*
X0100693Y0067554D01*
X0100654Y0067358D01*
X0100693Y0067163D01*
X0100804Y0066998D01*
X0100969Y0066887D01*
X0101164Y0066849D01*
X0101359Y0066887D01*
X0101525Y0066998D01*
X0101635Y0067163D01*
X0101638Y0067176D01*
X0101805Y0067423D01*
X0102000Y0067462D01*
X0102165Y0067573D01*
X0102276Y0067738D01*
X0102314Y0067933D01*
X0102276Y0068128D01*
X0102210Y0068226D01*
X0102214Y0068238D01*
X0102301Y0068315D01*
X0102569Y0068374D01*
X0102600Y0068351D01*
X0102629Y0068205D01*
X0102739Y0068039D01*
X0102905Y0067929D01*
X0103100Y0067890D01*
X0103204Y0067911D01*
X0103769Y0067345D01*
X0103715Y0067169D01*
X0103650Y0067080D01*
Y0066500D01*
X0103350D01*
Y0067057D01*
X0103320D01*
X0103176Y0067029D01*
X0103053Y0066947D01*
X0102805Y0066981D01*
X0102680Y0067006D01*
X0102320D01*
X0102195Y0066981D01*
X0102089Y0066911D01*
X0102019Y0066805D01*
X0101994Y0066680D01*
Y0066353D01*
X0101993Y0066350D01*
Y0065731D01*
X0101688D01*
X0101575Y0065708D01*
X0101480Y0065645D01*
X0101460Y0065615D01*
X0101404Y0065577D01*
X0100998Y0065171D01*
X0100920Y0065055D01*
X0100893Y0064919D01*
Y0064272D01*
X0100920Y0064135D01*
X0100990Y0064031D01*
Y0063758D01*
X0100969Y0063727D01*
X0100944Y0063600D01*
Y0062600D01*
X0100969Y0062473D01*
X0101041Y0062366D01*
X0101148Y0062294D01*
X0101275Y0062269D01*
X0101468D01*
Y0061103D01*
X0101305Y0061071D01*
X0101140Y0060960D01*
X0101029Y0060795D01*
X0100990Y0060600D01*
X0101029Y0060405D01*
X0101140Y0060240D01*
X0101305Y0060129D01*
X0101500Y0060090D01*
X0101695Y0060129D01*
X0101860Y0060240D01*
X0101971Y0060405D01*
X0102010Y0060600D01*
X0102009Y0060604D01*
X0102077Y0060673D01*
X0102155Y0060788D01*
X0102155Y0060788D01*
X0102182Y0060925D01*
X0102320Y0060994D01*
X0102502D01*
X0102548Y0060947D01*
X0102598Y0060873D01*
X0103573Y0059898D01*
X0103689Y0059820D01*
X0103825Y0059793D01*
X0118050D01*
X0118187Y0059820D01*
X0118302Y0059898D01*
X0123652Y0065248D01*
X0123730Y0065363D01*
X0123757Y0065500D01*
Y0067362D01*
X0123760Y0067365D01*
X0123871Y0067530D01*
X0123910Y0067725D01*
X0123871Y0067920D01*
X0123760Y0068085D01*
X0123595Y0068196D01*
X0123400Y0068235D01*
X0123205Y0068196D01*
X0123040Y0068085D01*
X0122945Y0067944D01*
X0122929Y0067920D01*
X0122929Y0067920D01*
X0122890Y0067725D01*
X0122700Y0067710D01*
X0122505Y0067671D01*
X0122340Y0067560D01*
X0122229Y0067395D01*
X0122190Y0067200D01*
X0122229Y0067005D01*
X0122340Y0066840D01*
X0122343Y0066837D01*
Y0065852D01*
X0117698Y0061207D01*
X0116099D01*
X0116016Y0061308D01*
X0116012Y0061507D01*
X0116327Y0061822D01*
X0116404Y0061938D01*
X0116431Y0062074D01*
Y0062269D01*
X0116725D01*
X0116852Y0062294D01*
X0116959Y0062366D01*
X0117031Y0062473D01*
X0117056Y0062600D01*
Y0063600D01*
X0117031Y0063727D01*
X0117177Y0063873D01*
X0118052Y0064748D01*
X0118130Y0064863D01*
X0118157Y0065000D01*
Y0067307D01*
X0118130Y0067444D01*
X0118052Y0067559D01*
X0116564Y0069047D01*
X0116449Y0069125D01*
X0116312Y0069152D01*
X0109263D01*
X0109260Y0069156D01*
X0109095Y0069266D01*
X0108900Y0069305D01*
X0108705Y0069266D01*
X0108539Y0069156D01*
X0108318Y0068995D01*
X0108125Y0069003D01*
X0108090Y0069010D01*
X0107895Y0068971D01*
X0107730Y0068860D01*
X0107619Y0068695D01*
X0107580Y0068500D01*
X0107619Y0068305D01*
X0107730Y0068140D01*
X0107895Y0068029D01*
X0108090Y0067990D01*
X0108249Y0068022D01*
X0108378Y0067893D01*
X0108494Y0067815D01*
X0108631Y0067788D01*
X0115807D01*
X0116393Y0067202D01*
Y0066115D01*
X0116111Y0065870D01*
X0116003Y0066138D01*
X0116029Y0066176D01*
X0116057Y0066320D01*
Y0066350D01*
X0115500D01*
Y0066500D01*
X0115350D01*
Y0067057D01*
X0115320D01*
X0115176Y0067029D01*
X0115053Y0066947D01*
X0114805Y0066981D01*
X0114680Y0067006D01*
X0114320D01*
X0114195Y0066981D01*
X0114089Y0066911D01*
X0114019Y0066805D01*
X0113947Y0066669D01*
X0113700Y0066610D01*
X0113505Y0066571D01*
X0113271Y0066695D01*
X0113246Y0066732D01*
X0113160Y0066860D01*
X0112995Y0066971D01*
X0112800Y0067010D01*
X0112605Y0066971D01*
X0112584Y0066957D01*
X0107763D01*
X0107760Y0066960D01*
X0107595Y0067071D01*
X0107400Y0067110D01*
X0107205Y0067071D01*
X0107039Y0066960D01*
X0106929Y0066795D01*
X0106890Y0066600D01*
X0106900Y0066410D01*
X0106705Y0066371D01*
X0106705Y0066371D01*
X0106659Y0066340D01*
X0106540Y0066260D01*
X0106429Y0066095D01*
X0106390Y0065900D01*
X0106429Y0065705D01*
X0106540Y0065540D01*
X0106705Y0065429D01*
X0106900Y0065390D01*
X0107095Y0065429D01*
X0107191Y0065493D01*
X0112895D01*
X0113020Y0065193D01*
X0112998Y0065171D01*
X0112920Y0065055D01*
X0112893Y0064919D01*
Y0063672D01*
X0112920Y0063535D01*
X0112944Y0063500D01*
Y0062600D01*
X0112969Y0062473D01*
X0113041Y0062366D01*
X0113148Y0062294D01*
X0113275Y0062269D01*
X0114012D01*
X0114179Y0061991D01*
X0114176Y0061969D01*
X0114089Y0061911D01*
X0114019Y0061805D01*
X0113994Y0061680D01*
Y0061320D01*
X0114019Y0061195D01*
X0114089Y0061089D01*
X0114195Y0061019D01*
X0114320Y0060994D01*
X0114459D01*
X0114646Y0060764D01*
X0114540Y0060507D01*
X0103981D01*
X0103775Y0060725D01*
X0103786Y0060830D01*
X0103853Y0061051D01*
X0103911Y0061089D01*
X0103981Y0061195D01*
X0104006Y0061320D01*
Y0061502D01*
X0104327Y0061822D01*
X0104404Y0061938D01*
X0104431Y0062074D01*
Y0062269D01*
X0104725D01*
X0104852Y0062294D01*
X0104959Y0062366D01*
X0105031Y0062473D01*
X0105056Y0062600D01*
Y0063600D01*
X0105031Y0063727D01*
X0104982Y0063860D01*
X0105151Y0064046D01*
X0105802Y0064698D01*
X0105880Y0064813D01*
X0105907Y0064950D01*
Y0066969D01*
X0105880Y0067105D01*
X0105802Y0067221D01*
X0103671Y0069352D01*
X0103556Y0069430D01*
X0103419Y0069457D01*
X0103103D01*
X0103000Y0069757D01*
X0103169Y0069943D01*
X0120045D01*
X0120641Y0069348D01*
X0120756Y0069270D01*
X0120893Y0069243D01*
X0126852D01*
X0127682Y0068413D01*
X0127840Y0068160D01*
X0127729Y0067995D01*
X0127690Y0067800D01*
X0127729Y0067605D01*
X0127840Y0067440D01*
X0128005Y0067329D01*
X0128200Y0067290D01*
X0128378Y0067326D01*
X0128400Y0067326D01*
X0128678Y0067157D01*
Y0065960D01*
X0128595Y0065887D01*
X0128378Y0065769D01*
X0128312Y0065782D01*
X0128080D01*
X0127998Y0065948D01*
X0127966Y0066082D01*
X0128029Y0066176D01*
X0128057Y0066320D01*
Y0066350D01*
X0127500D01*
Y0066500D01*
X0127350D01*
Y0067057D01*
X0127320D01*
X0127176Y0067029D01*
X0127053Y0066947D01*
X0126805Y0066981D01*
X0126680Y0067006D01*
X0126320D01*
X0126195Y0066981D01*
X0126089Y0066911D01*
X0126019Y0066805D01*
X0126010Y0066764D01*
X0125957Y0066723D01*
X0125662Y0066868D01*
X0125657Y0066876D01*
Y0067937D01*
X0125660Y0067940D01*
X0125771Y0068105D01*
X0125810Y0068300D01*
X0125771Y0068495D01*
X0125660Y0068660D01*
X0125495Y0068771D01*
X0125300Y0068810D01*
X0125105Y0068771D01*
X0124940Y0068660D01*
X0124829Y0068495D01*
X0124790Y0068300D01*
X0124829Y0068105D01*
X0124940Y0067940D01*
X0124943Y0067937D01*
Y0066148D01*
X0124498Y0065702D01*
X0124420Y0065587D01*
X0124393Y0065450D01*
Y0062453D01*
X0124420Y0062317D01*
X0124498Y0062201D01*
X0125451Y0061248D01*
X0125567Y0061170D01*
X0125703Y0061143D01*
X0126053D01*
X0126089Y0061089D01*
X0126195Y0061019D01*
X0126320Y0060994D01*
X0126680D01*
X0126805Y0061019D01*
X0126911Y0061089D01*
X0127089D01*
X0127195Y0061019D01*
X0127320Y0060994D01*
X0127680D01*
X0127805Y0061019D01*
X0127911Y0061089D01*
X0127981Y0061195D01*
X0128006Y0061320D01*
Y0061502D01*
X0128327Y0061822D01*
X0128404Y0061938D01*
X0128431Y0062074D01*
Y0062269D01*
X0128725D01*
X0128852Y0062294D01*
X0128959Y0062366D01*
X0129031Y0062473D01*
X0129056Y0062600D01*
Y0063600D01*
X0129031Y0063727D01*
X0128959Y0063834D01*
X0128852Y0063906D01*
X0128725Y0063931D01*
X0127625D01*
X0127498Y0063906D01*
X0127391Y0063834D01*
X0127344Y0063765D01*
X0127126Y0063595D01*
X0126994Y0063591D01*
X0126900Y0063610D01*
X0126735Y0063577D01*
X0126706Y0063600D01*
X0126681Y0063727D01*
X0126609Y0063834D01*
X0126502Y0063906D01*
X0126375Y0063931D01*
X0125666D01*
X0125662Y0063980D01*
X0125933Y0064269D01*
X0126512D01*
X0126625Y0064292D01*
X0126627Y0064293D01*
X0126650D01*
X0126787Y0064320D01*
X0126902Y0064398D01*
X0126996Y0064491D01*
X0127000Y0064490D01*
X0127195Y0064529D01*
X0127380Y0064355D01*
X0127475Y0064292D01*
X0127588Y0064269D01*
X0128312D01*
X0128425Y0064292D01*
X0128464Y0064318D01*
X0128528D01*
X0128665Y0064345D01*
X0128781Y0064423D01*
X0129287Y0064929D01*
X0129364Y0065045D01*
X0129391Y0065181D01*
Y0068666D01*
X0129364Y0068802D01*
X0129287Y0068918D01*
X0127852Y0070352D01*
X0127737Y0070430D01*
X0127600Y0070457D01*
X0121248D01*
X0120552Y0071152D01*
X0120437Y0071230D01*
X0120300Y0071257D01*
D02*
G37*
%LPD*%
D33*
X0105500Y0056500D02*
D03*
X0124500D02*
D03*
X0105500Y0083500D02*
D03*
X0124500D02*
D03*
X0108300Y0071900D02*
D03*
X0109100Y0077100D02*
D03*
X0117400Y0059300D02*
D03*
X0112500Y0078500D02*
D03*
X0105600Y0080800D02*
D03*
X0107200Y0069400D02*
D03*
X0122600Y0075100D02*
D03*
X0123200Y0077600D02*
D03*
X0105400Y0059000D02*
D03*
X0110800Y0057100D02*
D03*
X0128800Y0060900D02*
D03*
X0122200Y0057000D02*
D03*
X0122100Y0068500D02*
D03*
X0101800Y0077900D02*
D03*
X0118800Y0083800D02*
D03*
X0111700D02*
D03*
D36*
X0102500Y0066500D02*
D03*
X0103500D02*
D03*
X0102500Y0061500D02*
D03*
X0103500D02*
D03*
X0114500Y0066500D02*
D03*
X0115500D02*
D03*
X0114500Y0061500D02*
D03*
X0115500D02*
D03*
X0114500Y0078500D02*
D03*
X0115500D02*
D03*
X0114500Y0073500D02*
D03*
X0115500Y0073500D02*
D03*
X0127500Y0061500D02*
D03*
X0126500D02*
D03*
X0127500Y0066500D02*
D03*
X0126500D02*
D03*
D40*
X0125250Y0063725D02*
X0125875Y0063100D01*
X0118050Y0060150D02*
X0123400Y0065500D01*
X0103825Y0060150D02*
X0118050D01*
X0102850Y0061125D02*
X0103825Y0060150D01*
X0114500Y0061475D02*
X0115125Y0060850D01*
X0114500Y0061475D02*
Y0061500D01*
X0123400Y0065500D02*
Y0067725D01*
X0103160Y0068460D02*
X0105050Y0066569D01*
X0114414Y0072350D02*
X0116850D01*
X0113964Y0072800D02*
X0114414Y0072350D01*
X0106350Y0072800D02*
X0113964D01*
X0114500Y0073475D02*
X0115125Y0072850D01*
X0114500Y0073475D02*
Y0073500D01*
X0101805Y0069224D02*
X0102881Y0070300D01*
X0101805Y0067933D02*
Y0069224D01*
X0101155Y0069655D02*
X0102400Y0070900D01*
X0101155Y0067368D02*
Y0069655D01*
Y0067368D02*
X0101164Y0067358D01*
X0106175Y0072625D02*
X0106350Y0072800D01*
X0116850Y0072350D02*
X0118300Y0073800D01*
X0116750Y0064664D02*
Y0067350D01*
X0115955Y0068145D02*
X0116750Y0067350D01*
X0108631Y0068145D02*
X0115955D01*
X0108900Y0068795D02*
X0116312D01*
X0117800Y0067307D01*
X0116736Y0064650D02*
X0116750Y0064664D01*
X0108276Y0068500D02*
X0108631Y0068145D01*
X0108090Y0068500D02*
X0108276D01*
X0117800Y0065000D02*
Y0067307D01*
X0116925Y0064125D02*
X0117800Y0065000D01*
X0114950Y0064125D02*
X0116925D01*
X0120193Y0070300D02*
X0120893Y0069600D01*
X0102881Y0070300D02*
X0120193D01*
X0116684Y0079150D02*
X0117729Y0078105D01*
X0114950Y0079150D02*
X0116684D01*
X0114500Y0078700D02*
X0114950Y0079150D01*
X0118600Y0076000D02*
X0126000D01*
X0126600Y0076600D01*
X0118100Y0076700D02*
X0125700D01*
X0126450Y0077450D01*
X0127150D01*
X0127175Y0077425D01*
X0105707Y0075400D02*
X0110400D01*
X0104300Y0073993D02*
X0105707Y0075400D01*
X0104300Y0072400D02*
Y0073993D01*
X0105700Y0076100D02*
X0110100D01*
X0103400Y0073800D02*
X0105700Y0076100D01*
X0103400Y0072500D02*
Y0073800D01*
X0116431Y0072850D02*
X0118031Y0074450D01*
X0115125Y0072850D02*
X0116431D01*
X0102600Y0069100D02*
X0103419D01*
X0105550Y0066969D01*
Y0064950D02*
Y0066969D01*
X0102400Y0070900D02*
X0120300D01*
X0115119Y0076900D02*
X0115200D01*
X0115425Y0076675D01*
X0115925D01*
X0115950Y0076650D01*
X0115975Y0076675D01*
X0115119Y0076900D02*
X0115194Y0076825D01*
X0114975Y0076100D02*
X0115000D01*
X0114425Y0076650D02*
X0114975Y0076100D01*
X0126650Y0064650D02*
X0127000Y0065000D01*
X0126100Y0064650D02*
X0126650D01*
X0128528Y0064675D02*
X0129034Y0065181D01*
X0127975Y0064675D02*
X0128528D01*
X0129034Y0065181D02*
Y0068666D01*
X0127600Y0070100D02*
X0129034Y0068666D01*
X0127950Y0064650D02*
X0127975Y0064675D01*
X0112475Y0073800D02*
X0113775Y0075100D01*
X0107700Y0073800D02*
X0112475D01*
X0110400Y0075400D02*
X0111900Y0076900D01*
X0115998Y0077375D02*
Y0078002D01*
X0115973Y0077350D02*
X0115998Y0077375D01*
X0115950Y0077350D02*
X0115973D01*
X0115500Y0078500D02*
X0115998Y0078002D01*
X0122700Y0065705D02*
Y0067200D01*
X0117845Y0060850D02*
X0122700Y0065705D01*
X0115125Y0060850D02*
X0117845D01*
X0128200Y0067800D02*
Y0068400D01*
X0127000Y0069600D02*
X0128200Y0068400D01*
X0120893Y0069600D02*
X0127000D01*
X0120300Y0070900D02*
X0121100Y0070100D01*
X0127950Y0065350D02*
Y0066050D01*
X0127500Y0066500D02*
X0127950Y0066050D01*
X0115998Y0065375D02*
Y0066002D01*
X0115973Y0065350D02*
X0115998Y0065375D01*
X0115950Y0065350D02*
X0115973D01*
X0115500Y0066500D02*
X0115998Y0066002D01*
X0104025Y0065975D02*
X0104156D01*
X0103500Y0066500D02*
X0104025Y0065975D01*
X0104156Y0065375D02*
Y0065975D01*
X0104131Y0065350D02*
X0104156Y0065375D01*
X0103950Y0065350D02*
X0104131D01*
X0115950Y0064650D02*
X0116736D01*
X0112700Y0066600D02*
X0112800Y0066500D01*
X0107400Y0066600D02*
X0112700D01*
X0118950Y0074450D02*
X0121500Y0071900D01*
X0118031Y0074450D02*
X0118950D01*
X0121100Y0070100D02*
X0127600D01*
X0105050Y0065381D02*
Y0066569D01*
X0113775Y0075100D02*
X0113822D01*
X0101500Y0060600D02*
X0101825Y0060925D01*
Y0063100D01*
X0125875D02*
X0126900D01*
X0125825D02*
X0125875D01*
X0113825D02*
X0115000D01*
X0114500Y0078500D02*
Y0078700D01*
Y0078500D02*
X0114500Y0078500D01*
X0113250Y0075672D02*
X0113822Y0075100D01*
X0106950Y0065850D02*
X0113069D01*
X0113319Y0066100D02*
X0113700D01*
X0113069Y0065850D02*
X0113319Y0066100D01*
X0113250Y0063672D02*
X0113822Y0063100D01*
X0106900Y0065900D02*
X0106950Y0065850D01*
X0113656Y0065325D02*
X0114025D01*
X0113250Y0064919D02*
X0113656Y0065325D01*
X0114350Y0066350D02*
X0114500Y0066500D01*
X0114350Y0065375D02*
Y0066350D01*
X0114325Y0065350D02*
X0114350Y0065375D01*
X0114425Y0064650D02*
X0114950Y0064125D01*
X0114100Y0064650D02*
X0114425D01*
X0115500Y0073500D02*
X0116074Y0074074D01*
X0114100Y0076650D02*
X0114425D01*
X0104319Y0064650D02*
X0105050Y0065381D01*
X0103950Y0064650D02*
X0104319D01*
X0104725Y0064125D02*
X0105550Y0064950D01*
X0102950Y0064125D02*
X0104725D01*
X0102425Y0064650D02*
X0102950Y0064125D01*
X0102100Y0064650D02*
X0102425D01*
X0125300Y0066000D02*
Y0068300D01*
X0124750Y0065450D02*
X0125300Y0066000D01*
X0124750Y0062453D02*
Y0065450D01*
X0128074Y0062074D02*
Y0062999D01*
X0127500Y0061500D02*
X0128074Y0062074D01*
Y0062999D02*
X0128175Y0063100D01*
X0125681Y0065350D02*
X0126050D01*
X0125250Y0064919D02*
X0125681Y0065350D01*
X0126050D02*
Y0066050D01*
X0126500Y0066500D01*
X0125250Y0063725D02*
Y0064919D01*
X0124750Y0062453D02*
X0125703Y0061500D01*
X0126500D01*
X0102350Y0065375D02*
Y0066350D01*
X0114025Y0077325D02*
X0114050Y0077350D01*
X0113656Y0077325D02*
X0114025D01*
X0113250Y0076919D02*
X0113656Y0077325D01*
X0113250Y0075672D02*
Y0076919D01*
X0113822Y0075100D02*
X0113825D01*
X0116074Y0074074D02*
Y0074999D01*
X0116175Y0075100D01*
X0114025Y0065325D02*
X0114050Y0065350D01*
X0113250Y0063672D02*
Y0064919D01*
X0113822Y0063100D02*
X0113825D01*
X0102025Y0065325D02*
X0102050Y0065350D01*
X0101656Y0065325D02*
X0102025D01*
X0101250Y0064919D02*
X0101656Y0065325D01*
X0101250Y0064272D02*
Y0064919D01*
Y0064272D02*
X0101347Y0064175D01*
Y0063575D02*
Y0064175D01*
Y0063575D02*
X0101822Y0063100D01*
X0101825D01*
X0114050Y0077350D02*
X0114325D01*
X0114350Y0077375D01*
Y0078350D01*
X0114500Y0078500D01*
X0102050Y0065350D02*
X0102325D01*
X0102350Y0065375D01*
Y0066350D02*
X0102500Y0066500D01*
X0114050Y0065350D02*
X0114325D01*
X0102850Y0061125D02*
Y0061150D01*
X0102500Y0061500D02*
X0102850Y0061150D01*
X0116074Y0062074D02*
Y0062999D01*
X0116175Y0063100D01*
X0115500Y0061500D02*
X0116074Y0062074D01*
X0104074Y0062074D02*
Y0062999D01*
X0104175Y0063100D01*
X0103500Y0061500D02*
X0104074Y0062074D01*
D42*
X0102500Y0057500D02*
D03*
Y0082500D02*
D03*
X0127500D02*
D03*
Y0057500D02*
D03*
D43*
X0123400Y0067725D02*
D03*
X0101805Y0067933D02*
D03*
X0101164Y0067358D02*
D03*
X0108900Y0068795D02*
D03*
X0117729Y0078105D02*
D03*
X0118100Y0076700D02*
D03*
X0118600Y0076000D02*
D03*
X0106175Y0072625D02*
D03*
X0103100Y0068400D02*
D03*
X0102600Y0069100D02*
D03*
X0127700Y0071100D02*
D03*
X0126200D02*
D03*
X0126950Y0071550D02*
D03*
X0127700Y0072000D02*
D03*
X0126200D02*
D03*
X0115119Y0076900D02*
D03*
X0115000Y0076100D02*
D03*
X0127000Y0065000D02*
D03*
X0108090Y0068500D02*
D03*
X0107700Y0073800D02*
D03*
X0122700Y0067200D02*
D03*
X0107400Y0066600D02*
D03*
X0121500Y0071900D02*
D03*
X0104400Y0066300D02*
D03*
X0128200Y0067800D02*
D03*
X0110100Y0076100D02*
D03*
X0111900Y0076900D02*
D03*
X0101500Y0060600D02*
D03*
X0126900Y0063100D02*
D03*
X0115000D02*
D03*
X0126600Y0076600D02*
D03*
X0127175Y0077425D02*
D03*
X0112800Y0066500D02*
D03*
X0113700Y0066100D02*
D03*
X0106900Y0065900D02*
D03*
X0118300Y0073800D02*
D03*
X0104300Y0072400D02*
D03*
X0103400Y0072500D02*
D03*
X0125300Y0068300D02*
D03*
D44*
X0104175Y0063100D02*
D03*
X0101825D02*
D03*
X0116175D02*
D03*
X0113825D02*
D03*
X0116175Y0075100D02*
D03*
X0113825D02*
D03*
X0128175Y0063100D02*
D03*
X0125825D02*
D03*
D45*
X0102100Y0064650D02*
D03*
X0114100Y0064650D02*
D03*
Y0076650D02*
D03*
X0126100Y0064650D02*
D03*
D46*
X0102050Y0065350D02*
D03*
X0103950D02*
D03*
Y0064650D02*
D03*
X0114050Y0065350D02*
D03*
X0115950D02*
D03*
Y0064650D02*
D03*
X0114050Y0077350D02*
D03*
X0115950D02*
D03*
Y0076650D02*
D03*
X0126050Y0065350D02*
D03*
X0127950D02*
D03*
Y0064650D02*
D03*
M02*
