<?xml version="1.0" encoding="UTF-8" standalone="no"?>
<!-- Created with Inkscape (http://www.inkscape.org/) -->

<svg
   xmlns:dc="http://purl.org/dc/elements/1.1/"
   xmlns:cc="http://creativecommons.org/ns#"
   xmlns:rdf="http://www.w3.org/1999/02/22-rdf-syntax-ns#"
   xmlns:svg="http://www.w3.org/2000/svg"
   xmlns="http://www.w3.org/2000/svg"
   xmlns:sodipodi="http://sodipodi.sourceforge.net/DTD/sodipodi-0.dtd"
   xmlns:inkscape="http://www.inkscape.org/namespaces/inkscape"
   version="1.0"
   width="300"
   height="69.834"
   viewBox="0 0 300.00186 69.834"
   id="Layer_1"
   xml:space="preserve"
   style="overflow:visible"
   sodipodi:docname="High_Definition_Multimedia_Interface_Logo.svg"
   inkscape:version="0.92.4 (5da689c313, 2019-01-14)"><metadata
   id="metadata50"><rdf:RDF><cc:Work
       rdf:about=""><dc:format>image/svg+xml</dc:format><dc:type
         rdf:resource="http://purl.org/dc/dcmitype/StillImage" /></cc:Work></rdf:RDF></metadata><sodipodi:namedview
   pagecolor="#ffffff"
   bordercolor="#666666"
   borderopacity="1"
   objecttolerance="10"
   gridtolerance="10"
   guidetolerance="10"
   inkscape:pageopacity="0"
   inkscape:pageshadow="2"
   inkscape:window-width="2560"
   inkscape:window-height="1377"
   id="namedview48"
   showgrid="false"
   inkscape:zoom="0.94666667"
   inkscape:cx="150"
   inkscape:cy="34.917"
   inkscape:window-x="2552"
   inkscape:window-y="-8"
   inkscape:window-maximized="1"
   inkscape:current-layer="Layer_1" /><defs
   id="defs3077">
		</defs>
<g
   id="g3252"
   transform="matrix(0.20615142,0,0,0.20615142,-0.25768927,-0.25768927)"><polygon
     id="polygon2997"
     points="1347.3,130.1 1347.6,153.5 1347.6,238.55 1254.8,238.55 1254.8,1.25 1347.6,1.25 1347.6,98.15 " /><path
     inkscape:connector-curvature="0"
     id="path3005"
     d="m 1216.8,63.65 v 175 H 1127 V 60.45 h -85.6 v 178.2 H 951.95 V 60.45 H 866.4 v 178.2 H 776.45 V 1.25 h 378.4 c 17.05,0 31.65,6.1 43.8,18.2 12.1,12.15 18.2,26.9 18.2,44.2 z" /><path
     inkscape:connector-curvature="0"
     id="path3033"
     d="m 738.95,63.65 v 112.5 c 0,17.351 -6.149,32.051 -18.399,44.2 -12.25,12.101 -26.9,18.2 -44,18.2 h -287 l -0.4,-140.4 h 89.85 l 0.4,81.35 h 169.7 V 60.3 h -259.95 l 0.4,-59.05 h 287 c 17.1,0 31.75,6.1 44,18.2 12.25,12.15 18.4,26.85 18.4,44.2 z" /><polygon
     id="polygon3053"
     points="350.3,238.55 256,238.55 256,153.5 94.1,153.5 94.1,238.55 1.25,238.55 1.25,1.25 94.1,1.25 94.1,98.15 256,98.15 256,1.25 350.3,1.25 " /></g>
</svg>