<?xml version="1.0" encoding="UTF-8"?>
<svg xmlns="http://www.w3.org/2000/svg" viewBox="0 0 24 24" enable-background="new 0 0 24 24">
    <path d="M 7 3.3125 C 3.9 5.1125 2 8.4 2 12 C 2 15.5 3.90625 18.79375 6.90625 20.59375 L 7.90625 18.90625 C 5.50625 17.40625 4 14.8 4 12 C 4 9.1 5.5 6.49375 8 5.09375 L 7 3.3125 z M 17 3.3125 L 16 5 C 18.5 6.5 20 9.1 20 12 C 20 14.8 18.49375 17.40625 16.09375 18.90625 L 17.09375 20.59375 C 20.09375 18.79375 22 15.5 22 12 C 22 8.4 20.1 5.1125 17 3.3125 z M 9 6.8125 C 7.2 7.9125 6 9.9 6 12 C 6 14.1 7.10625 15.99375 8.90625 17.09375 L 9.90625 15.40625 C 8.70625 14.70625 8 13.4 8 12 C 8 10.6 8.8 9.3 10 8.5 L 9 6.8125 z M 15 6.8125 L 14 8.5 C 15.2 9.3 16 10.6 16 12 C 16 13.4 15.29375 14.70625 14.09375 15.40625 L 15.09375 17.09375 C 16.89375 15.99375 18 14.1 18 12 C 18 9.9 16.8 7.9125 15 6.8125 z M 12 10 C 10.895431 10 10 10.895431 10 12 C 10 13.104569 10.895431 14 12 14 C 13.104569 14 14 13.104569 14 12 C 14 10.895431 13.104569 10 12 10 z"/>
</svg>