G04*
G04 #@! TF.GenerationSoftware,Altium Limited,Altium Designer,18.1.7 (191)*
G04*
G04 Layer_Physical_Order=2*
G04 Layer_Color=16711680*
%FSLAX44Y44*%
%MOMM*%
G71*
G01*
G75*
%ADD16C,0.1000*%
%ADD17C,1.3000*%
%ADD18C,3.7000*%
%ADD19C,3.5000*%
%ADD20R,1.5240X1.5240*%
%ADD21C,1.5240*%
G36*
X185987Y254486D02*
X190126Y253231D01*
X193940Y251192D01*
X197283Y248449D01*
X200026Y245106D01*
X202064Y241292D01*
X203320Y237154D01*
X203627Y234033D01*
X203418Y232850D01*
X203418D01*
X203678Y232688D01*
Y34052D01*
X203678Y33012D01*
X203418Y32850D01*
X203418D01*
X203665Y32254D01*
X203622Y31614D01*
X203320Y28546D01*
X202064Y24408D01*
X200026Y20594D01*
X197283Y17251D01*
X193940Y14508D01*
X190126Y12469D01*
X185987Y11214D01*
X181684Y10790D01*
X177380Y11214D01*
X173242Y12469D01*
X169428Y14508D01*
X166085Y17251D01*
X163342Y20594D01*
X161303Y24408D01*
X160048Y28546D01*
X159747Y31602D01*
X159694Y32850D01*
X159694D01*
X159332Y36518D01*
X158262Y40045D01*
X156525Y43296D01*
X154186Y46146D01*
X151337Y48484D01*
X148086Y50222D01*
X144559Y51292D01*
X142115Y51532D01*
X142009Y51543D01*
X140891Y51909D01*
X140886Y51650D01*
X139664Y51622D01*
X21274D01*
X21198Y51607D01*
X17625Y51959D01*
X14117Y53023D01*
X10884Y54751D01*
X8051Y57077D01*
X5725Y59910D01*
X3997Y63144D01*
X2932Y66652D01*
X2581Y70224D01*
X2596Y70300D01*
Y194889D01*
X2763Y195711D01*
X2883Y196000D01*
X2924Y196320D01*
X2924Y196321D01*
X2849Y196502D01*
X2797Y197270D01*
X2932Y198648D01*
X3997Y202156D01*
X5725Y205389D01*
X8051Y208223D01*
X10884Y210549D01*
X14117Y212277D01*
X17625Y213341D01*
X18683Y213445D01*
X19953Y213391D01*
X20498Y213617D01*
X21214Y213678D01*
X140491D01*
Y213645D01*
X144237Y214014D01*
X147840Y215107D01*
X151160Y216882D01*
X154071Y219270D01*
X156459Y222180D01*
X158234Y225501D01*
X159327Y229103D01*
X159696Y232850D01*
X159696D01*
X159747Y234099D01*
X160048Y237154D01*
X161303Y241292D01*
X163342Y245106D01*
X166085Y248449D01*
X169428Y251192D01*
X173242Y253231D01*
X177380Y254486D01*
X181684Y254910D01*
X185987Y254486D01*
D02*
G37*
%LPC*%
G36*
X181684Y252987D02*
X177755Y252600D01*
X173978Y251454D01*
X170496Y249593D01*
X167445Y247089D01*
X164941Y244037D01*
X163080Y240556D01*
X161934Y236779D01*
X161547Y232850D01*
X161934Y228922D01*
X163080Y225144D01*
X164941Y221663D01*
X167445Y218611D01*
X170496Y216107D01*
X173978Y214246D01*
X177755Y213100D01*
X181684Y212713D01*
X185612Y213100D01*
X189390Y214246D01*
X192871Y216107D01*
X195923Y218611D01*
X198427Y221663D01*
X200288Y225144D01*
X201434Y228922D01*
X201821Y232850D01*
X201434Y236779D01*
X200288Y240556D01*
X198427Y244037D01*
X195923Y247089D01*
X192871Y249593D01*
X189390Y251454D01*
X185612Y252600D01*
X181684Y252987D01*
D02*
G37*
G36*
X88644Y186251D02*
Y178570D01*
X96325D01*
X96181Y179660D01*
X95270Y181859D01*
X93821Y183747D01*
X91933Y185196D01*
X89734Y186107D01*
X88644Y186251D01*
D02*
G37*
G36*
X86104D02*
X85014Y186107D01*
X82815Y185196D01*
X80927Y183747D01*
X79477Y181859D01*
X78566Y179660D01*
X78423Y178570D01*
X86104D01*
Y186251D01*
D02*
G37*
G36*
X176274Y211142D02*
X172149Y210736D01*
X168183Y209533D01*
X164528Y207579D01*
X161324Y204949D01*
X158695Y201746D01*
X156741Y198091D01*
X155538Y194125D01*
X155132Y190000D01*
X155538Y185875D01*
X156741Y181909D01*
X158695Y178254D01*
X161324Y175051D01*
X164528Y172421D01*
X168183Y170467D01*
X172149Y169264D01*
X176274Y168858D01*
X180398Y169264D01*
X184364Y170467D01*
X188020Y172421D01*
X191223Y175051D01*
X193853Y178254D01*
X195806Y181909D01*
X197009Y185875D01*
X197416Y190000D01*
X197009Y194125D01*
X195806Y198091D01*
X193853Y201746D01*
X191223Y204949D01*
X188020Y207579D01*
X184364Y209533D01*
X180398Y210736D01*
X176274Y211142D01*
D02*
G37*
G36*
X96325Y176030D02*
X88644D01*
Y168349D01*
X89734Y168493D01*
X91933Y169404D01*
X93821Y170853D01*
X95270Y172741D01*
X96181Y174940D01*
X96325Y176030D01*
D02*
G37*
G36*
X86104D02*
X78423D01*
X78566Y174940D01*
X79477Y172741D01*
X80927Y170853D01*
X82815Y169404D01*
X85014Y168493D01*
X86104Y168349D01*
Y176030D01*
D02*
G37*
G36*
X67054Y181110D02*
X46734D01*
Y160790D01*
X67054D01*
Y181110D01*
D02*
G37*
G36*
X112774Y173718D02*
X110414Y173407D01*
X108215Y172496D01*
X106327Y171047D01*
X104877Y169159D01*
X103967Y166960D01*
X103656Y164600D01*
X103967Y162240D01*
X104877Y160041D01*
X106327Y158153D01*
X108215Y156704D01*
X110414Y155793D01*
X112774Y155482D01*
X115134Y155793D01*
X117333Y156704D01*
X119221Y158153D01*
X120670Y160041D01*
X121581Y162240D01*
X121892Y164600D01*
X121581Y166960D01*
X120670Y169159D01*
X119221Y171047D01*
X117333Y172496D01*
X115134Y173407D01*
X112774Y173718D01*
D02*
G37*
G36*
X87374Y161018D02*
X85014Y160707D01*
X82815Y159796D01*
X80927Y158347D01*
X79477Y156459D01*
X78566Y154260D01*
X78256Y151900D01*
X78566Y149540D01*
X79477Y147341D01*
X80927Y145453D01*
X82815Y144004D01*
X85014Y143093D01*
X87374Y142782D01*
X89734Y143093D01*
X91933Y144004D01*
X93821Y145453D01*
X95270Y147341D01*
X96181Y149540D01*
X96492Y151900D01*
X96181Y154260D01*
X95270Y156459D01*
X93821Y158347D01*
X91933Y159796D01*
X89734Y160707D01*
X87374Y161018D01*
D02*
G37*
G36*
X56894Y155798D02*
X54241Y155449D01*
X51770Y154425D01*
X49648Y152796D01*
X48019Y150674D01*
X46995Y148202D01*
X46646Y145550D01*
X46995Y142898D01*
X48019Y140426D01*
X49648Y138304D01*
X51770Y136675D01*
X54241Y135652D01*
X56894Y135302D01*
X59546Y135652D01*
X62018Y136675D01*
X64140Y138304D01*
X65769Y140426D01*
X66792Y142898D01*
X67141Y145550D01*
X66792Y148202D01*
X65769Y150674D01*
X64140Y152796D01*
X62018Y154425D01*
X59546Y155449D01*
X56894Y155798D01*
D02*
G37*
G36*
X112774Y148318D02*
X110414Y148007D01*
X108215Y147096D01*
X106327Y145647D01*
X104877Y143759D01*
X103967Y141560D01*
X103656Y139200D01*
X103967Y136840D01*
X104877Y134641D01*
X106327Y132753D01*
X108215Y131304D01*
X110414Y130393D01*
X112774Y130082D01*
X115134Y130393D01*
X117333Y131304D01*
X119221Y132753D01*
X120670Y134641D01*
X121581Y136840D01*
X121892Y139200D01*
X121581Y141560D01*
X120670Y143759D01*
X119221Y145647D01*
X117333Y147096D01*
X115134Y148007D01*
X112774Y148318D01*
D02*
G37*
G36*
X87374Y135618D02*
X85014Y135307D01*
X82815Y134396D01*
X80927Y132947D01*
X79477Y131059D01*
X78566Y128860D01*
X78256Y126500D01*
X78566Y124140D01*
X79477Y121941D01*
X80927Y120053D01*
X82815Y118604D01*
X85014Y117693D01*
X87374Y117382D01*
X89734Y117693D01*
X91933Y118604D01*
X93821Y120053D01*
X95270Y121941D01*
X96181Y124140D01*
X96492Y126500D01*
X96181Y128860D01*
X95270Y131059D01*
X93821Y132947D01*
X91933Y134396D01*
X89734Y135307D01*
X87374Y135618D01*
D02*
G37*
G36*
X56894Y130398D02*
X54241Y130049D01*
X51770Y129025D01*
X49648Y127396D01*
X48019Y125274D01*
X46995Y122802D01*
X46646Y120150D01*
X46995Y117498D01*
X48019Y115026D01*
X49648Y112904D01*
X51770Y111275D01*
X54241Y110252D01*
X56894Y109902D01*
X59546Y110252D01*
X62018Y111275D01*
X64140Y112904D01*
X65769Y115026D01*
X66792Y117498D01*
X67141Y120150D01*
X66792Y122802D01*
X65769Y125274D01*
X64140Y127396D01*
X62018Y129025D01*
X59546Y130049D01*
X56894Y130398D01*
D02*
G37*
G36*
X112774Y122918D02*
X110414Y122607D01*
X108215Y121696D01*
X106327Y120247D01*
X104877Y118359D01*
X103967Y116160D01*
X103656Y113800D01*
X103967Y111440D01*
X104877Y109241D01*
X106327Y107353D01*
X108215Y105904D01*
X110414Y104993D01*
X112774Y104682D01*
X115134Y104993D01*
X117333Y105904D01*
X119221Y107353D01*
X120670Y109241D01*
X121581Y111440D01*
X121892Y113800D01*
X121581Y116160D01*
X120670Y118359D01*
X119221Y120247D01*
X117333Y121696D01*
X115134Y122607D01*
X112774Y122918D01*
D02*
G37*
G36*
X58164Y104831D02*
Y96020D01*
X66974D01*
X66792Y97402D01*
X65769Y99874D01*
X64140Y101996D01*
X62018Y103625D01*
X59546Y104649D01*
X58164Y104831D01*
D02*
G37*
G36*
X55624D02*
X54241Y104649D01*
X51770Y103625D01*
X49648Y101996D01*
X48019Y99874D01*
X46995Y97402D01*
X46813Y96020D01*
X55624D01*
Y104831D01*
D02*
G37*
G36*
X87374Y110218D02*
X85014Y109907D01*
X82815Y108996D01*
X80927Y107547D01*
X79477Y105659D01*
X78566Y103460D01*
X78256Y101100D01*
X78566Y98740D01*
X79477Y96541D01*
X80927Y94653D01*
X82815Y93204D01*
X85014Y92293D01*
X87374Y91982D01*
X89734Y92293D01*
X91933Y93204D01*
X93821Y94653D01*
X95270Y96541D01*
X96181Y98740D01*
X96492Y101100D01*
X96181Y103460D01*
X95270Y105659D01*
X93821Y107547D01*
X91933Y108996D01*
X89734Y109907D01*
X87374Y110218D01*
D02*
G37*
G36*
X66974Y93480D02*
X58164D01*
Y84670D01*
X59546Y84852D01*
X62018Y85875D01*
X64140Y87504D01*
X65769Y89626D01*
X66792Y92098D01*
X66974Y93480D01*
D02*
G37*
G36*
X55624D02*
X46813D01*
X46995Y92098D01*
X48019Y89626D01*
X49648Y87504D01*
X51770Y85875D01*
X54241Y84852D01*
X55624Y84670D01*
Y93480D01*
D02*
G37*
G36*
X112774Y97518D02*
X110414Y97207D01*
X108215Y96296D01*
X106327Y94847D01*
X104877Y92959D01*
X103967Y90760D01*
X103656Y88400D01*
X103967Y86040D01*
X104877Y83841D01*
X106327Y81953D01*
X108215Y80504D01*
X110414Y79593D01*
X112774Y79282D01*
X115134Y79593D01*
X117333Y80504D01*
X119221Y81953D01*
X120670Y83841D01*
X121581Y86040D01*
X121892Y88400D01*
X121581Y90760D01*
X120670Y92959D01*
X119221Y94847D01*
X117333Y96296D01*
X115134Y97207D01*
X112774Y97518D01*
D02*
G37*
G36*
X176274Y96842D02*
X172149Y96436D01*
X168183Y95232D01*
X164528Y93279D01*
X161324Y90649D01*
X158695Y87446D01*
X156741Y83791D01*
X155538Y79825D01*
X155132Y75700D01*
X155538Y71575D01*
X156741Y67609D01*
X158695Y63954D01*
X161324Y60750D01*
X164528Y58121D01*
X168183Y56167D01*
X172149Y54964D01*
X176274Y54558D01*
X180398Y54964D01*
X184364Y56167D01*
X188020Y58121D01*
X191223Y60750D01*
X193853Y63954D01*
X195806Y67609D01*
X197009Y71575D01*
X197416Y75700D01*
X197009Y79825D01*
X195806Y83791D01*
X193853Y87446D01*
X191223Y90649D01*
X188020Y93279D01*
X184364Y95232D01*
X180398Y96436D01*
X176274Y96842D01*
D02*
G37*
G36*
X181684Y52987D02*
X177755Y52600D01*
X173978Y51454D01*
X170496Y49593D01*
X167445Y47089D01*
X164941Y44037D01*
X163080Y40556D01*
X161934Y36779D01*
X161547Y32850D01*
X161934Y28921D01*
X163080Y25144D01*
X164941Y21662D01*
X167445Y18611D01*
X170496Y16107D01*
X173978Y14246D01*
X177755Y13100D01*
X181684Y12713D01*
X185612Y13100D01*
X189390Y14246D01*
X192871Y16107D01*
X195923Y18611D01*
X198427Y21662D01*
X200288Y25144D01*
X201434Y28921D01*
X201821Y32850D01*
X201434Y36779D01*
X200288Y40556D01*
X198427Y44037D01*
X195923Y47089D01*
X192871Y49593D01*
X189390Y51454D01*
X185612Y52600D01*
X181684Y52987D01*
D02*
G37*
%LPD*%
D16*
X-504Y70300D02*
X-345Y67675D01*
X129Y65088D01*
X911Y62578D01*
X1991Y60179D01*
X3351Y57929D01*
X4973Y55859D01*
X6833Y53999D01*
X8903Y52377D01*
X11153Y51017D01*
X13551Y49938D01*
X16062Y49155D01*
X18649Y48681D01*
X21274Y48522D01*
X140886D02*
X140891Y48522D01*
X156563Y32850D02*
X156370Y35302D01*
X155796Y37693D01*
X154855Y39965D01*
X153570Y42062D01*
X151973Y43932D01*
X150103Y45529D01*
X148006Y46814D01*
X145734Y47755D01*
X143343Y48329D01*
X140891Y48522D01*
X156563Y32850D02*
X156692Y30309D01*
X157077Y27793D01*
X157715Y25330D01*
X158599Y22943D01*
X159720Y20659D01*
X161066Y18499D01*
X162623Y16487D01*
X164377Y14643D01*
X166307Y12985D01*
X168396Y11531D01*
X170621Y10296D01*
X172959Y9293D01*
X175387Y8531D01*
X177880Y8019D01*
X180412Y7762D01*
X182956D01*
X185488Y8019D01*
X187980Y8531D01*
X190408Y9293D01*
X192747Y10297D01*
X194972Y11531D01*
X197060Y12985D01*
X198991Y14643D01*
X200744Y16487D01*
X202302Y18499D01*
X203648Y20659D01*
X204769Y22944D01*
X205653Y25330D01*
X206290Y27793D01*
X206676Y30309D01*
X206805Y32850D01*
X206778Y33012D01*
Y232688D02*
X206805Y232850D01*
X206676Y235391D01*
X206290Y237907D01*
X205653Y240370D01*
X204769Y242757D01*
X203648Y245041D01*
X202302Y247201D01*
X200744Y249213D01*
X198991Y251057D01*
X197060Y252715D01*
X194972Y254168D01*
X192747Y255403D01*
X190408Y256407D01*
X187980Y257169D01*
X185488Y257681D01*
X182956Y257938D01*
X180411D01*
X177880Y257681D01*
X175387Y257169D01*
X172959Y256407D01*
X170621Y255403D01*
X168396Y254168D01*
X166307Y252715D01*
X164377Y251057D01*
X162623Y249213D01*
X161066Y247201D01*
X159720Y245041D01*
X158599Y242757D01*
X157715Y240370D01*
X157077Y237907D01*
X156692Y235391D01*
X156563Y232850D01*
X140491Y216778D02*
X143005Y216975D01*
X145457Y217564D01*
X147788Y218529D01*
X149938Y219847D01*
X151856Y221485D01*
X153494Y223403D01*
X154811Y225553D01*
X155777Y227883D01*
X156365Y230336D01*
X156563Y232850D01*
X19953Y216778D02*
X19724Y216722D01*
X17139Y216381D01*
X14614Y215734D01*
X12184Y214790D01*
X9884Y213562D01*
X7747Y212068D01*
X5805Y210329D01*
X4084Y208370D01*
X2609Y206220D01*
X1402Y203909D01*
X480Y201471D01*
X-144Y198940D01*
X-462Y196352D01*
X-462Y196352D02*
X-453Y196221D01*
X-453Y196221D02*
X-504Y196000D01*
X21274Y48522D02*
X140886D01*
X156563Y32850D02*
Y32850D01*
X206778Y33012D02*
Y232688D01*
X19953Y216778D02*
X140491D01*
X-462Y196352D02*
X-462Y196352D01*
X-453Y196221D02*
X-453Y196221D01*
X-504Y70300D02*
Y196000D01*
D17*
X112774Y88400D02*
D03*
Y113800D02*
D03*
X87374Y101100D02*
D03*
X112774Y139200D02*
D03*
X87374Y126500D02*
D03*
Y151900D02*
D03*
X112774Y164600D02*
D03*
X87374Y177300D02*
D03*
D18*
X176274Y190000D02*
D03*
Y75700D02*
D03*
D19*
X181684Y32850D02*
D03*
Y232850D02*
D03*
D20*
X56894Y170950D02*
D03*
D21*
Y145550D02*
D03*
Y120150D02*
D03*
Y94750D02*
D03*
M02*
