M48
;Layer_Color=9474304
;FILE_FORMAT=4:4
METRIC,LZ
T5F00S00C1.0000
%
G90
G05
T05
G00X0018806Y00003308
M15
G01X00193701Y0000512
G01X0019888Y00007997
G01X00203398Y00011829
G01X00207082Y00016469
G01X00209789Y00021739
G01X00211417Y00027435
G01X00211902Y0003236
G01X00211779Y00033321
G01X00211778Y00231711
G01X0021181Y0023178
G01X00211902Y0023334
G01X00211226Y00239226
G01X00209414Y00244867
G01X00206537Y00250046
G01X00202705Y00254564
G01X00198065Y00258248
G01X00192795Y00260955
G01X00187098Y00262583
G01X00181194Y00263068
G01X00175308Y00262392
G01X00169667Y0026058
G01X00164488Y00257703
G01X0015997Y00253871
G01X00156286Y00249231
G01X00153578Y00243961
G01X00151951Y00238265
G01X00151466Y0023334
G01X00151578Y00232462
G01X00151403Y00230679
G01X0015077Y00228592
G01X00149742Y00226669
G01X00148358Y00224983
G01X00146672Y00223599
G01X00144748Y00222571
G01X00142661Y00221938
G01X00140247Y002217
G01X00019956Y00221778
G01X00019956Y00221655
G01X00019233Y00221706
G01X00015553Y00221247
G01X00010543Y00219627
G01X00005944Y0021706
G01X00001935Y00213646
G01X-00001331Y00209515
G01X-00003728Y00204826
G01X-00005165Y00199759
G01X-00005452Y00196843
G01X-00005377Y00196836
G01X-00005545Y00195998
G01X-00005504Y00071189
G01X-00005585Y0006981
G01X-00004973Y00064579
G01X-00003353Y00059569
G01X-00000786Y0005497
G01X00002628Y00050961
G01X00006759Y00047695
G01X00011448Y00045298
G01X00016515Y00043862
G01X00021278Y00043417
G01X0014089Y00043522
G01X0014089Y0004354
G01X00141187Y0004349
G01X00141328Y00043531
G01X00142983Y00043368
G01X00144995Y00042758
G01X00146849Y00041767
G01X00148474Y00040433
G01X00149808Y00038808
G01X00150798Y00036954
G01X00151409Y00034942
G01X00151539Y00033615
G01X00151466Y0003236
G01X00152142Y00026474
G01X00153953Y00020833
G01X00156831Y00015654
G01X00160663Y00011136
G01X00165303Y00007452
G01X00170573Y00004745
G01X00176269Y00003117
G01X00182174Y00002632
G01X0018806Y00003308
M16
M17
M30
