G04*
G04 #@! TF.GenerationSoftware,Altium Limited,Altium Designer,18.1.7 (191)*
G04*
G04 Layer_Color=8388736*
%FSLAX44Y44*%
%MOMM*%
G71*
G01*
G75*
%ADD10C,0.1000*%
G04:AMPARAMS|DCode=11|XSize=1.4032mm|YSize=1.2032mm|CornerRadius=0mm|HoleSize=0mm|Usage=FLASHONLY|Rotation=280.000|XOffset=0mm|YOffset=0mm|HoleType=Round|Shape=Rectangle|*
%AMROTATEDRECTD11*
4,1,4,-0.7143,0.5865,0.4706,0.7954,0.7143,-0.5865,-0.4706,-0.7954,-0.7143,0.5865,0.0*
%
%ADD11ROTATEDRECTD11*%

%ADD12C,3.9032*%
%ADD13C,1.5032*%
G36*
X144435Y172792D02*
X145128Y172736D01*
X145447Y172681D01*
X145766Y172639D01*
X146057Y172598D01*
X146335Y172542D01*
X146584Y172487D01*
X146806Y172445D01*
X147000Y172404D01*
X147167Y172362D01*
X147305Y172320D01*
X147403Y172306D01*
X147472Y172279D01*
X147486D01*
X148165Y172071D01*
X148790Y171849D01*
X149095Y171724D01*
X149372Y171599D01*
X149635Y171488D01*
X149885Y171377D01*
X150107Y171266D01*
X150301Y171155D01*
X150481Y171072D01*
X150620Y170989D01*
X150745Y170933D01*
X150828Y170878D01*
X150884Y170850D01*
X150898Y170837D01*
X148886Y169200D01*
X148498Y169422D01*
X148110Y169616D01*
X147749Y169796D01*
X147416Y169949D01*
X147278Y170004D01*
X147139Y170060D01*
X147014Y170115D01*
X146917Y170157D01*
X146834Y170185D01*
X146778Y170212D01*
X146737Y170226D01*
X146723D01*
X146307Y170379D01*
X145877Y170504D01*
X145489Y170615D01*
X145128Y170712D01*
X144976Y170739D01*
X144823Y170781D01*
X144698Y170809D01*
X144587Y170823D01*
X144504Y170837D01*
X144435Y170850D01*
X144393Y170864D01*
X144379D01*
X144296Y170878D01*
X144255D01*
X144199Y170892D01*
X144171D01*
X143728Y172764D01*
Y172778D01*
X143714D01*
X143700Y172806D01*
Y172833D01*
X144435Y172792D01*
D02*
G37*
G36*
X139345Y170725D02*
X139012Y170684D01*
X138679Y170642D01*
X138028Y170518D01*
X137709Y170448D01*
X137403Y170365D01*
X137112Y170282D01*
X136849Y170198D01*
X136599Y170129D01*
X136377Y170046D01*
X136183Y169977D01*
X136017Y169921D01*
X135878Y169866D01*
X135781Y169824D01*
X135725Y169810D01*
X135698Y169796D01*
X135351Y169644D01*
X135018Y169477D01*
X134366Y169131D01*
X134047Y168950D01*
X133756Y168770D01*
X133479Y168604D01*
X133215Y168437D01*
X132979Y168271D01*
X132772Y168118D01*
X132577Y167993D01*
X132425Y167869D01*
X132286Y167785D01*
X132203Y167702D01*
X132134Y167661D01*
X132120Y167647D01*
X132674Y168243D01*
X132952Y168520D01*
X133243Y168784D01*
X133520Y169034D01*
X133798Y169256D01*
X134061Y169477D01*
X134311Y169671D01*
X134547Y169852D01*
X134768Y170018D01*
X134949Y170143D01*
X135115Y170268D01*
X135254Y170351D01*
X135351Y170420D01*
X135407Y170462D01*
X135434Y170476D01*
X136155Y170906D01*
X136516Y171100D01*
X136876Y171266D01*
X137223Y171433D01*
X137556Y171585D01*
X137875Y171724D01*
X138180Y171849D01*
X138457Y171946D01*
X138707Y172043D01*
X138943Y172126D01*
X139137Y172196D01*
X139290Y172237D01*
X139401Y172279D01*
X139470Y172306D01*
X139498D01*
X139345Y170725D01*
D02*
G37*
G36*
X154545Y167910D02*
X154684Y167758D01*
X154808Y167619D01*
X154919Y167494D01*
X154989Y167397D01*
X155044Y167342D01*
X155058Y167314D01*
X155349Y166953D01*
X155488Y166787D01*
X155599Y166621D01*
X155710Y166496D01*
X155779Y166399D01*
X155835Y166329D01*
X155849Y166301D01*
X156098Y165927D01*
X156320Y165553D01*
X156514Y165192D01*
X156694Y164873D01*
X156778Y164720D01*
X156833Y164582D01*
X156903Y164471D01*
X156944Y164374D01*
X156986Y164291D01*
X157013Y164235D01*
X157041Y164193D01*
Y164180D01*
X157235Y163764D01*
X157402Y163347D01*
X157554Y162945D01*
X157679Y162599D01*
X157735Y162432D01*
X157790Y162293D01*
X157832Y162169D01*
X157859Y162058D01*
X157887Y161975D01*
X157915Y161905D01*
X157929Y161864D01*
Y161850D01*
X154475Y162058D01*
X154351Y162432D01*
X154212Y162779D01*
X154073Y163098D01*
X153962Y163389D01*
X153893Y163514D01*
X153851Y163625D01*
X153796Y163722D01*
X153768Y163805D01*
X153727Y163874D01*
X153699Y163916D01*
X153685Y163944D01*
Y163958D01*
X153519Y164291D01*
X153338Y164623D01*
X153172Y164915D01*
X153006Y165178D01*
X152867Y165400D01*
X152811Y165497D01*
X152756Y165567D01*
X152714Y165636D01*
X152687Y165677D01*
X152673Y165705D01*
X152659Y165719D01*
X154212Y168146D01*
X154226Y168188D01*
Y168202D01*
X154240Y168243D01*
Y168257D01*
X154545Y167910D01*
D02*
G37*
G36*
X158414Y156940D02*
X158359Y156247D01*
X158317Y155928D01*
X158262Y155623D01*
X158220Y155318D01*
X158165Y155054D01*
X158123Y154805D01*
X158081Y154583D01*
X158026Y154389D01*
X157998Y154222D01*
X157956Y154083D01*
X157943Y153986D01*
X157915Y153931D01*
Y153903D01*
X157721Y153237D01*
X157499Y152599D01*
X157388Y152308D01*
X157263Y152031D01*
X157152Y151767D01*
X157041Y151518D01*
X156944Y151296D01*
X156847Y151102D01*
X156764Y150921D01*
X156694Y150783D01*
X156625Y150658D01*
X156583Y150575D01*
X156556Y150519D01*
X156542Y150505D01*
X154004Y153196D01*
X154129Y153501D01*
X154240Y153806D01*
X154337Y154097D01*
X154420Y154347D01*
X154489Y154569D01*
X154517Y154666D01*
X154545Y154735D01*
X154559Y154805D01*
X154573Y154846D01*
X154586Y154874D01*
Y154888D01*
X154670Y155221D01*
X154739Y155554D01*
X154795Y155859D01*
X154850Y156136D01*
X154892Y156358D01*
X154905Y156469D01*
X154919Y156552D01*
Y156608D01*
X154933Y156663D01*
Y156691D01*
Y156705D01*
X158456Y157648D01*
X158414Y156940D01*
D02*
G37*
G36*
X143187Y164180D02*
X143464D01*
X143728Y164166D01*
X143963Y164152D01*
X144185Y164138D01*
X144393Y164110D01*
X144587Y164096D01*
X144754Y164083D01*
X144906Y164055D01*
X145031Y164041D01*
X145142Y164027D01*
X145225Y164013D01*
X145281D01*
X145322Y163999D01*
X145336D01*
X145738Y163916D01*
X146127Y163805D01*
X146487Y163666D01*
X146820Y163542D01*
X146959Y163472D01*
X147084Y163417D01*
X147195Y163361D01*
X147292Y163306D01*
X147375Y163264D01*
X147430Y163237D01*
X147458Y163223D01*
X147472Y163209D01*
X147680Y163070D01*
X147888Y162931D01*
X148068Y162779D01*
X148249Y162640D01*
X148401Y162502D01*
X148554Y162363D01*
X148790Y162113D01*
X148984Y161891D01*
X149067Y161808D01*
X149122Y161725D01*
X149178Y161656D01*
X149206Y161614D01*
X149233Y161586D01*
Y161572D01*
X149427Y161226D01*
X149566Y160851D01*
X149677Y160491D01*
X149746Y160144D01*
X149774Y159978D01*
X149788Y159825D01*
X149802Y159700D01*
Y159589D01*
X149816Y159492D01*
Y159423D01*
Y159381D01*
Y159367D01*
X149802Y159090D01*
X149774Y158840D01*
X149746Y158591D01*
X149705Y158383D01*
X149649Y158202D01*
X149622Y158077D01*
X149608Y158022D01*
X149594Y157980D01*
X149580Y157967D01*
Y157953D01*
X149483Y157703D01*
X149372Y157467D01*
X149261Y157259D01*
X149150Y157065D01*
X149039Y156899D01*
X148956Y156788D01*
X148900Y156705D01*
X148886Y156691D01*
Y156677D01*
X148706Y156469D01*
X148526Y156288D01*
X148359Y156122D01*
X148207Y155997D01*
X148082Y155886D01*
X147985Y155817D01*
X147916Y155761D01*
X147888Y155748D01*
X147680Y155623D01*
X147458Y155512D01*
X147236Y155401D01*
X147014Y155304D01*
X146834Y155221D01*
X146681Y155151D01*
X146626Y155124D01*
X146584Y155110D01*
X146557Y155096D01*
X146543D01*
X154822Y148078D01*
X154808Y148065D01*
X154795Y148051D01*
X154767Y148023D01*
X149206D01*
X137917Y157467D01*
X143214D01*
X143395Y157481D01*
X143575Y157495D01*
X143728Y157509D01*
X143838D01*
X143935Y157523D01*
X144005Y157537D01*
X144019D01*
X144185Y157578D01*
X144352Y157606D01*
X144490Y157648D01*
X144615Y157689D01*
X144712Y157731D01*
X144782Y157759D01*
X144837Y157786D01*
X144851D01*
X145017Y157870D01*
X145156Y157967D01*
X145267Y158064D01*
X145364Y158147D01*
X145447Y158230D01*
X145503Y158299D01*
X145530Y158341D01*
X145544Y158355D01*
X145627Y158494D01*
X145683Y158632D01*
X145724Y158771D01*
X145752Y158896D01*
X145766Y159007D01*
X145780Y159090D01*
Y159145D01*
Y159159D01*
X145766Y159312D01*
X145752Y159451D01*
X145669Y159714D01*
X145558Y159950D01*
X145433Y160144D01*
X145295Y160296D01*
X145184Y160407D01*
X145100Y160477D01*
X145087Y160504D01*
X145073D01*
X144934Y160602D01*
X144782Y160685D01*
X144462Y160810D01*
X144116Y160907D01*
X143783Y160962D01*
X143617Y160990D01*
X143478Y161004D01*
X143353Y161018D01*
X143228D01*
X143131Y161031D01*
X128819D01*
X128888Y161337D01*
X128958Y161628D01*
X129027Y161905D01*
X129096Y162141D01*
X129152Y162349D01*
X129179Y162432D01*
X129207Y162502D01*
X129221Y162557D01*
X129235Y162599D01*
X129249Y162626D01*
Y162640D01*
X129346Y162931D01*
X129457Y163223D01*
X129568Y163486D01*
X129665Y163708D01*
X129748Y163916D01*
X129817Y164069D01*
X129845Y164124D01*
X129859Y164166D01*
X129873Y164180D01*
Y164193D01*
X142895D01*
X143187Y164180D01*
D02*
G37*
G36*
X132064Y157426D02*
Y157412D01*
Y157370D01*
Y157356D01*
X132078Y156829D01*
X132106Y156316D01*
X132161Y155831D01*
X132231Y155345D01*
X132314Y154888D01*
X132411Y154458D01*
X132508Y154042D01*
X132605Y153667D01*
X132702Y153321D01*
X132799Y153016D01*
X132896Y152738D01*
X132979Y152516D01*
X133049Y152336D01*
X133104Y152197D01*
X133132Y152114D01*
X133146Y152100D01*
Y152086D01*
X133354Y151629D01*
X133576Y151185D01*
X133812Y150769D01*
X134047Y150367D01*
X134283Y149978D01*
X134533Y149632D01*
X134768Y149299D01*
X134990Y148994D01*
X135212Y148716D01*
X135407Y148481D01*
X135587Y148259D01*
X135739Y148092D01*
X135864Y147940D01*
X135961Y147843D01*
X136031Y147787D01*
X136044Y147759D01*
X136391Y147427D01*
X136766Y147108D01*
X137126Y146803D01*
X137501Y146525D01*
X137861Y146276D01*
X138222Y146026D01*
X138568Y145818D01*
X138901Y145624D01*
X139206Y145443D01*
X139484Y145291D01*
X139733Y145166D01*
X139955Y145055D01*
X140136Y144972D01*
X140260Y144916D01*
X140344Y144875D01*
X140371Y144861D01*
X140829Y144667D01*
X141300Y144514D01*
X141772Y144362D01*
X142230Y144251D01*
X142687Y144140D01*
X143117Y144057D01*
X143533Y143987D01*
X143922Y143932D01*
X144296Y143876D01*
X144615Y143849D01*
X144920Y143821D01*
X145170Y143807D01*
X145364D01*
X145447Y143793D01*
X145641D01*
X146154Y143807D01*
X146654Y143835D01*
X147125Y143876D01*
X147333Y143904D01*
X147527Y143932D01*
X147722Y143960D01*
X147874Y143987D01*
X148027Y144001D01*
X148138Y144029D01*
X148249Y144043D01*
X148318Y144057D01*
X148359Y144071D01*
X148373D01*
X148859Y144181D01*
X149330Y144306D01*
X149760Y144445D01*
X149954Y144514D01*
X150135Y144570D01*
X150301Y144625D01*
X150454Y144681D01*
X150578Y144736D01*
X150689Y144778D01*
X150773Y144805D01*
X150842Y144833D01*
X150884Y144861D01*
X150898D01*
X150273Y144528D01*
X149663Y144223D01*
X149067Y143973D01*
X148790Y143862D01*
X148526Y143765D01*
X148276Y143682D01*
X148054Y143599D01*
X147860Y143544D01*
X147694Y143488D01*
X147555Y143446D01*
X147458Y143419D01*
X147403Y143391D01*
X147375D01*
X146668Y143224D01*
X145974Y143100D01*
X145641Y143044D01*
X145309Y143003D01*
X145003Y142975D01*
X144726Y142947D01*
X144449Y142919D01*
X144213Y142906D01*
X144005Y142892D01*
X143825D01*
X143672Y142878D01*
X143478D01*
X142715Y142906D01*
X142341Y142933D01*
X141980Y142961D01*
X141633Y143003D01*
X141300Y143044D01*
X140982Y143086D01*
X140690Y143141D01*
X140427Y143197D01*
X140191Y143238D01*
X139983Y143280D01*
X139803Y143322D01*
X139664Y143363D01*
X139553Y143377D01*
X139498Y143405D01*
X139470D01*
X138763Y143640D01*
X138416Y143751D01*
X138083Y143890D01*
X137778Y144015D01*
X137473Y144140D01*
X137196Y144265D01*
X136946Y144389D01*
X136710Y144500D01*
X136488Y144611D01*
X136308Y144708D01*
X136155Y144778D01*
X136031Y144847D01*
X135934Y144903D01*
X135878Y144930D01*
X135864Y144944D01*
X135254Y145319D01*
X134685Y145721D01*
X134422Y145915D01*
X134172Y146109D01*
X133936Y146303D01*
X133728Y146484D01*
X133520Y146650D01*
X133354Y146803D01*
X133201Y146941D01*
X133063Y147052D01*
X132966Y147149D01*
X132896Y147232D01*
X132841Y147274D01*
X132827Y147288D01*
X132341Y147815D01*
X131898Y148342D01*
X131496Y148869D01*
X131315Y149105D01*
X131149Y149340D01*
X130996Y149562D01*
X130871Y149756D01*
X130760Y149923D01*
X130663Y150076D01*
X130580Y150200D01*
X130525Y150297D01*
X130497Y150353D01*
X130483Y150367D01*
Y150381D01*
X130469D01*
X130455Y150408D01*
Y150422D01*
X130428Y150464D01*
X130414Y150492D01*
X130386Y150547D01*
X130372Y150561D01*
X130095Y151102D01*
X129859Y151629D01*
X129637Y152128D01*
X129554Y152364D01*
X129457Y152586D01*
X129388Y152794D01*
X129318Y152974D01*
X129263Y153140D01*
X129207Y153279D01*
X129179Y153390D01*
X129152Y153473D01*
X129124Y153529D01*
Y153543D01*
X128958Y154139D01*
X128833Y154721D01*
X128722Y155276D01*
X128680Y155540D01*
X128639Y155775D01*
X128611Y155997D01*
X128583Y156205D01*
X128569Y156386D01*
X128555Y156538D01*
X128542Y156663D01*
X128528Y156760D01*
Y156816D01*
Y156829D01*
Y156940D01*
Y157023D01*
X128514Y157093D01*
Y157121D01*
X128500Y157245D01*
Y157356D01*
Y157440D01*
Y157453D01*
Y157467D01*
X132064D01*
Y157426D01*
D02*
G37*
D10*
X139829Y35747D02*
X134497D01*
X139829Y41079D01*
Y42411D01*
X138496Y43744D01*
X135830D01*
X134497Y42411D01*
X142495D02*
X143828Y43744D01*
X146494D01*
X147826Y42411D01*
Y37080D01*
X146494Y35747D01*
X143828D01*
X142495Y37080D01*
Y42411D01*
X150492Y35747D02*
X153158D01*
X151825D01*
Y43744D01*
X150492Y42411D01*
X157157Y37080D02*
X158490Y35747D01*
X161155D01*
X162488Y37080D01*
Y42411D01*
X161155Y43744D01*
X158490D01*
X157157Y42411D01*
Y41079D01*
X158490Y39746D01*
X162488D01*
X126500Y30415D02*
X127833Y31747D01*
X130499D01*
X131832Y30415D01*
Y25083D01*
X130499Y23750D01*
X127833D01*
X126500Y25083D01*
Y30415D01*
X134497Y31747D02*
X139829D01*
Y30415D01*
X134497Y25083D01*
Y23750D01*
X142495Y27749D02*
X147826D01*
X150492Y30415D02*
X151825Y31747D01*
X154491D01*
X155824Y30415D01*
Y29082D01*
X154491Y27749D01*
X153158D01*
X154491D01*
X155824Y26416D01*
Y25083D01*
X154491Y23750D01*
X151825D01*
X150492Y25083D01*
X158490Y23750D02*
X161155D01*
X159823D01*
Y31747D01*
X158490Y30415D01*
D11*
X131597Y119488D02*
D03*
X47889Y104728D02*
D03*
X139411Y75172D02*
D03*
X55703Y60412D02*
D03*
D12*
X100730Y147100D02*
D03*
Y32800D02*
D03*
D13*
X11830Y45500D02*
D03*
X37230Y58200D02*
D03*
X11830Y70900D02*
D03*
Y96300D02*
D03*
X37230Y83600D02*
D03*
X11830Y121700D02*
D03*
X37230Y109000D02*
D03*
Y134400D02*
D03*
M02*
