M48
;Layer_Color=9474304
;FILE_FORMAT=4:3
METRIC
;TYPE=PLATED
T1F00S00C0.300
T2F00S00C0.500
T3F00S00C1.400
%
T01
X0122700Y0067200
X0123400Y0067725
X0125300Y0068300
X0128200Y0067800
X0127700Y0071100
X0127700Y0072000
X0126950Y0071550
X0126200Y0071100
X0126200Y0072000
X0121500Y0071900
X0126600Y0076600
X0127175Y0077425
X0127000Y0065000
X0126900Y0063100
X0115000Y0063100
X0113700Y0066100
X0112800Y0066500
X0107400Y0066600
X0106900Y0065900
X0104400Y0066300
X0103100Y0068400
X0102600Y0069100
X0101805Y0067933
X0101164Y0067358
X0101500Y0060600
X0103400Y0072500
X0104300Y0072400
X0106175Y0072625
X0107700Y0073800
X0110100Y0076100
X0111900Y0076900
X0115119Y0076900
X0115000Y0076100
X0118100Y0076700
X0118600Y0076000
X0118300Y0073800
X0117729Y0078105
X0108900Y0068795
X0108090Y0068500
T02
X0122200Y0057000
X0128800Y0060900
X0122100Y0068500
X0122600Y0075100
X0123200Y0077600
X0112500Y0078500
X0109100Y0077100
X0108300Y0071900
X0107200Y0069400
X0105400Y0059000
X0110800Y0057100
X0117400Y0059300
X0101800Y0077900
X0105600Y0080800
X0111700Y0083800
X0118800Y0083800
T03
X0127500Y0057500
X0102500Y0057500
X0102500Y0082500
X0127500Y0082500
M30
