M48
;Layer_Color=9474304
;FILE_FORMAT=4:4
METRIC,LZ
T3F00S00C1.0000
%
G90
G05
T03
G00X00149221Y-00005504
M15
G01X0015049Y-00005579
G01X00155471Y-00004992
G01X00160241Y-00003444
G01X00164618Y-00000996
G01X00168434Y00002259
G01X0017154Y00006197
G01X00173819Y00010664
G01X00175183Y0001549
G01X00175603Y00020004
G01X00175504Y00149794
G01X00175545Y00149921
G01X00175507Y00159164
G01X00175579Y0016039
G01X00174992Y00165371
G01X00173444Y00170141
G01X00170996Y00174518
G01X00167741Y00178334
G01X00163803Y0018144
G01X00159336Y00183719
G01X0015451Y00185083
G01X00149996Y00185503
G01X00020779Y00185404
G01X0001951Y00185479
G01X00014529Y00184892
G01X00009759Y00183344
G01X00005382Y00180896
G01X00001566Y00177641
G01X-0000154Y00173703
G01X-00003819Y00169236
G01X-00005183Y0016441
G01X-00005603Y00159896
G01X-00005504Y00020779
G01X-00005579Y0001951
G01X-00004992Y00014529
G01X-00003444Y00009759
G01X-00000996Y00005382
G01X0000226Y00001566
G01X00006197Y-0000154
G01X00010664Y-00003819
G01X0001549Y-00005183
G01X00020004Y-00005603
G01X00149221Y-00005504
M16
M17
M30
