G04*
G04 #@! TF.GenerationSoftware,Altium Limited,Altium Designer,18.1.7 (191)*
G04*
G04 Layer_Physical_Order=2*
G04 Layer_Color=16711680*
%FSLAX44Y44*%
%MOMM*%
G71*
G01*
G75*
%ADD10C,0.1000*%
%ADD16C,3.7000*%
%ADD17C,1.3000*%
G36*
X153300Y176490D02*
X156473Y175527D01*
X159397Y173964D01*
X161960Y171860D01*
X164064Y169297D01*
X165627Y166373D01*
X166590Y163200D01*
X166910Y159947D01*
X166901Y159900D01*
X166900Y20000D01*
X166910Y19953D01*
X166589Y16700D01*
X165627Y13527D01*
X164064Y10603D01*
X161960Y8040D01*
X159397Y5936D01*
X156473Y4373D01*
X153300Y3410D01*
X150047Y3090D01*
X150000Y3100D01*
X20000D01*
X19953Y3090D01*
X16700Y3411D01*
X13527Y4373D01*
X10603Y5936D01*
X8040Y8040D01*
X5936Y10603D01*
X4373Y13527D01*
X3411Y16700D01*
X3090Y19953D01*
X3100Y20000D01*
Y39942D01*
X4370Y40373D01*
X5383Y39053D01*
X7271Y37604D01*
X9470Y36693D01*
X11830Y36382D01*
X14190Y36693D01*
X16389Y37604D01*
X18277Y39053D01*
X19726Y40941D01*
X20637Y43140D01*
X20948Y45500D01*
X20637Y47860D01*
X19726Y50059D01*
X18277Y51947D01*
X16389Y53396D01*
X14190Y54307D01*
X11830Y54618D01*
X9470Y54307D01*
X7271Y53396D01*
X5383Y51947D01*
X4370Y50627D01*
X3100Y51058D01*
Y65342D01*
X4370Y65773D01*
X5383Y64453D01*
X7271Y63004D01*
X9470Y62093D01*
X11830Y61782D01*
X14190Y62093D01*
X16389Y63004D01*
X18277Y64453D01*
X19726Y66341D01*
X20637Y68540D01*
X20948Y70900D01*
X20637Y73260D01*
X19726Y75459D01*
X18277Y77347D01*
X16389Y78796D01*
X14190Y79707D01*
X11830Y80018D01*
X9470Y79707D01*
X7271Y78796D01*
X5383Y77347D01*
X4370Y76027D01*
X3100Y76458D01*
Y90742D01*
X4370Y91173D01*
X5383Y89853D01*
X7271Y88404D01*
X9470Y87493D01*
X11830Y87182D01*
X14190Y87493D01*
X16389Y88404D01*
X18277Y89853D01*
X19726Y91741D01*
X20637Y93940D01*
X20948Y96300D01*
X20637Y98660D01*
X19726Y100859D01*
X18277Y102747D01*
X16389Y104196D01*
X14190Y105107D01*
X11830Y105418D01*
X9470Y105107D01*
X7271Y104196D01*
X5383Y102747D01*
X4370Y101427D01*
X3100Y101858D01*
Y116142D01*
X4370Y116573D01*
X5383Y115253D01*
X7271Y113804D01*
X9470Y112893D01*
X11830Y112582D01*
X14190Y112893D01*
X16389Y113804D01*
X18277Y115253D01*
X19726Y117141D01*
X20637Y119340D01*
X20948Y121700D01*
X20637Y124060D01*
X19726Y126259D01*
X18277Y128147D01*
X16389Y129596D01*
X14190Y130507D01*
X11830Y130818D01*
X9470Y130507D01*
X7271Y129596D01*
X5383Y128147D01*
X4370Y126827D01*
X3100Y127258D01*
Y159900D01*
X3090Y159947D01*
X3411Y163200D01*
X4373Y166373D01*
X5936Y169297D01*
X8040Y171860D01*
X10603Y173964D01*
X13527Y175527D01*
X16700Y176490D01*
X19953Y176810D01*
X20000Y176800D01*
X150000D01*
X150047Y176810D01*
X153300Y176490D01*
D02*
G37*
%LPC*%
G36*
X100730Y168242D02*
X96605Y167836D01*
X92639Y166632D01*
X88984Y164679D01*
X85780Y162050D01*
X83151Y158846D01*
X81198Y155191D01*
X79994Y151225D01*
X79588Y147100D01*
X79994Y142976D01*
X81198Y139009D01*
X83151Y135354D01*
X85780Y132150D01*
X88984Y129521D01*
X92639Y127568D01*
X96605Y126364D01*
X100730Y125958D01*
X104854Y126364D01*
X108821Y127568D01*
X112476Y129521D01*
X115680Y132150D01*
X118309Y135354D01*
X120262Y139009D01*
X121466Y142976D01*
X121872Y147100D01*
X121466Y151225D01*
X120262Y155191D01*
X118309Y158846D01*
X115680Y162050D01*
X112476Y164679D01*
X108821Y166632D01*
X104854Y167836D01*
X100730Y168242D01*
D02*
G37*
G36*
X37230Y143518D02*
X34870Y143207D01*
X32671Y142296D01*
X30783Y140847D01*
X29334Y138959D01*
X28423Y136760D01*
X28112Y134400D01*
X28423Y132040D01*
X29334Y129841D01*
X30783Y127953D01*
X32671Y126504D01*
X34870Y125593D01*
X37230Y125282D01*
X39590Y125593D01*
X41789Y126504D01*
X43677Y127953D01*
X45126Y129841D01*
X46037Y132040D01*
X46348Y134400D01*
X46037Y136760D01*
X45126Y138959D01*
X43677Y140847D01*
X41789Y142296D01*
X39590Y143207D01*
X37230Y143518D01*
D02*
G37*
G36*
Y118118D02*
X34870Y117807D01*
X32671Y116896D01*
X30783Y115447D01*
X29334Y113559D01*
X28423Y111360D01*
X28112Y109000D01*
X28423Y106640D01*
X29334Y104441D01*
X30783Y102553D01*
X32671Y101104D01*
X34870Y100193D01*
X37230Y99882D01*
X39590Y100193D01*
X41789Y101104D01*
X43677Y102553D01*
X45126Y104441D01*
X46037Y106640D01*
X46348Y109000D01*
X46037Y111360D01*
X45126Y113559D01*
X43677Y115447D01*
X41789Y116896D01*
X39590Y117807D01*
X37230Y118118D01*
D02*
G37*
G36*
Y92718D02*
X34870Y92407D01*
X32671Y91496D01*
X30783Y90047D01*
X29334Y88159D01*
X28423Y85960D01*
X28112Y83600D01*
X28423Y81240D01*
X29334Y79041D01*
X30783Y77153D01*
X32671Y75704D01*
X34870Y74793D01*
X37230Y74482D01*
X39590Y74793D01*
X41789Y75704D01*
X43677Y77153D01*
X45126Y79041D01*
X46037Y81240D01*
X46348Y83600D01*
X46037Y85960D01*
X45126Y88159D01*
X43677Y90047D01*
X41789Y91496D01*
X39590Y92407D01*
X37230Y92718D01*
D02*
G37*
G36*
Y67318D02*
X34870Y67007D01*
X32671Y66096D01*
X30783Y64647D01*
X29334Y62759D01*
X28423Y60560D01*
X28112Y58200D01*
X28423Y55840D01*
X29334Y53641D01*
X30783Y51753D01*
X32671Y50304D01*
X34870Y49393D01*
X37230Y49082D01*
X39590Y49393D01*
X41789Y50304D01*
X43677Y51753D01*
X45126Y53641D01*
X46037Y55840D01*
X46348Y58200D01*
X46037Y60560D01*
X45126Y62759D01*
X43677Y64647D01*
X41789Y66096D01*
X39590Y67007D01*
X37230Y67318D01*
D02*
G37*
G36*
X100730Y53942D02*
X96605Y53536D01*
X92639Y52333D01*
X88984Y50379D01*
X85780Y47750D01*
X83151Y44546D01*
X81198Y40891D01*
X79994Y36925D01*
X79588Y32800D01*
X79994Y28675D01*
X81198Y24709D01*
X83151Y21054D01*
X85780Y17851D01*
X88984Y15221D01*
X92639Y13268D01*
X96605Y12064D01*
X100730Y11658D01*
X104854Y12064D01*
X108821Y13268D01*
X112476Y15221D01*
X115680Y17851D01*
X118309Y21054D01*
X120262Y24709D01*
X121466Y28675D01*
X121872Y32800D01*
X121466Y36925D01*
X120262Y40891D01*
X118309Y44546D01*
X115680Y47750D01*
X112476Y50379D01*
X108821Y52333D01*
X104854Y53536D01*
X100730Y53942D01*
D02*
G37*
%LPD*%
D10*
X0Y20000D02*
X171Y17390D01*
X681Y14824D01*
X1522Y12346D01*
X2679Y10000D01*
X4133Y7825D01*
X5858Y5858D01*
X7825Y4133D01*
X10000Y2679D01*
X12346Y1522D01*
X14824Y681D01*
X17390Y171D01*
X20000Y0D01*
X150000Y-0D02*
X152611Y171D01*
X155176Y681D01*
X157654Y1522D01*
X160000Y2679D01*
X162175Y4133D01*
X164142Y5858D01*
X165867Y7825D01*
X167320Y10000D01*
X168478Y12346D01*
X169319Y14824D01*
X169829Y17390D01*
X170000Y20000D01*
X170000Y159900D02*
X169829Y162511D01*
X169319Y165076D01*
X168478Y167554D01*
X167320Y169900D01*
X165867Y172075D01*
X164142Y174042D01*
X162175Y175767D01*
X160000Y177220D01*
X157654Y178378D01*
X155176Y179219D01*
X152611Y179729D01*
X150000Y179900D01*
X20000D02*
X17390Y179729D01*
X14824Y179219D01*
X12346Y178378D01*
X10000Y177220D01*
X7825Y175767D01*
X5858Y174042D01*
X4133Y172075D01*
X2679Y169900D01*
X1522Y167554D01*
X681Y165076D01*
X171Y162511D01*
X0Y159900D01*
X20000Y0D02*
X150000D01*
X170000Y20000D02*
X170000Y159900D01*
Y149900D02*
Y159900D01*
X20000Y179900D02*
X150000D01*
X0Y20000D02*
Y159900D01*
D16*
X100730Y147100D02*
D03*
Y32800D02*
D03*
D17*
X11830Y45500D02*
D03*
X37230Y58200D02*
D03*
X11830Y70900D02*
D03*
Y96300D02*
D03*
X37230Y83600D02*
D03*
X11830Y121700D02*
D03*
X37230Y109000D02*
D03*
Y134400D02*
D03*
M02*
