solid tool
   facet normal -2.696893e-05 3.387196e-01 -9.408874e-01
      outer loop
         vertex 6.701230e-02 1.926451e+01 4.710395e+00
         vertex 2.500000e-05 1.595486e+01 3.518920e+00
         vertex 1.706209e-02 1.937797e+01 4.751243e+00
      endloop
   endfacet
   facet normal 1.016022e-04 3.387191e-01 -9.408876e-01
      outer loop
         vertex 1.706209e-02 1.937797e+01 4.751243e+00
         vertex 2.500000e-05 1.595486e+01 3.518920e+00
         vertex 2.500000e-05 1.949973e+01 4.795074e+00
      endloop
   endfacet
   facet normal 2.236949e-05 3.387187e-01 -9.408877e-01
      outer loop
         vertex 6.701230e-02 1.926451e+01 4.710395e+00
         vertex 1.464716e-01 1.916708e+01 4.675321e+00
         vertex 2.500000e-05 1.595486e+01 3.518920e+00
      endloop
   endfacet
   facet normal -8.055074e-06 3.387200e-01 -9.408872e-01
      outer loop
         vertex 2.500000e-05 1.595486e+01 3.518920e+00
         vertex 1.464716e-01 1.916708e+01 4.675321e+00
         vertex 2.500250e-01 1.909232e+01 4.648406e+00
      endloop
   endfacet
   facet normal -6.795282e-06 3.387199e-01 -9.408873e-01
      outer loop
         vertex 2.500000e-05 1.595486e+01 3.518920e+00
         vertex 2.500250e-01 1.909232e+01 4.648406e+00
         vertex 3.706155e-01 1.904532e+01 4.631486e+00
      endloop
   endfacet
   facet normal 3.325772e-06 3.387258e-01 -9.408851e-01
      outer loop
         vertex 3.214848e+00 1.909232e+01 4.648406e+00
         vertex 3.318402e+00 1.916708e+01 4.675321e+00
         vertex 1.000002e+01 1.595486e+01 3.518920e+00
      endloop
   endfacet
   facet normal -6.652519e-06 3.387074e-01 -9.408918e-01
      outer loop
         vertex 1.000002e+01 1.595486e+01 3.518920e+00
         vertex 3.318402e+00 1.916708e+01 4.675321e+00
         vertex 3.397861e+00 1.926451e+01 4.710395e+00
      endloop
   endfacet
   facet normal -2.635743e-05 3.387188e-01 -9.408877e-01
      outer loop
         vertex 1.464716e-01 2.215151e+01 5.749714e+00
         vertex 6.701230e-02 2.205408e+01 5.714640e+00
         vertex 2.500000e-05 2.536373e+01 6.906115e+00
      endloop
   endfacet
   facet normal 3.279979e-05 3.387198e-01 -9.408873e-01
      outer loop
         vertex 2.500000e-05 2.536373e+01 6.906115e+00
         vertex 6.701230e-02 2.205408e+01 5.714640e+00
         vertex 1.706209e-02 2.194061e+01 5.673792e+00
      endloop
   endfacet
   facet normal -1.207541e-04 3.387191e-01 -9.408875e-01
      outer loop
         vertex 2.500000e-05 2.536373e+01 6.906115e+00
         vertex 1.706209e-02 2.194061e+01 5.673792e+00
         vertex 2.500000e-05 2.181885e+01 5.629960e+00
      endloop
   endfacet
   facet normal 5.099893e-06 3.387281e-01 -9.408843e-01
      outer loop
         vertex 3.397861e+00 1.926451e+01 4.710395e+00
         vertex 3.447811e+00 1.937797e+01 4.751243e+00
         vertex 1.000002e+01 1.595486e+01 3.518920e+00
      endloop
   endfacet
   facet normal -7.167504e-06 3.387074e-01 -9.408918e-01
      outer loop
         vertex 1.000002e+01 1.595486e+01 3.518920e+00
         vertex 3.447811e+00 1.937797e+01 4.751243e+00
         vertex 3.464848e+00 1.949973e+01 4.795074e+00
      endloop
   endfacet
   facet normal 2.338936e-07 3.387194e-01 -9.408874e-01
      outer loop
         vertex 1.000002e+01 1.595486e+01 3.518920e+00
         vertex 3.464848e+00 1.949973e+01 4.795074e+00
         vertex 1.000002e+01 2.536373e+01 6.906115e+00
      endloop
   endfacet
   facet normal -8.268720e-07 3.387205e-01 -9.408870e-01
      outer loop
         vertex 1.000002e+01 2.536373e+01 6.906115e+00
         vertex 3.464848e+00 1.949973e+01 4.795074e+00
         vertex 3.464848e+00 2.181885e+01 5.629960e+00
      endloop
   endfacet
   facet normal 8.518513e-06 3.387052e-01 -9.408925e-01
      outer loop
         vertex 3.464848e+00 2.181885e+01 5.629960e+00
         vertex 3.447811e+00 2.194061e+01 5.673792e+00
         vertex 1.000002e+01 2.536373e+01 6.906115e+00
      endloop
   endfacet
   facet normal -6.202556e-06 3.387302e-01 -9.408836e-01
      outer loop
         vertex 1.000002e+01 2.536373e+01 6.906115e+00
         vertex 3.447811e+00 2.194061e+01 5.673792e+00
         vertex 3.397861e+00 2.205408e+01 5.714640e+00
      endloop
   endfacet
   facet normal 7.838455e-06 3.387054e-01 -9.408925e-01
      outer loop
         vertex 1.000002e+01 2.536373e+01 6.906115e+00
         vertex 3.397861e+00 2.205408e+01 5.714640e+00
         vertex 3.318402e+00 2.215151e+01 5.749714e+00
      endloop
   endfacet
   facet normal -2.104644e-06 3.387190e-01 -9.408876e-01
      outer loop
         vertex 5.000250e-01 2.228930e+01 5.799320e+00
         vertex 3.706155e-01 2.227327e+01 5.793549e+00
         vertex 2.500000e-05 2.536373e+01 6.906115e+00
      endloop
   endfacet
   facet normal 6.757276e-06 3.387200e-01 -9.408872e-01
      outer loop
         vertex 2.500000e-05 2.536373e+01 6.906115e+00
         vertex 3.706155e-01 2.227327e+01 5.793549e+00
         vertex 2.500250e-01 2.222627e+01 5.776629e+00
      endloop
   endfacet
   facet normal 1.086705e-05 3.387203e-01 -9.408871e-01
      outer loop
         vertex 2.500000e-05 2.536373e+01 6.906115e+00
         vertex 2.500250e-01 2.222627e+01 5.776629e+00
         vertex 1.464716e-01 2.215151e+01 5.749714e+00
      endloop
   endfacet
   facet normal 2.092186e-06 3.387189e-01 -9.408876e-01
      outer loop
         vertex 3.706155e-01 1.904532e+01 4.631486e+00
         vertex 5.000250e-01 1.902929e+01 4.625715e+00
         vertex 2.500000e-05 1.595486e+01 3.518920e+00
      endloop
   endfacet
   facet normal 0.000000e+00 3.387192e-01 -9.408875e-01
      outer loop
         vertex 2.500000e-05 1.595486e+01 3.518920e+00
         vertex 5.000250e-01 1.902929e+01 4.625715e+00
         vertex 2.964848e+00 1.902929e+01 4.625715e+00
      endloop
   endfacet
   facet normal 0.000000e+00 3.387192e-01 -9.408875e-01
      outer loop
         vertex 2.500000e-05 1.595486e+01 3.518920e+00
         vertex 2.964848e+00 1.902929e+01 4.625715e+00
         vertex 1.000002e+01 1.595486e+01 3.518920e+00
      endloop
   endfacet
   facet normal -1.662970e-06 3.387159e-01 -9.408887e-01
      outer loop
         vertex 1.000002e+01 1.595486e+01 3.518920e+00
         vertex 2.964848e+00 1.902929e+01 4.625715e+00
         vertex 3.094258e+00 1.904532e+01 4.631486e+00
      endloop
   endfacet
   facet normal 3.801869e-06 3.387267e-01 -9.408848e-01
      outer loop
         vertex 1.000002e+01 1.595486e+01 3.518920e+00
         vertex 3.094258e+00 1.904532e+01 4.631486e+00
         vertex 3.214848e+00 1.909232e+01 4.648406e+00
      endloop
   endfacet
   facet normal -4.486803e-06 3.387281e-01 -9.408843e-01
      outer loop
         vertex 3.318402e+00 2.215151e+01 5.749714e+00
         vertex 3.214848e+00 2.222627e+01 5.776629e+00
         vertex 1.000002e+01 2.536373e+01 6.906115e+00
      endloop
   endfacet
   facet normal -3.780605e-06 3.387267e-01 -9.408848e-01
      outer loop
         vertex 1.000002e+01 2.536373e+01 6.906115e+00
         vertex 3.214848e+00 2.222627e+01 5.776629e+00
         vertex 3.094258e+00 2.227327e+01 5.793549e+00
      endloop
   endfacet
   facet normal 0.000000e+00 3.387192e-01 -9.408875e-01
      outer loop
         vertex 1.000002e+01 2.536373e+01 6.906115e+00
         vertex 3.094258e+00 2.227327e+01 5.793549e+00
         vertex 2.500000e-05 2.536373e+01 6.906115e+00
      endloop
   endfacet
   facet normal 2.438309e-06 3.387214e-01 -9.408867e-01
      outer loop
         vertex 2.500000e-05 2.536373e+01 6.906115e+00
         vertex 3.094258e+00 2.227327e+01 5.793549e+00
         vertex 2.964848e+00 2.228930e+01 5.799320e+00
      endloop
   endfacet
   facet normal 0.000000e+00 3.387193e-01 -9.408875e-01
      outer loop
         vertex 2.500000e-05 2.536373e+01 6.906115e+00
         vertex 2.964848e+00 2.228930e+01 5.799320e+00
         vertex 5.000250e-01 2.228930e+01 5.799320e+00
      endloop
   endfacet
   facet normal 0.000000e+00 -9.923214e-01 1.236863e-01
      outer loop
         vertex 9.000250e-01 4.032068e+00 6.142161e+01
         vertex 2.500000e-05 4.032068e+00 6.142161e+01
         vertex 2.500000e-05 3.888556e+00 6.027022e+01
      endloop
   endfacet
   facet normal 0.000000e+00 -9.923214e-01 1.236863e-01
      outer loop
         vertex 9.000250e-01 4.032068e+00 6.142161e+01
         vertex 2.500000e-05 3.888556e+00 6.027022e+01
         vertex 9.000250e-01 3.888556e+00 6.027022e+01
      endloop
   endfacet
   facet normal 0.000000e+00 -9.993751e-01 3.534801e-02
      outer loop
         vertex 9.000250e-01 3.888556e+00 6.027022e+01
         vertex 2.500000e-05 3.888556e+00 6.027022e+01
         vertex 2.500000e-05 3.840613e+00 5.891477e+01
      endloop
   endfacet
   facet normal 0.000000e+00 -9.993751e-01 3.534801e-02
      outer loop
         vertex 9.000250e-01 3.888556e+00 6.027022e+01
         vertex 2.500000e-05 3.840613e+00 5.891477e+01
         vertex 9.000250e-01 3.840613e+00 5.891477e+01
      endloop
   endfacet
   facet normal 0.000000e+00 9.996920e-01 -2.481765e-02
      outer loop
         vertex 9.000250e-01 6.640613e+00 5.891477e+01
         vertex 2.500000e-05 6.640613e+00 5.891477e+01
         vertex 2.500000e-05 6.672032e+00 6.018035e+01
      endloop
   endfacet
   facet normal 0.000000e+00 9.996920e-01 -2.481765e-02
      outer loop
         vertex 9.000250e-01 6.640613e+00 5.891477e+01
         vertex 2.500000e-05 6.672032e+00 6.018035e+01
         vertex 9.000250e-01 6.672032e+00 6.018035e+01
      endloop
   endfacet
   facet normal 0.000000e+00 9.957171e-01 -9.245218e-02
      outer loop
         vertex 9.000250e-01 6.672032e+00 6.018035e+01
         vertex 2.500000e-05 6.672032e+00 6.018035e+01
         vertex 2.500000e-05 6.769766e+00 6.123296e+01
      endloop
   endfacet
   facet normal 0.000000e+00 9.957171e-01 -9.245218e-02
      outer loop
         vertex 9.000250e-01 6.672032e+00 6.018035e+01
         vertex 2.500000e-05 6.769766e+00 6.123296e+01
         vertex 9.000250e-01 6.769766e+00 6.123296e+01
      endloop
   endfacet
   facet normal 1.000000e+00 0.000000e+00 0.000000e+00
      outer loop
         vertex 9.000250e-01 3.840613e+00 5.891477e+01
         vertex 9.000250e-01 6.640613e+00 5.891477e+01
         vertex 9.000250e-01 3.888556e+00 6.027022e+01
      endloop
   endfacet
   facet normal 1.000000e+00 0.000000e+00 0.000000e+00
      outer loop
         vertex 9.000250e-01 3.888556e+00 6.027022e+01
         vertex 9.000250e-01 6.640613e+00 5.891477e+01
         vertex 9.000250e-01 6.672032e+00 6.018035e+01
      endloop
   endfacet
   facet normal 1.000000e+00 -0.000000e+00 0.000000e+00
      outer loop
         vertex 9.000250e-01 3.888556e+00 6.027022e+01
         vertex 9.000250e-01 6.672032e+00 6.018035e+01
         vertex 9.000250e-01 4.032068e+00 6.142161e+01
      endloop
   endfacet
   facet normal 1.000000e+00 0.000000e+00 0.000000e+00
      outer loop
         vertex 9.000250e-01 4.032068e+00 6.142161e+01
         vertex 9.000250e-01 6.672032e+00 6.018035e+01
         vertex 9.000250e-01 6.769766e+00 6.123296e+01
      endloop
   endfacet
   facet normal 1.000000e+00 -0.000000e+00 0.000000e+00
      outer loop
         vertex 9.000250e-01 4.305441e+00 6.182417e+01
         vertex 9.000250e-01 4.177673e+00 6.171745e+01
         vertex 9.000250e-01 4.457615e+00 6.189168e+01
      endloop
   endfacet
   facet normal 1.000000e+00 -0.000000e+00 0.000000e+00
      outer loop
         vertex 9.000250e-01 4.457615e+00 6.189168e+01
         vertex 9.000250e-01 4.177673e+00 6.171745e+01
         vertex 9.000250e-01 4.622481e+00 6.191477e+01
      endloop
   endfacet
   facet normal 1.000000e+00 -0.000000e+00 0.000000e+00
      outer loop
         vertex 9.000250e-01 4.177673e+00 6.171745e+01
         vertex 9.000250e-01 4.084149e+00 6.157972e+01
         vertex 9.000250e-01 4.622481e+00 6.191477e+01
      endloop
   endfacet
   facet normal 1.000000e+00 0.000000e+00 0.000000e+00
      outer loop
         vertex 9.000250e-01 4.622481e+00 6.191477e+01
         vertex 9.000250e-01 4.084149e+00 6.157972e+01
         vertex 9.000250e-01 4.032068e+00 6.142161e+01
      endloop
   endfacet
   facet normal 1.000000e+00 -0.000000e+00 0.000000e+00
      outer loop
         vertex 9.000250e-01 4.622481e+00 6.191477e+01
         vertex 9.000250e-01 4.032068e+00 6.142161e+01
         vertex 9.000250e-01 6.175370e+00 6.191477e+01
      endloop
   endfacet
   facet normal 1.000000e+00 0.000000e+00 0.000000e+00
      outer loop
         vertex 9.000250e-01 6.175370e+00 6.191477e+01
         vertex 9.000250e-01 4.032068e+00 6.142161e+01
         vertex 9.000250e-01 6.769766e+00 6.123296e+01
      endloop
   endfacet
   facet normal 1.000000e+00 0.000000e+00 0.000000e+00
      outer loop
         vertex 9.000250e-01 6.175370e+00 6.191477e+01
         vertex 9.000250e-01 6.769766e+00 6.123296e+01
         vertex 9.000250e-01 6.343832e+00 6.189064e+01
      endloop
   endfacet
   facet normal 1.000000e+00 0.000000e+00 0.000000e+00
      outer loop
         vertex 9.000250e-01 6.769766e+00 6.123296e+01
         vertex 9.000250e-01 6.768827e+00 6.140314e+01
         vertex 9.000250e-01 6.343832e+00 6.189064e+01
      endloop
   endfacet
   facet normal 1.000000e+00 0.000000e+00 0.000000e+00
      outer loop
         vertex 9.000250e-01 6.343832e+00 6.189064e+01
         vertex 9.000250e-01 6.768827e+00 6.140314e+01
         vertex 9.000250e-01 6.720144e+00 6.156621e+01
      endloop
   endfacet
   facet normal 1.000000e+00 0.000000e+00 0.000000e+00
      outer loop
         vertex 9.000250e-01 6.343832e+00 6.189064e+01
         vertex 9.000250e-01 6.720144e+00 6.156621e+01
         vertex 9.000250e-01 6.498741e+00 6.182018e+01
      endloop
   endfacet
   facet normal 1.000000e+00 0.000000e+00 0.000000e+00
      outer loop
         vertex 9.000250e-01 6.498741e+00 6.182018e+01
         vertex 9.000250e-01 6.720144e+00 6.156621e+01
         vertex 9.000250e-01 6.627635e+00 6.170905e+01
      endloop
   endfacet
   facet normal -1.000000e+00 0.000000e+00 0.000000e+00
      outer loop
         vertex 2.500000e-05 3.840613e+00 5.891477e+01
         vertex 2.500000e-05 3.888556e+00 6.027022e+01
         vertex 2.500000e-05 6.672032e+00 6.018035e+01
      endloop
   endfacet
   facet normal -1.000000e+00 -7.304962e-19 1.507391e-17
      outer loop
         vertex 2.500000e-05 2.283501e+01 2.807297e+00
         vertex 2.500000e-05 2.051589e+01 1.972415e+00
         vertex 2.500000e-05 2.181885e+01 5.629960e+00
      endloop
   endfacet
   facet normal -1.000000e+00 -6.117489e-18 1.699297e-17
      outer loop
         vertex 2.500000e-05 2.181885e+01 5.629960e+00
         vertex 2.500000e-05 2.051589e+01 1.972415e+00
         vertex 2.500000e-05 1.949973e+01 4.795074e+00
      endloop
   endfacet
   facet normal -1.000000e+00 0.000000e+00 0.000000e+00
      outer loop
         vertex 2.500000e-05 2.536373e+01 6.906115e+00
         vertex 2.500000e-05 2.280452e+01 8.110452e+00
         vertex 2.500000e-05 6.640613e+00 5.891477e+01
      endloop
   endfacet
   facet normal -1.000000e+00 0.000000e+00 -0.000000e+00
      outer loop
         vertex 2.500000e-05 6.640613e+00 5.891477e+01
         vertex 2.500000e-05 2.280452e+01 8.110452e+00
         vertex 2.500000e-05 5.234961e+00 5.691477e+01
      endloop
   endfacet
   facet normal -1.000000e+00 0.000000e+00 0.000000e+00
      outer loop
         vertex 2.500000e-05 6.640613e+00 5.891477e+01
         vertex 2.500000e-05 5.234961e+00 5.691477e+01
         vertex 2.500000e-05 4.995314e+00 5.691477e+01
      endloop
   endfacet
   facet normal -1.000000e+00 0.000000e+00 0.000000e+00
      outer loop
         vertex 2.500000e-05 6.672032e+00 6.018035e+01
         vertex 2.500000e-05 3.888556e+00 6.027022e+01
         vertex 2.500000e-05 6.769766e+00 6.123296e+01
      endloop
   endfacet
   facet normal -1.000000e+00 -0.000000e+00 0.000000e+00
      outer loop
         vertex 2.500000e-05 6.769766e+00 6.123296e+01
         vertex 2.500000e-05 3.888556e+00 6.027022e+01
         vertex 2.500000e-05 4.032068e+00 6.142161e+01
      endloop
   endfacet
   facet normal -1.000000e+00 0.000000e+00 0.000000e+00
      outer loop
         vertex 2.500000e-05 6.769766e+00 6.123296e+01
         vertex 2.500000e-05 4.032068e+00 6.142161e+01
         vertex 2.500000e-05 4.622481e+00 6.191477e+01
      endloop
   endfacet
   facet normal -1.000000e+00 0.000000e+00 0.000000e+00
      outer loop
         vertex 2.500000e-05 4.032068e+00 6.142161e+01
         vertex 2.500000e-05 4.084149e+00 6.157972e+01
         vertex 2.500000e-05 4.622481e+00 6.191477e+01
      endloop
   endfacet
   facet normal -1.000000e+00 0.000000e+00 0.000000e+00
      outer loop
         vertex 2.500000e-05 4.622481e+00 6.191477e+01
         vertex 2.500000e-05 4.084149e+00 6.157972e+01
         vertex 2.500000e-05 4.177673e+00 6.171745e+01
      endloop
   endfacet
   facet normal -1.000000e+00 0.000000e+00 0.000000e+00
      outer loop
         vertex 2.500000e-05 4.622481e+00 6.191477e+01
         vertex 2.500000e-05 4.177673e+00 6.171745e+01
         vertex 2.500000e-05 4.457615e+00 6.189168e+01
      endloop
   endfacet
   facet normal -1.000000e+00 0.000000e+00 0.000000e+00
      outer loop
         vertex 2.500000e-05 4.457615e+00 6.189168e+01
         vertex 2.500000e-05 4.177673e+00 6.171745e+01
         vertex 2.500000e-05 4.305441e+00 6.182417e+01
      endloop
   endfacet
   facet normal -1.000000e+00 -0.000000e+00 0.000000e+00
      outer loop
         vertex 2.500000e-05 2.536373e+01 6.906115e+00
         vertex 2.500000e-05 2.181885e+01 5.629960e+00
         vertex 2.500000e-05 2.280452e+01 8.110452e+00
      endloop
   endfacet
   facet normal -1.000000e+00 0.000000e+00 0.000000e+00
      outer loop
         vertex 2.500000e-05 2.280452e+01 8.110452e+00
         vertex 2.500000e-05 2.181885e+01 5.629960e+00
         vertex 2.500000e-05 1.949973e+01 4.795074e+00
      endloop
   endfacet
   facet normal -1.000000e+00 0.000000e+00 0.000000e+00
      outer loop
         vertex 2.500000e-05 2.280452e+01 8.110452e+00
         vertex 2.500000e-05 1.949973e+01 4.795074e+00
         vertex 2.500000e-05 1.715919e+01 6.078135e+00
      endloop
   endfacet
   facet normal -1.000000e+00 0.000000e+00 -0.000000e+00
      outer loop
         vertex 2.500000e-05 1.715919e+01 6.078135e+00
         vertex 2.500000e-05 1.949973e+01 4.795074e+00
         vertex 2.500000e-05 1.595486e+01 3.518920e+00
      endloop
   endfacet
   facet normal -1.000000e+00 -0.000000e+00 0.000000e+00
      outer loop
         vertex 2.500000e-05 1.715919e+01 6.078135e+00
         vertex 2.500000e-05 1.595486e+01 3.518920e+00
         vertex 2.500000e-05 2.472901e+00 4.687339e+01
      endloop
   endfacet
   facet normal -1.000000e+00 0.000000e+00 -0.000000e+00
      outer loop
         vertex 2.500000e-05 2.472901e+00 4.687339e+01
         vertex 2.500000e-05 1.595486e+01 3.518920e+00
         vertex 2.500000e-05 5.911258e-01 4.619595e+01
      endloop
   endfacet
   facet normal -1.000000e+00 -0.000000e+00 0.000000e+00
      outer loop
         vertex 2.500000e-05 2.472901e+00 4.687339e+01
         vertex 2.500000e-05 5.911258e-01 4.619595e+01
         vertex 2.500000e-05 2.117668e+00 4.821609e+01
      endloop
   endfacet
   facet normal -1.000000e+00 0.000000e+00 0.000000e+00
      outer loop
         vertex 2.500000e-05 2.117668e+00 4.821609e+01
         vertex 2.500000e-05 5.911258e-01 4.619595e+01
         vertex 2.500000e-05 1.470849e-01 4.787432e+01
      endloop
   endfacet
   facet normal -1.000000e+00 -0.000000e+00 0.000000e+00
      outer loop
         vertex 2.500000e-05 2.117668e+00 4.821609e+01
         vertex 2.500000e-05 1.470849e-01 4.787432e+01
         vertex 2.500000e-05 2.000018e+00 4.959999e+01
      endloop
   endfacet
   facet normal -1.000000e+00 -0.000000e+00 0.000000e+00
      outer loop
         vertex 2.500000e-05 2.000018e+00 4.959999e+01
         vertex 2.500000e-05 1.470849e-01 4.787432e+01
         vertex 2.500000e-05 2.211891e-05 4.960421e+01
      endloop
   endfacet
   facet normal -1.000000e+00 0.000000e+00 0.000000e+00
      outer loop
         vertex 2.500000e-05 2.000018e+00 4.959999e+01
         vertex 2.500000e-05 2.211891e-05 4.960421e+01
         vertex 2.500000e-05 2.123496e+00 5.098339e+01
      endloop
   endfacet
   facet normal -1.000000e+00 -0.000000e+00 0.000000e+00
      outer loop
         vertex 2.500000e-05 2.123496e+00 5.098339e+01
         vertex 2.500000e-05 2.211891e-05 4.960421e+01
         vertex 2.500000e-05 1.543704e-01 5.133345e+01
      endloop
   endfacet
   facet normal -1.000000e+00 0.000000e+00 0.000000e+00
      outer loop
         vertex 2.500000e-05 2.123496e+00 5.098339e+01
         vertex 2.500000e-05 1.543704e-01 5.133345e+01
         vertex 2.500000e-05 2.484382e+00 5.232458e+01
      endloop
   endfacet
   facet normal -1.000000e+00 -0.000000e+00 0.000000e+00
      outer loop
         vertex 2.500000e-05 2.484382e+00 5.232458e+01
         vertex 2.500000e-05 1.543704e-01 5.133345e+01
         vertex 2.500000e-05 6.054773e-01 5.300994e+01
      endloop
   endfacet
   facet normal -1.000000e+00 0.000000e+00 0.000000e+00
      outer loop
         vertex 2.500000e-05 2.484382e+00 5.232458e+01
         vertex 2.500000e-05 6.054773e-01 5.300994e+01
         vertex 2.500000e-05 3.071797e+00 5.358314e+01
      endloop
   endfacet
   facet normal -1.000000e+00 -0.000000e+00 0.000000e+00
      outer loop
         vertex 2.500000e-05 3.071797e+00 5.358314e+01
         vertex 2.500000e-05 6.054773e-01 5.300994e+01
         vertex 2.500000e-05 1.339746e+00 5.458314e+01
      endloop
   endfacet
   facet normal -1.000000e+00 0.000000e+00 0.000000e+00
      outer loop
         vertex 2.500000e-05 3.071797e+00 5.358314e+01
         vertex 2.500000e-05 1.339746e+00 5.458314e+01
         vertex 2.500000e-05 4.995314e+00 5.691477e+01
      endloop
   endfacet
   facet normal -1.000000e+00 -0.000000e+00 0.000000e+00
      outer loop
         vertex 2.500000e-05 4.995314e+00 5.691477e+01
         vertex 2.500000e-05 1.339746e+00 5.458314e+01
         vertex 2.500000e-05 3.840613e+00 5.891477e+01
      endloop
   endfacet
   facet normal -1.000000e+00 0.000000e+00 0.000000e+00
      outer loop
         vertex 2.500000e-05 4.995314e+00 5.691477e+01
         vertex 2.500000e-05 3.840613e+00 5.891477e+01
         vertex 2.500000e-05 6.640613e+00 5.891477e+01
      endloop
   endfacet
   facet normal -1.000000e+00 0.000000e+00 0.000000e+00
      outer loop
         vertex 2.500000e-05 6.640613e+00 5.891477e+01
         vertex 2.500000e-05 3.840613e+00 5.891477e+01
         vertex 2.500000e-05 6.672032e+00 6.018035e+01
      endloop
   endfacet
   facet normal -1.000000e+00 -0.000000e+00 -0.000000e+00
      outer loop
         vertex 2.500000e-05 6.627635e+00 6.170905e+01
         vertex 2.500000e-05 6.720144e+00 6.156621e+01
         vertex 2.500000e-05 6.498741e+00 6.182018e+01
      endloop
   endfacet
   facet normal -1.000000e+00 -0.000000e+00 -0.000000e+00
      outer loop
         vertex 2.500000e-05 6.498741e+00 6.182018e+01
         vertex 2.500000e-05 6.720144e+00 6.156621e+01
         vertex 2.500000e-05 6.343832e+00 6.189064e+01
      endloop
   endfacet
   facet normal -1.000000e+00 0.000000e+00 0.000000e+00
      outer loop
         vertex 2.500000e-05 4.622481e+00 6.191477e+01
         vertex 2.500000e-05 6.175370e+00 6.191477e+01
         vertex 2.500000e-05 6.769766e+00 6.123296e+01
      endloop
   endfacet
   facet normal -1.000000e+00 0.000000e+00 0.000000e+00
      outer loop
         vertex 2.500000e-05 6.769766e+00 6.123296e+01
         vertex 2.500000e-05 6.175370e+00 6.191477e+01
         vertex 2.500000e-05 6.343832e+00 6.189064e+01
      endloop
   endfacet
   facet normal -1.000000e+00 0.000000e+00 0.000000e+00
      outer loop
         vertex 2.500000e-05 6.769766e+00 6.123296e+01
         vertex 2.500000e-05 6.343832e+00 6.189064e+01
         vertex 2.500000e-05 6.768827e+00 6.140314e+01
      endloop
   endfacet
   facet normal -1.000000e+00 0.000000e+00 0.000000e+00
      outer loop
         vertex 2.500000e-05 6.768827e+00 6.140314e+01
         vertex 2.500000e-05 6.343832e+00 6.189064e+01
         vertex 2.500000e-05 6.720144e+00 6.156621e+01
      endloop
   endfacet
   facet normal 0.000000e+00 -0.000000e+00 1.000000e+00
      outer loop
         vertex 1.000002e+01 3.840613e+00 5.891477e+01
         vertex 1.000002e+01 6.640613e+00 5.891477e+01
         vertex 9.000250e-01 3.840613e+00 5.891477e+01
      endloop
   endfacet
   facet normal 0.000000e+00 0.000000e+00 1.000000e+00
      outer loop
         vertex 9.000250e-01 3.840613e+00 5.891477e+01
         vertex 1.000002e+01 6.640613e+00 5.891477e+01
         vertex 9.000250e-01 6.640613e+00 5.891477e+01
      endloop
   endfacet
   facet normal 0.000000e+00 9.408874e-01 3.387195e-01
      outer loop
         vertex 1.000002e+01 6.640613e+00 5.891477e+01
         vertex 1.000002e+01 2.536373e+01 6.906115e+00
         vertex 9.000250e-01 6.640613e+00 5.891477e+01
      endloop
   endfacet
   facet normal 0.000000e+00 9.408874e-01 3.387195e-01
      outer loop
         vertex 9.000250e-01 6.640613e+00 5.891477e+01
         vertex 1.000002e+01 2.536373e+01 6.906115e+00
         vertex 2.500000e-05 2.536373e+01 6.906115e+00
      endloop
   endfacet
   facet normal 0.000000e+00 9.408874e-01 3.387195e-01
      outer loop
         vertex 9.000250e-01 6.640613e+00 5.891477e+01
         vertex 2.500000e-05 2.536373e+01 6.906115e+00
         vertex 2.500000e-05 6.640613e+00 5.891477e+01
      endloop
   endfacet
   facet normal 1.000000e+00 0.000000e+00 0.000000e+00
      outer loop
         vertex 1.000002e+01 2.472901e+00 4.687339e+01
         vertex 1.000002e+01 5.911258e-01 4.619595e+01
         vertex 1.000002e+01 1.715919e+01 6.078135e+00
      endloop
   endfacet
   facet normal 1.000000e+00 0.000000e+00 0.000000e+00
      outer loop
         vertex 1.000002e+01 1.715919e+01 6.078135e+00
         vertex 1.000002e+01 5.911258e-01 4.619595e+01
         vertex 1.000002e+01 1.595486e+01 3.518920e+00
      endloop
   endfacet
   facet normal 1.000000e+00 -0.000000e+00 0.000000e+00
      outer loop
         vertex 1.000002e+01 1.715919e+01 6.078135e+00
         vertex 1.000002e+01 1.595486e+01 3.518920e+00
         vertex 1.000002e+01 2.280452e+01 8.110452e+00
      endloop
   endfacet
   facet normal 1.000000e+00 0.000000e+00 0.000000e+00
      outer loop
         vertex 1.000002e+01 2.280452e+01 8.110452e+00
         vertex 1.000002e+01 1.595486e+01 3.518920e+00
         vertex 1.000002e+01 2.536373e+01 6.906115e+00
      endloop
   endfacet
   facet normal 1.000000e+00 -0.000000e+00 -0.000000e+00
      outer loop
         vertex 1.000002e+01 2.280452e+01 8.110452e+00
         vertex 1.000002e+01 2.536373e+01 6.906115e+00
         vertex 1.000002e+01 5.234961e+00 5.691477e+01
      endloop
   endfacet
   facet normal 1.000000e+00 -0.000000e+00 0.000000e+00
      outer loop
         vertex 1.000002e+01 5.234961e+00 5.691477e+01
         vertex 1.000002e+01 2.536373e+01 6.906115e+00
         vertex 1.000002e+01 6.640613e+00 5.891477e+01
      endloop
   endfacet
   facet normal 1.000000e+00 0.000000e+00 -0.000000e+00
      outer loop
         vertex 1.000002e+01 5.234961e+00 5.691477e+01
         vertex 1.000002e+01 6.640613e+00 5.891477e+01
         vertex 1.000002e+01 4.995314e+00 5.691477e+01
      endloop
   endfacet
   facet normal 1.000000e+00 0.000000e+00 -0.000000e+00
      outer loop
         vertex 1.000002e+01 4.995314e+00 5.691477e+01
         vertex 1.000002e+01 6.640613e+00 5.891477e+01
         vertex 1.000002e+01 3.840613e+00 5.891477e+01
      endloop
   endfacet
   facet normal 1.000000e+00 0.000000e+00 0.000000e+00
      outer loop
         vertex 1.000002e+01 4.995314e+00 5.691477e+01
         vertex 1.000002e+01 3.840613e+00 5.891477e+01
         vertex 1.000002e+01 3.071797e+00 5.358314e+01
      endloop
   endfacet
   facet normal 1.000000e+00 0.000000e+00 -0.000000e+00
      outer loop
         vertex 1.000002e+01 3.071797e+00 5.358314e+01
         vertex 1.000002e+01 3.840613e+00 5.891477e+01
         vertex 1.000002e+01 1.339746e+00 5.458314e+01
      endloop
   endfacet
   facet normal 1.000000e+00 0.000000e+00 0.000000e+00
      outer loop
         vertex 1.000002e+01 3.071797e+00 5.358314e+01
         vertex 1.000002e+01 1.339746e+00 5.458314e+01
         vertex 1.000002e+01 2.484382e+00 5.232458e+01
      endloop
   endfacet
   facet normal 1.000000e+00 0.000000e+00 0.000000e+00
      outer loop
         vertex 1.000002e+01 2.484382e+00 5.232458e+01
         vertex 1.000002e+01 1.339746e+00 5.458314e+01
         vertex 1.000002e+01 6.054773e-01 5.300994e+01
      endloop
   endfacet
   facet normal 1.000000e+00 0.000000e+00 0.000000e+00
      outer loop
         vertex 1.000002e+01 2.484382e+00 5.232458e+01
         vertex 1.000002e+01 6.054773e-01 5.300994e+01
         vertex 1.000002e+01 2.123496e+00 5.098339e+01
      endloop
   endfacet
   facet normal 1.000000e+00 0.000000e+00 0.000000e+00
      outer loop
         vertex 1.000002e+01 2.123496e+00 5.098339e+01
         vertex 1.000002e+01 6.054773e-01 5.300994e+01
         vertex 1.000002e+01 1.543704e-01 5.133345e+01
      endloop
   endfacet
   facet normal 1.000000e+00 0.000000e+00 0.000000e+00
      outer loop
         vertex 1.000002e+01 2.123496e+00 5.098339e+01
         vertex 1.000002e+01 1.543704e-01 5.133345e+01
         vertex 1.000002e+01 2.000018e+00 4.959999e+01
      endloop
   endfacet
   facet normal 1.000000e+00 0.000000e+00 0.000000e+00
      outer loop
         vertex 1.000002e+01 2.000018e+00 4.959999e+01
         vertex 1.000002e+01 1.543704e-01 5.133345e+01
         vertex 1.000002e+01 2.211891e-05 4.960421e+01
      endloop
   endfacet
   facet normal 1.000000e+00 0.000000e+00 0.000000e+00
      outer loop
         vertex 1.000002e+01 2.000018e+00 4.959999e+01
         vertex 1.000002e+01 2.211891e-05 4.960421e+01
         vertex 1.000002e+01 2.117668e+00 4.821609e+01
      endloop
   endfacet
   facet normal 1.000000e+00 0.000000e+00 0.000000e+00
      outer loop
         vertex 1.000002e+01 2.117668e+00 4.821609e+01
         vertex 1.000002e+01 2.211891e-05 4.960421e+01
         vertex 1.000002e+01 1.470849e-01 4.787432e+01
      endloop
   endfacet
   facet normal 1.000000e+00 0.000000e+00 0.000000e+00
      outer loop
         vertex 1.000002e+01 2.117668e+00 4.821609e+01
         vertex 1.000002e+01 1.470849e-01 4.787432e+01
         vertex 1.000002e+01 2.472901e+00 4.687339e+01
      endloop
   endfacet
   facet normal 1.000000e+00 0.000000e+00 0.000000e+00
      outer loop
         vertex 1.000002e+01 2.472901e+00 4.687339e+01
         vertex 1.000002e+01 1.470849e-01 4.787432e+01
         vertex 1.000002e+01 5.911258e-01 4.619595e+01
      endloop
   endfacet
   facet normal 0.000000e+00 -8.660254e-01 5.000000e-01
      outer loop
         vertex 2.500000e-05 3.840613e+00 5.891477e+01
         vertex 2.500000e-05 1.339746e+00 5.458314e+01
         vertex 9.000250e-01 3.840613e+00 5.891477e+01
      endloop
   endfacet
   facet normal 0.000000e+00 -8.660254e-01 5.000000e-01
      outer loop
         vertex 9.000250e-01 3.840613e+00 5.891477e+01
         vertex 2.500000e-05 1.339746e+00 5.458314e+01
         vertex 1.000002e+01 1.339746e+00 5.458314e+01
      endloop
   endfacet
   facet normal 0.000000e+00 -8.660254e-01 5.000000e-01
      outer loop
         vertex 9.000250e-01 3.840613e+00 5.891477e+01
         vertex 1.000002e+01 1.339746e+00 5.458314e+01
         vertex 1.000002e+01 3.840613e+00 5.891477e+01
      endloop
   endfacet
   facet normal 0.000000e+00 -9.408874e-01 -3.387195e-01
      outer loop
         vertex 2.500000e-05 5.911258e-01 4.619595e+01
         vertex 2.500000e-05 1.595486e+01 3.518920e+00
         vertex 1.000002e+01 5.911258e-01 4.619595e+01
      endloop
   endfacet
   facet normal 0.000000e+00 -9.408874e-01 -3.387195e-01
      outer loop
         vertex 1.000002e+01 5.911258e-01 4.619595e+01
         vertex 2.500000e-05 1.595486e+01 3.518920e+00
         vertex 1.000002e+01 1.595486e+01 3.518920e+00
      endloop
   endfacet
   facet normal 0.000000e+00 -9.061594e-01 4.229363e-01
      outer loop
         vertex 1.000002e+01 1.339746e+00 5.458314e+01
         vertex 2.500000e-05 1.339746e+00 5.458314e+01
         vertex 2.500000e-05 6.054773e-01 5.300994e+01
      endloop
   endfacet
   facet normal 0.000000e+00 -9.061594e-01 4.229363e-01
      outer loop
         vertex 1.000002e+01 1.339746e+00 5.458314e+01
         vertex 2.500000e-05 6.054773e-01 5.300994e+01
         vertex 1.000002e+01 6.054773e-01 5.300994e+01
      endloop
   endfacet
   facet normal 0.000000e+00 -9.656527e-01 2.598361e-01
      outer loop
         vertex 1.000002e+01 6.054773e-01 5.300994e+01
         vertex 2.500000e-05 6.054773e-01 5.300994e+01
         vertex 2.500000e-05 1.543704e-01 5.133345e+01
      endloop
   endfacet
   facet normal 0.000000e+00 -9.656527e-01 2.598361e-01
      outer loop
         vertex 1.000002e+01 6.054773e-01 5.300994e+01
         vertex 2.500000e-05 1.543704e-01 5.133345e+01
         vertex 1.000002e+01 1.543704e-01 5.133345e+01
      endloop
   endfacet
   facet normal 0.000000e+00 -9.960402e-01 8.890413e-02
      outer loop
         vertex 1.000002e+01 1.543704e-01 5.133345e+01
         vertex 2.500000e-05 1.543704e-01 5.133345e+01
         vertex 2.500000e-05 2.211891e-05 4.960421e+01
      endloop
   endfacet
   facet normal 0.000000e+00 -9.960402e-01 8.890413e-02
      outer loop
         vertex 1.000002e+01 1.543704e-01 5.133345e+01
         vertex 2.500000e-05 2.211891e-05 4.960421e+01
         vertex 1.000002e+01 2.211891e-05 4.960421e+01
      endloop
   endfacet
   facet normal -0.000000e+00 -9.964058e-01 -8.470769e-02
      outer loop
         vertex 1.000002e+01 2.211891e-05 4.960421e+01
         vertex 2.500000e-05 2.211891e-05 4.960421e+01
         vertex 2.500000e-05 1.470849e-01 4.787432e+01
      endloop
   endfacet
   facet normal 0.000000e+00 -9.964058e-01 -8.470769e-02
      outer loop
         vertex 1.000002e+01 2.211891e-05 4.960421e+01
         vertex 2.500000e-05 1.470849e-01 4.787432e+01
         vertex 1.000002e+01 1.470849e-01 4.787432e+01
      endloop
   endfacet
   facet normal -0.000000e+00 -9.667387e-01 -2.557662e-01
      outer loop
         vertex 1.000002e+01 1.470849e-01 4.787432e+01
         vertex 2.500000e-05 1.470849e-01 4.787432e+01
         vertex 2.500000e-05 5.911258e-01 4.619595e+01
      endloop
   endfacet
   facet normal 0.000000e+00 -9.667387e-01 -2.557662e-01
      outer loop
         vertex 1.000002e+01 1.470849e-01 4.787432e+01
         vertex 2.500000e-05 5.911258e-01 4.619595e+01
         vertex 1.000002e+01 5.911258e-01 4.619595e+01
      endloop
   endfacet
   facet normal 0.000000e+00 0.000000e+00 -1.000000e+00
      outer loop
         vertex 1.000002e+01 4.995314e+00 5.691477e+01
         vertex 2.500000e-05 4.995314e+00 5.691477e+01
         vertex 1.000002e+01 5.234961e+00 5.691477e+01
      endloop
   endfacet
   facet normal -0.000000e+00 0.000000e+00 -1.000000e+00
      outer loop
         vertex 1.000002e+01 5.234961e+00 5.691477e+01
         vertex 2.500000e-05 4.995314e+00 5.691477e+01
         vertex 2.500000e-05 5.234961e+00 5.691477e+01
      endloop
   endfacet
   facet normal -0.000000e+00 -9.408874e-01 -3.387195e-01
      outer loop
         vertex 1.000002e+01 5.234961e+00 5.691477e+01
         vertex 2.500000e-05 5.234961e+00 5.691477e+01
         vertex 1.000002e+01 2.280452e+01 8.110452e+00
      endloop
   endfacet
   facet normal -0.000000e+00 -9.408874e-01 -3.387195e-01
      outer loop
         vertex 1.000002e+01 2.280452e+01 8.110452e+00
         vertex 2.500000e-05 5.234961e+00 5.691477e+01
         vertex 2.500000e-05 2.280452e+01 8.110452e+00
      endloop
   endfacet
   facet normal 0.000000e+00 -3.387195e-01 9.408874e-01
      outer loop
         vertex 1.000002e+01 2.280452e+01 8.110452e+00
         vertex 2.500000e-05 2.280452e+01 8.110452e+00
         vertex 1.000002e+01 1.715919e+01 6.078135e+00
      endloop
   endfacet
   facet normal 0.000000e+00 -3.387195e-01 9.408874e-01
      outer loop
         vertex 1.000002e+01 1.715919e+01 6.078135e+00
         vertex 2.500000e-05 2.280452e+01 8.110452e+00
         vertex 2.500000e-05 1.715919e+01 6.078135e+00
      endloop
   endfacet
   facet normal 0.000000e+00 9.408874e-01 3.387195e-01
      outer loop
         vertex 1.000002e+01 1.715919e+01 6.078135e+00
         vertex 2.500000e-05 1.715919e+01 6.078135e+00
         vertex 1.000002e+01 2.472901e+00 4.687339e+01
      endloop
   endfacet
   facet normal 0.000000e+00 9.408874e-01 3.387195e-01
      outer loop
         vertex 1.000002e+01 2.472901e+00 4.687339e+01
         vertex 2.500000e-05 1.715919e+01 6.078135e+00
         vertex 2.500000e-05 2.472901e+00 4.687339e+01
      endloop
   endfacet
   facet normal 0.000000e+00 9.061594e-01 -4.229364e-01
      outer loop
         vertex 2.500000e-05 3.071797e+00 5.358314e+01
         vertex 1.000002e+01 3.071797e+00 5.358314e+01
         vertex 2.500000e-05 2.484382e+00 5.232458e+01
      endloop
   endfacet
   facet normal 0.000000e+00 9.061594e-01 -4.229364e-01
      outer loop
         vertex 2.500000e-05 2.484382e+00 5.232458e+01
         vertex 1.000002e+01 3.071797e+00 5.358314e+01
         vertex 1.000002e+01 2.484382e+00 5.232458e+01
      endloop
   endfacet
   facet normal 0.000000e+00 9.656528e-01 -2.598360e-01
      outer loop
         vertex 2.500000e-05 2.484382e+00 5.232458e+01
         vertex 1.000002e+01 2.484382e+00 5.232458e+01
         vertex 2.500000e-05 2.123496e+00 5.098339e+01
      endloop
   endfacet
   facet normal 0.000000e+00 9.656528e-01 -2.598360e-01
      outer loop
         vertex 2.500000e-05 2.123496e+00 5.098339e+01
         vertex 1.000002e+01 2.484382e+00 5.232458e+01
         vertex 1.000002e+01 2.123496e+00 5.098339e+01
      endloop
   endfacet
   facet normal 0.000000e+00 9.960402e-01 -8.890409e-02
      outer loop
         vertex 2.500000e-05 2.123496e+00 5.098339e+01
         vertex 1.000002e+01 2.123496e+00 5.098339e+01
         vertex 2.500000e-05 2.000018e+00 4.959999e+01
      endloop
   endfacet
   facet normal 0.000000e+00 9.960402e-01 -8.890409e-02
      outer loop
         vertex 2.500000e-05 2.000018e+00 4.959999e+01
         vertex 1.000002e+01 2.123496e+00 5.098339e+01
         vertex 1.000002e+01 2.000018e+00 4.959999e+01
      endloop
   endfacet
   facet normal -0.000000e+00 9.964059e-01 8.470759e-02
      outer loop
         vertex 2.500000e-05 2.000018e+00 4.959999e+01
         vertex 1.000002e+01 2.000018e+00 4.959999e+01
         vertex 2.500000e-05 2.117668e+00 4.821609e+01
      endloop
   endfacet
   facet normal -0.000000e+00 9.964059e-01 8.470759e-02
      outer loop
         vertex 2.500000e-05 2.117668e+00 4.821609e+01
         vertex 1.000002e+01 2.000018e+00 4.959999e+01
         vertex 1.000002e+01 2.117668e+00 4.821609e+01
      endloop
   endfacet
   facet normal -0.000000e+00 9.667387e-01 2.557662e-01
      outer loop
         vertex 2.500000e-05 2.117668e+00 4.821609e+01
         vertex 1.000002e+01 2.117668e+00 4.821609e+01
         vertex 2.500000e-05 2.472901e+00 4.687339e+01
      endloop
   endfacet
   facet normal -0.000000e+00 9.667387e-01 2.557662e-01
      outer loop
         vertex 2.500000e-05 2.472901e+00 4.687339e+01
         vertex 1.000002e+01 2.117668e+00 4.821609e+01
         vertex 1.000002e+01 2.472901e+00 4.687339e+01
      endloop
   endfacet
   facet normal 0.000000e+00 8.660254e-01 -5.000000e-01
      outer loop
         vertex 1.000002e+01 3.071797e+00 5.358314e+01
         vertex 2.500000e-05 3.071797e+00 5.358314e+01
         vertex 1.000002e+01 4.995314e+00 5.691477e+01
      endloop
   endfacet
   facet normal 0.000000e+00 8.660254e-01 -5.000000e-01
      outer loop
         vertex 1.000002e+01 4.995314e+00 5.691477e+01
         vertex 2.500000e-05 3.071797e+00 5.358314e+01
         vertex 2.500000e-05 4.995314e+00 5.691477e+01
      endloop
   endfacet
   facet normal 0.000000e+00 -0.000000e+00 1.000000e+00
      outer loop
         vertex 9.000250e-01 4.622481e+00 6.191477e+01
         vertex 9.000250e-01 6.175370e+00 6.191477e+01
         vertex 2.500000e-05 4.622481e+00 6.191477e+01
      endloop
   endfacet
   facet normal 0.000000e+00 0.000000e+00 1.000000e+00
      outer loop
         vertex 2.500000e-05 4.622481e+00 6.191477e+01
         vertex 9.000250e-01 6.175370e+00 6.191477e+01
         vertex 2.500000e-05 6.175370e+00 6.191477e+01
      endloop
   endfacet
   facet normal 0.000000e+00 -1.387298e-01 9.903303e-01
      outer loop
         vertex 9.000250e-01 4.622481e+00 6.191477e+01
         vertex 2.500000e-05 4.622481e+00 6.191477e+01
         vertex 2.500000e-05 4.457615e+00 6.189168e+01
      endloop
   endfacet
   facet normal 0.000000e+00 -1.387298e-01 9.903303e-01
      outer loop
         vertex 9.000250e-01 4.622481e+00 6.191477e+01
         vertex 2.500000e-05 4.457615e+00 6.189168e+01
         vertex 9.000250e-01 4.457615e+00 6.189168e+01
      endloop
   endfacet
   facet normal 0.000000e+00 -4.055097e-01 9.140907e-01
      outer loop
         vertex 9.000250e-01 4.457615e+00 6.189168e+01
         vertex 2.500000e-05 4.457615e+00 6.189168e+01
         vertex 2.500000e-05 4.305441e+00 6.182417e+01
      endloop
   endfacet
   facet normal 0.000000e+00 -4.055097e-01 9.140907e-01
      outer loop
         vertex 9.000250e-01 4.457615e+00 6.189168e+01
         vertex 2.500000e-05 4.305441e+00 6.182417e+01
         vertex 9.000250e-01 4.305441e+00 6.182417e+01
      endloop
   endfacet
   facet normal 0.000000e+00 -6.410727e-01 7.674801e-01
      outer loop
         vertex 9.000250e-01 4.305441e+00 6.182417e+01
         vertex 2.500000e-05 4.305441e+00 6.182417e+01
         vertex 2.500000e-05 4.177673e+00 6.171745e+01
      endloop
   endfacet
   facet normal 0.000000e+00 -6.410727e-01 7.674801e-01
      outer loop
         vertex 9.000250e-01 4.305441e+00 6.182417e+01
         vertex 2.500000e-05 4.177673e+00 6.171745e+01
         vertex 9.000250e-01 4.177673e+00 6.171745e+01
      endloop
   endfacet
   facet normal 0.000000e+00 -8.272820e-01 5.617869e-01
      outer loop
         vertex 9.000250e-01 4.177673e+00 6.171745e+01
         vertex 2.500000e-05 4.177673e+00 6.171745e+01
         vertex 2.500000e-05 4.084149e+00 6.157972e+01
      endloop
   endfacet
   facet normal 0.000000e+00 -8.272820e-01 5.617869e-01
      outer loop
         vertex 9.000250e-01 4.177673e+00 6.171745e+01
         vertex 2.500000e-05 4.084149e+00 6.157972e+01
         vertex 9.000250e-01 4.084149e+00 6.157972e+01
      endloop
   endfacet
   facet normal 0.000000e+00 -9.498043e-01 3.128448e-01
      outer loop
         vertex 9.000250e-01 4.084149e+00 6.157972e+01
         vertex 2.500000e-05 4.084149e+00 6.157972e+01
         vertex 2.500000e-05 4.032068e+00 6.142161e+01
      endloop
   endfacet
   facet normal 0.000000e+00 -9.498043e-01 3.128448e-01
      outer loop
         vertex 9.000250e-01 4.084149e+00 6.157972e+01
         vertex 2.500000e-05 4.032068e+00 6.142161e+01
         vertex 9.000250e-01 4.032068e+00 6.142161e+01
      endloop
   endfacet
   facet normal 0.000000e+00 9.999848e-01 5.520409e-03
      outer loop
         vertex 9.000250e-01 6.769766e+00 6.123296e+01
         vertex 2.500000e-05 6.769766e+00 6.123296e+01
         vertex 2.500000e-05 6.768827e+00 6.140314e+01
      endloop
   endfacet
   facet normal 0.000000e+00 9.999848e-01 5.520409e-03
      outer loop
         vertex 9.000250e-01 6.769766e+00 6.123296e+01
         vertex 2.500000e-05 6.768827e+00 6.140314e+01
         vertex 9.000250e-01 6.768827e+00 6.140314e+01
      endloop
   endfacet
   facet normal 0.000000e+00 9.582106e-01 2.860636e-01
      outer loop
         vertex 9.000250e-01 6.768827e+00 6.140314e+01
         vertex 2.500000e-05 6.768827e+00 6.140314e+01
         vertex 2.500000e-05 6.720144e+00 6.156621e+01
      endloop
   endfacet
   facet normal 0.000000e+00 9.582106e-01 2.860636e-01
      outer loop
         vertex 9.000250e-01 6.768827e+00 6.140314e+01
         vertex 2.500000e-05 6.720144e+00 6.156621e+01
         vertex 9.000250e-01 6.720144e+00 6.156621e+01
      endloop
   endfacet
   facet normal 0.000000e+00 8.393493e-01 5.435924e-01
      outer loop
         vertex 9.000250e-01 6.720144e+00 6.156621e+01
         vertex 2.500000e-05 6.720144e+00 6.156621e+01
         vertex 2.500000e-05 6.627635e+00 6.170905e+01
      endloop
   endfacet
   facet normal 0.000000e+00 8.393493e-01 5.435924e-01
      outer loop
         vertex 9.000250e-01 6.720144e+00 6.156621e+01
         vertex 2.500000e-05 6.627635e+00 6.170905e+01
         vertex 9.000250e-01 6.627635e+00 6.170905e+01
      endloop
   endfacet
   facet normal 0.000000e+00 6.529624e-01 7.573903e-01
      outer loop
         vertex 9.000250e-01 6.627635e+00 6.170905e+01
         vertex 2.500000e-05 6.627635e+00 6.170905e+01
         vertex 2.500000e-05 6.498741e+00 6.182018e+01
      endloop
   endfacet
   facet normal 0.000000e+00 6.529624e-01 7.573903e-01
      outer loop
         vertex 9.000250e-01 6.627635e+00 6.170905e+01
         vertex 2.500000e-05 6.498741e+00 6.182018e+01
         vertex 9.000250e-01 6.498741e+00 6.182018e+01
      endloop
   endfacet
   facet normal 0.000000e+00 4.140453e-01 9.102563e-01
      outer loop
         vertex 9.000250e-01 6.498741e+00 6.182018e+01
         vertex 2.500000e-05 6.498741e+00 6.182018e+01
         vertex 2.500000e-05 6.343832e+00 6.189064e+01
      endloop
   endfacet
   facet normal 0.000000e+00 4.140453e-01 9.102563e-01
      outer loop
         vertex 9.000250e-01 6.498741e+00 6.182018e+01
         vertex 2.500000e-05 6.343832e+00 6.189064e+01
         vertex 9.000250e-01 6.343832e+00 6.189064e+01
      endloop
   endfacet
   facet normal 0.000000e+00 1.418176e-01 9.898928e-01
      outer loop
         vertex 9.000250e-01 6.343832e+00 6.189064e+01
         vertex 2.500000e-05 6.343832e+00 6.189064e+01
         vertex 2.500000e-05 6.175370e+00 6.191477e+01
      endloop
   endfacet
   facet normal 0.000000e+00 1.418176e-01 9.898928e-01
      outer loop
         vertex 9.000250e-01 6.343832e+00 6.189064e+01
         vertex 2.500000e-05 6.175370e+00 6.191477e+01
         vertex 9.000250e-01 6.175370e+00 6.191477e+01
      endloop
   endfacet
   facet normal 0.000000e+00 9.408874e-01 3.387194e-01
      outer loop
         vertex 2.964848e+00 2.330546e+01 2.976656e+00
         vertex 5.000250e-01 2.330546e+01 2.976656e+00
         vertex 2.964848e+00 2.228930e+01 5.799320e+00
      endloop
   endfacet
   facet normal 0.000000e+00 9.408874e-01 3.387194e-01
      outer loop
         vertex 2.964848e+00 2.228930e+01 5.799320e+00
         vertex 5.000250e-01 2.330546e+01 2.976656e+00
         vertex 5.000250e-01 2.228930e+01 5.799320e+00
      endloop
   endfacet
   facet normal 1.000000e+00 0.000000e+00 -0.000000e+00
      outer loop
         vertex 3.464848e+00 2.051589e+01 1.972415e+00
         vertex 3.464848e+00 2.283501e+01 2.807297e+00
         vertex 3.464848e+00 1.949973e+01 4.795074e+00
      endloop
   endfacet
   facet normal 1.000000e+00 -0.000000e+00 0.000000e+00
      outer loop
         vertex 3.464848e+00 1.949973e+01 4.795074e+00
         vertex 3.464848e+00 2.283501e+01 2.807297e+00
         vertex 3.464848e+00 2.181885e+01 5.629960e+00
      endloop
   endfacet
   facet normal -0.000000e+00 -9.408873e-01 -3.387198e-01
      outer loop
         vertex 2.964848e+00 1.902929e+01 4.625715e+00
         vertex 5.000250e-01 1.902929e+01 4.625715e+00
         vertex 2.964848e+00 2.004545e+01 1.803055e+00
      endloop
   endfacet
   facet normal -0.000000e+00 -9.408873e-01 -3.387198e-01
      outer loop
         vertex 2.964848e+00 2.004545e+01 1.803055e+00
         vertex 5.000250e-01 1.902929e+01 4.625715e+00
         vertex 5.000250e-01 2.004545e+01 1.803055e+00
      endloop
   endfacet
   facet normal -3.943964e-06 3.387275e-01 -9.408845e-01
      outer loop
         vertex 5.000250e-01 2.004545e+01 1.803055e+00
         vertex 1.290304e+00 2.032682e+01 1.904350e+00
         vertex 1.732437e+00 2.026412e+01 1.881775e+00
      endloop
   endfacet
   facet normal 0.000000e+00 3.387078e-01 -9.408916e-01
      outer loop
         vertex 5.000250e-01 2.004545e+01 1.803055e+00
         vertex 1.732437e+00 2.026412e+01 1.881775e+00
         vertex 2.964848e+00 2.004545e+01 1.803055e+00
      endloop
   endfacet
   facet normal -1.320083e-06 3.387134e-01 -9.408896e-01
      outer loop
         vertex 5.000250e-01 2.330546e+01 2.976656e+00
         vertex 1.081611e+00 2.294702e+01 2.847619e+00
         vertex 3.706155e-01 2.328943e+01 2.970885e+00
      endloop
   endfacet
   facet normal 2.835092e-06 3.387211e-01 -9.408868e-01
      outer loop
         vertex 3.706155e-01 2.328943e+01 2.970885e+00
         vertex 1.081611e+00 2.294702e+01 2.847619e+00
         vertex 7.121775e-01 2.271003e+01 2.762303e+00
      endloop
   endfacet
   facet normal 5.634193e-06 3.387225e-01 -9.408863e-01
      outer loop
         vertex 3.706155e-01 2.328943e+01 2.970885e+00
         vertex 7.121775e-01 2.271003e+01 2.762303e+00
         vertex 2.500250e-01 2.324243e+01 2.953965e+00
      endloop
   endfacet
   facet normal -9.665743e-07 3.387191e-01 -9.408876e-01
      outer loop
         vertex 4.333985e-01 2.238112e+01 2.643894e+00
         vertex 2.500000e-05 2.283501e+01 2.807297e+00
         vertex 7.121775e-01 2.271003e+01 2.762303e+00
      endloop
   endfacet
   facet normal 1.107665e-06 3.387295e-01 -9.408838e-01
      outer loop
         vertex 7.121775e-01 2.271003e+01 2.762303e+00
         vertex 2.500000e-05 2.283501e+01 2.807297e+00
         vertex 1.706209e-02 2.295677e+01 2.851132e+00
      endloop
   endfacet
   facet normal -7.460916e-06 3.387082e-01 -9.408915e-01
      outer loop
         vertex 1.706209e-02 2.295677e+01 2.851132e+00
         vertex 6.701230e-02 2.307023e+01 2.891976e+00
         vertex 7.121775e-01 2.271003e+01 2.762303e+00
      endloop
   endfacet
   facet normal 7.504641e-06 3.387319e-01 -9.408829e-01
      outer loop
         vertex 7.121775e-01 2.271003e+01 2.762303e+00
         vertex 6.701230e-02 2.307023e+01 2.891976e+00
         vertex 1.464716e-01 2.316767e+01 2.927054e+00
      endloop
   endfacet
   facet normal -1.683564e-05 3.387052e-01 -9.408925e-01
      outer loop
         vertex 7.121775e-01 2.271003e+01 2.762303e+00
         vertex 1.464716e-01 2.316767e+01 2.927054e+00
         vertex 2.500250e-01 2.324243e+01 2.953965e+00
      endloop
   endfacet
   facet normal 8.420705e-06 3.387286e-01 -9.408841e-01
      outer loop
         vertex 3.464848e+00 2.051589e+01 1.972415e+00
         vertex 3.447811e+00 2.039413e+01 1.928579e+00
         vertex 2.905184e+00 2.079550e+01 2.073072e+00
      endloop
   endfacet
   facet normal -8.378703e-06 3.387085e-01 -9.408914e-01
      outer loop
         vertex 2.905184e+00 2.079550e+01 2.073072e+00
         vertex 3.447811e+00 2.039413e+01 1.928579e+00
         vertex 3.397861e+00 2.028067e+01 1.887735e+00
      endloop
   endfacet
   facet normal 1.017065e-05 3.387242e-01 -9.408857e-01
      outer loop
         vertex 2.905184e+00 2.079550e+01 2.073072e+00
         vertex 3.397861e+00 2.028067e+01 1.887735e+00
         vertex 3.318402e+00 2.018324e+01 1.852658e+00
      endloop
   endfacet
   facet normal 3.943963e-06 3.387275e-01 -9.408845e-01
      outer loop
         vertex 1.732437e+00 2.026412e+01 1.881775e+00
         vertex 2.174569e+00 2.032682e+01 1.904350e+00
         vertex 2.964848e+00 2.004545e+01 1.803055e+00
      endloop
   endfacet
   facet normal -1.363741e-06 3.387143e-01 -9.408893e-01
      outer loop
         vertex 2.964848e+00 2.004545e+01 1.803055e+00
         vertex 2.174569e+00 2.032682e+01 1.904350e+00
         vertex 2.577417e+00 2.050936e+01 1.970060e+00
      endloop
   endfacet
   facet normal -1.437817e-06 3.387143e-01 -9.408893e-01
      outer loop
         vertex 2.964848e+00 2.004545e+01 1.803055e+00
         vertex 2.577417e+00 2.050936e+01 1.970060e+00
         vertex 3.094258e+00 2.006148e+01 1.808826e+00
      endloop
   endfacet
   facet normal 1.092059e-06 3.387168e-01 -9.408884e-01
      outer loop
         vertex 3.094258e+00 2.006148e+01 1.808826e+00
         vertex 2.577417e+00 2.050936e+01 1.970060e+00
         vertex 2.905184e+00 2.079550e+01 2.073072e+00
      endloop
   endfacet
   facet normal -1.892479e-05 3.387123e-01 -9.408900e-01
      outer loop
         vertex 3.094258e+00 2.006148e+01 1.808826e+00
         vertex 2.905184e+00 2.079550e+01 2.073072e+00
         vertex 3.214848e+00 2.010848e+01 1.825742e+00
      endloop
   endfacet
   facet normal 8.460530e-06 3.387232e-01 -9.408861e-01
      outer loop
         vertex 3.214848e+00 2.010848e+01 1.825742e+00
         vertex 2.905184e+00 2.079550e+01 2.073072e+00
         vertex 3.318402e+00 2.018324e+01 1.852658e+00
      endloop
   endfacet
   facet normal 2.492539e-06 3.387181e-01 -9.408879e-01
      outer loop
         vertex 2.905184e+00 2.079550e+01 2.073072e+00
         vertex 3.128747e+00 2.115983e+01 2.204232e+00
         vertex 3.464848e+00 2.051589e+01 1.972415e+00
      endloop
   endfacet
   facet normal 9.738339e-06 3.387215e-01 -9.408867e-01
      outer loop
         vertex 3.464848e+00 2.051589e+01 1.972415e+00
         vertex 3.128747e+00 2.115983e+01 2.204232e+00
         vertex 3.228242e+00 2.156998e+01 2.351888e+00
      endloop
   endfacet
   facet normal -1.912271e-06 3.387191e-01 -9.408875e-01
      outer loop
         vertex 3.464848e+00 2.051589e+01 1.972415e+00
         vertex 3.228242e+00 2.156998e+01 2.351888e+00
         vertex 3.464848e+00 2.283501e+01 2.807297e+00
      endloop
   endfacet
   facet normal -3.427914e-06 3.387202e-01 -9.408871e-01
      outer loop
         vertex 2.752696e+00 2.271003e+01 2.762303e+00
         vertex 2.383262e+00 2.294702e+01 2.847619e+00
         vertex 2.964848e+00 2.330546e+01 2.976656e+00
      endloop
   endfacet
   facet normal 8.585697e-07 3.387141e-01 -9.408894e-01
      outer loop
         vertex 2.383262e+00 2.294702e+01 2.847619e+00
         vertex 1.956000e+00 2.307102e+01 2.892260e+00
         vertex 2.964848e+00 2.330546e+01 2.976656e+00
      endloop
   endfacet
   facet normal 3.960295e-06 3.387023e-01 -9.408936e-01
      outer loop
         vertex 2.964848e+00 2.330546e+01 2.976656e+00
         vertex 1.956000e+00 2.307102e+01 2.892260e+00
         vertex 1.732437e+00 2.308678e+01 2.897933e+00
      endloop
   endfacet
   facet normal 0.000000e+00 3.387220e-01 -9.408865e-01
      outer loop
         vertex 2.964848e+00 2.330546e+01 2.976656e+00
         vertex 1.732437e+00 2.308678e+01 2.897933e+00
         vertex 5.000250e-01 2.330546e+01 2.976656e+00
      endloop
   endfacet
   facet normal -3.960297e-06 3.387023e-01 -9.408936e-01
      outer loop
         vertex 5.000250e-01 2.330546e+01 2.976656e+00
         vertex 1.732437e+00 2.308678e+01 2.897933e+00
         vertex 1.508873e+00 2.307102e+01 2.892260e+00
      endloop
   endfacet
   facet normal -8.585697e-07 3.387141e-01 -9.408894e-01
      outer loop
         vertex 5.000250e-01 2.330546e+01 2.976656e+00
         vertex 1.508873e+00 2.307102e+01 2.892260e+00
         vertex 1.081611e+00 2.294702e+01 2.847619e+00
      endloop
   endfacet
   facet normal 1.363741e-06 3.387143e-01 -9.408893e-01
      outer loop
         vertex 1.290304e+00 2.032682e+01 1.904350e+00
         vertex 5.000250e-01 2.004545e+01 1.803055e+00
         vertex 8.874566e-01 2.050936e+01 1.970060e+00
      endloop
   endfacet
   facet normal 1.437816e-06 3.387143e-01 -9.408893e-01
      outer loop
         vertex 8.874566e-01 2.050936e+01 1.970060e+00
         vertex 5.000250e-01 2.004545e+01 1.803055e+00
         vertex 3.706155e-01 2.006148e+01 1.808826e+00
      endloop
   endfacet
   facet normal 1.410128e-05 3.387013e-01 -9.408939e-01
      outer loop
         vertex 8.874566e-01 2.050936e+01 1.970060e+00
         vertex 3.706155e-01 2.006148e+01 1.808826e+00
         vertex 2.500250e-01 2.010848e+01 1.825742e+00
      endloop
   endfacet
   facet normal -2.164439e-06 3.387180e-01 -9.408879e-01
      outer loop
         vertex 4.333985e-01 2.238112e+01 2.643894e+00
         vertex 2.700448e-01 2.198950e+01 2.502915e+00
         vertex 2.500000e-05 2.283501e+01 2.807297e+00
      endloop
   endfacet
   facet normal 1.448142e-06 3.387191e-01 -9.408876e-01
      outer loop
         vertex 2.500000e-05 2.283501e+01 2.807297e+00
         vertex 2.700448e-01 2.198950e+01 2.502915e+00
         vertex 2.366309e-01 2.156998e+01 2.351888e+00
      endloop
   endfacet
   facet normal 1.912269e-06 3.387191e-01 -9.408875e-01
      outer loop
         vertex 2.500000e-05 2.283501e+01 2.807297e+00
         vertex 2.366309e-01 2.156998e+01 2.351888e+00
         vertex 2.500000e-05 2.051589e+01 1.972415e+00
      endloop
   endfacet
   facet normal -9.738335e-06 3.387215e-01 -9.408867e-01
      outer loop
         vertex 2.500000e-05 2.051589e+01 1.972415e+00
         vertex 2.366309e-01 2.156998e+01 2.351888e+00
         vertex 3.361260e-01 2.115983e+01 2.204232e+00
      endloop
   endfacet
   facet normal -2.167362e-05 3.387270e-01 -9.408847e-01
      outer loop
         vertex 2.500000e-05 2.051589e+01 1.972415e+00
         vertex 3.361260e-01 2.115983e+01 2.204232e+00
         vertex 1.706209e-02 2.039413e+01 1.928579e+00
      endloop
   endfacet
   facet normal -5.331477e-07 3.387192e-01 -9.408875e-01
      outer loop
         vertex 1.706209e-02 2.039413e+01 1.928579e+00
         vertex 3.361260e-01 2.115983e+01 2.204232e+00
         vertex 5.596894e-01 2.079550e+01 2.073072e+00
      endloop
   endfacet
   facet normal 8.378709e-06 3.387085e-01 -9.408914e-01
      outer loop
         vertex 1.706209e-02 2.039413e+01 1.928579e+00
         vertex 5.596894e-01 2.079550e+01 2.073072e+00
         vertex 6.701230e-02 2.028067e+01 1.887735e+00
      endloop
   endfacet
   facet normal -1.256812e-06 3.387167e-01 -9.408884e-01
      outer loop
         vertex 6.701230e-02 2.028067e+01 1.887735e+00
         vertex 5.596894e-01 2.079550e+01 2.073072e+00
         vertex 8.874566e-01 2.050936e+01 1.970060e+00
      endloop
   endfacet
   facet normal -4.845066e-06 3.387281e-01 -9.408843e-01
      outer loop
         vertex 6.701230e-02 2.028067e+01 1.887735e+00
         vertex 8.874566e-01 2.050936e+01 1.970060e+00
         vertex 1.464716e-01 2.018324e+01 1.852658e+00
      endloop
   endfacet
   facet normal -4.711233e-06 3.387278e-01 -9.408844e-01
      outer loop
         vertex 1.464716e-01 2.018324e+01 1.852658e+00
         vertex 8.874566e-01 2.050936e+01 1.970060e+00
         vertex 2.500250e-01 2.010848e+01 1.825742e+00
      endloop
   endfacet
   facet normal 2.033325e-06 3.387185e-01 -9.408878e-01
      outer loop
         vertex 2.964848e+00 2.330546e+01 2.976656e+00
         vertex 3.094258e+00 2.328943e+01 2.970885e+00
         vertex 2.752696e+00 2.271003e+01 2.762303e+00
      endloop
   endfacet
   facet normal -5.634186e-06 3.387225e-01 -9.408863e-01
      outer loop
         vertex 2.752696e+00 2.271003e+01 2.762303e+00
         vertex 3.094258e+00 2.328943e+01 2.970885e+00
         vertex 3.214848e+00 2.324243e+01 2.953965e+00
      endloop
   endfacet
   facet normal 1.683565e-05 3.387052e-01 -9.408925e-01
      outer loop
         vertex 2.752696e+00 2.271003e+01 2.762303e+00
         vertex 3.214848e+00 2.324243e+01 2.953965e+00
         vertex 3.318402e+00 2.316767e+01 2.927054e+00
      endloop
   endfacet
   facet normal -1.448141e-06 3.387191e-01 -9.408876e-01
      outer loop
         vertex 3.228242e+00 2.156998e+01 2.351888e+00
         vertex 3.194828e+00 2.198950e+01 2.502915e+00
         vertex 3.464848e+00 2.283501e+01 2.807297e+00
      endloop
   endfacet
   facet normal 2.164439e-06 3.387180e-01 -9.408879e-01
      outer loop
         vertex 3.464848e+00 2.283501e+01 2.807297e+00
         vertex 3.194828e+00 2.198950e+01 2.502915e+00
         vertex 3.031475e+00 2.238112e+01 2.643894e+00
      endloop
   endfacet
   facet normal -1.009514e-05 3.387284e-01 -9.408842e-01
      outer loop
         vertex 3.464848e+00 2.283501e+01 2.807297e+00
         vertex 3.031475e+00 2.238112e+01 2.643894e+00
         vertex 3.447811e+00 2.295677e+01 2.851132e+00
      endloop
   endfacet
   facet normal 2.597158e-06 3.387203e-01 -9.408871e-01
      outer loop
         vertex 3.447811e+00 2.295677e+01 2.851132e+00
         vertex 3.031475e+00 2.238112e+01 2.643894e+00
         vertex 2.752696e+00 2.271003e+01 2.762303e+00
      endloop
   endfacet
   facet normal 7.460914e-06 3.387082e-01 -9.408915e-01
      outer loop
         vertex 3.447811e+00 2.295677e+01 2.851132e+00
         vertex 2.752696e+00 2.271003e+01 2.762303e+00
         vertex 3.397861e+00 2.307023e+01 2.891976e+00
      endloop
   endfacet
   facet normal -7.504643e-06 3.387319e-01 -9.408829e-01
      outer loop
         vertex 3.397861e+00 2.307023e+01 2.891976e+00
         vertex 2.752696e+00 2.271003e+01 2.762303e+00
         vertex 3.318402e+00 2.316767e+01 2.927054e+00
      endloop
   endfacet
   facet normal -7.472896e-02 9.382566e-01 3.377722e-01
      outer loop
         vertex 1.508873e+00 2.307102e+01 2.892260e+00
         vertex 1.732437e+00 2.308678e+01 2.897933e+00
         vertex 1.732437e+00 2.376422e+01 1.016159e+00
      endloop
   endfacet
   facet normal 7.472892e-02 9.382566e-01 3.377722e-01
      outer loop
         vertex 1.732437e+00 2.376422e+01 1.016159e+00
         vertex 1.732437e+00 2.308678e+01 2.897933e+00
         vertex 1.956000e+00 2.374846e+01 1.010485e+00
      endloop
   endfacet
   facet normal -7.472896e-02 9.382566e-01 3.377722e-01
      outer loop
         vertex 1.732437e+00 2.376422e+01 1.016159e+00
         vertex 1.508873e+00 2.374846e+01 1.010485e+00
         vertex 1.508873e+00 2.307102e+01 2.892260e+00
      endloop
   endfacet
   facet normal -2.947539e-01 8.990869e-01 3.236711e-01
      outer loop
         vertex 1.508873e+00 2.307102e+01 2.892260e+00
         vertex 1.508873e+00 2.374846e+01 1.010485e+00
         vertex 1.081611e+00 2.362446e+01 9.658448e-01
      endloop
   endfacet
   facet normal -2.947575e-01 8.990855e-01 3.236715e-01
      outer loop
         vertex 1.508873e+00 2.307102e+01 2.892260e+00
         vertex 1.081611e+00 2.362446e+01 9.658448e-01
         vertex 1.081611e+00 2.294702e+01 2.847619e+00
      endloop
   endfacet
   facet normal -5.633231e-01 7.773955e-01 2.798630e-01
      outer loop
         vertex 1.081611e+00 2.294702e+01 2.847619e+00
         vertex 1.081611e+00 2.362446e+01 9.658448e-01
         vertex 7.121775e-01 2.338747e+01 8.805282e-01
      endloop
   endfacet
   facet normal -5.633204e-01 7.773975e-01 2.798629e-01
      outer loop
         vertex 1.081611e+00 2.294702e+01 2.847619e+00
         vertex 7.121775e-01 2.338747e+01 8.805282e-01
         vertex 7.121775e-01 2.271003e+01 2.762303e+00
      endloop
   endfacet
   facet normal -7.818313e-01 5.866339e-01 2.111881e-01
      outer loop
         vertex 7.121775e-01 2.271003e+01 2.762303e+00
         vertex 7.121775e-01 2.338747e+01 8.805282e-01
         vertex 4.333985e-01 2.305856e+01 7.621199e-01
      endloop
   endfacet
   facet normal -7.818313e-01 5.866339e-01 2.111881e-01
      outer loop
         vertex 7.121775e-01 2.271003e+01 2.762303e+00
         vertex 4.333985e-01 2.305856e+01 7.621199e-01
         vertex 4.333985e-01 2.238112e+01 2.643894e+00
      endloop
   endfacet
   facet normal -9.308733e-01 3.437459e-01 1.237485e-01
      outer loop
         vertex 4.333985e-01 2.238112e+01 2.643894e+00
         vertex 4.333985e-01 2.305856e+01 7.621199e-01
         vertex 2.700448e-01 2.266694e+01 6.211400e-01
      endloop
   endfacet
   facet normal -9.308733e-01 3.437459e-01 1.237485e-01
      outer loop
         vertex 4.333985e-01 2.238112e+01 2.643894e+00
         vertex 2.700448e-01 2.266694e+01 6.211400e-01
         vertex 2.700448e-01 2.198950e+01 2.502915e+00
      endloop
   endfacet
   facet normal -9.972038e-01 7.031259e-02 2.531252e-02
      outer loop
         vertex 2.700448e-01 2.198950e+01 2.502915e+00
         vertex 2.700448e-01 2.266694e+01 6.211400e-01
         vertex 2.366309e-01 2.224742e+01 4.701130e-01
      endloop
   endfacet
   facet normal -9.972038e-01 7.031259e-02 2.531252e-02
      outer loop
         vertex 2.700448e-01 2.198950e+01 2.502915e+00
         vertex 2.366309e-01 2.224742e+01 4.701130e-01
         vertex 2.366309e-01 2.156998e+01 2.351888e+00
      endloop
   endfacet
   facet normal -9.749281e-01 -2.093665e-01 -7.537191e-02
      outer loop
         vertex 2.366309e-01 2.156998e+01 2.351888e+00
         vertex 2.366309e-01 2.224742e+01 4.701130e-01
         vertex 3.361260e-01 2.183727e+01 3.224574e-01
      endloop
   endfacet
   facet normal -9.749281e-01 -2.093665e-01 -7.537191e-02
      outer loop
         vertex 2.366309e-01 2.156998e+01 2.351888e+00
         vertex 3.361260e-01 2.183727e+01 3.224574e-01
         vertex 3.361260e-01 2.115983e+01 2.204232e+00
      endloop
   endfacet
   facet normal -8.660254e-01 -4.704438e-01 -1.693597e-01
      outer loop
         vertex 3.361260e-01 2.115983e+01 2.204232e+00
         vertex 3.361260e-01 2.183727e+01 3.224574e-01
         vertex 5.596894e-01 2.147294e+01 1.912974e-01
      endloop
   endfacet
   facet normal -8.660254e-01 -4.704438e-01 -1.693597e-01
      outer loop
         vertex 3.361260e-01 2.115983e+01 2.204232e+00
         vertex 5.596894e-01 2.147294e+01 1.912974e-01
         vertex 5.596894e-01 2.079550e+01 2.073072e+00
      endloop
   endfacet
   facet normal -6.801715e-01 -6.897204e-01 -2.482992e-01
      outer loop
         vertex 5.596894e-01 2.079550e+01 2.073072e+00
         vertex 5.596894e-01 2.147294e+01 1.912974e-01
         vertex 8.874566e-01 2.118679e+01 8.828565e-02
      endloop
   endfacet
   facet normal -6.801715e-01 -6.897204e-01 -2.482992e-01
      outer loop
         vertex 5.596894e-01 2.079550e+01 2.073072e+00
         vertex 8.874566e-01 2.118679e+01 8.828565e-02
         vertex 8.874566e-01 2.050936e+01 1.970060e+00
      endloop
   endfacet
   facet normal -4.338837e-01 -8.477104e-01 -3.051756e-01
      outer loop
         vertex 8.874566e-01 2.050936e+01 1.970060e+00
         vertex 8.874566e-01 2.118679e+01 8.828565e-02
         vertex 1.290304e+00 2.100426e+01 2.257526e-02
      endloop
   endfacet
   facet normal -4.338837e-01 -8.477104e-01 -3.051756e-01
      outer loop
         vertex 8.874566e-01 2.050936e+01 1.970060e+00
         vertex 1.290304e+00 2.100426e+01 2.257526e-02
         vertex 1.290304e+00 2.032682e+01 1.904350e+00
      endloop
   endfacet
   facet normal -1.490420e-01 -9.303786e-01 -3.349361e-01
      outer loop
         vertex 1.290304e+00 2.032682e+01 1.904350e+00
         vertex 1.290304e+00 2.100426e+01 2.257526e-02
         vertex 1.732437e+00 2.094156e+01 0.000000e+00
      endloop
   endfacet
   facet normal -1.490458e-01 -9.303777e-01 -3.349367e-01
      outer loop
         vertex 1.290304e+00 2.032682e+01 1.904350e+00
         vertex 1.732437e+00 2.094156e+01 0.000000e+00
         vertex 1.732437e+00 2.026412e+01 1.881775e+00
      endloop
   endfacet
   facet normal 1.490420e-01 -9.303783e-01 -3.349369e-01
      outer loop
         vertex 1.732437e+00 2.026412e+01 1.881775e+00
         vertex 1.732437e+00 2.094156e+01 0.000000e+00
         vertex 2.174569e+00 2.100426e+01 2.257526e-02
      endloop
   endfacet
   facet normal 1.490458e-01 -9.303780e-01 -3.349359e-01
      outer loop
         vertex 1.732437e+00 2.026412e+01 1.881775e+00
         vertex 2.174569e+00 2.100426e+01 2.257526e-02
         vertex 2.174569e+00 2.032682e+01 1.904350e+00
      endloop
   endfacet
   facet normal 4.338837e-01 -8.477104e-01 -3.051756e-01
      outer loop
         vertex 2.174569e+00 2.032682e+01 1.904350e+00
         vertex 2.174569e+00 2.100426e+01 2.257526e-02
         vertex 2.577417e+00 2.118679e+01 8.828565e-02
      endloop
   endfacet
   facet normal 4.338837e-01 -8.477104e-01 -3.051756e-01
      outer loop
         vertex 2.174569e+00 2.032682e+01 1.904350e+00
         vertex 2.577417e+00 2.118679e+01 8.828565e-02
         vertex 2.577417e+00 2.050936e+01 1.970060e+00
      endloop
   endfacet
   facet normal 6.801715e-01 -6.897204e-01 -2.482992e-01
      outer loop
         vertex 2.577417e+00 2.050936e+01 1.970060e+00
         vertex 2.577417e+00 2.118679e+01 8.828565e-02
         vertex 2.905184e+00 2.147294e+01 1.912974e-01
      endloop
   endfacet
   facet normal 6.801715e-01 -6.897204e-01 -2.482992e-01
      outer loop
         vertex 2.577417e+00 2.050936e+01 1.970060e+00
         vertex 2.905184e+00 2.147294e+01 1.912974e-01
         vertex 2.905184e+00 2.079550e+01 2.073072e+00
      endloop
   endfacet
   facet normal 8.660253e-01 -4.704439e-01 -1.693597e-01
      outer loop
         vertex 2.905184e+00 2.079550e+01 2.073072e+00
         vertex 2.905184e+00 2.147294e+01 1.912974e-01
         vertex 3.128747e+00 2.183727e+01 3.224574e-01
      endloop
   endfacet
   facet normal 8.660253e-01 -4.704439e-01 -1.693597e-01
      outer loop
         vertex 2.905184e+00 2.079550e+01 2.073072e+00
         vertex 3.128747e+00 2.183727e+01 3.224574e-01
         vertex 3.128747e+00 2.115983e+01 2.204232e+00
      endloop
   endfacet
   facet normal 9.749281e-01 -2.093665e-01 -7.537190e-02
      outer loop
         vertex 3.128747e+00 2.115983e+01 2.204232e+00
         vertex 3.128747e+00 2.183727e+01 3.224574e-01
         vertex 3.228242e+00 2.224742e+01 4.701130e-01
      endloop
   endfacet
   facet normal 9.749281e-01 -2.093665e-01 -7.537190e-02
      outer loop
         vertex 3.128747e+00 2.115983e+01 2.204232e+00
         vertex 3.228242e+00 2.224742e+01 4.701130e-01
         vertex 3.228242e+00 2.156998e+01 2.351888e+00
      endloop
   endfacet
   facet normal 9.972038e-01 7.031292e-02 2.531264e-02
      outer loop
         vertex 3.228242e+00 2.156998e+01 2.351888e+00
         vertex 3.228242e+00 2.224742e+01 4.701130e-01
         vertex 3.194828e+00 2.266694e+01 6.211400e-01
      endloop
   endfacet
   facet normal 9.972038e-01 7.031292e-02 2.531264e-02
      outer loop
         vertex 3.228242e+00 2.156998e+01 2.351888e+00
         vertex 3.194828e+00 2.266694e+01 6.211400e-01
         vertex 3.194828e+00 2.198950e+01 2.502915e+00
      endloop
   endfacet
   facet normal 9.308733e-01 3.437459e-01 1.237485e-01
      outer loop
         vertex 3.194828e+00 2.198950e+01 2.502915e+00
         vertex 3.194828e+00 2.266694e+01 6.211400e-01
         vertex 3.031475e+00 2.305856e+01 7.621199e-01
      endloop
   endfacet
   facet normal 9.308733e-01 3.437459e-01 1.237485e-01
      outer loop
         vertex 3.194828e+00 2.198950e+01 2.502915e+00
         vertex 3.031475e+00 2.305856e+01 7.621199e-01
         vertex 3.031475e+00 2.238112e+01 2.643894e+00
      endloop
   endfacet
   facet normal 7.818315e-01 5.866337e-01 2.111880e-01
      outer loop
         vertex 3.031475e+00 2.238112e+01 2.643894e+00
         vertex 3.031475e+00 2.305856e+01 7.621199e-01
         vertex 2.752696e+00 2.338747e+01 8.805282e-01
      endloop
   endfacet
   facet normal 7.818315e-01 5.866337e-01 2.111880e-01
      outer loop
         vertex 3.031475e+00 2.238112e+01 2.643894e+00
         vertex 2.752696e+00 2.338747e+01 8.805282e-01
         vertex 2.752696e+00 2.271003e+01 2.762303e+00
      endloop
   endfacet
   facet normal 5.633230e-01 7.773958e-01 2.798623e-01
      outer loop
         vertex 2.752696e+00 2.271003e+01 2.762303e+00
         vertex 2.752696e+00 2.338747e+01 8.805282e-01
         vertex 2.383262e+00 2.362446e+01 9.658448e-01
      endloop
   endfacet
   facet normal 5.633204e-01 7.773973e-01 2.798636e-01
      outer loop
         vertex 2.752696e+00 2.271003e+01 2.762303e+00
         vertex 2.383262e+00 2.362446e+01 9.658448e-01
         vertex 2.383262e+00 2.294702e+01 2.847619e+00
      endloop
   endfacet
   facet normal 2.947539e-01 8.990866e-01 3.236719e-01
      outer loop
         vertex 2.383262e+00 2.294702e+01 2.847619e+00
         vertex 2.383262e+00 2.362446e+01 9.658448e-01
         vertex 1.956000e+00 2.374846e+01 1.010485e+00
      endloop
   endfacet
   facet normal 2.947575e-01 8.990858e-01 3.236707e-01
      outer loop
         vertex 2.383262e+00 2.294702e+01 2.847619e+00
         vertex 1.956000e+00 2.374846e+01 1.010485e+00
         vertex 1.956000e+00 2.307102e+01 2.892260e+00
      endloop
   endfacet
   facet normal 7.472892e-02 9.382566e-01 3.377722e-01
      outer loop
         vertex 1.956000e+00 2.307102e+01 2.892260e+00
         vertex 1.956000e+00 2.374846e+01 1.010485e+00
         vertex 1.732437e+00 2.308678e+01 2.897933e+00
      endloop
   endfacet
   facet normal 5.236036e-06 3.387183e-01 -9.408878e-01
      outer loop
         vertex 1.732437e+00 2.376422e+01 1.016159e+00
         vertex 1.956000e+00 2.374846e+01 1.010485e+00
         vertex 1.732437e+00 2.235289e+01 5.080812e-01
      endloop
   endfacet
   facet normal 1.794087e-06 3.387201e-01 -9.408872e-01
      outer loop
         vertex 7.121775e-01 2.338747e+01 8.805282e-01
         vertex 1.081611e+00 2.362446e+01 9.658448e-01
         vertex 1.732437e+00 2.235289e+01 5.080812e-01
      endloop
   endfacet
   facet normal -9.581693e-07 3.387189e-01 -9.408876e-01
      outer loop
         vertex 1.732437e+00 2.235289e+01 5.080812e-01
         vertex 1.081611e+00 2.362446e+01 9.658448e-01
         vertex 1.508873e+00 2.374846e+01 1.010485e+00
      endloop
   endfacet
   facet normal -5.236039e-06 3.387183e-01 -9.408878e-01
      outer loop
         vertex 1.732437e+00 2.235289e+01 5.080812e-01
         vertex 1.508873e+00 2.374846e+01 1.010485e+00
         vertex 1.732437e+00 2.376422e+01 1.016159e+00
      endloop
   endfacet
   facet normal -3.062135e-07 3.387192e-01 -9.408875e-01
      outer loop
         vertex 2.366309e-01 2.224742e+01 4.701130e-01
         vertex 2.700448e-01 2.266694e+01 6.211400e-01
         vertex 1.732437e+00 2.235289e+01 5.080812e-01
      endloop
   endfacet
   facet normal -7.139184e-07 3.387175e-01 -9.408881e-01
      outer loop
         vertex 1.732437e+00 2.235289e+01 5.080812e-01
         vertex 2.700448e-01 2.266694e+01 6.211400e-01
         vertex 4.333985e-01 2.305856e+01 7.621199e-01
      endloop
   endfacet
   facet normal -1.430993e-07 3.387184e-01 -9.408878e-01
      outer loop
         vertex 1.732437e+00 2.235289e+01 5.080812e-01
         vertex 4.333985e-01 2.305856e+01 7.621199e-01
         vertex 7.121775e-01 2.338747e+01 8.805282e-01
      endloop
   endfacet
   facet normal 1.334925e-06 3.387193e-01 -9.408875e-01
      outer loop
         vertex 8.874566e-01 2.118679e+01 8.828565e-02
         vertex 5.596894e-01 2.147294e+01 1.912974e-01
         vertex 1.732437e+00 2.235289e+01 5.080812e-01
      endloop
   endfacet
   facet normal 8.186062e-07 3.387199e-01 -9.408873e-01
      outer loop
         vertex 1.732437e+00 2.235289e+01 5.080812e-01
         vertex 5.596894e-01 2.147294e+01 1.912974e-01
         vertex 3.361260e-01 2.183727e+01 3.224574e-01
      endloop
   endfacet
   facet normal -6.424535e-07 3.387234e-01 -9.408860e-01
      outer loop
         vertex 1.732437e+00 2.235289e+01 5.080812e-01
         vertex 3.361260e-01 2.183727e+01 3.224574e-01
         vertex 2.366309e-01 2.224742e+01 4.701130e-01
      endloop
   endfacet
   facet normal 6.433825e-06 3.387209e-01 -9.408869e-01
      outer loop
         vertex 2.174569e+00 2.100426e+01 2.257526e-02
         vertex 1.732437e+00 2.094156e+01 0.000000e+00
         vertex 1.732437e+00 2.235289e+01 5.080812e-01
      endloop
   endfacet
   facet normal -6.433826e-06 3.387209e-01 -9.408869e-01
      outer loop
         vertex 1.732437e+00 2.235289e+01 5.080812e-01
         vertex 1.732437e+00 2.094156e+01 0.000000e+00
         vertex 1.290304e+00 2.100426e+01 2.257526e-02
      endloop
   endfacet
   facet normal 3.279647e-06 3.387181e-01 -9.408879e-01
      outer loop
         vertex 1.732437e+00 2.235289e+01 5.080812e-01
         vertex 1.290304e+00 2.100426e+01 2.257526e-02
         vertex 8.874566e-01 2.118679e+01 8.828565e-02
      endloop
   endfacet
   facet normal -8.186061e-07 3.387199e-01 -9.408873e-01
      outer loop
         vertex 3.128747e+00 2.183727e+01 3.224574e-01
         vertex 2.905184e+00 2.147294e+01 1.912974e-01
         vertex 1.732437e+00 2.235289e+01 5.080812e-01
      endloop
   endfacet
   facet normal -1.334925e-06 3.387193e-01 -9.408875e-01
      outer loop
         vertex 1.732437e+00 2.235289e+01 5.080812e-01
         vertex 2.905184e+00 2.147294e+01 1.912974e-01
         vertex 2.577417e+00 2.118679e+01 8.828565e-02
      endloop
   endfacet
   facet normal -3.279647e-06 3.387181e-01 -9.408879e-01
      outer loop
         vertex 1.732437e+00 2.235289e+01 5.080812e-01
         vertex 2.577417e+00 2.118679e+01 8.828565e-02
         vertex 2.174569e+00 2.100426e+01 2.257526e-02
      endloop
   endfacet
   facet normal 7.139184e-07 3.387175e-01 -9.408881e-01
      outer loop
         vertex 3.031475e+00 2.305856e+01 7.621199e-01
         vertex 3.194828e+00 2.266694e+01 6.211400e-01
         vertex 1.732437e+00 2.235289e+01 5.080812e-01
      endloop
   endfacet
   facet normal 3.062135e-07 3.387192e-01 -9.408875e-01
      outer loop
         vertex 1.732437e+00 2.235289e+01 5.080812e-01
         vertex 3.194828e+00 2.266694e+01 6.211400e-01
         vertex 3.228242e+00 2.224742e+01 4.701130e-01
      endloop
   endfacet
   facet normal 6.424534e-07 3.387234e-01 -9.408860e-01
      outer loop
         vertex 1.732437e+00 2.235289e+01 5.080812e-01
         vertex 3.228242e+00 2.224742e+01 4.701130e-01
         vertex 3.128747e+00 2.183727e+01 3.224574e-01
      endloop
   endfacet
   facet normal 9.581693e-07 3.387189e-01 -9.408876e-01
      outer loop
         vertex 1.956000e+00 2.374846e+01 1.010485e+00
         vertex 2.383262e+00 2.362446e+01 9.658448e-01
         vertex 1.732437e+00 2.235289e+01 5.080812e-01
      endloop
   endfacet
   facet normal -1.794087e-06 3.387201e-01 -9.408872e-01
      outer loop
         vertex 1.732437e+00 2.235289e+01 5.080812e-01
         vertex 2.383262e+00 2.362446e+01 9.658448e-01
         vertex 2.752696e+00 2.338747e+01 8.805282e-01
      endloop
   endfacet
   facet normal 1.430993e-07 3.387184e-01 -9.408878e-01
      outer loop
         vertex 1.732437e+00 2.235289e+01 5.080812e-01
         vertex 2.752696e+00 2.338747e+01 8.805282e-01
         vertex 3.031475e+00 2.305856e+01 7.621199e-01
      endloop
   endfacet
   facet normal 9.914450e-01 -1.228094e-01 -4.421144e-02
      outer loop
         vertex 3.464848e+00 2.051589e+01 1.972415e+00
         vertex 3.464848e+00 1.949973e+01 4.795074e+00
         vertex 3.447811e+00 1.937797e+01 4.751243e+00
      endloop
   endfacet
   facet normal 9.914453e-01 -1.228075e-01 -4.421064e-02
      outer loop
         vertex 3.464848e+00 2.051589e+01 1.972415e+00
         vertex 3.447811e+00 1.937797e+01 4.751243e+00
         vertex 3.447811e+00 2.039413e+01 1.928579e+00
      endloop
   endfacet
   facet normal 9.238798e-01 -3.600614e-01 -1.296219e-01
      outer loop
         vertex 3.447811e+00 2.039413e+01 1.928579e+00
         vertex 3.447811e+00 1.937797e+01 4.751243e+00
         vertex 3.397861e+00 1.926451e+01 4.710395e+00
      endloop
   endfacet
   facet normal 9.238774e-01 -3.600668e-01 -1.296242e-01
      outer loop
         vertex 3.447811e+00 2.039413e+01 1.928579e+00
         vertex 3.397861e+00 1.926451e+01 4.710395e+00
         vertex 3.397861e+00 2.028067e+01 1.887735e+00
      endloop
   endfacet
   facet normal 7.933518e-01 -5.727777e-01 -2.062002e-01
      outer loop
         vertex 3.397861e+00 2.028067e+01 1.887735e+00
         vertex 3.397861e+00 1.926451e+01 4.710395e+00
         vertex 3.318402e+00 1.916708e+01 4.675321e+00
      endloop
   endfacet
   facet normal 7.933579e-01 -5.727704e-01 -2.061971e-01
      outer loop
         vertex 3.397861e+00 2.028067e+01 1.887735e+00
         vertex 3.318402e+00 1.916708e+01 4.675321e+00
         vertex 3.318402e+00 2.018324e+01 1.852658e+00
      endloop
   endfacet
   facet normal 6.087615e-01 -7.464562e-01 -2.687239e-01
      outer loop
         vertex 3.318402e+00 2.018324e+01 1.852658e+00
         vertex 3.318402e+00 1.916708e+01 4.675321e+00
         vertex 3.214848e+00 1.909232e+01 4.648406e+00
      endloop
   endfacet
   facet normal 6.087573e-01 -7.464592e-01 -2.687252e-01
      outer loop
         vertex 3.318402e+00 2.018324e+01 1.852658e+00
         vertex 3.214848e+00 1.909232e+01 4.648406e+00
         vertex 3.214848e+00 2.010848e+01 1.825742e+00
      endloop
   endfacet
   facet normal 3.826900e-01 -8.692641e-01 -3.129350e-01
      outer loop
         vertex 3.214848e+00 2.010848e+01 1.825742e+00
         vertex 3.214848e+00 1.909232e+01 4.648406e+00
         vertex 3.094258e+00 1.904532e+01 4.631486e+00
      endloop
   endfacet
   facet normal 3.826818e-01 -8.692672e-01 -3.129365e-01
      outer loop
         vertex 3.214848e+00 2.010848e+01 1.825742e+00
         vertex 3.094258e+00 1.904532e+01 4.631486e+00
         vertex 3.094258e+00 2.006148e+01 1.808826e+00
      endloop
   endfacet
   facet normal 1.305251e-01 -9.328380e-01 -3.358220e-01
      outer loop
         vertex 3.094258e+00 2.006148e+01 1.808826e+00
         vertex 3.094258e+00 1.904532e+01 4.631486e+00
         vertex 2.964848e+00 1.902929e+01 4.625715e+00
      endloop
   endfacet
   facet normal 1.305251e-01 -9.328380e-01 -3.358220e-01
      outer loop
         vertex 3.094258e+00 2.006148e+01 1.808826e+00
         vertex 2.964848e+00 1.902929e+01 4.625715e+00
         vertex 2.964848e+00 2.004545e+01 1.803055e+00
      endloop
   endfacet
   facet normal -1.305250e-01 -9.328380e-01 -3.358220e-01
      outer loop
         vertex 5.000250e-01 2.004545e+01 1.803055e+00
         vertex 5.000250e-01 1.902929e+01 4.625715e+00
         vertex 3.706155e-01 1.904532e+01 4.631486e+00
      endloop
   endfacet
   facet normal -1.305250e-01 -9.328380e-01 -3.358220e-01
      outer loop
         vertex 5.000250e-01 2.004545e+01 1.803055e+00
         vertex 3.706155e-01 1.904532e+01 4.631486e+00
         vertex 3.706155e-01 2.006148e+01 1.808826e+00
      endloop
   endfacet
   facet normal -3.826906e-01 -8.692637e-01 -3.129353e-01
      outer loop
         vertex 3.706155e-01 2.006148e+01 1.808826e+00
         vertex 3.706155e-01 1.904532e+01 4.631486e+00
         vertex 2.500250e-01 1.909232e+01 4.648406e+00
      endloop
   endfacet
   facet normal -3.826823e-01 -8.692671e-01 -3.129361e-01
      outer loop
         vertex 3.706155e-01 2.006148e+01 1.808826e+00
         vertex 2.500250e-01 1.909232e+01 4.648406e+00
         vertex 2.500250e-01 2.010848e+01 1.825742e+00
      endloop
   endfacet
   facet normal -6.087611e-01 -7.464564e-01 -2.687242e-01
      outer loop
         vertex 2.500250e-01 2.010848e+01 1.825742e+00
         vertex 2.500250e-01 1.909232e+01 4.648406e+00
         vertex 1.464716e-01 1.916708e+01 4.675321e+00
      endloop
   endfacet
   facet normal -6.087569e-01 -7.464596e-01 -2.687251e-01
      outer loop
         vertex 2.500250e-01 2.010848e+01 1.825742e+00
         vertex 1.464716e-01 1.916708e+01 4.675321e+00
         vertex 1.464716e-01 2.018324e+01 1.852658e+00
      endloop
   endfacet
   facet normal -7.933517e-01 -5.727780e-01 -2.061998e-01
      outer loop
         vertex 1.464716e-01 2.018324e+01 1.852658e+00
         vertex 1.464716e-01 1.916708e+01 4.675321e+00
         vertex 6.701230e-02 1.926451e+01 4.710395e+00
      endloop
   endfacet
   facet normal -7.933578e-01 -5.727704e-01 -2.061976e-01
      outer loop
         vertex 1.464716e-01 2.018324e+01 1.852658e+00
         vertex 6.701230e-02 1.926451e+01 4.710395e+00
         vertex 6.701230e-02 2.028067e+01 1.887735e+00
      endloop
   endfacet
   facet normal -9.238801e-01 -3.600606e-01 -1.296220e-01
      outer loop
         vertex 6.701230e-02 2.028067e+01 1.887735e+00
         vertex 6.701230e-02 1.926451e+01 4.710395e+00
         vertex 1.706209e-02 1.937797e+01 4.751243e+00
      endloop
   endfacet
   facet normal -9.238777e-01 -3.600662e-01 -1.296237e-01
      outer loop
         vertex 6.701230e-02 2.028067e+01 1.887735e+00
         vertex 1.706209e-02 1.937797e+01 4.751243e+00
         vertex 1.706209e-02 2.039413e+01 1.928579e+00
      endloop
   endfacet
   facet normal -9.914448e-01 -1.228107e-01 -4.421179e-02
      outer loop
         vertex 1.706209e-02 2.039413e+01 1.928579e+00
         vertex 1.706209e-02 1.937797e+01 4.751243e+00
         vertex 2.500000e-05 1.949973e+01 4.795074e+00
      endloop
   endfacet
   facet normal -9.914451e-01 -1.228087e-01 -4.421116e-02
      outer loop
         vertex 1.706209e-02 2.039413e+01 1.928579e+00
         vertex 2.500000e-05 1.949973e+01 4.795074e+00
         vertex 2.500000e-05 2.051589e+01 1.972415e+00
      endloop
   endfacet
   facet normal 1.305251e-01 9.328382e-01 3.358216e-01
      outer loop
         vertex 2.964848e+00 2.330546e+01 2.976656e+00
         vertex 2.964848e+00 2.228930e+01 5.799320e+00
         vertex 3.094258e+00 2.227327e+01 5.793549e+00
      endloop
   endfacet
   facet normal 1.305251e-01 9.328382e-01 3.358216e-01
      outer loop
         vertex 2.964848e+00 2.330546e+01 2.976656e+00
         vertex 3.094258e+00 2.227327e+01 5.793549e+00
         vertex 3.094258e+00 2.328943e+01 2.970885e+00
      endloop
   endfacet
   facet normal 3.826900e-01 8.692641e-01 3.129350e-01
      outer loop
         vertex 3.094258e+00 2.328943e+01 2.970885e+00
         vertex 3.094258e+00 2.227327e+01 5.793549e+00
         vertex 3.214848e+00 2.222627e+01 5.776629e+00
      endloop
   endfacet
   facet normal 3.826900e-01 8.692641e-01 3.129350e-01
      outer loop
         vertex 3.094258e+00 2.328943e+01 2.970885e+00
         vertex 3.214848e+00 2.222627e+01 5.776629e+00
         vertex 3.214848e+00 2.324243e+01 2.953965e+00
      endloop
   endfacet
   facet normal 6.087573e-01 7.464592e-01 2.687252e-01
      outer loop
         vertex 3.214848e+00 2.324243e+01 2.953965e+00
         vertex 3.214848e+00 2.222627e+01 5.776629e+00
         vertex 3.318402e+00 2.215151e+01 5.749714e+00
      endloop
   endfacet
   facet normal 6.087597e-01 7.464575e-01 2.687245e-01
      outer loop
         vertex 3.214848e+00 2.324243e+01 2.953965e+00
         vertex 3.318402e+00 2.215151e+01 5.749714e+00
         vertex 3.318402e+00 2.316767e+01 2.927054e+00
      endloop
   endfacet
   facet normal 7.933543e-01 5.727748e-01 2.061988e-01
      outer loop
         vertex 3.318402e+00 2.316767e+01 2.927054e+00
         vertex 3.318402e+00 2.215151e+01 5.749714e+00
         vertex 3.397861e+00 2.205408e+01 5.714640e+00
      endloop
   endfacet
   facet normal 7.933529e-01 5.727765e-01 2.061995e-01
      outer loop
         vertex 3.318402e+00 2.316767e+01 2.927054e+00
         vertex 3.397861e+00 2.205408e+01 5.714640e+00
         vertex 3.397861e+00 2.307023e+01 2.891976e+00
      endloop
   endfacet
   facet normal 9.238788e-01 3.600636e-01 1.296229e-01
      outer loop
         vertex 3.397861e+00 2.307023e+01 2.891976e+00
         vertex 3.397861e+00 2.205408e+01 5.714640e+00
         vertex 3.447811e+00 2.194061e+01 5.673792e+00
      endloop
   endfacet
   facet normal 9.238774e-01 3.600668e-01 1.296242e-01
      outer loop
         vertex 3.397861e+00 2.307023e+01 2.891976e+00
         vertex 3.447811e+00 2.194061e+01 5.673792e+00
         vertex 3.447811e+00 2.295677e+01 2.851132e+00
      endloop
   endfacet
   facet normal 9.914451e-01 1.228086e-01 4.421115e-02
      outer loop
         vertex 3.447811e+00 2.295677e+01 2.851132e+00
         vertex 3.447811e+00 2.194061e+01 5.673792e+00
         vertex 3.464848e+00 2.181885e+01 5.629960e+00
      endloop
   endfacet
   facet normal 9.914453e-01 1.228075e-01 4.421068e-02
      outer loop
         vertex 3.447811e+00 2.295677e+01 2.851132e+00
         vertex 3.464848e+00 2.181885e+01 5.629960e+00
         vertex 3.464848e+00 2.283501e+01 2.807297e+00
      endloop
   endfacet
   facet normal -9.914449e-01 1.228099e-01 4.421154e-02
      outer loop
         vertex 2.500000e-05 2.283501e+01 2.807297e+00
         vertex 2.500000e-05 2.181885e+01 5.629960e+00
         vertex 1.706209e-02 2.194061e+01 5.673792e+00
      endloop
   endfacet
   facet normal -9.914451e-01 1.228087e-01 4.421116e-02
      outer loop
         vertex 2.500000e-05 2.283501e+01 2.807297e+00
         vertex 1.706209e-02 2.194061e+01 5.673792e+00
         vertex 1.706209e-02 2.295677e+01 2.851132e+00
      endloop
   endfacet
   facet normal -9.238791e-01 3.600629e-01 1.296228e-01
      outer loop
         vertex 1.706209e-02 2.295677e+01 2.851132e+00
         vertex 1.706209e-02 2.194061e+01 5.673792e+00
         vertex 6.701230e-02 2.205408e+01 5.714640e+00
      endloop
   endfacet
   facet normal -9.238777e-01 3.600661e-01 1.296238e-01
      outer loop
         vertex 1.706209e-02 2.295677e+01 2.851132e+00
         vertex 6.701230e-02 2.205408e+01 5.714640e+00
         vertex 6.701230e-02 2.307023e+01 2.891976e+00
      endloop
   endfacet
   facet normal -7.933542e-01 5.727749e-01 2.061989e-01
      outer loop
         vertex 6.701230e-02 2.307023e+01 2.891976e+00
         vertex 6.701230e-02 2.205408e+01 5.714640e+00
         vertex 1.464716e-01 2.215151e+01 5.749714e+00
      endloop
   endfacet
   facet normal -7.933528e-01 5.727766e-01 2.061994e-01
      outer loop
         vertex 6.701230e-02 2.307023e+01 2.891976e+00
         vertex 1.464716e-01 2.215151e+01 5.749714e+00
         vertex 1.464716e-01 2.316767e+01 2.927054e+00
      endloop
   endfacet
   facet normal -6.087569e-01 7.464595e-01 2.687252e-01
      outer loop
         vertex 1.464716e-01 2.316767e+01 2.927054e+00
         vertex 1.464716e-01 2.215151e+01 5.749714e+00
         vertex 2.500250e-01 2.222627e+01 5.776629e+00
      endloop
   endfacet
   facet normal -6.087593e-01 7.464578e-01 2.687247e-01
      outer loop
         vertex 1.464716e-01 2.316767e+01 2.927054e+00
         vertex 2.500250e-01 2.222627e+01 5.776629e+00
         vertex 2.500250e-01 2.324243e+01 2.953965e+00
      endloop
   endfacet
   facet normal -3.826906e-01 8.692639e-01 3.129349e-01
      outer loop
         vertex 2.500250e-01 2.324243e+01 2.953965e+00
         vertex 2.500250e-01 2.222627e+01 5.776629e+00
         vertex 3.706155e-01 2.227327e+01 5.793549e+00
      endloop
   endfacet
   facet normal -3.826906e-01 8.692639e-01 3.129349e-01
      outer loop
         vertex 2.500250e-01 2.324243e+01 2.953965e+00
         vertex 3.706155e-01 2.227327e+01 5.793549e+00
         vertex 3.706155e-01 2.328943e+01 2.970885e+00
      endloop
   endfacet
   facet normal -1.305250e-01 9.328382e-01 3.358216e-01
      outer loop
         vertex 3.706155e-01 2.328943e+01 2.970885e+00
         vertex 3.706155e-01 2.227327e+01 5.793549e+00
         vertex 5.000250e-01 2.228930e+01 5.799320e+00
      endloop
   endfacet
   facet normal -1.305250e-01 9.328382e-01 3.358216e-01
      outer loop
         vertex 3.706155e-01 2.328943e+01 2.970885e+00
         vertex 5.000250e-01 2.228930e+01 5.799320e+00
         vertex 5.000250e-01 2.330546e+01 2.976656e+00
      endloop
   endfacet
endsolid